<svg xmlns="http://www.w3.org/2000/svg" xmlns:xlink="http://www.w3.org/1999/xlink" width="110" zoomAndPan="magnify" viewBox="0 0 82.5 101.249998" height="135" preserveAspectRatio="xMidYMid meet" version="1.0"><path fill="#00ff00" d="M 17.5 8.808594 C 17.605469 7.980469 18.808594 7.980469 18.914062 8.808594 C 19.738281 15.261719 24.816406 20.339844 31.269531 21.160156 C 32.101562 21.269531 32.101562 22.472656 31.269531 22.578125 C 24.820312 23.402344 19.738281 28.480469 18.914062 34.929688 C 18.808594 35.761719 17.605469 35.761719 17.5 34.929688 C 16.675781 28.480469 11.597656 23.402344 5.144531 22.578125 C 4.316406 22.472656 4.316406 21.269531 5.144531 21.160156 C 11.597656 20.339844 16.675781 15.261719 17.5 8.808594 Z M 17.5 8.808594 " fill-opacity="1" fill-rule="nonzero"/><path fill="#00ff00" d="M 47.175781 24.886719 C 47.367188 23.390625 49.539062 23.390625 49.726562 24.886719 C 51.457031 38.4375 62.128906 49.113281 75.679688 50.839844 C 77.179688 51.03125 77.179688 53.199219 75.679688 53.390625 C 62.128906 55.121094 51.457031 65.792969 49.726562 79.34375 C 49.539062 80.84375 47.367188 80.84375 47.175781 79.34375 C 45.449219 65.792969 34.777344 55.121094 21.222656 53.390625 C 19.726562 53.199219 19.726562 51.03125 21.222656 50.839844 C 34.777344 49.113281 45.449219 38.4375 47.175781 24.886719 Z M 47.175781 24.886719 " fill-opacity="1" fill-rule="nonzero"/></svg>