<svg xmlns="http://www.w3.org/2000/svg" width="97.848" height="58.513" viewBox="0 0 97.848 58.513">
  <g id="Amazon_Web_Services_Logo" transform="translate(-1.668 -1.1)">
    <path id="Path_257375" data-name="Path 257375" d="M37.629,22.351a9.846,9.846,0,0,0,.358,2.9,17.419,17.419,0,0,0,1.041,2.343,1.416,1.416,0,0,1,.228.748,1.288,1.288,0,0,1-.618.976l-2.05,1.367a1.56,1.56,0,0,1-.846.293,1.5,1.5,0,0,1-.976-.456,10.068,10.068,0,0,1-1.172-1.53c-.325-.553-.651-1.172-1.009-1.92a12.022,12.022,0,0,1-9.568,4.491,8.917,8.917,0,0,1-6.509-2.343A8.36,8.36,0,0,1,14.1,22.969a8.377,8.377,0,0,1,2.961-6.7,11.839,11.839,0,0,1,7.973-2.538,25.766,25.766,0,0,1,3.45.26c1.2.163,2.441.423,3.742.716V12.327c0-2.473-.521-4.2-1.53-5.207-1.041-1.009-2.8-1.5-5.3-1.5a14.807,14.807,0,0,0-3.515.423,25.931,25.931,0,0,0-3.515,1.106,9.337,9.337,0,0,1-1.139.423,2,2,0,0,1-.521.1c-.456,0-.683-.325-.683-1.009V5.07a2.059,2.059,0,0,1,.228-1.139,2.437,2.437,0,0,1,.911-.683,18.736,18.736,0,0,1,4.1-1.464,19.73,19.73,0,0,1,5.077-.618c3.873,0,6.7.879,8.526,2.636,1.79,1.757,2.7,4.426,2.7,8.006V22.351ZM24.416,27.3a10.547,10.547,0,0,0,3.352-.586,7.252,7.252,0,0,0,3.092-2.083,5.166,5.166,0,0,0,1.106-2.083,11.683,11.683,0,0,0,.325-2.831V18.348a27.177,27.177,0,0,0-2.994-.553,24.522,24.522,0,0,0-3.059-.2,7.5,7.5,0,0,0-4.849,1.3A4.536,4.536,0,0,0,19.8,22.644a4.543,4.543,0,0,0,1.2,3.45A4.513,4.513,0,0,0,24.416,27.3Zm26.132,3.515a1.817,1.817,0,0,1-1.237-.325,2.652,2.652,0,0,1-.683-1.269L40.981,4.061a5.7,5.7,0,0,1-.293-1.3.714.714,0,0,1,.781-.814h3.189a1.8,1.8,0,0,1,1.269.325,2.663,2.663,0,0,1,.651,1.269l5.467,21.544L57.122,3.541a2.283,2.283,0,0,1,.618-1.269,2.239,2.239,0,0,1,1.3-.325h2.6a1.958,1.958,0,0,1,1.3.325,2.193,2.193,0,0,1,.618,1.269l5.142,21.8,5.63-21.8a2.791,2.791,0,0,1,.651-1.269,2.123,2.123,0,0,1,1.269-.325h3.027a.723.723,0,0,1,.814.814,3.245,3.245,0,0,1-.065.521,4.63,4.63,0,0,1-.228.814L71.962,29.25a2.5,2.5,0,0,1-.683,1.269,2.082,2.082,0,0,1-1.237.325h-2.8a1.958,1.958,0,0,1-1.3-.325,2.307,2.307,0,0,1-.618-1.3L60.279,8.227,55.267,29.185a2.54,2.54,0,0,1-.618,1.3,2.017,2.017,0,0,1-1.3.325Zm41.818.879a21.535,21.535,0,0,1-5.012-.586,14.8,14.8,0,0,1-3.742-1.3,2.345,2.345,0,0,1-1.009-.911,2.3,2.3,0,0,1-.2-.911v-1.66c0-.683.26-1.009.749-1.009a1.843,1.843,0,0,1,.586.1c.2.065.488.2.814.325a17.7,17.7,0,0,0,3.58,1.139,19.543,19.543,0,0,0,3.873.391,8.78,8.78,0,0,0,4.751-1.074A3.5,3.5,0,0,0,98.452,23.1a3.169,3.169,0,0,0-.879-2.278,8.165,8.165,0,0,0-3.287-1.692l-4.719-1.464a9.926,9.926,0,0,1-5.207-3.319,7.753,7.753,0,0,1-1.627-4.719,7.243,7.243,0,0,1,.879-3.612,8.368,8.368,0,0,1,2.343-2.669A10.329,10.329,0,0,1,89.34,1.653a14.184,14.184,0,0,1,4.1-.553,16.337,16.337,0,0,1,2.18.13c.748.1,1.432.228,2.115.358.651.163,1.269.325,1.855.521a7.1,7.1,0,0,1,1.367.586,2.814,2.814,0,0,1,.976.814,1.754,1.754,0,0,1,.293,1.074v1.53c0,.683-.26,1.041-.748,1.041a3.385,3.385,0,0,1-1.237-.391,14.888,14.888,0,0,0-6.248-1.269,8.4,8.4,0,0,0-4.328.911,3.142,3.142,0,0,0-1.53,2.9,3.073,3.073,0,0,0,.976,2.311,9.721,9.721,0,0,0,3.58,1.79l4.621,1.464a9.9,9.9,0,0,1,5.044,3.124,7.364,7.364,0,0,1,1.5,4.556,8.366,8.366,0,0,1-.846,3.775,8.752,8.752,0,0,1-2.376,2.864,10.49,10.49,0,0,1-3.612,1.822A15.475,15.475,0,0,1,92.366,31.691Z" transform="translate(-8.386)" fill="#252f3e"/>
    <g id="Group_175719" data-name="Group 175719" transform="translate(1.668 37.578)">
      <path id="Path_257376" data-name="Path 257376" d="M90.131,127.135c-10.707,7.908-26.262,12.106-39.638,12.106A71.709,71.709,0,0,1,2.1,120.789c-1.009-.911-.1-2.148,1.106-1.432a97.593,97.593,0,0,0,48.424,12.855,96.633,96.633,0,0,0,36.937-7.55C90.359,123.848,91.888,125.833,90.131,127.135Z" transform="translate(-1.668 -117.206)" fill="#f90" fill-rule="evenodd"/>
      <path id="Path_257377" data-name="Path 257377" d="M259.4,118.044c-1.367-1.757-9.047-.846-12.529-.423-1.041.13-1.2-.781-.26-1.464,6.118-4.3,16.174-3.059,17.346-1.627,1.172,1.464-.325,11.52-6.053,16.337-.879.749-1.725.358-1.334-.618C257.869,127.026,260.766,119.768,259.4,118.044Z" transform="translate(-166.477 -113.192)" fill="#f90" fill-rule="evenodd"/>
    </g>
  </g>
</svg>
