<svg xmlns="http://www.w3.org/2000/svg" width="227.949" height="65.67" viewBox="0 0 227.949 65.67">
  <g id="layer1" transform="translate(677.93 -313.854)">
    <g id="layer1-1" transform="translate(-677.93 313.854)">
      <path id="path21" d="M19.808,58.656C30.7,56.732,39.7,55.139,39.8,55.118l.188-.04L29.705,42.845c-5.656-6.728-10.284-12.258-10.284-12.29,0-.06,10.619-29.3,10.679-29.407.02-.035,7.247,12.442,17.518,30.244C57.234,48.058,65.162,61.8,65.235,61.929l.134.234-32.683,0L0,62.155l19.805-3.5ZM145.144,55.7c-4.975-.319-7.869-3.152-8.635-8.454-.2-1.411-.2-1.447-.226-10.6l-.02-8.863h4.4l.017,8.573c.016,7.726.025,8.632.1,9.176a8.129,8.129,0,0,0,1.913,4.754,5.487,5.487,0,0,0,3.083,1.616,11.726,11.726,0,0,0,2.957,0,6.535,6.535,0,0,0,3.351-1.82,8.859,8.859,0,0,0,2.258-4.33l.13-.582.014-8.645.014-8.645H159V55.054h-4.45V52.9a16.331,16.331,0,0,0-.05-2.14,1.772,1.772,0,0,0-.254.388,9.044,9.044,0,0,1-3.444,3.447,9.667,9.667,0,0,1-5.659,1.1Zm50.5-.022a11.665,11.665,0,0,1-5.117-1.671c-3.186-1.971-5.07-5.219-5.622-9.688a23.421,23.421,0,0,1-.055-4.939A16.046,16.046,0,0,1,188,31.5a16.1,16.1,0,0,1,1.9-1.9,11.865,11.865,0,0,1,4.861-2.32,15.8,15.8,0,0,1,3.942-.23,10.366,10.366,0,0,1,6.987,3.589,13.718,13.718,0,0,1,2.821,8.531c.019.559.024,1.538.01,2.176L208.5,42.5l-9.637.012-9.637.012v.43a10.657,10.657,0,0,0,.868,4.069,8.947,8.947,0,0,0,1.96,2.867,8.616,8.616,0,0,0,4.886,2.066,19.052,19.052,0,0,0,3.192-.123,13.53,13.53,0,0,0,6.018-2.483c.2-.15.391-.29.425-.311a8.133,8.133,0,0,1,.06,2.007l0,2.046-.455.282a15.95,15.95,0,0,1-6.458,2.239,37.078,37.078,0,0,1-4.082.061Zm8.387-17.254a8.757,8.757,0,0,0-2.232-5.883,6.133,6.133,0,0,0-3.4-1.65,10.054,10.054,0,0,0-2.641.075,6.9,6.9,0,0,0-3.6,1.916,9.821,9.821,0,0,0-2.385,3.818,12.255,12.255,0,0,0-.461,1.877l-.031.23h14.757ZM73.309,54.993c.011-.033,3.284-8.63,7.272-19.1l7.251-19.043h4.66l.193.5c.591,1.515,14.517,37.671,14.517,37.69s-1.115.022-2.479.022h-2.479l-2.007-5.344-2.007-5.344H82.068l-.07.181c-.039.1-.9,2.5-1.906,5.343l-1.835,5.162H75.772a13.391,13.391,0,0,1-2.463-.06ZM96.756,40.287c0-.008-1.351-3.67-3-8.137-3.089-8.357-3.261-8.86-3.505-10.2-.114-.629-.172-.647-.24-.073a13.339,13.339,0,0,1-.421,1.838c-.081.253-1.471,4.07-3.091,8.483s-2.944,8.042-2.944,8.065,2.971.041,6.6.041,6.6-.007,6.6-.015ZM108.7,54.358v-.7l8.052-11.069,8.052-11.069-7.29-.024-7.29-.024-.013-1.85-.013-1.85h21.088v1.25l-8.053,11.129c-4.429,6.121-8.053,11.139-8.053,11.152s3.58.023,7.956.023h7.956v3.724H108.7Zm59.085.664c-.018-.018-.032-6.155-.032-13.639V27.776h4.4v2.805c0,1.543.019,2.805.042,2.805a2.5,2.5,0,0,0,.238-.561,9.7,9.7,0,0,1,2.458-3.786,6.372,6.372,0,0,1,3.477-1.729,7.2,7.2,0,0,1,1.451-.053,6.426,6.426,0,0,1,2.019.282l.181.059v4.568l-.52-.26a5.553,5.553,0,0,0-2.914-.585,5.276,5.276,0,0,0-1.741.341,5.509,5.509,0,0,0-2.773,2.265,13.157,13.157,0,0,0-1.841,5.292c-.036.324-.057,2.96-.066,8.156l-.013,7.678h-2.168C168.794,55.054,167.8,55.039,167.787,55.021Zm-187.2-.1c0-.017,4.846-8.429,10.768-18.693L2.121,17.571,14.67,7.04C21.572,1.248,27.238-3.5,27.261-3.507a2.206,2.206,0,0,1-.2.508c-.134.288-6.266,13.44-13.627,29.228L.049,54.933l-9.732.012c-5.353.007-9.732,0-9.732-.019Z" transform="translate(19.415 3.507)" fill="#0089d6"/>
    </g>
  </g>
</svg>
