<svg xmlns="http://www.w3.org/2000/svg" width="171.09" height="88" viewBox="0 0 171.09 88">
  <g id="Group_176476" data-name="Group 176476" transform="translate(9.5 8.949)">
    <g id="sia-new-circle-logo-transparent-1" transform="translate(-9.5 -8.949)">
      <path id="Layer_2_1_" d="M0,0H88V88H0Z" fill="none"/>
      <g id="Layer_3" transform="translate(9.303 9.293)">
        <path id="Path_257339" data-name="Path 257339" d="M180.914,172.32v10.416H170.5a10.416,10.416,0,1,1,10.416-10.416M170.635,154.96a17.359,17.359,0,0,0-1.048,34.7,8.056,8.056,0,0,0,.911,0h17.359V172.526a17.493,17.493,0,0,0-17.222-17.566" transform="translate(-135.801 -137.613)" fill="#20ee82"/>
        <path id="Path_257340" data-name="Path 257340" d="M113.367,64.232a34.734,34.734,0,0,0-43.691-4.417,6.857,6.857,0,0,1,1,1.427,32.972,32.972,0,1,1-9.367,9.367,6.857,6.857,0,0,1-1.427-1,34.712,34.712,0,1,0,53.488-5.38" transform="translate(-54.127 -54.069)" fill="#7f8c8d"/>
        <path id="Path_257341" data-name="Path 257341" d="M95.5,95.493a3.476,3.476,0,1,1,.017,4.916,3.475,3.475,0,0,1-.017-4.916" transform="translate(-87.55 -87.53)" fill="#20ee82"/>
      </g>
    </g>
    <path id="sia-3" d="M69.172,38.045H58.945a10.376,10.376,0,1,1-.186-20.752h.074A10.5,10.5,0,0,1,69.172,27.818ZM58.8,10.376a17.293,17.293,0,1,0,0,34.586H76.09V27.669A17.284,17.284,0,0,0,58.8,10.376m-27.669,0h6.917V44.962H31.128Zm6.917-6.917a3.459,3.459,0,0,1-6.917,0,3.459,3.459,0,0,1,6.917,0M4.686,34.214A15.147,15.147,0,0,0,9.3,37.71a12.419,12.419,0,0,0,5.281,1.413,7.179,7.179,0,0,0,4.5-1.3,3.648,3.648,0,0,0,1.785-2.789A3.125,3.125,0,0,0,19.785,32.5a6.089,6.089,0,0,0-3.012-1.3L12.9,30.421c-4.277-.855-7.215-2.008-8.851-3.5A7.633,7.633,0,0,1,1.6,20.975a10,10,0,0,1,3.421-7.549,12.688,12.688,0,0,1,9.074-3.087,18.259,18.259,0,0,1,6.322,1.116,24.064,24.064,0,0,1,6.173,3.5l-2.008,2.529-1.9,2.417a14.367,14.367,0,0,0-4.426-2.864,11.626,11.626,0,0,0-4.054-.855,7.5,7.5,0,0,0-4.091,1.078,3.424,3.424,0,0,0-1.748,3.012c0,1.822,1.376,2.975,4.091,3.5L19.3,25.177c5.578,1.116,8.33,4.054,8.293,8.814a10.564,10.564,0,0,1-.818,3.831,10.751,10.751,0,0,1-2.455,3.57,11.576,11.576,0,0,1-4.24,2.6,16.413,16.413,0,0,1-5.988.93C9.074,44.888,4.314,42.917,0,39.049l4.686-4.835Z" transform="translate(85.5 7.642)" fill="#20ee82"/>
  </g>
</svg>
