<?xml version="1.0" encoding="UTF-8" standalone="no" ?>
<!DOCTYPE svg PUBLIC "-//W3C//DTD SVG 1.1//EN" "http://www.w3.org/Graphics/SVG/1.1/DTD/svg11.dtd">
<svg xmlns="http://www.w3.org/2000/svg" xmlns:xlink="http://www.w3.org/1999/xlink" version="1.1" width="1080" height="1080" viewBox="0 0 1080 1080" xml:space="preserve">
<g transform="matrix(2.67 0 0 2.28 540 540)" id="1b92390c-3643-4f89-9057-d05a5fcc2360"  >
<path style="stroke: rgb(0,0,0); stroke-width: 0; stroke-dasharray: none; stroke-linecap: butt; stroke-dashoffset: 0; stroke-linejoin: miter; stroke-miterlimit: 4; fill: rgb(242,245,242); fill-rule: nonzero; opacity: 1;" vector-effect="non-scaling-stroke"  transform=" translate(-202.75, -235.25)" d="M 379.9 -0.1 L 80.4 -0.1 L 80.4 0 C 67.7 1.5 58.00000000000001 12.2 58.00000000000001 25.2 L 58.00000000000001 36.4 C 58.00000000000001 49 48.60000000000001 59.7 36.60000000000001 61.8 L 25.500000000000007 61.8 C 11.5 61.7 0.1 73.1 0.1 87.1 L 0.1 105.39999999999999 C 0.1 106.89999999999999 0.2 108.39999999999999 0.5 109.89999999999999 L 0.5 445.29999999999995 C 0.5 459.29999999999995 11.9 470.69999999999993 25.9 470.69999999999993 L 380 470.69999999999993 C 394 470.69999999999993 405.4 459.29999999999995 405.4 445.29999999999995 L 405.4 25.2 C 405.4 11.2 394 -0.1999999999999993 380 -0.1999999999999993 Z" stroke-linecap="round" />
</g>
</svg>