<svg xmlns="http://www.w3.org/2000/svg" xmlns:xlink="http://www.w3.org/1999/xlink" width="242" zoomAndPan="magnify" viewBox="0 0 181.5 52.499999" height="70" preserveAspectRatio="xMidYMid meet" version="1.0"><defs><clipPath id="e786008f5b"><path d="M 0.609375 0 L 53 0 L 53 52 L 0.609375 52 Z M 0.609375 0 " clip-rule="nonzero"/></clipPath><clipPath id="bb4e2025fa"><path d="M 66 14 L 180.394531 14 L 180.394531 38 L 66 38 Z M 66 14 " clip-rule="nonzero"/></clipPath></defs><g clip-path="url(#e786008f5b)"><path fill="#000000" d="M 26.449219 51.875 C 25.597656 51.875 24.75 51.835938 23.90625 51.753906 C 23.0625 51.671875 22.222656 51.546875 21.390625 51.382812 C 20.554688 51.21875 19.734375 51.011719 18.921875 50.765625 C 18.109375 50.519531 17.308594 50.234375 16.523438 49.910156 C 15.738281 49.585938 14.972656 49.222656 14.222656 48.824219 C 13.476562 48.425781 12.746094 47.988281 12.042969 47.515625 C 11.335938 47.046875 10.652344 46.539062 9.996094 46 C 9.339844 45.460938 8.714844 44.894531 8.113281 44.292969 C 7.511719 43.691406 6.945312 43.0625 6.40625 42.40625 C 5.867188 41.75 5.363281 41.070312 4.890625 40.363281 C 4.417969 39.65625 3.984375 38.929688 3.585938 38.179688 C 3.183594 37.429688 2.824219 36.664062 2.5 35.878906 C 2.175781 35.09375 1.890625 34.292969 1.644531 33.480469 C 1.398438 32.667969 1.195312 31.847656 1.03125 31.011719 C 0.863281 30.179688 0.742188 29.339844 0.660156 28.496094 C 0.578125 27.652344 0.539062 26.804688 0.539062 25.953125 C 0.542969 25.105469 0.585938 24.257812 0.667969 23.414062 C 0.753906 22.570312 0.878906 21.730469 1.046875 20.898438 C 1.214844 20.066406 1.425781 19.242188 1.671875 18.429688 C 1.921875 17.621094 2.207031 16.820312 2.535156 16.039062 C 2.863281 15.253906 3.226562 14.488281 3.628906 13.742188 C 4.03125 12.992188 4.46875 12.265625 4.945312 11.5625 C 5.417969 10.859375 5.925781 10.179688 6.464844 9.523438 C 7.007812 8.871094 7.578125 8.242188 8.179688 7.644531 C 8.785156 7.046875 9.414062 6.480469 10.074219 5.941406 C 10.730469 5.40625 11.414062 4.902344 12.121094 4.433594 C 12.828125 3.964844 13.558594 3.53125 14.308594 3.136719 C 15.058594 2.738281 15.828125 2.378906 16.613281 2.058594 C 17.398438 1.734375 18.199219 1.453125 19.011719 1.210938 C 19.828125 0.96875 20.648438 0.765625 21.484375 0.605469 C 22.316406 0.441406 23.15625 0.320312 24.003906 0.242188 C 24.847656 0.164062 25.695312 0.125 26.542969 0.128906 C 27.394531 0.136719 28.238281 0.179688 29.085938 0.269531 C 29.929688 0.355469 30.765625 0.484375 31.597656 0.65625 C 32.429688 0.824219 33.253906 1.035156 34.0625 1.289062 C 34.875 1.539062 35.671875 1.828125 36.453125 2.160156 C 37.238281 2.488281 38 2.855469 38.746094 3.261719 C 39.492188 3.664062 40.21875 4.105469 40.921875 4.582031 C 41.625 5.058594 42.300781 5.566406 42.957031 6.109375 C 43.609375 6.652344 44.234375 7.226562 44.828125 7.832031 C 45.425781 8.4375 45.992188 9.066406 46.523438 9.726562 C 47.058594 10.386719 47.558594 11.074219 48.027344 11.78125 C 48.492188 12.492188 48.921875 13.222656 49.316406 13.972656 C 49.710938 14.726562 50.070312 15.496094 50.390625 16.28125 C 50.707031 17.070312 50.988281 17.871094 51.226562 18.683594 C 51.46875 19.5 51.667969 20.324219 51.828125 21.15625 C 51.984375 21.992188 52.101562 22.832031 52.179688 23.675781 C 52.253906 24.523438 52.289062 25.371094 52.285156 26.21875 C 52.277344 27.0625 52.230469 27.902344 52.140625 28.738281 C 52.054688 29.578125 51.925781 30.40625 51.753906 31.234375 C 51.585938 32.058594 51.375 32.871094 51.128906 33.675781 C 50.878906 34.480469 50.589844 35.273438 50.261719 36.050781 C 49.9375 36.824219 49.574219 37.585938 49.171875 38.324219 C 48.773438 39.066406 48.335938 39.785156 47.863281 40.484375 C 47.394531 41.183594 46.890625 41.855469 46.351562 42.503906 C 45.816406 43.15625 45.25 43.777344 44.652344 44.371094 C 44.054688 44.960938 43.429688 45.527344 42.773438 46.058594 C 42.121094 46.589844 41.445312 47.089844 40.742188 47.554688 C 40.042969 48.023438 39.320312 48.453125 38.574219 48.847656 C 37.832031 49.246094 37.070312 49.601562 36.292969 49.921875 C 35.511719 50.246094 34.722656 50.527344 33.914062 50.769531 C 33.109375 51.015625 32.292969 51.21875 31.464844 51.382812 C 30.640625 51.546875 29.808594 51.667969 28.96875 51.75 C 28.128906 51.832031 27.289062 51.875 26.449219 51.875 " fill-opacity="1" fill-rule="evenodd"/></g><path fill="#ffffff" d="M 29.65625 23.910156 L 36.382812 24.863281 L 36.921875 22.929688 L 29.964844 21.898438 C 30.769531 19.046875 31.464844 16.320312 32.335938 13.648438 C 32.6875 12.738281 33.210938 11.941406 33.914062 11.261719 C 34.003906 11.160156 34.105469 11.074219 34.214844 10.996094 C 34.328125 10.917969 34.445312 10.855469 34.574219 10.808594 C 34.699219 10.757812 34.832031 10.726562 34.964844 10.707031 C 35.097656 10.691406 35.234375 10.6875 35.367188 10.703125 C 35.503906 10.71875 35.632812 10.746094 35.761719 10.792969 C 35.890625 10.835938 36.007812 10.894531 36.125 10.96875 C 36.238281 11.042969 36.339844 11.128906 36.433594 11.226562 C 36.527344 11.324219 36.609375 11.429688 36.675781 11.546875 C 36.960938 11.972656 37.28125 12.375 37.628906 12.75 C 37.722656 12.867188 37.835938 12.96875 37.96875 13.042969 C 38.097656 13.121094 38.242188 13.167969 38.390625 13.191406 C 38.542969 13.210938 38.691406 13.203125 38.839844 13.167969 C 38.988281 13.132812 39.121094 13.066406 39.246094 12.980469 C 39.550781 12.691406 39.542969 12.015625 39.570312 11.507812 C 39.582031 11.304688 39.34375 11.0625 39.175781 10.875 C 38.78125 10.453125 38.316406 10.128906 37.785156 9.90625 C 37.25 9.679688 36.695312 9.570312 36.117188 9.582031 C 33.539062 9.472656 31.6875 10.789062 30.234375 12.777344 C 28.796875 14.75 28.164062 17.070312 27.476562 19.363281 C 27.277344 20.027344 27.105469 20.707031 26.902344 21.441406 L 19.507812 20.371094 C 19.417969 21.035156 19.335938 21.667969 19.25 22.335938 L 26.476562 23.449219 C 26.152344 24.820312 25.847656 26.101562 25.539062 27.414062 L 18.632812 26.449219 C 18.535156 27.183594 18.460938 27.738281 18.375 28.394531 L 25.066406 29.414062 C 25.082031 29.59375 25.082031 29.765625 25.0625 29.941406 C 24.355469 32.957031 23.699219 35.988281 22.90625 38.980469 C 22.589844 40.480469 21.867188 41.75 20.734375 42.785156 C 20.546875 42.984375 20.320312 43.132812 20.0625 43.222656 C 19.800781 43.316406 19.535156 43.347656 19.261719 43.3125 C 18.988281 43.28125 18.738281 43.1875 18.507812 43.035156 C 18.277344 42.882812 18.09375 42.6875 17.957031 42.449219 C 17.675781 41.953125 17.328125 41.507812 16.914062 41.117188 C 16.59375 40.878906 15.882812 40.738281 15.648438 40.925781 C 15.257812 41.296875 15.066406 41.75 15.078125 42.289062 C 15.183594 42.777344 15.441406 43.160156 15.851562 43.445312 C 16.4375 43.875 17.085938 44.15625 17.796875 44.292969 C 18.507812 44.429688 19.214844 44.40625 19.914062 44.226562 C 21.058594 44.003906 22.082031 43.527344 22.996094 42.800781 C 23.90625 42.074219 24.597656 41.183594 25.074219 40.121094 C 25.875 38.421875 26.554688 36.675781 27.105469 34.882812 C 27.636719 33.269531 27.996094 31.605469 28.445312 29.90625 L 35.496094 30.929688 C 35.695312 30.253906 35.867188 29.640625 36.058594 28.984375 L 28.839844 27.917969 C 29.125 26.515625 29.378906 25.269531 29.65625 23.914062 " fill-opacity="1" fill-rule="evenodd"/><g clip-path="url(#bb4e2025fa)"><path fill="#000000" d="M 70.621094 37.234375 L 70.621094 27.113281 L 81.910156 27.113281 L 81.910156 23.792969 L 70.621094 23.792969 L 70.621094 17.65625 L 82.605469 17.65625 L 82.605469 14.304688 L 66.605469 14.304688 L 66.605469 37.234375 Z M 88.976562 18.101562 L 88.976562 14.304688 L 85.214844 14.304688 L 85.214844 18.101562 Z M 88.976562 37.234375 L 88.976562 20.21875 L 85.214844 20.21875 L 85.214844 37.234375 Z M 96.972656 37.234375 L 96.972656 14.304688 L 93.210938 14.304688 L 93.210938 37.234375 Z M 108.84375 37.644531 C 109.703125 37.683594 110.542969 37.582031 111.367188 37.335938 C 112.1875 37.09375 112.949219 36.722656 113.648438 36.222656 C 114.347656 35.722656 114.949219 35.125 115.445312 34.425781 C 115.945312 33.726562 116.316406 32.964844 116.558594 32.140625 L 112.859375 32.140625 C 112.191406 33.753906 110.679688 34.515625 108.683594 34.515625 C 106.535156 34.515625 104.320312 32.964844 104.066406 29.804688 L 116.75 29.804688 C 117.097656 24.109375 113.804688 19.839844 108.589844 19.839844 C 103.785156 19.839844 100.242188 23.472656 100.242188 28.601562 C 100.238281 33.503906 103.371094 37.644531 108.839844 37.644531 Z M 112.921875 27.050781 L 104.070312 27.050781 C 104.082031 26.761719 104.121094 26.480469 104.191406 26.199219 C 104.257812 25.921875 104.351562 25.652344 104.46875 25.390625 C 104.589844 25.128906 104.734375 24.878906 104.902344 24.648438 C 105.070312 24.414062 105.257812 24.199219 105.464844 24 C 105.675781 23.804688 105.902344 23.628906 106.144531 23.472656 C 106.386719 23.320312 106.644531 23.191406 106.910156 23.085938 C 107.179688 22.980469 107.453125 22.902344 107.738281 22.851562 C 108.019531 22.800781 108.304688 22.777344 108.59375 22.78125 C 108.875 22.777344 109.15625 22.800781 109.433594 22.855469 C 109.710938 22.90625 109.980469 22.984375 110.242188 23.089844 C 110.507812 23.195312 110.753906 23.328125 110.992188 23.480469 C 111.226562 23.636719 111.449219 23.8125 111.648438 24.011719 C 111.851562 24.210938 112.03125 24.425781 112.1875 24.660156 C 112.347656 24.894531 112.480469 25.144531 112.589844 25.402344 C 112.699219 25.664062 112.78125 25.933594 112.839844 26.210938 C 112.894531 26.488281 112.921875 26.769531 112.925781 27.050781 Z M 127.464844 37.644531 C 131.097656 37.644531 134.613281 35.398438 135.371094 31.417969 L 131.703125 31.417969 C 131.195312 33.695312 129.394531 34.515625 127.527344 34.515625 C 125.3125 34.515625 123.164062 32.777344 123.164062 28.730469 C 123.164062 24.710938 125.25 22.972656 127.621094 22.972656 C 128.082031 22.949219 128.527344 23.007812 128.96875 23.144531 C 129.40625 23.28125 129.804688 23.492188 130.167969 23.773438 C 130.53125 24.054688 130.832031 24.390625 131.074219 24.78125 C 131.316406 25.171875 131.484375 25.589844 131.574219 26.039062 L 135.246094 26.039062 C 135.164062 25.601562 135.046875 25.171875 134.890625 24.75 C 134.738281 24.332031 134.546875 23.929688 134.316406 23.546875 C 134.089844 23.160156 133.832031 22.796875 133.539062 22.460938 C 133.25 22.121094 132.929688 21.808594 132.582031 21.527344 C 132.234375 21.246094 131.867188 20.996094 131.476562 20.78125 C 131.085938 20.5625 130.675781 20.382812 130.253906 20.238281 C 129.832031 20.09375 129.398438 19.988281 128.957031 19.921875 C 128.515625 19.855469 128.070312 19.828125 127.621094 19.839844 C 122.53125 19.839844 119.273438 23.695312 119.273438 28.757812 C 119.273438 33.824219 122.535156 37.644531 127.464844 37.644531 Z M 145.953125 37.644531 C 150.097656 37.644531 154.332031 34.925781 154.332031 28.757812 C 154.332031 22.621094 150.09375 19.839844 145.953125 19.839844 C 141.8125 19.839844 137.574219 22.621094 137.574219 28.757812 C 137.574219 34.925781 141.8125 37.644531 145.957031 37.644531 Z M 145.953125 34.578125 C 143.550781 34.578125 141.460938 32.710938 141.460938 28.757812 C 141.460938 24.835938 143.550781 22.90625 145.953125 22.90625 C 148.359375 22.90625 150.445312 24.835938 150.445312 28.757812 C 150.449219 32.710938 148.363281 34.578125 145.957031 34.578125 Z M 161.453125 18.101562 L 161.453125 14.304688 L 157.6875 14.304688 L 157.6875 18.101562 Z M 161.453125 37.230469 L 161.453125 20.21875 L 157.6875 20.21875 L 157.6875 37.234375 Z M 169.449219 37.230469 L 169.449219 28.183594 C 169.449219 25.117188 170.492188 22.902344 173.402344 22.902344 C 176.308594 22.902344 176.625 25.179688 176.625 27.457031 L 176.625 37.234375 L 180.398438 37.234375 L 180.398438 26.542969 C 180.398438 22.496094 178.71875 19.839844 174.609375 19.839844 C 172.207031 19.839844 170.433594 20.820312 169.453125 22.589844 L 169.453125 20.21875 L 165.691406 20.21875 L 165.691406 37.234375 Z M 169.449219 37.230469 " fill-opacity="1" fill-rule="nonzero"/></g></svg>