<svg id="_68747470733a2f2f626166796265696171646264357a626c35357835766a6d6b77706a6871617074336b73337134796b61636c716b616a68736477797a6c627a3367342e697066732e7733" data-name="68747470733a2f2f626166796265696171646264357a626c35357835766a6d6b77706a6871617074336b73337134796b61636c716b616a68736477797a6c627a3367342e697066732e7733" xmlns="http://www.w3.org/2000/svg" width="242.459" height="69.783" viewBox="0 0 242.459 69.783">
  <g id="Group_175705" data-name="Group 175705">
    <path id="Path_257336" data-name="Path 257336" d="M34.845,69.781a34.891,34.891,0,1,1,34.842-34.6,34.852,34.852,0,0,1-34.842,34.6" transform="translate(0.001 0.002)" fill="#0090ff" fill-rule="evenodd"/>
    <path id="Path_257337" data-name="Path 257337" d="M75.488,55.777l9.07,1.283.728-2.609-9.381-1.39c1.085-3.846,2.022-7.523,3.195-11.125a9.008,9.008,0,0,1,2.128-3.219,2.32,2.32,0,0,1,3.727.387,12.58,12.58,0,0,0,1.286,1.618,1.582,1.582,0,0,0,2.179.311c.413-.387.4-1.3.439-1.984.015-.275-.309-.6-.533-.853A5.536,5.536,0,0,0,84.2,36.451c-3.477-.146-5.972,1.63-7.932,4.313-1.941,2.66-2.793,5.787-3.719,8.877-.27.9-.5,1.816-.774,2.806L61.8,51c-.118.9-.229,1.751-.347,2.651l9.746,1.5C70.76,57,70.352,58.729,69.933,60.5l-9.314-1.3c-.13.991-.228,1.74-.344,2.621L69.3,63.2a3.74,3.74,0,0,1-.006.711c-.953,4.067-1.839,8.151-2.907,12.187a9.72,9.72,0,0,1-2.929,5.134,2.361,2.361,0,0,1-3.748-.454,7.684,7.684,0,0,0-1.409-1.8c-.431-.319-1.389-.511-1.706-.255a2.464,2.464,0,0,0-.768,1.838,2.584,2.584,0,0,0,1.043,1.561,6.543,6.543,0,0,0,5.48,1.054,9.689,9.689,0,0,0,6.959-5.541,53.9,53.9,0,0,0,2.741-7.064c.715-2.172,1.2-4.419,1.806-6.71l9.509,1.381c.264-.912.5-1.738.758-2.626L74.385,61.18c.386-1.889.73-3.571,1.1-5.4" transform="translate(-36.314 -23.705)" fill="#fff" fill-rule="evenodd"/>
  </g>
  <path id="Path_257338" data-name="Path 257338" d="M260.057,85.96V72.311h15.227V67.833H260.057V59.558h16.165V55.037H254.64V85.96Zm24.756-25.8V55.037h-5.076v5.118Zm0,25.8V63.013h-5.076V85.96Zm10.783,0V55.037h-5.076V85.96Zm16.008.554a10.378,10.378,0,0,0,10.407-7.421h-4.99c-.9,2.175-2.943,3.2-5.63,3.2-2.9,0-5.886-2.09-6.227-6.355h17.1c.469-7.677-3.967-13.435-11-13.435-6.483,0-11.26,4.9-11.26,11.814C300,80.927,304.226,86.514,311.6,86.514Zm5.5-14.288H305.165a6.03,6.03,0,0,1,6.1-5.758A5.77,5.77,0,0,1,317.107,72.226Zm19.612,14.288c4.9,0,9.639-3.028,10.663-8.4h-4.948c-.682,3.071-3.114,4.18-5.63,4.18-2.986,0-5.886-2.346-5.886-7.805,0-5.417,2.815-7.763,6.014-7.763a5.175,5.175,0,0,1,5.331,4.137h4.948a10.164,10.164,0,0,0-10.279-8.36c-6.867,0-11.26,5.2-11.26,12.028S330.066,86.514,336.719,86.514Zm24.935,0c5.587,0,11.3-3.668,11.3-11.985,0-8.274-5.715-12.028-11.3-12.028s-11.3,3.753-11.3,12.028C350.352,82.846,356.067,86.514,361.654,86.514Zm0-4.137c-3.242,0-6.057-2.516-6.057-7.848,0-5.289,2.815-7.891,6.057-7.891s6.056,2.6,6.056,7.891C367.711,79.86,364.9,82.377,361.654,82.377Zm20.9-22.221V55.037h-5.076v5.118Zm0,25.8V63.013h-5.076V85.96Zm10.783,0v-12.2c0-4.137,1.408-7.123,5.331-7.123s4.35,3.071,4.35,6.142V85.96H408.1V71.543c0-5.459-2.261-9.042-7.805-9.042-3.241,0-5.63,1.322-6.952,3.711v-3.2h-5.075V85.96Z" transform="translate(-165.64 -35.921)"/>
</svg>
