<svg xmlns="http://www.w3.org/2000/svg" xmlns:xlink="http://www.w3.org/1999/xlink" xml:space="preserve" version="1.1" style="shape-rendering:geometricPrecision;text-rendering:geometricPrecision;image-rendering:optimizeQuality;" viewBox="0 0 333.33 416.66249999999997" x="0px" y="0px" fill-rule="evenodd" clip-rule="evenodd">
  <defs>
    <style type="text/css">
   
    .fil0 {fill:black}
   
  </style>
  </defs>
  <g>
  <path class="fil0" d="M139.73 156.49l132.48 -132.48c3.74,-3.74 9.8,-3.74 13.53,0l41.41 41.42c3.74,3.74 3.74,9.8 0,13.53l-180.66 180.67c-3.74,3.74 -9.8,3.74 -13.53,0l-126.8 -126.79c-3.73,-3.74 -3.73,-9.8 0,-13.53l41.42 -41.42c3.74,-3.73 9.8,-3.73 13.53,0l78.61 78.61zm-104.18 155.64c-5.28,0 -9.57,-4.28 -9.57,-9.57 0,-5.28 4.29,-9.57 9.57,-9.57l205.82 0c5.28,0 9.57,4.28 9.57,9.57 0,5.28 -4.28,9.57 -9.57,9.57l-205.82 0z"/>
</g>
</svg>