<svg xmlns="http://www.w3.org/2000/svg" width="299.435" height="71.767" viewBox="0 0 299.435 71.767">
  <g id="Arweave_AR_" data-name="Arweave (AR)" transform="translate(-443 -896.6)">
    <path id="Path_257342" data-name="Path 257342" d="M1390.577,1088.438a5.47,5.47,0,0,1-.393-1.055,10.344,10.344,0,0,1-.269-1.257,8.144,8.144,0,0,1-1.213,1.078,9.233,9.233,0,0,1-1.538.9,8.526,8.526,0,0,1-1.83.573,9.545,9.545,0,0,1-2.178.224,10.615,10.615,0,0,1-3.5-.55,8.292,8.292,0,0,1-2.728-1.538,7.388,7.388,0,0,1,.483-11.35q2.93-2.156,8.723-2.156h3.548v-1.471a3.577,3.577,0,0,0-1.168-2.818,4.827,4.827,0,0,0-3.368-1.055,4.033,4.033,0,0,0-2.84.842,2.884,2.884,0,0,0-.9,2.223h-6.366a6.741,6.741,0,0,1,.685-3,7.553,7.553,0,0,1,2.043-2.492,10.159,10.159,0,0,1,3.278-1.7,14.205,14.205,0,0,1,4.446-.64,14.95,14.95,0,0,1,4.165.55,10.011,10.011,0,0,1,3.368,1.628,7.55,7.55,0,0,1,2.223,2.728,8.416,8.416,0,0,1,.8,3.783v10.621a18,18,0,0,0,.247,3.3,8.646,8.646,0,0,0,.73,2.245v.393h-6.444Zm-6.074-4.468a6.938,6.938,0,0,0,1.785-.224,7.147,7.147,0,0,0,1.493-.6,5.982,5.982,0,0,0,1.145-.82,4.345,4.345,0,0,0,.752-.966V1077.1h-3.256a9.241,9.241,0,0,0-2.537.3,4.52,4.52,0,0,0-1.718.8,3.177,3.177,0,0,0-.988,1.235,3.732,3.732,0,0,0-.325,1.56,2.84,2.84,0,0,0,.9,2.133A3.973,3.973,0,0,0,1384.5,1083.97Z" transform="translate(-824.258 -145.233)" fill="#222326"/>
    <path id="Path_257343" data-name="Path 257343" d="M1675.038,1063.2a16.24,16.24,0,0,1,2.661.2,13.647,13.647,0,0,1,1.987.415l-.943,6.343a24.358,24.358,0,0,0-5.074-.6,7.939,7.939,0,0,0-4.3,1.033,6.231,6.231,0,0,0-2.4,2.953v14.887H1660.6V1063.66h5.928l.3,4.053a11.335,11.335,0,0,1,3.615-3.3A9,9,0,0,1,1675.038,1063.2Z" transform="translate(-1078.238 -145.233)" fill="#222326"/>
    <path id="Path_257344" data-name="Path 257344" d="M1876.768,1084.22l2.156-17.02h5.838l-4.446,24.778h-5.591l-3.256-15.751-3.132,15.751h-5.591L1858.3,1067.2h5.815l2.156,17.087,3.11-17.087h4.255Z" transform="translate(-1253.743 -148.784)" fill="#222326"/>
    <path id="Path_257345" data-name="Path 257345" d="M2139.287,1088.809a13.783,13.783,0,0,1-5.2-.943,12.4,12.4,0,0,1-4.008-2.537,11.381,11.381,0,0,1-2.582-3.806,12.384,12.384,0,0,1-.9-4.693v-.921a14.393,14.393,0,0,1,.9-5.176,12.068,12.068,0,0,1,2.492-4.053,11.194,11.194,0,0,1,3.806-2.638,12.826,12.826,0,0,1,9.543-.045,9.759,9.759,0,0,1,3.548,2.47,10.623,10.623,0,0,1,2.223,3.873,15.461,15.461,0,0,1,.752,4.973v2.706h-16.806a7.433,7.433,0,0,0,.729,2.313,6.743,6.743,0,0,0,1.437,1.785,6.308,6.308,0,0,0,1.987,1.168,7.176,7.176,0,0,0,2.447.415,9.261,9.261,0,0,0,1.853-.18,9.972,9.972,0,0,0,1.785-.528,8.451,8.451,0,0,0,1.583-.9,5.8,5.8,0,0,0,1.28-1.235l3.188,3.436a9.268,9.268,0,0,1-1.561,1.673,10.891,10.891,0,0,1-2.245,1.448,14.262,14.262,0,0,1-2.863,1.01A14.572,14.572,0,0,1,2139.287,1088.809Zm-.752-20.545a4.872,4.872,0,0,0-1.965.393,4.723,4.723,0,0,0-1.583,1.078,6.35,6.35,0,0,0-1.123,1.7,9.02,9.02,0,0,0-.685,2.2h10.441v-.505a5.89,5.89,0,0,0-.393-1.9,4.315,4.315,0,0,0-.988-1.538,4.456,4.456,0,0,0-1.583-1.033A5.38,5.38,0,0,0,2138.534,1068.264Z" transform="translate(-1491.921 -145.144)" fill="#222326"/>
    <path id="Path_257346" data-name="Path 257346" d="M2394.177,1088.438a5.47,5.47,0,0,1-.393-1.055c-.1-.393-.2-.82-.269-1.257a8.141,8.141,0,0,1-1.213,1.078,9.211,9.211,0,0,1-1.538.9,8.525,8.525,0,0,1-1.83.573,9.544,9.544,0,0,1-2.178.224,10.615,10.615,0,0,1-3.5-.55,8.3,8.3,0,0,1-2.728-1.538,7.388,7.388,0,0,1,.483-11.35q2.93-2.156,8.723-2.156h3.548v-1.471a3.577,3.577,0,0,0-1.167-2.818,4.828,4.828,0,0,0-3.368-1.055,4.033,4.033,0,0,0-2.841.842,2.883,2.883,0,0,0-.9,2.223h-6.354a6.742,6.742,0,0,1,.685-3,7.557,7.557,0,0,1,2.043-2.492,10.166,10.166,0,0,1,3.278-1.7,14.256,14.256,0,0,1,4.446-.64,14.948,14.948,0,0,1,4.165.55,10.22,10.22,0,0,1,3.368,1.628,7.437,7.437,0,0,1,2.223,2.728,8.416,8.416,0,0,1,.8,3.783v10.621a17.866,17.866,0,0,0,.258,3.3,8.637,8.637,0,0,0,.73,2.245v.393h-6.467Zm-6.074-4.468a6.936,6.936,0,0,0,1.785-.224,6.807,6.807,0,0,0,1.482-.6,5.351,5.351,0,0,0,1.145-.82,4.349,4.349,0,0,0,.752-.966V1077.1h-3.256a9.386,9.386,0,0,0-2.549.3,4.6,4.6,0,0,0-1.718.8,3.081,3.081,0,0,0-.988,1.235,3.734,3.734,0,0,0-.325,1.56,2.8,2.8,0,0,0,.9,2.133A4.075,4.075,0,0,0,2388.1,1083.97Z" transform="translate(-1715.186 -145.233)" fill="#222326"/>
    <path id="Path_257347" data-name="Path 257347" d="M2632.491,1084.724l.325,1.785.326-1.718,5.445-17.491h6.646l-9.408,24.778h-5.973L2620.4,1067.3h6.646Z" transform="translate(-1930.282 -148.872)" fill="#222326"/>
    <path id="Path_257348" data-name="Path 257348" d="M2891.9,1088.809a13.782,13.782,0,0,1-5.2-.943,12.4,12.4,0,0,1-4.008-2.537,11.576,11.576,0,0,1-2.594-3.806,12.384,12.384,0,0,1-.9-4.693v-.921a14.393,14.393,0,0,1,.9-5.176,12.072,12.072,0,0,1,2.492-4.053,11.2,11.2,0,0,1,3.806-2.638,12.826,12.826,0,0,1,9.543-.045,9.662,9.662,0,0,1,3.548,2.47,10.616,10.616,0,0,1,2.223,3.873,15.461,15.461,0,0,1,.752,4.973v2.706h-16.807a7.433,7.433,0,0,0,.73,2.313,6.747,6.747,0,0,0,1.437,1.785,6.245,6.245,0,0,0,2,1.168,7.18,7.18,0,0,0,2.448.415,9.255,9.255,0,0,0,1.852-.18,9.978,9.978,0,0,0,1.785-.528,8.449,8.449,0,0,0,1.583-.9,5.816,5.816,0,0,0,1.28-1.235l3.177,3.436a9.275,9.275,0,0,1-1.56,1.673,10.891,10.891,0,0,1-2.245,1.448,14.22,14.22,0,0,1-6.242,1.392Zm-.752-20.545a4.873,4.873,0,0,0-1.965.393,4.726,4.726,0,0,0-1.583,1.078,6.367,6.367,0,0,0-1.123,1.7,9.031,9.031,0,0,0-.685,2.2h10.441v-.505a5.884,5.884,0,0,0-.393-1.9,4.315,4.315,0,0,0-.988-1.538,4.458,4.458,0,0,0-1.583-1.033A5.42,5.42,0,0,0,2891.146,1068.264Z" transform="translate(-2160.028 -145.144)" fill="#222326"/>
    <circle id="Ellipse_3015" data-name="Ellipse 3015" cx="32.884" cy="32.884" r="32.884" transform="translate(446 899.6)" fill="none" stroke="#222326" stroke-width="6"/>
    <path id="Path_257349" data-name="Path 257349" d="M660.618,1089.417a5.936,5.936,0,0,1-.4-1.1c-.112-.415-.2-.853-.292-1.313a8.237,8.237,0,0,1-1.269,1.123,9.254,9.254,0,0,1-1.605.932,8.554,8.554,0,0,1-1.92.6,10.448,10.448,0,0,1-2.279.236,11.218,11.218,0,0,1-3.66-.573,8.719,8.719,0,0,1-2.852-1.605,7.21,7.21,0,0,1-2.537-5.557,7.357,7.357,0,0,1,3.042-6.321q3.065-2.257,9.128-2.257h3.716v-1.538a3.7,3.7,0,0,0-1.224-2.941,5.121,5.121,0,0,0-3.525-1.1,4.209,4.209,0,0,0-2.975.887,3.019,3.019,0,0,0-.932,2.324h-6.657a7.12,7.12,0,0,1,.718-3.143,7.863,7.863,0,0,1,2.133-2.616,10.847,10.847,0,0,1,3.424-1.774A14.788,14.788,0,0,1,655.3,1063a15.845,15.845,0,0,1,4.356.573,10.722,10.722,0,0,1,3.525,1.7,7.9,7.9,0,0,1,2.324,2.852,8.79,8.79,0,0,1,.842,3.952v11.115a19.35,19.35,0,0,0,.258,3.447,8.855,8.855,0,0,0,.763,2.346v.4h-6.747Zm-6.343-4.67a7,7,0,0,0,1.864-.236,7.792,7.792,0,0,0,1.561-.618,5.78,5.78,0,0,0,1.2-.864,4.753,4.753,0,0,0,.786-1.01v-4.457h-3.4a9.71,9.71,0,0,0-2.661.314,4.77,4.77,0,0,0-1.8.842,3.282,3.282,0,0,0-1.033,1.291,3.876,3.876,0,0,0-.337,1.628,2.931,2.931,0,0,0,.932,2.223A4.13,4.13,0,0,0,654.275,1084.746Z" transform="translate(-175.593 -145.055)" fill="#222326"/>
  </g>
</svg>
