<svg xmlns="http://www.w3.org/2000/svg" xmlns:xlink="http://www.w3.org/1999/xlink" width="98" zoomAndPan="magnify" viewBox="0 0 73.5 44.249999" height="59" preserveAspectRatio="xMidYMid meet" version="1.0"><defs><clipPath id="e97ea46dbe"><path d="M 0.367188 28 L 67 28 L 67 43.511719 L 0.367188 43.511719 Z M 0.367188 28 " clip-rule="nonzero"/></clipPath><clipPath id="6626d34a1f"><path d="M 59 27 L 72.640625 27 L 72.640625 41 L 59 41 Z M 59 27 " clip-rule="nonzero"/></clipPath></defs><path fill="#000000" d="M 20.734375 15.84375 C 20.714844 16.570312 20.804688 17.285156 21 17.984375 C 21.214844 18.582031 21.46875 19.15625 21.769531 19.714844 C 21.878906 19.882812 21.933594 20.066406 21.9375 20.269531 C 21.90625 20.585938 21.753906 20.824219 21.480469 20.988281 L 19.964844 22 C 19.777344 22.132812 19.570312 22.207031 19.339844 22.214844 C 19.058594 22.195312 18.816406 22.082031 18.621094 21.878906 C 18.296875 21.53125 18.007812 21.152344 17.753906 20.75 C 17.515625 20.339844 17.273438 19.882812 17.007812 19.332031 C 16.152344 20.398438 15.101562 21.226562 13.859375 21.808594 C 12.617188 22.390625 11.3125 22.667969 9.941406 22.648438 C 9.054688 22.695312 8.195312 22.566406 7.363281 22.265625 C 6.527344 21.96875 5.785156 21.515625 5.132812 20.917969 C 4.527344 20.304688 4.070312 19.597656 3.761719 18.792969 C 3.453125 17.992188 3.316406 17.160156 3.355469 16.300781 C 3.320312 15.351562 3.496094 14.441406 3.878906 13.574219 C 4.261719 12.703125 4.816406 11.964844 5.542969 11.351562 C 6.378906 10.691406 7.300781 10.199219 8.316406 9.875 C 9.332031 9.554688 10.367188 9.417969 11.429688 9.476562 C 12.285156 9.484375 13.136719 9.546875 13.980469 9.667969 C 14.867188 9.789062 15.78125 9.980469 16.742188 10.195312 L 16.742188 8.4375 C 16.742188 6.613281 16.359375 5.335938 15.613281 4.59375 C 14.84375 3.847656 13.546875 3.484375 11.699219 3.484375 C 10.820312 3.484375 9.957031 3.589844 9.101562 3.796875 C 8.21875 4.007812 7.351562 4.28125 6.507812 4.613281 C 6.234375 4.738281 5.953125 4.839844 5.664062 4.925781 C 5.539062 4.96875 5.410156 4.992188 5.28125 5 C 4.941406 5 4.777344 4.761719 4.777344 4.253906 L 4.777344 3.078125 C 4.75 2.78125 4.804688 2.5 4.945312 2.238281 C 5.128906 2.015625 5.351562 1.847656 5.617188 1.734375 C 6.585938 1.253906 7.59375 0.894531 8.644531 0.652344 C 9.875 0.335938 11.125 0.183594 12.394531 0.195312 C 15.257812 0.195312 17.34375 0.84375 18.691406 2.140625 C 20.015625 3.441406 20.6875 5.410156 20.6875 8.054688 L 20.6875 15.84375 Z M 10.976562 19.5 C 11.824219 19.488281 12.648438 19.34375 13.449219 19.066406 C 14.347656 18.753906 15.109375 18.242188 15.734375 17.527344 C 16.128906 17.078125 16.398438 16.566406 16.550781 15.988281 C 16.71875 15.300781 16.796875 14.605469 16.792969 13.898438 L 16.792969 12.886719 C 16.0625 12.707031 15.324219 12.574219 14.582031 12.476562 C 13.832031 12.382812 13.078125 12.332031 12.320312 12.328125 C 11.011719 12.226562 9.820312 12.546875 8.738281 13.289062 C 8.335938 13.632812 8.03125 14.046875 7.824219 14.535156 C 7.617188 15.023438 7.53125 15.53125 7.566406 16.058594 C 7.488281 17.039062 7.785156 17.886719 8.453125 18.609375 C 9.164062 19.273438 10.003906 19.570312 10.976562 19.5 Z M 30.277344 22.09375 C 29.941406 22.128906 29.636719 22.050781 29.363281 21.855469 C 29.105469 21.589844 28.9375 21.277344 28.859375 20.917969 L 23.210938 2.332031 C 23.101562 2.023438 23.027344 1.703125 22.996094 1.371094 C 22.984375 1.292969 22.988281 1.214844 23.015625 1.136719 C 23.039062 1.058594 23.078125 0.988281 23.136719 0.929688 C 23.191406 0.871094 23.257812 0.828125 23.335938 0.800781 C 23.410156 0.773438 23.488281 0.761719 23.570312 0.773438 L 25.925781 0.773438 C 26.269531 0.730469 26.582031 0.808594 26.863281 1.011719 C 27.109375 1.28125 27.273438 1.59375 27.34375 1.949219 L 31.382812 17.863281 L 35.132812 1.949219 C 35.183594 1.585938 35.335938 1.273438 35.589844 1.011719 C 35.882812 0.832031 36.203125 0.75 36.550781 0.773438 L 38.46875 0.773438 C 38.820312 0.734375 39.140625 0.816406 39.429688 1.011719 C 39.6875 1.273438 39.839844 1.585938 39.886719 1.949219 L 43.683594 18.050781 L 47.84375 1.949219 C 47.921875 1.59375 48.082031 1.28125 48.324219 1.011719 C 48.609375 0.832031 48.921875 0.75 49.261719 0.773438 L 51.496094 0.773438 C 51.582031 0.761719 51.660156 0.769531 51.742188 0.792969 C 51.820312 0.820312 51.886719 0.863281 51.949219 0.921875 C 52.007812 0.980469 52.050781 1.050781 52.074219 1.128906 C 52.101562 1.210938 52.109375 1.289062 52.097656 1.371094 C 52.09375 1.503906 52.078125 1.628906 52.050781 1.757812 C 52.011719 1.964844 51.957031 2.164062 51.882812 2.359375 L 46.09375 20.9375 C 46.019531 21.300781 45.851562 21.613281 45.589844 21.875 C 45.3125 22.054688 45.007812 22.132812 44.675781 22.117188 L 42.609375 22.117188 C 42.257812 22.152344 41.9375 22.074219 41.648438 21.875 C 41.390625 21.605469 41.238281 21.285156 41.191406 20.917969 L 37.464844 5.410156 L 33.761719 20.890625 C 33.707031 21.257812 33.554688 21.574219 33.304688 21.851562 C 33.015625 22.042969 32.695312 22.125 32.347656 22.089844 Z M 61.167969 22.746094 C 59.914062 22.746094 58.679688 22.601562 57.464844 22.3125 C 56.5 22.117188 55.578125 21.796875 54.699219 21.351562 C 54.382812 21.203125 54.136719 20.976562 53.953125 20.679688 C 53.859375 20.464844 53.808594 20.238281 53.808594 20.003906 L 53.808594 18.777344 C 53.808594 18.273438 54 18.035156 54.359375 18.035156 C 54.507812 18.035156 54.652344 18.058594 54.792969 18.109375 C 54.941406 18.15625 55.152344 18.253906 55.394531 18.347656 C 56.246094 18.722656 57.128906 19.003906 58.039062 19.1875 C 58.984375 19.378906 59.9375 19.476562 60.898438 19.476562 C 62.144531 19.550781 63.316406 19.285156 64.410156 18.683594 C 64.808594 18.445312 65.121094 18.121094 65.34375 17.710938 C 65.570312 17.300781 65.675781 16.863281 65.660156 16.394531 C 65.679688 15.746094 65.460938 15.183594 65.011719 14.714844 C 64.300781 14.109375 63.492188 13.691406 62.585938 13.464844 L 59.097656 12.382812 C 57.550781 11.984375 56.265625 11.167969 55.253906 9.929688 C 54.457031 8.90625 54.054688 7.742188 54.050781 6.445312 C 54.03125 5.5 54.246094 4.609375 54.699219 3.777344 C 55.132812 2.996094 55.710938 2.335938 56.429688 1.804688 C 57.1875 1.234375 58.019531 0.816406 58.929688 0.554688 C 59.921875 0.269531 60.929688 0.132812 61.960938 0.144531 C 62.5 0.140625 63.035156 0.175781 63.570312 0.242188 C 64.121094 0.316406 64.628906 0.410156 65.132812 0.507812 C 65.613281 0.625 66.070312 0.746094 66.503906 0.890625 C 66.855469 1 67.191406 1.144531 67.511719 1.324219 C 67.796875 1.46875 68.039062 1.667969 68.234375 1.925781 C 68.394531 2.164062 68.464844 2.429688 68.449219 2.71875 L 68.449219 3.847656 C 68.449219 4.351562 68.257812 4.617188 67.898438 4.617188 C 67.574219 4.582031 67.269531 4.484375 66.984375 4.328125 C 65.511719 3.679688 63.976562 3.367188 62.367188 3.390625 C 61.242188 3.324219 60.175781 3.550781 59.171875 4.066406 C 58.796875 4.289062 58.507812 4.589844 58.304688 4.976562 C 58.101562 5.363281 58.011719 5.773438 58.039062 6.207031 C 58.027344 6.882812 58.265625 7.453125 58.761719 7.914062 C 59.550781 8.539062 60.433594 8.980469 61.40625 9.234375 L 64.820312 10.316406 C 66.304688 10.695312 67.542969 11.464844 68.546875 12.625 C 69.300781 13.621094 69.671875 14.742188 69.652344 15.988281 C 69.664062 16.96875 69.457031 17.898438 69.027344 18.777344 C 68.597656 19.609375 68.011719 20.316406 67.273438 20.894531 C 66.472656 21.515625 65.582031 21.964844 64.605469 22.238281 C 63.484375 22.582031 62.339844 22.75 61.167969 22.742188 Z M 61.167969 22.746094 " fill-opacity="1" fill-rule="nonzero"/><g clip-path="url(#e97ea46dbe)"><path fill="#000000" d="M 65.710938 34.425781 C 57.800781 40.265625 46.3125 43.367188 36.429688 43.367188 C 33.160156 43.382812 29.914062 43.101562 26.695312 42.515625 C 23.480469 41.929688 20.339844 41.058594 17.285156 39.890625 C 14.230469 38.726562 11.304688 37.289062 8.515625 35.582031 C 5.726562 33.875 3.113281 31.925781 0.6875 29.738281 C -0.0585938 29.0625 0.613281 28.148438 1.503906 28.679688 C 6.949219 31.792969 12.703125 34.152344 18.765625 35.761719 C 24.828125 37.371094 30.996094 38.175781 37.269531 38.175781 C 46.734375 38.125 55.828125 36.265625 64.554688 32.597656 C 65.878906 31.996094 67.007812 33.460938 65.710938 34.425781 Z M 65.710938 34.425781 " fill-opacity="1" fill-rule="evenodd"/></g><g clip-path="url(#6626d34a1f)"><path fill="#000000" d="M 69.003906 30.675781 C 67.992188 29.375 62.320312 30.050781 59.75 30.363281 C 58.980469 30.457031 58.863281 29.785156 59.558594 29.28125 C 64.078125 26.105469 71.503906 27.019531 72.371094 28.078125 C 73.234375 29.160156 72.128906 36.585938 67.898438 40.144531 C 67.25 40.699219 66.625 40.410156 66.914062 39.691406 C 67.871094 37.308594 70.011719 31.949219 69.003906 30.675781 Z M 69.003906 30.675781 " fill-opacity="1" fill-rule="evenodd"/></g></svg>