<svg xmlns="http://www.w3.org/2000/svg" xmlns:xlink="http://www.w3.org/1999/xlink" width="228" zoomAndPan="magnify" viewBox="0 0 171 49.499998" height="66" preserveAspectRatio="xMidYMid meet" version="1.0"><defs><clipPath id="a84210e409"><path d="M 0.855469 0 L 170.144531 0 L 170.144531 49 L 0.855469 49 Z M 0.855469 0 " clip-rule="nonzero"/></clipPath></defs><g clip-path="url(#a84210e409)"><path fill="#000000" d="M 29.984375 46.285156 C 38.074219 44.855469 44.757812 43.671875 44.832031 43.65625 L 44.972656 43.625 L 37.335938 34.542969 C 33.132812 29.542969 29.695312 25.4375 29.695312 25.414062 C 29.695312 25.371094 37.582031 3.652344 37.628906 3.574219 C 37.644531 3.546875 43.011719 12.8125 50.636719 26.035156 C 57.78125 38.414062 63.667969 48.617188 63.722656 48.714844 L 63.820312 48.886719 L 39.546875 48.886719 L 15.273438 48.882812 L 29.980469 46.28125 Z M 123.066406 44.089844 C 119.371094 43.851562 117.222656 41.746094 116.65625 37.808594 C 116.507812 36.761719 116.507812 36.734375 116.488281 29.9375 L 116.472656 23.355469 L 119.738281 23.355469 L 119.753906 29.722656 C 119.765625 35.460938 119.769531 36.132812 119.828125 36.535156 C 119.910156 37.871094 120.382812 39.046875 121.246094 40.066406 C 121.875 40.722656 122.640625 41.121094 123.535156 41.265625 C 124.269531 41.359375 125 41.359375 125.734375 41.265625 C 126.699219 41.070312 127.53125 40.621094 128.222656 39.914062 C 129.085938 39.003906 129.648438 37.933594 129.898438 36.699219 L 129.996094 36.269531 L 130.003906 29.847656 L 130.015625 23.425781 L 133.359375 23.425781 L 133.359375 43.609375 L 130.054688 43.609375 L 130.054688 42.007812 C 130.074219 41.476562 130.0625 40.949219 130.015625 40.417969 C 129.941406 40.507812 129.878906 40.601562 129.828125 40.707031 C 129.214844 41.800781 128.359375 42.652344 127.269531 43.265625 C 125.953125 43.976562 124.550781 44.25 123.066406 44.085938 Z M 160.570312 44.070312 C 159.207031 43.957031 157.941406 43.542969 156.773438 42.832031 C 154.40625 41.367188 153.007812 38.953125 152.597656 35.636719 C 152.453125 34.414062 152.441406 33.191406 152.554688 31.96875 C 152.800781 29.804688 153.582031 27.851562 154.894531 26.117188 C 155.324219 25.605469 155.796875 25.136719 156.304688 24.703125 C 157.375 23.851562 158.578125 23.273438 159.917969 22.980469 C 160.886719 22.800781 161.859375 22.746094 162.84375 22.8125 C 163.851562 22.898438 164.800781 23.171875 165.699219 23.632812 C 166.597656 24.09375 167.375 24.707031 168.03125 25.476562 C 168.726562 26.382812 169.253906 27.382812 169.613281 28.46875 C 169.972656 29.554688 170.144531 30.667969 170.128906 31.8125 C 170.140625 32.226562 170.144531 32.953125 170.136719 33.429688 L 170.121094 34.285156 L 162.960938 34.292969 L 155.804688 34.300781 L 155.804688 34.621094 C 155.820312 35.671875 156.035156 36.679688 156.449219 37.644531 C 156.796875 38.449219 157.28125 39.160156 157.90625 39.773438 C 158.949219 40.675781 160.160156 41.1875 161.535156 41.308594 C 162.328125 41.34375 163.117188 41.3125 163.90625 41.214844 C 165.546875 40.972656 167.035156 40.355469 168.375 39.371094 C 168.523438 39.261719 168.664062 39.15625 168.691406 39.140625 C 168.765625 39.636719 168.78125 40.132812 168.734375 40.632812 L 168.734375 42.152344 L 168.398438 42.359375 C 166.917969 43.265625 165.320312 43.820312 163.601562 44.023438 C 162.589844 44.09375 161.582031 44.109375 160.570312 44.070312 Z M 166.800781 31.257812 C 166.804688 30.453125 166.664062 29.671875 166.378906 28.917969 C 166.09375 28.164062 165.679688 27.488281 165.144531 26.890625 C 164.433594 26.207031 163.59375 25.800781 162.617188 25.664062 C 161.960938 25.59375 161.308594 25.613281 160.65625 25.71875 C 159.617188 25.917969 158.726562 26.390625 157.984375 27.140625 C 157.171875 27.949219 156.578125 28.894531 156.210938 29.976562 C 156.0625 30.433594 155.945312 30.898438 155.871094 31.371094 L 155.847656 31.542969 L 166.804688 31.542969 Z M 69.71875 43.5625 C 69.726562 43.539062 72.15625 37.152344 75.117188 29.378906 L 80.503906 15.234375 L 83.964844 15.234375 L 84.109375 15.605469 C 84.546875 16.730469 94.890625 43.582031 94.890625 43.597656 C 94.890625 43.613281 94.0625 43.613281 93.046875 43.613281 L 91.207031 43.613281 L 89.714844 39.644531 L 88.226562 35.675781 L 76.222656 35.675781 L 76.171875 35.8125 C 76.140625 35.886719 75.503906 37.667969 74.753906 39.777344 L 73.394531 43.613281 L 71.546875 43.613281 C 70.9375 43.652344 70.328125 43.640625 69.71875 43.566406 Z M 87.132812 32.640625 C 87.132812 32.636719 86.128906 29.914062 84.902344 26.597656 C 82.609375 20.390625 82.480469 20.019531 82.300781 19.023438 C 82.214844 18.554688 82.171875 18.542969 82.121094 18.96875 C 82.050781 19.429688 81.945312 19.886719 81.808594 20.332031 C 81.75 20.523438 80.71875 23.355469 79.515625 26.632812 C 78.3125 29.910156 77.328125 32.605469 77.328125 32.625 C 77.328125 32.640625 79.535156 32.652344 82.230469 32.652344 C 84.925781 32.652344 87.128906 32.648438 87.128906 32.644531 Z M 96 43.089844 L 96 42.570312 L 101.980469 34.351562 L 107.960938 26.128906 L 102.546875 26.113281 L 97.132812 26.09375 L 97.125 24.722656 L 97.113281 23.347656 L 112.777344 23.347656 L 112.777344 24.273438 L 106.792969 32.539062 C 103.503906 37.085938 100.8125 40.8125 100.8125 40.824219 C 100.8125 40.832031 103.472656 40.839844 106.722656 40.839844 L 112.632812 40.839844 L 112.632812 43.605469 L 96 43.605469 Z M 139.882812 43.585938 C 139.867188 43.570312 139.859375 39.011719 139.859375 33.457031 L 139.859375 23.351562 L 143.125 23.351562 L 143.125 25.433594 C 143.125 26.578125 143.140625 27.515625 143.15625 27.515625 C 143.234375 27.382812 143.292969 27.246094 143.335938 27.097656 C 143.71875 26.015625 144.328125 25.078125 145.160156 24.289062 C 145.882812 23.585938 146.742188 23.15625 147.742188 23.003906 C 148.101562 22.953125 148.457031 22.941406 148.820312 22.964844 C 149.332031 22.953125 149.832031 23.023438 150.320312 23.175781 L 150.453125 23.21875 L 150.453125 26.609375 L 150.066406 26.417969 C 149.386719 26.070312 148.664062 25.925781 147.902344 25.984375 C 147.457031 25.992188 147.027344 26.078125 146.609375 26.234375 C 145.730469 26.5625 145.042969 27.121094 144.550781 27.917969 C 143.808594 29.128906 143.351562 30.4375 143.183594 31.847656 C 143.15625 32.089844 143.140625 34.046875 143.132812 37.90625 L 143.125 43.609375 L 141.515625 43.609375 C 140.632812 43.609375 139.894531 43.597656 139.882812 43.582031 Z M 0.855469 43.511719 C 0.855469 43.496094 4.453125 37.25 8.851562 29.628906 L 16.847656 15.769531 L 26.167969 7.949219 C 31.292969 3.648438 35.503906 0.121094 35.519531 0.117188 C 35.484375 0.25 35.4375 0.375 35.371094 0.496094 C 35.273438 0.707031 30.71875 10.476562 25.25 22.199219 L 15.308594 43.519531 L 8.082031 43.527344 C 4.105469 43.53125 0.855469 43.527344 0.855469 43.511719 Z M 0.855469 43.511719 " fill-opacity="1" fill-rule="nonzero"/></g></svg>