<svg xmlns="http://www.w3.org/2000/svg" xmlns:xlink="http://www.w3.org/1999/xlink" width="171" zoomAndPan="magnify" viewBox="0 0 128.25 66" height="88" preserveAspectRatio="xMidYMid meet" version="1.0"><defs><clipPath id="086d2005c1"><path d="M 70 12 L 127.503906 12 L 127.503906 47 L 70 47 Z M 70 12 " clip-rule="nonzero"/></clipPath></defs><path fill="#000000" d="M 40.554688 33 L 40.554688 40.761719 L 32.792969 40.761719 C 32.28125 40.761719 31.777344 40.710938 31.277344 40.613281 C 30.777344 40.515625 30.292969 40.367188 29.820312 40.171875 C 29.351562 39.976562 28.902344 39.738281 28.480469 39.453125 C 28.054688 39.171875 27.664062 38.847656 27.304688 38.488281 C 26.941406 38.128906 26.621094 37.738281 26.339844 37.3125 C 26.054688 36.890625 25.816406 36.441406 25.621094 35.96875 C 25.425781 35.5 25.277344 35.015625 25.179688 34.515625 C 25.078125 34.015625 25.03125 33.507812 25.03125 33 C 25.03125 32.492188 25.078125 31.984375 25.179688 31.484375 C 25.277344 30.984375 25.425781 30.5 25.621094 30.03125 C 25.816406 29.558594 26.054688 29.109375 26.339844 28.6875 C 26.621094 28.261719 26.941406 27.871094 27.304688 27.511719 C 27.664062 27.152344 28.054688 26.828125 28.480469 26.546875 C 28.902344 26.261719 29.351562 26.023438 29.820312 25.828125 C 30.292969 25.632812 30.777344 25.484375 31.277344 25.386719 C 31.777344 25.289062 32.28125 25.238281 32.792969 25.238281 C 33.300781 25.238281 33.808594 25.289062 34.308594 25.386719 C 34.804688 25.484375 35.292969 25.632812 35.761719 25.828125 C 36.234375 26.023438 36.679688 26.261719 37.105469 26.546875 C 37.527344 26.828125 37.921875 27.152344 38.28125 27.511719 C 38.640625 27.871094 38.964844 28.261719 39.246094 28.6875 C 39.53125 29.109375 39.769531 29.558594 39.964844 30.03125 C 40.160156 30.5 40.304688 30.984375 40.40625 31.484375 C 40.503906 31.984375 40.554688 32.492188 40.554688 33 M 32.894531 20.0625 C 32.050781 20.046875 31.214844 20.113281 30.382812 20.261719 C 29.550781 20.40625 28.746094 20.632812 27.957031 20.941406 C 27.171875 21.246094 26.421875 21.625 25.710938 22.078125 C 25 22.527344 24.339844 23.046875 23.726562 23.628906 C 23.117188 24.207031 22.566406 24.84375 22.082031 25.53125 C 21.59375 26.222656 21.179688 26.949219 20.835938 27.71875 C 20.492188 28.492188 20.226562 29.285156 20.035156 30.109375 C 19.847656 30.929688 19.742188 31.761719 19.714844 32.605469 C 19.691406 33.449219 19.746094 34.285156 19.886719 35.117188 C 20.023438 35.949219 20.242188 36.761719 20.539062 37.550781 C 20.835938 38.339844 21.207031 39.09375 21.648438 39.808594 C 22.09375 40.527344 22.601562 41.195312 23.179688 41.8125 C 23.753906 42.429688 24.382812 42.984375 25.066406 43.480469 C 25.75 43.972656 26.472656 44.394531 27.238281 44.75 C 28.003906 45.101562 28.796875 45.375 29.617188 45.574219 C 30.4375 45.773438 31.269531 45.886719 32.113281 45.921875 C 32.339844 45.933594 32.566406 45.933594 32.789062 45.921875 L 45.726562 45.921875 L 45.726562 33.152344 C 45.730469 32.304688 45.652344 31.460938 45.492188 30.628906 C 45.332031 29.792969 45.089844 28.980469 44.769531 28.195312 C 44.449219 27.40625 44.058594 26.65625 43.589844 25.945312 C 43.125 25.238281 42.59375 24.578125 42 23.972656 C 41.40625 23.363281 40.757812 22.820312 40.054688 22.339844 C 39.355469 21.859375 38.613281 21.453125 37.832031 21.117188 C 37.050781 20.78125 36.246094 20.527344 35.414062 20.347656 C 34.582031 20.171875 33.742188 20.074219 32.894531 20.0625 " fill-opacity="1" fill-rule="nonzero"/><path fill="#000000" d="M 51.082031 14.707031 C 50.035156 13.664062 48.90625 12.714844 47.695312 11.859375 C 46.488281 11.007812 45.214844 10.265625 43.878906 9.628906 C 42.539062 8.996094 41.160156 8.480469 39.734375 8.082031 C 38.308594 7.6875 36.859375 7.414062 35.386719 7.265625 C 33.914062 7.117188 32.441406 7.09375 30.964844 7.195312 C 29.488281 7.300781 28.03125 7.53125 26.59375 7.882812 C 25.160156 8.238281 23.761719 8.710938 22.40625 9.304688 C 21.050781 9.898438 19.753906 10.601562 18.519531 11.417969 C 18.816406 11.738281 19.0625 12.09375 19.265625 12.480469 C 19.683594 12.203125 20.113281 11.941406 20.546875 11.691406 C 20.980469 11.441406 21.425781 11.203125 21.875 10.980469 C 22.324219 10.757812 22.777344 10.550781 23.242188 10.355469 C 23.703125 10.160156 24.171875 9.976562 24.644531 9.8125 C 25.117188 9.644531 25.59375 9.492188 26.078125 9.355469 C 26.5625 9.21875 27.046875 9.097656 27.535156 8.988281 C 28.027344 8.882812 28.519531 8.789062 29.015625 8.710938 C 29.511719 8.636719 30.007812 8.574219 30.507812 8.527344 C 31.007812 8.480469 31.507812 8.449219 32.011719 8.433594 C 32.511719 8.417969 33.011719 8.414062 33.515625 8.429688 C 34.015625 8.445312 34.515625 8.476562 35.015625 8.519531 C 35.515625 8.566406 36.015625 8.625 36.511719 8.703125 C 37.007812 8.777344 37.5 8.867188 37.988281 8.972656 C 38.480469 9.082031 38.964844 9.203125 39.449219 9.335938 C 39.933594 9.472656 40.410156 9.625 40.882812 9.789062 C 41.359375 9.953125 41.828125 10.132812 42.289062 10.328125 C 42.753906 10.519531 43.207031 10.730469 43.660156 10.949219 C 44.109375 11.171875 44.550781 11.40625 44.988281 11.65625 C 45.421875 11.90625 45.851562 12.167969 46.269531 12.441406 C 46.691406 12.71875 47.101562 13.003906 47.503906 13.304688 C 47.90625 13.605469 48.296875 13.917969 48.679688 14.242188 C 49.0625 14.566406 49.433594 14.902344 49.796875 15.25 C 50.160156 15.597656 50.511719 15.953125 50.851562 16.324219 C 51.191406 16.691406 51.519531 17.070312 51.835938 17.460938 C 52.15625 17.847656 52.460938 18.246094 52.753906 18.652344 C 53.046875 19.0625 53.324219 19.476562 53.59375 19.902344 C 53.859375 20.328125 54.113281 20.757812 54.355469 21.199219 C 54.59375 21.640625 54.824219 22.085938 55.035156 22.539062 C 55.25 22.996094 55.449219 23.453125 55.632812 23.921875 C 55.820312 24.386719 55.988281 24.859375 56.144531 25.335938 C 56.300781 25.8125 56.445312 26.292969 56.570312 26.777344 C 56.699219 27.265625 56.808594 27.753906 56.90625 28.246094 C 57.003906 28.738281 57.085938 29.234375 57.152344 29.730469 C 57.21875 30.226562 57.269531 30.726562 57.304688 31.226562 C 57.339844 31.726562 57.363281 32.226562 57.367188 32.730469 C 57.375 33.230469 57.363281 33.734375 57.335938 34.234375 C 57.3125 34.734375 57.273438 35.234375 57.214844 35.734375 C 57.160156 36.230469 57.089844 36.726562 57.003906 37.222656 C 56.914062 37.714844 56.8125 38.207031 56.699219 38.695312 C 56.582031 39.183594 56.449219 39.667969 56.304688 40.148438 C 56.15625 40.628906 55.996094 41.101562 55.820312 41.574219 C 55.648438 42.042969 55.457031 42.507812 55.253906 42.964844 C 55.050781 43.425781 54.832031 43.875 54.601562 44.320312 C 54.371094 44.765625 54.125 45.203125 53.867188 45.636719 C 53.609375 46.066406 53.335938 46.488281 53.054688 46.902344 C 52.769531 47.3125 52.472656 47.71875 52.164062 48.113281 C 51.855469 48.507812 51.535156 48.894531 51.203125 49.269531 C 50.871094 49.648438 50.527344 50.011719 50.171875 50.367188 C 49.816406 50.722656 49.453125 51.066406 49.074219 51.398438 C 48.699219 51.730469 48.316406 52.050781 47.917969 52.359375 C 47.523438 52.667969 47.121094 52.964844 46.707031 53.25 C 46.292969 53.53125 45.871094 53.804688 45.441406 54.0625 C 45.007812 54.320312 44.570312 54.566406 44.125 54.796875 C 43.679688 55.027344 43.230469 55.246094 42.769531 55.449219 C 42.3125 55.652344 41.847656 55.839844 41.378906 56.015625 C 40.90625 56.191406 40.433594 56.351562 39.953125 56.5 C 39.472656 56.644531 38.988281 56.777344 38.5 56.894531 C 38.011719 57.007812 37.523438 57.109375 37.027344 57.195312 C 36.535156 57.285156 36.035156 57.355469 35.539062 57.410156 C 35.039062 57.464844 34.539062 57.507812 34.039062 57.53125 C 33.539062 57.558594 33.035156 57.566406 32.535156 57.5625 C 32.03125 57.558594 31.53125 57.535156 31.03125 57.5 C 30.53125 57.464844 30.03125 57.414062 29.535156 57.347656 C 29.039062 57.28125 28.542969 57.199219 28.050781 57.101562 C 27.558594 57.003906 27.070312 56.890625 26.582031 56.765625 C 26.097656 56.640625 25.617188 56.496094 25.140625 56.339844 C 24.664062 56.183594 24.191406 56.015625 23.726562 55.828125 C 23.261719 55.644531 22.800781 55.445312 22.34375 55.230469 C 21.890625 55.015625 21.445312 54.789062 21.003906 54.550781 C 20.5625 54.308594 20.132812 54.054688 19.707031 53.789062 C 19.28125 53.519531 18.867188 53.238281 18.457031 52.945312 C 18.050781 52.65625 17.652344 52.347656 17.265625 52.03125 C 16.875 51.714844 16.496094 51.386719 16.128906 51.046875 C 15.757812 50.707031 15.402344 50.355469 15.054688 49.992188 C 14.707031 49.628906 14.371094 49.257812 14.046875 48.875 C 13.722656 48.492188 13.410156 48.097656 13.109375 47.699219 C 12.808594 47.296875 12.523438 46.882812 12.246094 46.464844 C 11.972656 46.046875 11.710938 45.617188 11.460938 45.183594 C 11.210938 44.746094 10.976562 44.304688 10.753906 43.855469 C 10.535156 43.402344 10.324219 42.949219 10.132812 42.484375 C 9.9375 42.023438 9.757812 41.554688 9.59375 41.078125 C 9.429688 40.605469 9.277344 40.128906 9.140625 39.644531 C 9.007812 39.160156 8.886719 38.675781 8.78125 38.183594 C 8.671875 37.695312 8.582031 37.199219 8.507812 36.703125 C 8.429688 36.210938 8.371094 35.710938 8.324219 35.210938 C 8.28125 34.710938 8.25 34.210938 8.234375 33.710938 C 8.21875 33.207031 8.222656 32.707031 8.238281 32.207031 C 8.253906 31.703125 8.285156 31.203125 8.332031 30.703125 C 8.378906 30.203125 8.441406 29.707031 8.515625 29.210938 C 8.59375 28.714844 8.6875 28.222656 8.792969 27.730469 C 8.902344 27.242188 9.023438 26.753906 9.160156 26.273438 C 9.296875 25.789062 9.449219 25.3125 9.617188 24.839844 C 9.78125 24.367188 9.964844 23.898438 10.160156 23.4375 C 10.355469 22.972656 10.5625 22.519531 10.785156 22.066406 C 11.007812 21.617188 11.246094 21.175781 11.496094 20.742188 C 11.746094 20.308594 12.007812 19.878906 12.285156 19.460938 C 11.898438 19.257812 11.542969 19.007812 11.222656 18.714844 C 10.773438 19.390625 10.359375 20.089844 9.976562 20.804688 C 9.59375 21.519531 9.246094 22.25 8.933594 23 C 8.621094 23.746094 8.339844 24.507812 8.097656 25.28125 C 7.859375 26.054688 7.652344 26.839844 7.484375 27.632812 C 7.316406 28.425781 7.183594 29.226562 7.09375 30.03125 C 7 30.839844 6.945312 31.648438 6.925781 32.457031 C 6.910156 33.269531 6.933594 34.078125 6.992188 34.886719 C 7.050781 35.695312 7.148438 36.5 7.28125 37.300781 C 7.417969 38.101562 7.589844 38.890625 7.796875 39.675781 C 8.007812 40.460938 8.253906 41.230469 8.535156 41.992188 C 8.816406 42.753906 9.136719 43.5 9.488281 44.230469 C 9.839844 44.960938 10.226562 45.671875 10.644531 46.367188 C 11.0625 47.0625 11.515625 47.734375 11.996094 48.386719 C 12.480469 49.039062 12.992188 49.667969 13.53125 50.269531 C 14.074219 50.875 14.644531 51.449219 15.238281 52 C 15.835938 52.550781 16.453125 53.074219 17.101562 53.566406 C 17.746094 54.058594 18.410156 54.515625 19.097656 54.945312 C 19.789062 55.375 20.496094 55.773438 21.21875 56.136719 C 21.945312 56.496094 22.6875 56.824219 23.441406 57.117188 C 24.199219 57.410156 24.96875 57.667969 25.746094 57.890625 C 26.527344 58.109375 27.316406 58.292969 28.117188 58.441406 C 28.914062 58.585938 29.714844 58.695312 30.523438 58.765625 C 31.332031 58.839844 32.140625 58.871094 32.953125 58.867188 C 33.765625 58.863281 34.574219 58.820312 35.378906 58.738281 C 36.1875 58.65625 36.988281 58.539062 37.785156 58.378906 C 38.582031 58.222656 39.367188 58.03125 40.144531 57.800781 C 40.921875 57.570312 41.6875 57.300781 42.441406 57 C 43.191406 56.699219 43.929688 56.359375 44.648438 55.988281 C 45.371094 55.617188 46.074219 55.210938 46.753906 54.773438 C 47.4375 54.335938 48.097656 53.867188 48.738281 53.367188 C 49.375 52.867188 49.992188 52.339844 50.578125 51.78125 C 51.167969 51.222656 51.730469 50.636719 52.265625 50.027344 C 52.796875 49.417969 53.300781 48.78125 53.777344 48.125 C 54.25 47.46875 54.691406 46.789062 55.101562 46.089844 C 55.515625 45.390625 55.890625 44.671875 56.234375 43.9375 C 56.578125 43.203125 56.882812 42.453125 57.15625 41.6875 C 57.429688 40.925781 57.664062 40.148438 57.863281 39.363281 C 58.0625 38.578125 58.226562 37.78125 58.351562 36.980469 C 58.476562 36.179688 58.5625 35.375 58.613281 34.566406 C 58.660156 33.753906 58.671875 32.945312 58.644531 32.132812 C 58.617188 31.324219 58.554688 30.515625 58.449219 29.710938 C 58.347656 28.90625 58.207031 28.109375 58.027344 27.316406 C 57.851562 26.527344 57.636719 25.746094 57.382812 24.972656 C 57.132812 24.203125 56.84375 23.445312 56.523438 22.699219 C 56.199219 21.957031 55.84375 21.230469 55.449219 20.519531 C 55.058594 19.808594 54.636719 19.117188 54.179688 18.449219 C 53.722656 17.777344 53.238281 17.128906 52.71875 16.503906 C 52.203125 15.878906 51.65625 15.28125 51.082031 14.707031 " fill-opacity="1" fill-rule="nonzero"/><path fill="#000000" d="M 12.859375 13.070312 C 13.101562 12.824219 13.378906 12.636719 13.695312 12.503906 C 14.011719 12.371094 14.34375 12.304688 14.6875 12.304688 C 15.03125 12.304688 15.359375 12.367188 15.679688 12.496094 C 15.996094 12.628906 16.277344 12.816406 16.519531 13.054688 C 16.765625 13.296875 16.953125 13.578125 17.085938 13.894531 C 17.21875 14.210938 17.285156 14.542969 17.285156 14.886719 C 17.289062 15.230469 17.222656 15.558594 17.09375 15.878906 C 16.960938 16.195312 16.777344 16.476562 16.535156 16.71875 C 16.292969 16.964844 16.011719 17.152344 15.695312 17.285156 C 15.378906 17.417969 15.046875 17.484375 14.703125 17.484375 C 14.359375 17.484375 14.03125 17.421875 13.710938 17.292969 C 13.394531 17.160156 13.113281 16.976562 12.871094 16.734375 C 12.625 16.492188 12.4375 16.210938 12.304688 15.894531 C 12.171875 15.578125 12.105469 15.246094 12.105469 14.902344 C 12.105469 14.558594 12.167969 14.230469 12.296875 13.910156 C 12.429688 13.59375 12.617188 13.3125 12.859375 13.070312 " fill-opacity="1" fill-rule="nonzero"/><g clip-path="url(#086d2005c1)"><path fill="#000000" d="M 122.347656 40.925781 L 114.726562 40.925781 C 114.21875 40.929688 113.714844 40.886719 113.21875 40.792969 C 112.71875 40.695312 112.234375 40.554688 111.761719 40.363281 C 111.292969 40.175781 110.84375 39.941406 110.417969 39.660156 C 109.996094 39.382812 109.601562 39.066406 109.238281 38.710938 C 108.875 38.355469 108.550781 37.96875 108.265625 37.546875 C 107.980469 37.128906 107.738281 36.683594 107.539062 36.21875 C 107.339844 35.75 107.191406 35.265625 107.085938 34.769531 C 106.984375 34.273438 106.929688 33.769531 106.925781 33.261719 C 106.921875 32.753906 106.964844 32.253906 107.058594 31.753906 C 107.15625 31.253906 107.296875 30.769531 107.488281 30.296875 C 107.675781 29.828125 107.910156 29.378906 108.191406 28.957031 C 108.46875 28.53125 108.785156 28.136719 109.140625 27.773438 C 109.496094 27.414062 109.882812 27.089844 110.304688 26.804688 C 110.722656 26.515625 111.167969 26.273438 111.632812 26.078125 C 112.101562 25.878906 112.585938 25.726562 113.082031 25.625 C 113.578125 25.519531 114.082031 25.464844 114.589844 25.460938 L 114.644531 25.460938 C 115.152344 25.46875 115.65625 25.527344 116.15625 25.632812 C 116.652344 25.738281 117.136719 25.890625 117.605469 26.09375 C 118.074219 26.292969 118.519531 26.539062 118.9375 26.824219 C 119.359375 27.113281 119.75 27.4375 120.105469 27.800781 C 120.464844 28.164062 120.78125 28.558594 121.0625 28.984375 C 121.339844 29.410156 121.578125 29.859375 121.769531 30.332031 C 121.960938 30.804688 122.105469 31.289062 122.203125 31.789062 C 122.300781 32.289062 122.351562 32.796875 122.347656 33.304688 Z M 114.617188 20.304688 C 113.773438 20.304688 112.933594 20.390625 112.105469 20.554688 C 111.273438 20.71875 110.46875 20.964844 109.6875 21.289062 C 108.90625 21.609375 108.164062 22.007812 107.460938 22.476562 C 106.753906 22.949219 106.105469 23.484375 105.507812 24.082031 C 104.90625 24.679688 104.375 25.332031 103.902344 26.035156 C 103.433594 26.738281 103.035156 27.480469 102.710938 28.261719 C 102.386719 29.042969 102.144531 29.847656 101.980469 30.679688 C 101.8125 31.507812 101.730469 32.347656 101.730469 33.195312 C 101.730469 34.039062 101.8125 34.878906 101.980469 35.707031 C 102.144531 36.539062 102.386719 37.34375 102.710938 38.125 C 103.035156 38.90625 103.433594 39.648438 103.902344 40.355469 C 104.375 41.058594 104.90625 41.707031 105.507812 42.308594 C 106.105469 42.90625 106.753906 43.4375 107.460938 43.910156 C 108.164062 44.378906 108.90625 44.777344 109.6875 45.101562 C 110.46875 45.425781 111.273438 45.667969 112.105469 45.832031 C 112.933594 46 113.773438 46.082031 114.617188 46.082031 L 127.503906 46.082031 L 127.503906 33.195312 C 127.503906 32.347656 127.421875 31.507812 127.257812 30.679688 C 127.09375 29.847656 126.847656 29.042969 126.523438 28.261719 C 126.203125 27.480469 125.804688 26.738281 125.335938 26.03125 C 124.863281 25.328125 124.332031 24.679688 123.734375 24.078125 C 123.132812 23.480469 122.484375 22.945312 121.78125 22.476562 C 121.074219 22.007812 120.332031 21.609375 119.550781 21.285156 C 118.769531 20.960938 117.964844 20.71875 117.132812 20.554688 C 116.304688 20.386719 115.464844 20.304688 114.617188 20.304688 M 94 20.304688 L 99.152344 20.304688 L 99.152344 46.082031 L 93.996094 46.082031 Z M 99.152344 15.152344 C 99.148438 15.488281 99.078125 15.8125 98.945312 16.125 C 98.8125 16.433594 98.625 16.707031 98.382812 16.945312 C 98.140625 17.183594 97.867188 17.363281 97.550781 17.492188 C 97.238281 17.621094 96.914062 17.683594 96.578125 17.683594 C 96.238281 17.683594 95.914062 17.621094 95.601562 17.492188 C 95.285156 17.363281 95.011719 17.183594 94.769531 16.945312 C 94.527344 16.707031 94.339844 16.433594 94.207031 16.125 C 94.074219 15.8125 94.003906 15.488281 94 15.152344 C 94.003906 14.8125 94.074219 14.488281 94.207031 14.179688 C 94.339844 13.867188 94.527344 13.59375 94.769531 13.355469 C 95.011719 13.121094 95.285156 12.9375 95.601562 12.808594 C 95.914062 12.679688 96.238281 12.617188 96.578125 12.617188 C 96.914062 12.617188 97.238281 12.679688 97.550781 12.808594 C 97.867188 12.9375 98.140625 13.121094 98.382812 13.355469 C 98.625 13.59375 98.8125 13.867188 98.945312 14.179688 C 99.078125 14.488281 99.148438 14.8125 99.152344 15.152344 M 74.289062 38.070312 C 75.269531 39.164062 76.414062 40.03125 77.730469 40.675781 C 78.960938 41.324219 80.273438 41.675781 81.664062 41.730469 C 82.894531 41.792969 84.011719 41.46875 85.019531 40.761719 C 85.394531 40.539062 85.699219 40.246094 85.933594 39.882812 C 86.167969 39.515625 86.304688 39.117188 86.347656 38.683594 C 86.390625 37.921875 86.121094 37.292969 85.542969 36.792969 C 84.886719 36.261719 84.136719 35.9375 83.296875 35.824219 L 80.414062 35.246094 C 77.226562 34.609375 75.035156 33.75 73.816406 32.636719 C 73.199219 32.066406 72.734375 31.398438 72.414062 30.621094 C 72.09375 29.847656 71.953125 29.042969 71.992188 28.207031 C 71.988281 27.128906 72.210938 26.097656 72.65625 25.117188 C 73.101562 24.132812 73.730469 23.289062 74.539062 22.578125 C 75.472656 21.769531 76.527344 21.164062 77.695312 20.765625 C 78.867188 20.367188 80.070312 20.207031 81.304688 20.277344 C 82.921875 20.277344 84.492188 20.550781 86.015625 21.109375 C 87.675781 21.75 89.210938 22.621094 90.613281 23.71875 L 89.117188 25.601562 L 87.703125 27.40625 C 86.734375 26.488281 85.636719 25.777344 84.402344 25.269531 C 83.433594 24.875 82.429688 24.664062 81.382812 24.632812 C 80.289062 24.601562 79.269531 24.871094 78.332031 25.4375 C 77.929688 25.664062 77.609375 25.980469 77.375 26.378906 C 77.140625 26.78125 77.027344 27.214844 77.03125 27.679688 C 77.03125 29.039062 78.054688 29.898438 80.078125 30.289062 L 85.183594 31.335938 C 89.339844 32.167969 91.390625 34.359375 91.363281 37.90625 C 91.339844 38.894531 91.136719 39.847656 90.753906 40.761719 C 90.324219 41.773438 89.714844 42.660156 88.921875 43.421875 C 88.011719 44.296875 86.957031 44.945312 85.761719 45.359375 C 84.320312 45.867188 82.832031 46.101562 81.300781 46.050781 C 77.5625 46.027344 74.011719 44.558594 70.796875 41.675781 Z M 74.289062 38.070312 " fill-opacity="1" fill-rule="nonzero"/></g></svg>