<svg xmlns="http://www.w3.org/2000/svg" xmlns:xlink="http://www.w3.org/1999/xlink" width="215" zoomAndPan="magnify" viewBox="0 0 161.25 63.749998" height="85" preserveAspectRatio="xMidYMid meet" version="1.0"><defs><clipPath id="9ecf8b592e"><path d="M 0 0.0234375 L 160.503906 0.0234375 L 160.503906 63.476562 L 0 63.476562 Z M 0 0.0234375 " clip-rule="nonzero"/></clipPath></defs><g clip-path="url(#9ecf8b592e)"><path fill="#000000" d="M 22.304688 40.738281 L 26.558594 40.738281 L 26.558594 54.085938 C 26.585938 54.382812 26.460938 54.585938 26.1875 54.703125 C 25.742188 54.933594 25.351562 55.230469 25.015625 55.601562 C 24.675781 55.96875 24.414062 56.386719 24.226562 56.851562 C 24.035156 57.3125 23.933594 57.792969 23.917969 58.292969 C 23.902344 58.792969 23.972656 59.28125 24.132812 59.757812 C 24.289062 60.230469 24.523438 60.664062 24.839844 61.054688 C 25.152344 61.445312 25.523438 61.769531 25.949219 62.027344 C 26.378906 62.285156 26.839844 62.457031 27.332031 62.550781 C 27.824219 62.644531 28.316406 62.648438 28.808594 62.566406 C 29.265625 62.492188 29.699219 62.347656 30.109375 62.128906 C 30.519531 61.910156 30.882812 61.632812 31.203125 61.292969 C 31.519531 60.957031 31.773438 60.574219 31.964844 60.148438 C 32.152344 59.726562 32.269531 59.285156 32.3125 58.820312 C 32.355469 58.402344 32.339844 57.988281 32.253906 57.574219 C 32.171875 57.160156 32.027344 56.769531 31.824219 56.402344 C 31.621094 56.035156 31.367188 55.703125 31.0625 55.414062 C 30.757812 55.125 30.417969 54.886719 30.039062 54.703125 C 29.78125 54.605469 29.65625 54.417969 29.664062 54.140625 L 29.664062 40.765625 L 34.851562 40.765625 C 35.011719 40.769531 35.171875 40.761719 35.332031 40.738281 C 36.492188 40.609375 37.5625 40.226562 38.542969 39.585938 L 45.898438 43.84375 C 46.078125 43.976562 46.265625 44.09375 46.460938 44.191406 C 46.628906 44.265625 46.761719 44.378906 46.855469 44.539062 C 46.949219 44.695312 46.988281 44.867188 46.96875 45.046875 C 46.964844 45.34375 46.988281 45.636719 47.042969 45.929688 C 47.101562 46.21875 47.1875 46.5 47.300781 46.773438 C 47.417969 47.046875 47.558594 47.304688 47.730469 47.546875 C 47.898438 47.789062 48.09375 48.011719 48.3125 48.214844 C 48.527344 48.414062 48.765625 48.589844 49.019531 48.742188 C 49.273438 48.894531 49.539062 49.015625 49.820312 49.113281 C 50.101562 49.207031 50.390625 49.269531 50.683594 49.304688 C 50.976562 49.339844 51.273438 49.339844 51.566406 49.3125 C 51.863281 49.285156 52.148438 49.226562 52.433594 49.136719 C 52.714844 49.046875 52.984375 48.925781 53.242188 48.78125 C 53.5 48.632812 53.738281 48.460938 53.957031 48.265625 C 54.179688 48.066406 54.378906 47.847656 54.550781 47.609375 C 54.726562 47.371094 54.875 47.113281 54.992188 46.84375 C 55.113281 46.574219 55.207031 46.292969 55.265625 46.003906 C 55.328125 45.714844 55.355469 45.421875 55.355469 45.125 C 55.355469 44.828125 55.324219 44.535156 55.261719 44.246094 C 55.191406 43.914062 55.082031 43.597656 54.933594 43.292969 C 54.789062 42.988281 54.605469 42.707031 54.390625 42.449219 C 54.175781 42.1875 53.929688 41.957031 53.65625 41.757812 C 53.386719 41.558594 53.09375 41.390625 52.78125 41.261719 C 52.46875 41.132812 52.144531 41.042969 51.8125 40.996094 C 51.476562 40.945312 51.140625 40.933594 50.804688 40.964844 C 50.46875 40.996094 50.140625 41.070312 49.824219 41.179688 C 49.503906 41.292969 49.203125 41.441406 48.921875 41.625 C 48.683594 41.820312 48.433594 41.839844 48.171875 41.679688 C 46.035156 40.421875 43.894531 39.191406 41.726562 37.960938 C 41.648438 37.90625 41.324219 37.71875 40.738281 37.34375 C 40.972656 36.953125 41.171875 36.539062 41.324219 36.105469 C 41.480469 35.675781 41.589844 35.230469 41.65625 34.777344 C 41.722656 34.324219 41.742188 33.867188 41.714844 33.410156 C 41.691406 32.953125 41.621094 32.5 41.503906 32.058594 C 41.386719 31.613281 41.230469 31.183594 41.027344 30.773438 C 40.824219 30.363281 40.585938 29.972656 40.304688 29.609375 C 40.027344 29.246094 39.714844 28.914062 39.367188 28.613281 C 39.019531 28.3125 38.648438 28.046875 38.25 27.820312 L 38.277344 27.792969 C 38.316406 27.761719 38.363281 27.734375 38.410156 27.714844 C 39.320312 27.207031 40.230469 26.667969 41.136719 26.136719 L 47.183594 22.660156 C 47.53125 22.472656 47.855469 22.285156 48.199219 22.070312 C 48.304688 21.988281 48.421875 21.949219 48.554688 21.953125 C 48.683594 21.957031 48.800781 22.007812 48.894531 22.097656 C 49.816406 22.71875 50.824219 22.925781 51.917969 22.710938 C 52.449219 22.617188 52.941406 22.429688 53.398438 22.144531 C 53.855469 21.859375 54.242188 21.5 54.5625 21.066406 C 54.878906 20.632812 55.105469 20.15625 55.242188 19.632812 C 55.375 19.113281 55.40625 18.585938 55.339844 18.050781 C 55.269531 17.515625 55.105469 17.015625 54.84375 16.542969 C 54.578125 16.074219 54.238281 15.671875 53.820312 15.332031 C 53.402344 14.992188 52.9375 14.742188 52.421875 14.585938 C 51.90625 14.425781 51.382812 14.367188 50.84375 14.410156 C 50.308594 14.453125 49.800781 14.597656 49.316406 14.835938 C 48.835938 15.074219 48.414062 15.398438 48.058594 15.796875 C 47.699219 16.199219 47.429688 16.652344 47.246094 17.160156 C 47.0625 17.667969 46.976562 18.1875 46.996094 18.726562 C 47.011719 18.882812 46.980469 19.03125 46.902344 19.167969 C 46.824219 19.304688 46.710938 19.40625 46.566406 19.472656 C 45.710938 19.957031 44.882812 20.4375 44.027344 20.917969 L 36.296875 25.386719 C 35.589844 24.167969 34.65625 23.160156 33.496094 22.363281 C 32.332031 21.566406 31.054688 21.058594 29.664062 20.835938 L 29.664062 9.976562 C 29.636719 9.734375 29.683594 9.507812 29.800781 9.296875 C 29.917969 9.085938 30.085938 8.929688 30.304688 8.824219 C 30.742188 8.570312 31.117188 8.246094 31.433594 7.851562 C 31.75 7.457031 31.988281 7.019531 32.140625 6.539062 C 32.296875 6.058594 32.359375 5.566406 32.335938 5.058594 C 32.308594 4.554688 32.191406 4.070312 31.988281 3.609375 C 31.785156 3.140625 31.507812 2.722656 31.15625 2.359375 C 30.800781 1.992188 30.394531 1.699219 29.933594 1.480469 C 29.472656 1.265625 28.988281 1.136719 28.480469 1.097656 C 27.972656 1.058594 27.472656 1.113281 26.984375 1.257812 C 26.5625 1.363281 26.167969 1.535156 25.800781 1.765625 C 25.433594 2 25.113281 2.289062 24.839844 2.625 C 24.566406 2.960938 24.351562 3.332031 24.195312 3.738281 C 24.039062 4.148438 23.953125 4.566406 23.933594 5 C 23.902344 5.40625 23.929688 5.808594 24.015625 6.203125 C 24.105469 6.597656 24.246094 6.976562 24.445312 7.328125 C 24.640625 7.683594 24.886719 8.003906 25.175781 8.285156 C 25.46875 8.566406 25.792969 8.800781 26.15625 8.988281 C 26.289062 9.03125 26.394531 9.109375 26.472656 9.222656 C 26.554688 9.335938 26.589844 9.464844 26.582031 9.601562 L 26.582031 12.785156 L 26.636719 20.863281 C 25.390625 21.070312 24.234375 21.507812 23.167969 22.179688 C 22.101562 22.855469 21.203125 23.707031 20.480469 24.742188 C 20.132812 24.820312 19.761719 24.929688 19.4375 25.035156 C 16.253906 23.214844 13.097656 21.371094 9.914062 19.578125 C 9.691406 19.496094 9.519531 19.351562 9.402344 19.144531 C 9.285156 18.9375 9.25 18.714844 9.296875 18.480469 C 9.3125 18.253906 9.285156 18.027344 9.21875 17.808594 C 9.171875 17.542969 9.101562 17.28125 9.007812 17.027344 C 8.910156 16.773438 8.789062 16.535156 8.644531 16.304688 C 8.5 16.074219 8.335938 15.863281 8.148438 15.664062 C 7.964844 15.46875 7.757812 15.289062 7.539062 15.132812 C 7.316406 14.976562 7.082031 14.84375 6.835938 14.734375 C 6.585938 14.625 6.332031 14.539062 6.066406 14.480469 C 5.800781 14.417969 5.535156 14.386719 5.261719 14.378906 C 4.992188 14.371094 4.722656 14.390625 4.457031 14.4375 C 4.148438 14.484375 3.847656 14.566406 3.558594 14.679688 C 3.265625 14.792969 2.992188 14.9375 2.734375 15.109375 C 2.476562 15.285156 2.242188 15.488281 2.027344 15.714844 C 1.8125 15.941406 1.628906 16.191406 1.46875 16.460938 C 1.3125 16.730469 1.1875 17.011719 1.09375 17.308594 C 0.996094 17.605469 0.9375 17.910156 0.910156 18.222656 C 0.882812 18.53125 0.894531 18.84375 0.9375 19.152344 C 0.980469 19.460938 1.054688 19.761719 1.164062 20.050781 C 1.277344 20.34375 1.417969 20.621094 1.589844 20.878906 C 1.761719 21.140625 1.960938 21.378906 2.183594 21.59375 C 2.410156 21.808594 2.65625 22 2.921875 22.160156 C 3.191406 22.320312 3.472656 22.449219 3.769531 22.546875 C 4.066406 22.644531 4.367188 22.707031 4.679688 22.738281 C 4.988281 22.769531 5.300781 22.761719 5.609375 22.722656 C 5.917969 22.683594 6.21875 22.609375 6.511719 22.503906 C 6.804688 22.398438 7.082031 22.257812 7.34375 22.089844 C 7.457031 22 7.585938 21.949219 7.730469 21.945312 C 7.871094 21.941406 8.003906 21.980469 8.121094 22.0625 C 8.738281 22.410156 9.644531 22.917969 10.875 23.585938 L 16.519531 26.851562 C 16.167969 27.179688 15.847656 27.539062 15.5625 27.929688 C 15.273438 28.316406 15.027344 28.726562 14.8125 29.160156 C 14.601562 29.59375 14.429688 30.042969 14.300781 30.507812 C 14.171875 30.972656 14.085938 31.445312 14.039062 31.925781 C 13.996094 32.40625 13.996094 32.890625 14.039062 33.371094 C 14.085938 33.851562 14.171875 34.324219 14.300781 34.789062 C 14.429688 35.253906 14.601562 35.703125 14.816406 36.136719 C 15.027344 36.570312 15.277344 36.980469 15.5625 37.367188 L 8.929688 41.140625 C 8.5 41.355469 8.179688 41.539062 7.964844 41.648438 C 7.773438 41.722656 7.585938 41.714844 7.402344 41.621094 C 6.734375 41.191406 6.003906 40.960938 5.210938 40.925781 C 4.929688 40.914062 4.652344 40.933594 4.375 40.976562 C 4.101562 41.023438 3.832031 41.09375 3.570312 41.195312 C 3.308594 41.292969 3.058594 41.417969 2.820312 41.566406 C 2.585938 41.714844 2.363281 41.886719 2.160156 42.082031 C 1.960938 42.273438 1.777344 42.484375 1.617188 42.714844 C 1.457031 42.945312 1.320312 43.1875 1.210938 43.445312 C 1.097656 43.703125 1.015625 43.964844 0.957031 44.242188 C 0.898438 44.515625 0.867188 44.792969 0.863281 45.070312 C 0.863281 45.351562 0.886719 45.628906 0.941406 45.902344 C 0.992188 46.179688 1.074219 46.445312 1.179688 46.703125 C 1.285156 46.964844 1.417969 47.210938 1.574219 47.441406 C 1.726562 47.675781 1.90625 47.890625 2.105469 48.085938 C 2.304688 48.285156 2.519531 48.457031 2.753906 48.613281 C 2.988281 48.765625 3.234375 48.894531 3.496094 49 C 3.753906 49.101562 4.023438 49.179688 4.296875 49.230469 C 4.574219 49.28125 4.851562 49.304688 5.128906 49.300781 C 5.40625 49.296875 5.679688 49.269531 5.949219 49.214844 C 6.222656 49.160156 6.484375 49.078125 6.738281 48.96875 C 6.992188 48.859375 7.230469 48.726562 7.460938 48.570312 C 7.6875 48.414062 7.898438 48.238281 8.089844 48.039062 C 8.28125 47.839844 8.449219 47.625 8.601562 47.394531 C 8.75 47.160156 8.871094 46.914062 8.972656 46.660156 C 9.074219 46.402344 9.144531 46.136719 9.191406 45.863281 C 9.238281 45.59375 9.257812 45.316406 9.25 45.042969 C 9.226562 44.859375 9.261719 44.683594 9.347656 44.523438 C 9.4375 44.359375 9.566406 44.238281 9.730469 44.160156 C 11.550781 43.113281 14.253906 41.566406 17.863281 39.476562 C 19.222656 40.324219 20.703125 40.742188 22.304688 40.738281 Z M 53.707031 22.976562 C 53.414062 23.128906 53.28125 23.367188 53.308594 23.699219 L 53.308594 39.9375 C 53.273438 40.25 53.398438 40.484375 53.679688 40.632812 C 54.140625 40.886719 54.550781 41.207031 54.910156 41.59375 C 55.269531 41.976562 55.5625 42.40625 55.792969 42.878906 C 56.019531 43.355469 56.171875 43.851562 56.246094 44.375 C 56.320312 44.894531 56.3125 45.414062 56.226562 45.933594 C 56.140625 46.453125 55.976562 46.945312 55.738281 47.414062 C 55.5 47.886719 55.195312 48.308594 54.828125 48.683594 C 54.457031 49.058594 54.042969 49.367188 53.578125 49.617188 C 53.113281 49.863281 52.621094 50.03125 52.101562 50.128906 C 50.84375 50.394531 49.667969 50.1875 48.570312 49.511719 C 48.4375 49.417969 48.292969 49.371094 48.128906 49.371094 C 47.96875 49.371094 47.820312 49.417969 47.6875 49.511719 C 43.035156 52.214844 38.371094 54.898438 33.699219 57.5625 C 33.554688 57.628906 33.441406 57.730469 33.363281 57.867188 C 33.285156 58.007812 33.253906 58.152344 33.269531 58.3125 C 33.269531 58.941406 33.15625 59.550781 32.933594 60.136719 C 32.707031 60.726562 32.390625 61.253906 31.972656 61.726562 C 31.558594 62.199219 31.074219 62.585938 30.515625 62.878906 C 29.960938 63.175781 29.371094 63.367188 28.75 63.449219 C 28.117188 63.523438 27.488281 63.480469 26.871094 63.320312 C 26.253906 63.164062 25.683594 62.898438 25.164062 62.527344 C 24.644531 62.15625 24.210938 61.703125 23.859375 61.171875 C 23.507812 60.636719 23.265625 60.058594 23.132812 59.433594 C 23.058594 59.027344 23.015625 58.617188 22.996094 58.203125 C 23.023438 57.933594 22.917969 57.738281 22.675781 57.613281 C 17.941406 54.886719 13.214844 52.160156 8.5 49.429688 C 8.390625 49.347656 8.273438 49.308594 8.136719 49.308594 C 8.003906 49.308594 7.882812 49.347656 7.777344 49.429688 C 7.425781 49.644531 7.050781 49.8125 6.660156 49.9375 C 6.265625 50.0625 5.863281 50.136719 5.449219 50.164062 C 5.039062 50.191406 4.628906 50.167969 4.222656 50.097656 C 3.820312 50.023438 3.425781 49.90625 3.050781 49.738281 C 2.671875 49.570312 2.320312 49.363281 1.996094 49.109375 C 1.667969 48.859375 1.375 48.570312 1.117188 48.246094 C 0.863281 47.925781 0.648438 47.578125 0.476562 47.203125 C 0.300781 46.828125 0.175781 46.4375 0.0976562 46.03125 C -0.0117188 45.511719 -0.0351562 44.984375 0.0195312 44.457031 C 0.078125 43.925781 0.21875 43.417969 0.4375 42.933594 C 0.65625 42.449219 0.941406 42.007812 1.300781 41.613281 C 1.660156 41.222656 2.070312 40.890625 2.53125 40.628906 C 2.679688 40.566406 2.796875 40.464844 2.878906 40.328125 C 2.960938 40.191406 3 40.042969 2.988281 39.882812 C 2.960938 34.476562 2.988281 29.046875 2.988281 23.644531 C 3.019531 23.328125 2.894531 23.097656 2.613281 22.949219 C 2.316406 22.78125 2.039062 22.585938 1.78125 22.363281 C 1.523438 22.136719 1.292969 21.890625 1.082031 21.621094 C 0.875 21.351562 0.695312 21.066406 0.542969 20.757812 C 0.390625 20.453125 0.273438 20.136719 0.183594 19.804688 C 0.0976562 19.476562 0.0429688 19.140625 0.0195312 18.800781 C 0 18.460938 0.0117188 18.121094 0.0585938 17.785156 C 0.101562 17.445312 0.183594 17.117188 0.292969 16.792969 C 0.40625 16.472656 0.546875 16.164062 0.722656 15.871094 C 0.894531 15.578125 1.09375 15.300781 1.324219 15.046875 C 1.550781 14.792969 1.800781 14.566406 2.074219 14.363281 C 2.347656 14.15625 2.636719 13.984375 2.945312 13.835938 C 3.253906 13.691406 3.574219 13.574219 3.902344 13.492188 C 4.234375 13.410156 4.570312 13.359375 4.910156 13.34375 C 5.25 13.328125 5.589844 13.347656 5.925781 13.398438 C 6.265625 13.449219 6.59375 13.535156 6.914062 13.652344 C 7.234375 13.769531 7.539062 13.917969 7.832031 14.09375 C 7.925781 14.175781 8.039062 14.21875 8.167969 14.21875 C 8.292969 14.21875 8.40625 14.175781 8.503906 14.09375 C 13.207031 11.367188 17.945312 8.664062 22.652344 5.9375 C 22.789062 5.875 22.894531 5.78125 22.96875 5.652344 C 23.042969 5.527344 23.070312 5.386719 23.054688 5.242188 C 23.050781 4.921875 23.074219 4.601562 23.128906 4.285156 C 23.179688 3.96875 23.265625 3.660156 23.375 3.359375 C 23.488281 3.0625 23.625 2.773438 23.792969 2.5 C 23.957031 2.222656 24.148438 1.96875 24.359375 1.726562 C 24.574219 1.488281 24.808594 1.273438 25.0625 1.078125 C 25.316406 0.882812 25.585938 0.710938 25.875 0.566406 C 26.160156 0.421875 26.457031 0.304688 26.765625 0.21875 C 27.074219 0.128906 27.386719 0.0703125 27.707031 0.0390625 C 28.023438 0.0078125 28.34375 0.0078125 28.664062 0.0390625 C 28.980469 0.0664062 29.296875 0.128906 29.605469 0.214844 C 29.910156 0.304688 30.210938 0.421875 30.496094 0.5625 C 30.78125 0.707031 31.050781 0.878906 31.308594 1.074219 C 31.5625 1.265625 31.796875 1.484375 32.011719 1.722656 C 32.222656 1.960938 32.414062 2.21875 32.582031 2.492188 C 32.746094 2.765625 32.886719 3.054688 32.996094 3.355469 C 33.109375 3.652344 33.191406 3.960938 33.246094 4.277344 C 33.292969 4.488281 33.320312 4.703125 33.328125 4.921875 C 33.304688 5.175781 33.359375 5.410156 33.496094 5.628906 C 33.628906 5.84375 33.8125 6 34.050781 6.097656 C 38.625 8.71875 43.199219 11.367188 47.773438 13.988281 C 47.898438 14.082031 48.042969 14.128906 48.199219 14.128906 C 48.359375 14.128906 48.5 14.082031 48.628906 13.988281 C 48.980469 13.78125 49.355469 13.617188 49.746094 13.5 C 50.136719 13.382812 50.539062 13.3125 50.945312 13.289062 C 51.355469 13.265625 51.761719 13.292969 52.164062 13.367188 C 52.566406 13.441406 52.953125 13.5625 53.324219 13.730469 C 53.699219 13.898438 54.046875 14.105469 54.371094 14.359375 C 54.695312 14.609375 54.984375 14.894531 55.238281 15.214844 C 55.492188 15.535156 55.703125 15.882812 55.875 16.253906 C 56.046875 16.625 56.171875 17.011719 56.253906 17.414062 C 56.304688 17.730469 56.332031 18.050781 56.332031 18.375 C 56.347656 19.324219 56.121094 20.210938 55.652344 21.035156 C 55.183594 21.859375 54.535156 22.507812 53.707031 22.976562 Z M 50.042969 45.074219 C 50.035156 44.914062 50.058594 44.761719 50.117188 44.613281 C 50.171875 44.464844 50.257812 44.335938 50.371094 44.222656 C 50.480469 44.109375 50.613281 44.027344 50.761719 43.96875 C 50.910156 43.910156 51.0625 43.886719 51.21875 43.894531 C 51.378906 43.894531 51.527344 43.925781 51.675781 43.984375 C 51.820312 44.046875 51.949219 44.128906 52.058594 44.242188 C 52.171875 44.351562 52.261719 44.476562 52.324219 44.621094 C 52.386719 44.765625 52.421875 44.914062 52.425781 45.074219 C 52.40625 45.398438 52.285156 45.675781 52.054688 45.90625 C 51.824219 46.136719 51.546875 46.257812 51.21875 46.277344 C 51.0625 46.277344 50.910156 46.246094 50.761719 46.183594 C 50.617188 46.121094 50.488281 46.035156 50.378906 45.921875 C 50.269531 45.808594 50.183594 45.679688 50.125 45.53125 C 50.066406 45.382812 50.039062 45.230469 50.042969 45.070312 Z M 26.90625 5.292969 C 26.90625 5.136719 26.933594 4.984375 26.996094 4.839844 C 27.054688 4.691406 27.140625 4.5625 27.253906 4.453125 C 27.367188 4.339844 27.496094 4.253906 27.640625 4.195312 C 27.785156 4.132812 27.9375 4.101562 28.09375 4.101562 C 28.253906 4.101562 28.40625 4.132812 28.550781 4.195312 C 28.695312 4.253906 28.824219 4.339844 28.9375 4.453125 C 29.050781 4.5625 29.136719 4.691406 29.195312 4.839844 C 29.257812 4.984375 29.285156 5.136719 29.285156 5.292969 C 29.285156 5.453125 29.257812 5.601562 29.195312 5.75 C 29.136719 5.894531 29.050781 6.023438 28.9375 6.136719 C 28.824219 6.246094 28.695312 6.332031 28.550781 6.394531 C 28.40625 6.453125 28.253906 6.484375 28.09375 6.484375 C 27.9375 6.484375 27.785156 6.453125 27.640625 6.394531 C 27.496094 6.332031 27.367188 6.246094 27.253906 6.136719 C 27.140625 6.023438 27.054688 5.894531 26.996094 5.75 C 26.933594 5.601562 26.90625 5.453125 26.90625 5.292969 Z M 6.28125 45.070312 C 6.28125 45.230469 6.253906 45.382812 6.195312 45.527344 C 6.132812 45.675781 6.050781 45.804688 5.941406 45.917969 C 5.828125 46.027344 5.703125 46.117188 5.558594 46.179688 C 5.410156 46.242188 5.261719 46.273438 5.101562 46.277344 C 4.777344 46.257812 4.5 46.132812 4.269531 45.90625 C 4.039062 45.675781 3.917969 45.398438 3.898438 45.070312 C 3.90625 44.914062 3.941406 44.765625 4.003906 44.625 C 4.066406 44.480469 4.15625 44.355469 4.269531 44.246094 C 4.378906 44.136719 4.507812 44.050781 4.652344 43.988281 C 4.796875 43.929688 4.945312 43.898438 5.101562 43.894531 C 5.261719 43.890625 5.414062 43.914062 5.558594 43.972656 C 5.707031 44.03125 5.835938 44.117188 5.949219 44.226562 C 6.058594 44.339844 6.144531 44.46875 6.203125 44.613281 C 6.257812 44.761719 6.285156 44.914062 6.28125 45.070312 Z M 28.109375 57.214844 C 28.265625 57.214844 28.417969 57.246094 28.566406 57.308594 C 28.710938 57.371094 28.839844 57.457031 28.949219 57.570312 C 29.0625 57.683594 29.144531 57.8125 29.203125 57.960938 C 29.261719 58.109375 29.289062 58.261719 29.285156 58.421875 C 29.289062 58.578125 29.257812 58.734375 29.199219 58.878906 C 29.136719 59.027344 29.050781 59.15625 28.9375 59.265625 C 28.824219 59.378906 28.691406 59.464844 28.542969 59.519531 C 28.394531 59.578125 28.242188 59.601562 28.082031 59.597656 C 27.921875 59.597656 27.769531 59.566406 27.625 59.503906 C 27.476562 59.445312 27.351562 59.355469 27.238281 59.242188 C 27.128906 59.128906 27.042969 59 26.984375 58.851562 C 26.929688 58.703125 26.902344 58.550781 26.90625 58.394531 C 26.902344 58.234375 26.929688 58.082031 26.992188 57.933594 C 27.050781 57.785156 27.140625 57.65625 27.253906 57.546875 C 27.367188 57.433594 27.5 57.351562 27.648438 57.292969 C 27.796875 57.234375 27.949219 57.210938 28.109375 57.214844 Z M 5.128906 19.710938 C 4.972656 19.714844 4.816406 19.6875 4.667969 19.628906 C 4.519531 19.570312 4.390625 19.484375 4.273438 19.375 C 4.160156 19.265625 4.070312 19.136719 4.003906 18.992188 C 3.9375 18.847656 3.902344 18.695312 3.898438 18.535156 C 3.894531 18.375 3.921875 18.222656 3.980469 18.078125 C 4.039062 17.929688 4.121094 17.796875 4.234375 17.683594 C 4.34375 17.570312 4.472656 17.484375 4.621094 17.421875 C 4.765625 17.363281 4.917969 17.332031 5.074219 17.332031 C 5.234375 17.324219 5.390625 17.347656 5.539062 17.402344 C 5.691406 17.460938 5.820312 17.542969 5.9375 17.65625 C 6.050781 17.769531 6.136719 17.898438 6.199219 18.046875 C 6.257812 18.195312 6.285156 18.347656 6.28125 18.507812 C 6.292969 18.667969 6.269531 18.820312 6.214844 18.96875 C 6.164062 19.117188 6.082031 19.25 5.972656 19.363281 C 5.863281 19.480469 5.734375 19.566406 5.585938 19.628906 C 5.441406 19.6875 5.289062 19.714844 5.128906 19.710938 Z M 51.195312 19.710938 C 51.035156 19.707031 50.886719 19.675781 50.742188 19.613281 C 50.597656 19.546875 50.46875 19.457031 50.359375 19.34375 C 50.25 19.230469 50.167969 19.101562 50.109375 18.953125 C 50.054688 18.804688 50.027344 18.652344 50.03125 18.496094 C 50.035156 18.335938 50.066406 18.1875 50.132812 18.042969 C 50.195312 17.898438 50.285156 17.769531 50.398438 17.660156 C 50.511719 17.550781 50.644531 17.46875 50.789062 17.410156 C 50.9375 17.355469 51.089844 17.328125 51.25 17.332031 C 51.40625 17.332031 51.558594 17.363281 51.703125 17.421875 C 51.851562 17.484375 51.980469 17.570312 52.089844 17.683594 C 52.203125 17.796875 52.285156 17.929688 52.34375 18.078125 C 52.402344 18.222656 52.429688 18.375 52.425781 18.535156 C 52.421875 18.695312 52.390625 18.847656 52.324219 18.996094 C 52.261719 19.140625 52.171875 19.269531 52.054688 19.382812 C 51.941406 19.492188 51.808594 19.578125 51.660156 19.632812 C 51.507812 19.691406 51.355469 19.71875 51.195312 19.710938 Z M 22.359375 37.796875 C 22.007812 37.808594 21.664062 37.785156 21.320312 37.726562 C 20.976562 37.667969 20.640625 37.574219 20.316406 37.449219 C 19.992188 37.324219 19.683594 37.167969 19.386719 36.980469 C 19.09375 36.792969 18.820312 36.578125 18.570312 36.335938 C 18.320312 36.09375 18.09375 35.832031 17.898438 35.542969 C 17.699219 35.257812 17.53125 34.953125 17.394531 34.632812 C 17.257812 34.3125 17.152344 33.980469 17.082031 33.640625 C 17.011719 33.300781 16.976562 32.953125 16.972656 32.605469 C 16.972656 32.257812 17.003906 31.914062 17.070312 31.570312 C 17.140625 31.226562 17.238281 30.898438 17.375 30.574219 C 17.507812 30.253906 17.671875 29.949219 17.867188 29.660156 C 18.0625 29.371094 18.285156 29.101562 18.53125 28.859375 C 18.78125 28.613281 19.050781 28.398438 19.34375 28.207031 C 19.632812 28.015625 19.941406 27.855469 20.265625 27.726562 C 20.589844 27.597656 20.921875 27.503906 21.265625 27.441406 C 21.609375 27.378906 21.953125 27.351562 22.304688 27.359375 C 22.554688 26.789062 22.878906 26.265625 23.28125 25.789062 C 23.6875 25.3125 24.148438 24.90625 24.671875 24.566406 C 25.195312 24.226562 25.757812 23.96875 26.355469 23.792969 C 26.953125 23.617188 27.566406 23.53125 28.1875 23.535156 C 28.597656 23.53125 29 23.566406 29.402344 23.636719 C 29.804688 23.710938 30.195312 23.824219 30.574219 23.972656 C 30.953125 24.125 31.316406 24.308594 31.660156 24.53125 C 32.003906 24.75 32.324219 25 32.617188 25.285156 C 32.914062 25.566406 33.175781 25.875 33.414062 26.207031 C 33.648438 26.542969 33.847656 26.894531 34.011719 27.269531 C 34.179688 27.640625 34.308594 28.027344 34.398438 28.425781 C 34.492188 28.824219 34.542969 29.226562 34.554688 29.632812 C 34.828125 29.628906 35.097656 29.652344 35.367188 29.699219 C 35.636719 29.75 35.898438 29.824219 36.152344 29.921875 C 36.40625 30.023438 36.648438 30.148438 36.878906 30.296875 C 37.109375 30.445312 37.320312 30.613281 37.515625 30.804688 C 37.714844 30.992188 37.890625 31.203125 38.042969 31.425781 C 38.199219 31.652344 38.332031 31.886719 38.441406 32.140625 C 38.546875 32.390625 38.632812 32.648438 38.6875 32.914062 C 38.746094 33.183594 38.777344 33.453125 38.78125 33.726562 C 38.777344 34.25 38.675781 34.753906 38.476562 35.242188 C 38.28125 35.726562 38 36.15625 37.636719 36.535156 C 37.273438 36.914062 36.855469 37.210938 36.375 37.429688 C 35.898438 37.644531 35.398438 37.765625 34.875 37.792969 L 22.359375 37.792969 Z M 155.925781 26.214844 L 149.289062 26.214844 L 149.289062 21.691406 L 160.5 21.691406 L 160.5 34.933594 C 160.5 39.855469 157.609375 42.210938 153.328125 42.210938 C 152.054688 42.242188 150.835938 41.992188 149.675781 41.460938 C 148.515625 40.929688 147.53125 40.171875 146.722656 39.1875 L 149.53125 36.054688 C 150.679688 37.339844 151.804688 38.089844 153.222656 38.089844 C 154.90625 38.089844 155.925781 37.074219 155.925781 34.746094 L 155.925781 26.210938 Z M 80.96875 35.921875 C 80.96875 39.933594 77.917969 42.179688 73.558594 42.179688 C 71.976562 42.1875 70.445312 41.910156 68.964844 41.351562 C 67.488281 40.792969 66.15625 39.992188 64.96875 38.945312 L 67.589844 35.789062 C 68.417969 36.550781 69.347656 37.144531 70.390625 37.570312 C 71.429688 37.992188 72.511719 38.222656 73.636719 38.253906 C 75.457031 38.253906 76.550781 37.53125 76.550781 36.355469 L 76.550781 36.300781 C 76.550781 35.179688 75.855469 34.589844 72.484375 33.730469 C 68.417969 32.6875 65.796875 31.566406 65.796875 27.554688 L 65.796875 27.5 C 65.796875 23.835938 68.738281 21.398438 72.886719 21.398438 C 74.25 21.382812 75.574219 21.59375 76.867188 22.035156 C 78.15625 22.476562 79.335938 23.121094 80.402344 23.96875 L 78.101562 27.3125 C 76.554688 26.117188 74.808594 25.457031 72.859375 25.332031 C 71.148438 25.332031 70.265625 26.109375 70.265625 27.097656 L 70.265625 27.152344 C 70.265625 28.488281 71.121094 28.917969 74.625 29.800781 C 78.71875 30.871094 81.046875 32.339844 81.046875 35.871094 L 81.046875 35.925781 Z M 99.882812 25.785156 L 93.726562 25.785156 L 93.726562 41.941406 L 89.289062 41.941406 L 89.289062 25.785156 L 83.136719 25.785156 L 83.136719 21.664062 L 99.882812 21.664062 Z M 123.234375 31.800781 C 123.234375 37.554688 118.6875 42.257812 112.425781 42.257812 C 106.167969 42.257812 101.699219 37.605469 101.699219 31.851562 L 101.699219 31.796875 C 101.699219 26.046875 106.246094 21.34375 112.507812 21.34375 C 118.765625 21.34375 123.234375 25.996094 123.234375 31.75 Z M 118.578125 31.855469 L 118.578125 31.800781 C 118.59375 31.390625 118.566406 30.984375 118.496094 30.578125 C 118.429688 30.171875 118.320312 29.777344 118.171875 29.394531 C 118.023438 29.011719 117.839844 28.644531 117.621094 28.300781 C 117.398438 27.953125 117.144531 27.632812 116.859375 27.335938 C 116.574219 27.039062 116.261719 26.777344 115.921875 26.542969 C 115.585938 26.3125 115.226562 26.113281 114.847656 25.953125 C 114.46875 25.792969 114.078125 25.671875 113.675781 25.585938 C 113.273438 25.503906 112.867188 25.464844 112.457031 25.460938 C 112.046875 25.460938 111.644531 25.5 111.242188 25.578125 C 110.84375 25.660156 110.453125 25.777344 110.078125 25.9375 C 109.699219 26.097656 109.34375 26.292969 109.007812 26.523438 C 108.671875 26.753906 108.359375 27.015625 108.078125 27.308594 C 107.792969 27.601562 107.542969 27.921875 107.324219 28.265625 C 107.105469 28.609375 106.921875 28.972656 106.777344 29.355469 C 106.628906 29.738281 106.523438 30.128906 106.457031 30.53125 C 106.390625 30.933594 106.367188 31.339844 106.382812 31.75 L 106.382812 31.800781 C 106.371094 32.214844 106.398438 32.621094 106.464844 33.027344 C 106.535156 33.433594 106.640625 33.828125 106.789062 34.210938 C 106.9375 34.59375 107.121094 34.957031 107.34375 35.304688 C 107.566406 35.652344 107.816406 35.972656 108.105469 36.269531 C 108.390625 36.5625 108.703125 36.828125 109.039062 37.0625 C 109.378906 37.292969 109.738281 37.492188 110.117188 37.652344 C 110.492188 37.8125 110.882812 37.933594 111.285156 38.015625 C 111.6875 38.101562 112.097656 38.140625 112.507812 38.140625 C 112.914062 38.144531 113.320312 38.105469 113.722656 38.027344 C 114.121094 37.949219 114.511719 37.828125 114.886719 37.671875 C 115.265625 37.511719 115.621094 37.320312 115.957031 37.085938 C 116.296875 36.855469 116.605469 36.59375 116.890625 36.300781 C 117.175781 36.007812 117.425781 35.6875 117.644531 35.34375 C 117.863281 34.996094 118.046875 34.632812 118.191406 34.253906 C 118.335938 33.871094 118.441406 33.476562 118.507812 33.074219 C 118.574219 32.671875 118.597656 32.265625 118.578125 31.855469 Z M 144.5 41.9375 L 139.3125 41.9375 L 134.980469 35.464844 L 131.476562 35.464844 L 131.476562 41.9375 L 127.035156 41.9375 L 127.035156 21.691406 L 136.265625 21.691406 C 141.027344 21.691406 143.886719 24.207031 143.886719 28.378906 L 143.886719 28.433594 C 143.917969 29.121094 143.839844 29.796875 143.652344 30.460938 C 143.460938 31.121094 143.171875 31.738281 142.78125 32.304688 C 142.386719 32.871094 141.917969 33.363281 141.367188 33.777344 C 140.8125 34.1875 140.210938 34.503906 139.554688 34.71875 Z M 139.367188 28.671875 L 139.367188 28.617188 C 139.367188 26.71875 138.027344 25.726562 135.886719 25.726562 L 131.472656 25.726562 L 131.472656 31.53125 L 135.96875 31.53125 C 138.132812 31.535156 139.363281 30.386719 139.363281 28.675781 Z M 139.367188 28.671875 " fill-opacity="1" fill-rule="nonzero"/></g></svg>