<svg xmlns="http://www.w3.org/2000/svg" width="46" height="46" viewBox="0 0 46 46">
  <g id="Group_175854" data-name="Group 175854" transform="translate(0.001 -0.31)">
    <g id="Ellipse_3021" data-name="Ellipse 3021" transform="translate(-0.001 0.31)" stroke="lime" stroke-width="4">
      <circle cx="23" cy="23" r="23" stroke="none"/>
      <circle cx="23" cy="23" r="21" fill="none"/>
    </g>
    <g id="noun-digitalization-1563890" transform="translate(12.679 12.312)">
      <g id="Group_175853" data-name="Group 175853" transform="translate(0 0)">
        <rect id="Rectangle_190592" data-name="Rectangle 190592" width="2" height="2" transform="translate(7.321 -0.002)" fill="lime"/>
        <rect id="Rectangle_190593" data-name="Rectangle 190593" width="2" height="3" transform="translate(11.321 4.998)" fill="lime"/>
        <rect id="Rectangle_190594" data-name="Rectangle 190594" width="2" height="2" transform="translate(11.321 -0.002)" fill="lime"/>
        <path id="Path_281785" data-name="Path 281785" d="M19.212,16.843V14.475H16.843v2.369H14.475V14.475h2.369V12.106H12.106V7.369H9.737V5H7.369V7.369H5V26.318H26.318V19.212H23.949v4.737H21.581V19.212h2.369V16.843h2.369V14.475H21.581v2.369ZM7.369,9.737H9.737v2.369H7.369ZM19.212,21.581H16.843V19.212h2.369Z" transform="translate(-5 -5)" fill="lime"/>
        <rect id="Rectangle_190595" data-name="Rectangle 190595" width="3" height="2" transform="translate(13.321 7.998)" fill="lime"/>
        <path id="Path_281786" data-name="Path 281786" d="M67.369,15H65v2.369h4.737V15Z" transform="translate(-50.788 -12.631)" fill="lime"/>
        <rect id="Rectangle_190596" data-name="Rectangle 190596" width="2" height="3" transform="translate(19.321 4.998)" fill="lime"/>
        <rect id="Rectangle_190597" data-name="Rectangle 190597" width="2" height="2" transform="translate(19.321 -0.002)" fill="lime"/>
      </g>
    </g>
  </g>
</svg>
