<svg xmlns="http://www.w3.org/2000/svg" xmlns:xlink="http://www.w3.org/1999/xlink" width="87" zoomAndPan="magnify" viewBox="0 0 65.25 65.25" height="87" preserveAspectRatio="xMidYMid meet" version="1.0"><defs><clipPath id="332f33c0fd"><path d="M 0 0 L 64.507812 0 L 64.507812 64.507812 L 0 64.507812 Z M 0 0 " clip-rule="nonzero"/></clipPath></defs><g clip-path="url(#332f33c0fd)"><path fill="#f2f5f2" d="M 280.910156 -0.105469 L 59.414062 -0.105469 L 59.316406 0.0351562 C 50.03125 1.15625 42.832031 9.058594 42.832031 18.648438 L 42.832031 26.898438 C 42.832031 36.191406 35.886719 44.164062 27.015625 45.652344 L 18.828125 45.652344 C 8.472656 45.652344 0.078125 54.046875 0.078125 64.402344 L 0.078125 77.90625 C 0.078125 79.039062 0.183594 80.144531 0.375 81.222656 L 0.375 329.1875 C 0.375 339.542969 8.769531 347.941406 19.128906 347.941406 L 280.910156 347.941406 C 291.269531 347.941406 299.664062 339.542969 299.664062 329.1875 L 299.664062 18.648438 C 299.664062 8.289062 291.269531 -0.105469 280.910156 -0.105469 Z M 280.910156 -0.105469 " fill-opacity="1" fill-rule="evenodd"/></g></svg>