<svg xmlns="http://www.w3.org/2000/svg" xmlns:xlink="http://www.w3.org/1999/xlink" width="87" zoomAndPan="magnify" viewBox="0 0 65.25 65.25" height="87" preserveAspectRatio="xMidYMid meet" version="1.0"><defs><clipPath id="ae715ccca4"><path d="M 0 0 L 64.507812 0 L 64.507812 64.507812 L 0 64.507812 Z M 0 0 " clip-rule="nonzero"/></clipPath></defs><g clip-path="url(#ae715ccca4)"><path fill="#f2f5f2" d="M 284.949219 -0.105469 L 60.269531 -0.105469 L 60.167969 0.0351562 C 50.75 1.175781 43.449219 9.1875 43.449219 18.914062 L 43.449219 27.285156 C 43.449219 36.710938 36.402344 44.796875 27.40625 46.304688 L 19.101562 46.304688 C 8.59375 46.304688 0.078125 54.824219 0.078125 65.328125 L 0.078125 79.023438 C 0.078125 80.171875 0.183594 81.296875 0.378906 82.386719 L 0.378906 333.917969 C 0.378906 344.421875 8.898438 352.941406 19.402344 352.941406 L 284.949219 352.941406 C 295.453125 352.941406 303.96875 344.421875 303.96875 333.917969 L 303.96875 18.914062 C 303.96875 8.410156 295.453125 -0.105469 284.949219 -0.105469 Z M 284.949219 -0.105469 " fill-opacity="1" fill-rule="evenodd"/></g></svg>