<?xml version="1.0" encoding="utf-8"?>
<!-- Generator: Adobe Illustrator 23.0.1, SVG Export Plug-In . SVG Version: 6.00 Build 0)  -->
<svg version="1.1" id="Layer_1" xmlns="http://www.w3.org/2000/svg" xmlns:xlink="http://www.w3.org/1999/xlink" x="0px" y="0px"
	 viewBox="0 0 1000 1000" style="enable-background:new 0 0 1000 1000;" xml:space="preserve">
<style type="text/css">
	.st0{fill-rule:evenodd;clip-rule:evenodd;fill:#44C2CB;}
</style>
<desc>Created with Sketch.</desc>
<title>Figma.logo</title>
<desc>Created using Figma</desc>
<g>
	<g>
		<path class="st0" d="M237.7,370c-72.1-0.7-130,57.8-130.6,129.3c0,72.1,58.5,130.6,130,130.6s129.3-57.8,130-128.7
			C367,428.5,309.2,370.7,237.7,370z M299.5,428.5c-2.6,2-5.8,1.3-8.4-1.3c-2-1.9-3.3-3.9-5.2-5.8c-3.9-5.2-9.7-5.8-14.3-1.3
			c-3.3,3.3-6.5,7.8-8.4,12.4c-4.5,13.6-7.8,27.9-12.3,42.2l35.7,5.2l-2.6,9.7l-34.4-5.2l-3.9,20.8l37,5.2l-2.6,9.7l-36.4-5.2
			c-2.6,8.5-3.9,17.5-7.1,25.3c-3.2,9.1-6.5,18.2-10.4,26.6c-5.2,11.1-14.3,18.8-26.6,20.8c-7.1,1.3-14.9,0.7-20.8-3.9
			c-2-1.3-3.9-3.9-3.9-5.8c0-2.6,1.3-5.8,3.3-7.1c1.3-0.7,4.5,0,6.5,0.6c2,2,3.9,4.5,5.2,7.1c3.9,5.2,9.1,5.8,14.3,2
			c5.8-5.2,9.1-12.4,11-19.5c3.9-15.6,7.8-30.5,11.1-46.1v-2.6l-34.4-5.2l1.3-9.7l35.7,5.2l4.5-20.1l-37-5.8l1.3-10.4l38.3,5.2
			c1.3-3.9,2-7.1,3.3-10.4c3.2-11.7,6.5-23.4,14.3-33.8c7.8-10.4,16.9-16.9,30.5-16.2c5.8,0,11.7,1.9,15.6,6.5
			c0.6,0.7,1.9,2,1.9,3.3C301.4,423.3,301.4,426.6,299.5,428.5z"/>
	</g>
	<g>
		<path d="M636.4,513.9c-17.7,0-35,0-52.3,0c-1.4,19.6,13.6,31.8,33,26.9c5.1-1.3,9.9-3.8,15.2-5.9c1,2.2,2.2,5,3.5,8
			c-13,10.1-27.3,12.8-42.4,7.3c-14.5-5.3-20-17.6-21.5-32c-1-9.9,0.2-19.5,5.1-28.4c9.4-17.4,31.6-23.2,46.6-11.7
			c9,6.8,11.9,16.7,12.7,27.4C636.5,508,636.4,510.6,636.4,513.9z M584.2,506.6c13.5,0,26.8,0,40.1,0c2.3-11.4-5.5-23.1-16-24.2
			C595.5,481.1,584.7,491.7,584.2,506.6z"/>
		<path d="M714.2,515.9c0.4-15.6,4.2-27.5,15.4-35.7c22.5-16.5,52.2-3.1,55.4,24.9c1.2,10.4,0.3,20.5-4.5,30
			C774,548,761.1,555,747,553.5c-15.7-1.7-26.7-10.8-30.8-25.9C715,523.1,714.6,518.4,714.2,515.9z M773.9,512.7
			c-0.9-4.7-1.3-9.8-2.7-14.6c-2.8-9.5-9.4-15-18.1-15.7c-10.5-0.8-18.4,3.3-22.7,12.6c-5.3,11.6-5.5,23.5-0.3,35.2
			c4.2,9.3,12.9,14,23.2,13.2c8.9-0.7,15.5-6.5,18.2-16.5C772.7,522.4,773.1,517.7,773.9,512.7z"/>
		<path d="M434.4,447.1c19,0,37.8,0,57.2,0c-0.2,3.5-0.5,7-0.7,10.7c-14.9,0-29.5,0-44.3,0c0,11.8,0,23.2,0,35.2
			c14.2,0,28.3,0,42.6,0c0,3.6,0,6.6,0,10c-14.1,0-28.2,0-42.8,0c0,16.2,0,32.1,0,48.2c-4.2,0-8,0-12,0
			C434.4,516.5,434.4,481.9,434.4,447.1z"/>
		<path d="M892.7,551.4c-3.8,0-7.1,0-10.9,0c-0.1-1.5-0.2-2.9-0.2-4.3c-0.2-15.6-0.3-31.2-0.5-46.8c0-1.1-0.1-2.2-0.3-3.3
			c-1.8-11.4-7.1-15.4-18.5-13.7c-6.8,1-12.7,4-16.5,9.7c-1.9,2.8-3.3,6.5-3.3,9.8c-0.4,14.7-0.2,29.5-0.2,44.2c0,1.3,0,2.7,0,4.3
			c-3.8,0-7.3,0-11.1,0c0-25.5,0-51,0-76.6c3.2,0,6.2,0,9.6,0c0.3,3.3,0.6,6.7,0.9,10.6c1-1,1.7-1.6,2.4-2.2
			c9.4-8.7,20.4-11.8,32.9-9.1c5.9,1.3,10.5,4.9,12.5,10.6c1.6,4.6,2.9,9.5,3,14.4c0.4,16.7,0.2,33.4,0.2,50.1
			C892.9,549.7,892.7,550.4,892.7,551.4z"/>
		<path d="M704.8,479.6c-0.9,2.6-1.7,5.2-2.4,7.3c-5.3-1.3-10.2-3.1-15.2-3.7c-11.1-1.3-18.9,4-23.7,13.6c-5.4,10.8-5.6,22-0.6,33
			c6.1,13.6,22,18.4,35.9,11.1c1.2-0.6,2.4-1.3,3.9-2.2c0.7,2.3,1.6,4.3,1.8,6.5c0.1,1-1,2.4-1.9,3.1c-6.7,4.7-14.4,6-22.3,5
			c-18.6-2.1-31.1-15.4-32.6-34.2c-1.1-14.1,1.6-26.9,12.2-37.1C671.4,470.9,693.2,469.7,704.8,479.6z"/>
		<path d="M564.3,542.8c0.3,3.5,0.6,6.5,0.9,9.9c-5.6,0-10.9,0.6-16-0.2c-6.5-1-9.7-6-10.6-14.3c-0.4-4.1-0.8-8.1-0.8-12.2
			c-0.1-25.3,0-50.5,0-75.8c0-0.7,0.1-1.5,0.1-2.5c3.7-0.5,7.3-0.9,11.4-1.4c0,1.9,0,3.3,0,4.8c0.1,26.5,0.1,53,0.2,79.5
			c0,1,0,2,0.1,3c0.8,8.5,3.6,10.7,12.1,9.4C562.4,542.8,563.1,542.9,564.3,542.8z"/>
		<path d="M506.5,474.5c3.7,0,7.1,0,10.8,0c0,25.6,0,51,0,76.7c-3.5,0-7,0-10.8,0C506.5,525.7,506.5,500.3,506.5,474.5z"/>
		<path d="M813.3,551.4c-3.8,0-7.1,0-10.8,0c0-25.5,0-51.1,0-76.8c3.5,0,7,0,10.8,0C813.3,500.2,813.3,525.6,813.3,551.4z"/>
		<path d="M506.5,460.4c0-4.5,0-8.8,0-13.3c3.6,0,7.1,0,10.9,0c0,4.4,0,8.7,0,13.3C513.8,460.4,510.4,460.4,506.5,460.4z"/>
		<path d="M802.5,447c3.6,0,7,0,10.7,0c0,4.5,0,8.8,0,13.4c-3.6,0-7,0-10.7,0C802.5,456.1,802.5,451.7,802.5,447z"/>
	</g>
</g>
</svg>
