<?xml version="1.0" encoding="UTF-8" ?>
<svg xmlns="http://www.w3.org/2000/svg" version="1.1" viewBox="0 0 24 24">
  <defs>
    <style>
      .cls-1 {
        fill-opacity: 0;
      }

      .cls-1, .cls-2 {
        fill: #00FF00;
      }
    </style>
  </defs>
  <!-- Generator: Adobe Illustrator 28.7.1, SVG Export Plug-In . SVG Version: 1.2.0 Build 142)  -->
  <g>
    <g id="Layer_1">
      <g id="rewind-right">
        <g id="rewind-right-2">
          <g id="rewind-right-3">
            <rect id="Rectangle_191543" class="cls-1" width="24" height="24" />
            <path
              id="Path_283384"
              class="cls-2"
              d="M20.9,10.7l-5.1-4.2c-.6-.5-1.5-.6-2.2-.3-.6.3-1,.9-1.1,1.6v2.6l-4.7-3.9c-.6-.5-1.5-.6-2.2-.3-.6.3-1,.9-1,1.6v8.4c0,.7.4,1.3,1,1.6.3.1.6.2.9.2.5,0,.9-.2,1.3-.5l4.7-3.9v2.6c0,.7.4,1.3,1.1,1.6.3.1.6.2.9.2.5,0,.9-.2,1.3-.5l5.1-4.2c.7-.6.9-1.7.3-2.4,0-.1-.2-.2-.3-.3Z"
            />
          </g>
        </g>
      </g>
    </g>
  </g>
</svg>
