<?xml version="1.0" encoding="UTF-8" ?>
<svg xmlns="http://www.w3.org/2000/svg" version="1.1" viewBox="0 0 24 24">
  <defs>
    <style>
      .cls-1 {
        fill-opacity: 0;
      }

      .cls-1, .cls-2 {
        fill: #00FF00;
      }
    </style>
  </defs>
  <!-- Generator: Adobe Illustrator 28.7.1, SVG Export Plug-In . SVG Version: 1.2.0 Build 142)  -->
  <g>
    <g id="Layer_1">
      <g id="rewind-right">
        <g id="credit-card">
          <g id="credit-card-2">
            <g id="credit-card-3">
              <rect
                id="Rectangle_191545"
                class="cls-1"
                width="24"
                height="24"
              />
              <path
                id="Path_283386"
                class="cls-2"
                d="M19,5H5c-1.7,0-3,1.3-3,3v8c0,1.7,1.3,3,3,3h14c1.7,0,3-1.3,3-3v-8c0-1.7-1.3-3-3-3ZM11,15h-4c-.6,0-1-.4-1-1s.4-1,1-1h4c.6,0,1,.4,1,1s-.4,1-1,1ZM17,15h-2c-.6,0-1-.4-1-1s.4-1,1-1h2c.6,0,1,.4,1,1s-.4,1-1,1ZM20,9H4v-1c0-.6.4-1,1-1h14c.6,0,1,.4,1,1v1Z"
              />
            </g>
          </g>
        </g>
      </g>
    </g>
  </g>
</svg>
