<svg xmlns="http://www.w3.org/2000/svg" xmlns:xlink="http://www.w3.org/1999/xlink" width="40" zoomAndPan="magnify" viewBox="0 0 30 30.000001" height="40" preserveAspectRatio="xMidYMid meet" version="1.0"><defs><clipPath id="2aeed2b877"><path d="M 10 6.804688 L 20 6.804688 L 20 22.046875 L 10 22.046875 Z M 10 6.804688 " clip-rule="nonzero"/></clipPath><clipPath id="555d717d94"><path d="M 0.484375 14 L 15 14 L 15 22.046875 L 0.484375 22.046875 Z M 0.484375 14 " clip-rule="nonzero"/></clipPath><clipPath id="9e06e8ad83"><path d="M 17 14 L 29.515625 14 L 29.515625 22.046875 L 17 22.046875 Z M 17 14 " clip-rule="nonzero"/></clipPath></defs><g clip-path="url(#2aeed2b877)"><path fill="#ffffff" d="M 19.886719 14.613281 C 19.886719 18.433594 16.40625 21.460938 15.445312 22.226562 C 15.292969 21.167969 14.433594 16.445312 11.027344 14.492188 C 10.863281 14.398438 10.691406 14.3125 10.519531 14.234375 C 10.765625 9.851562 15.199219 6.804688 15.199219 6.804688 C 15.199219 6.804688 19.441406 9.855469 19.855469 13.96875 C 19.878906 14.179688 19.890625 14.394531 19.890625 14.613281 Z M 19.886719 14.613281 " fill-opacity="1" fill-rule="evenodd"/></g><g clip-path="url(#555d717d94)"><path fill="#ffffff" d="M 14.148438 22.191406 L 3.90625 22.191406 C 1.082031 19.589844 0.714844 15.164062 0.714844 15.164062 C 0.714844 15.164062 5.523438 12.972656 9.308594 14.710938 C 9.484375 14.789062 9.652344 14.878906 9.820312 14.972656 C 12.824219 16.695312 13.847656 20.574219 14.148438 22.191406 Z M 14.148438 22.191406 " fill-opacity="1" fill-rule="evenodd"/></g><g clip-path="url(#9e06e8ad83)"><path fill="#ffffff" d="M 29.285156 15.125 C 29.285156 15.125 28.933594 19.585938 26.085938 22.191406 L 17.289062 22.191406 C 18.667969 20.914062 20.957031 18.339844 20.957031 15.242188 C 20.957031 15.027344 20.945312 14.8125 20.921875 14.601562 C 24.664062 13.039062 29.285156 15.125 29.285156 15.125 Z M 29.285156 15.125 " fill-opacity="1" fill-rule="evenodd"/></g></svg>