<svg xmlns="http://www.w3.org/2000/svg" xmlns:xlink="http://www.w3.org/1999/xlink" width="76" zoomAndPan="magnify" viewBox="0 0 56.879997 30.000001" height="40" preserveAspectRatio="xMidYMid meet" version="1.0"><defs><clipPath id="acfe53e67d"><path d="M 45 10 L 55.90625 10 L 55.90625 21 L 45 21 Z M 45 10 " clip-rule="nonzero"/></clipPath><clipPath id="5068d782fb"><path d="M 0.859375 8 L 11 8 L 11 21 L 0.859375 21 Z M 0.859375 8 " clip-rule="nonzero"/></clipPath></defs><g clip-path="url(#acfe53e67d)"><path fill="#ffffff" d="M 46.230469 20.839844 C 46.230469 19.980469 46.242188 19.195312 46.230469 18.414062 C 46.222656 17.941406 46.527344 17.949219 46.863281 17.949219 C 48.546875 17.953125 50.234375 17.953125 51.917969 17.953125 C 52.097656 17.953125 52.304688 18.007812 52.453125 17.9375 C 52.679688 17.828125 52.863281 17.636719 53.0625 17.480469 C 52.871094 17.3125 52.679688 17.007812 52.480469 16.996094 C 51.378906 16.949219 50.277344 16.996094 49.175781 16.957031 C 48.597656 16.9375 47.996094 16.902344 47.457031 16.714844 C 45.960938 16.195312 45.113281 14.714844 45.300781 13.085938 C 45.46875 11.609375 46.703125 10.289062 48.234375 10.210938 C 50.363281 10.105469 52.5 10.144531 54.636719 10.15625 C 54.78125 10.15625 55.035156 10.429688 55.050781 10.59375 C 55.101562 11.171875 55.042969 11.761719 55.078125 12.339844 C 55.117188 12.886719 54.929688 13.085938 54.359375 13.078125 C 52.699219 13.046875 51.035156 13.066406 49.371094 13.066406 C 49.191406 13.066406 48.984375 13.011719 48.835938 13.082031 C 48.609375 13.195312 48.421875 13.390625 48.21875 13.550781 C 48.421875 13.714844 48.617188 13.996094 48.828125 14.011719 C 49.632812 14.066406 50.445312 14.027344 51.253906 14.039062 C 51.882812 14.050781 52.515625 14.042969 53.136719 14.128906 C 54.808594 14.359375 55.996094 15.738281 56.019531 17.414062 C 56.042969 19.109375 54.855469 20.703125 53.191406 20.804688 C 50.914062 20.945312 48.621094 20.839844 46.230469 20.839844 Z M 46.230469 20.839844 " fill-opacity="1" fill-rule="evenodd"/></g><path fill="#ffffff" d="M 22.664062 15.464844 C 22.679688 18.414062 20.304688 20.847656 17.378906 20.875 C 14.347656 20.898438 11.898438 18.515625 11.890625 15.527344 C 11.882812 12.5625 14.308594 10.140625 17.28125 10.140625 C 20.230469 10.140625 22.644531 12.527344 22.664062 15.464844 Z M 19.722656 15.550781 C 19.738281 14.191406 18.691406 13.109375 17.335938 13.082031 C 15.945312 13.050781 14.84375 14.125 14.839844 15.507812 C 14.835938 15.832031 14.898438 16.140625 15.019531 16.441406 C 15.140625 16.738281 15.316406 17.003906 15.542969 17.230469 C 15.769531 17.460938 16.03125 17.636719 16.332031 17.757812 C 16.628906 17.882812 16.9375 17.945312 17.261719 17.945312 C 18.617188 17.953125 19.707031 16.890625 19.722656 15.550781 Z M 19.722656 15.550781 " fill-opacity="1" fill-rule="evenodd"/><path fill="#ffffff" d="M 43.429688 13.210938 C 43.335938 14.4375 43.394531 15.699219 43.117188 16.878906 C 42.507812 19.488281 40.007812 21.125 37.320312 20.855469 C 34.769531 20.601562 32.644531 18.371094 32.542969 15.746094 C 32.480469 14.042969 32.535156 12.339844 32.515625 10.636719 C 32.515625 10.246094 32.679688 10.125 33.039062 10.128906 C 33.644531 10.140625 34.253906 10.15625 34.859375 10.125 C 35.332031 10.101562 35.480469 10.273438 35.472656 10.742188 C 35.445312 12.332031 35.449219 13.921875 35.480469 15.511719 C 35.503906 16.597656 36.039062 17.394531 37.074219 17.785156 C 38.050781 18.152344 38.9375 17.9375 39.683594 17.21875 C 40.25 16.667969 40.410156 15.949219 40.410156 15.1875 C 40.414062 13.710938 40.425781 12.230469 40.402344 10.753906 C 40.398438 10.296875 40.527344 10.097656 41.011719 10.125 C 41.613281 10.15625 42.222656 10.144531 42.832031 10.128906 C 43.207031 10.121094 43.351562 10.28125 43.347656 10.652344 C 43.332031 11.503906 43.34375 12.355469 43.34375 13.207031 Z M 43.429688 13.210938 " fill-opacity="1" fill-rule="evenodd"/><g clip-path="url(#5068d782fb)"><path fill="#ffffff" d="M 3.796875 12.175781 C 3.796875 13.183594 3.792969 14.191406 3.796875 15.199219 C 3.8125 16.992188 4.757812 17.941406 6.542969 17.949219 C 7.710938 17.957031 8.882812 17.96875 10.050781 17.945312 C 10.511719 17.933594 10.703125 18.085938 10.683594 18.558594 C 10.65625 19.183594 10.699219 19.8125 10.65625 20.4375 C 10.648438 20.589844 10.429688 20.859375 10.3125 20.855469 C 8.539062 20.835938 6.742188 20.949219 5.003906 20.6875 C 2.703125 20.34375 0.949219 18.15625 0.890625 15.832031 C 0.832031 13.457031 0.875 11.082031 0.859375 8.707031 C 0.855469 8.308594 0.984375 8.136719 1.402344 8.152344 C 2.007812 8.179688 2.617188 8.179688 3.222656 8.152344 C 3.671875 8.136719 3.808594 8.324219 3.800781 8.75 C 3.785156 9.890625 3.796875 11.035156 3.796875 12.175781 Z M 3.796875 12.175781 " fill-opacity="1" fill-rule="evenodd"/></g><path fill="#ffffff" d="M 30.46875 20.785156 C 27.992188 21.230469 25.257812 19.257812 24.730469 16.707031 C 24.636719 16.265625 24.585938 15.824219 24.582031 15.375 C 24.566406 13.203125 24.59375 11.035156 24.5625 8.863281 C 24.554688 8.289062 24.753906 8.121094 25.300781 8.148438 C 26.007812 8.1875 26.722656 8.160156 27.511719 8.160156 C 27.511719 8.652344 27.539062 9.050781 27.503906 9.445312 C 27.457031 9.957031 27.617188 10.183594 28.171875 10.140625 C 28.75 10.097656 29.335938 10.144531 29.921875 10.128906 C 30.320312 10.113281 30.492188 10.25 30.476562 10.667969 C 30.449219 11.25 30.441406 11.835938 30.476562 12.414062 C 30.507812 12.90625 30.34375 13.097656 29.832031 13.074219 C 29.097656 13.039062 28.359375 13.066406 27.449219 13.066406 C 27.527344 14.199219 27.472656 15.28125 27.703125 16.296875 C 27.933594 17.320312 28.769531 17.886719 29.84375 17.929688 C 30.355469 17.949219 30.5 18.125 30.476562 18.609375 C 30.441406 19.339844 30.46875 20.070312 30.46875 20.785156 Z M 30.46875 20.785156 " fill-opacity="1" fill-rule="evenodd"/></svg>