<?xml version="1.0" encoding="UTF-8"?><svg id="Layer_1" xmlns="http://www.w3.org/2000/svg" viewBox="0 0 878.03 583.31"><defs><style>.cls-1{fill:none;stroke:#f2f5f2;stroke-width:.75px;}</style></defs><g id="BACK_GRID"><g id="RIGHT_GRID"><line id="Line_1968" class="cls-1" x1="878.03" y1="326.41" x2="439.26" y2="326.41"/><line id="Line_1968-2" class="cls-1" x1="878.03" y1="362.99" x2="439.26" y2="362.99"/><line id="Line_1968-3" class="cls-1" x1="878.03" y1="399.57" x2="439.26" y2="399.57"/><line id="Line_1968-4" class="cls-1" x1="878.03" y1="436.15" x2="439.26" y2="436.15"/><line id="Line_1968-5" class="cls-1" x1="878.03" y1="472.73" x2="439.26" y2="472.73"/><line id="Line_1968-6" class="cls-1" x1="878.03" y1="509.31" x2="439.26" y2="509.31"/><line id="Line_1968-7" class="cls-1" x1="878.03" y1="545.89" x2="439.26" y2="545.89"/><line id="Line_1969" class="cls-1" x1="878.03" y1="106.93" x2="439.26" y2="106.93"/><line id="Line_1970" class="cls-1" x1="878.03" y1="143.51" x2="439.26" y2="143.51"/><line id="Line_1971" class="cls-1" x1="878.03" y1="180.09" x2="439.26" y2="180.09"/><line id="Line_1972" class="cls-1" x1="878.03" y1="216.67" x2="439.26" y2="216.67"/><line id="Line_1973" class="cls-1" x1="878.03" y1="253.25" x2="439.26" y2="253.25"/><line id="Line_1974" class="cls-1" x1="878.03" y1="289.83" x2="439.26" y2="289.83"/><line id="Line_1975" class="cls-1" x1="878.03" y1="33.76" x2="439.26" y2="33.76"/><line id="Line_1976" class="cls-1" x1="878.03" y1="70.35" x2="439.26" y2="70.35"/></g><g id="LEFT_GRID"><line id="Line_1968-8" class="cls-1" x1="439.26" y1="326.41" y2="326.41"/><line id="Line_1968-9" class="cls-1" x1="439.26" y1="362.99" y2="362.99"/><line id="Line_1968-10" class="cls-1" x1="439.26" y1="399.57" y2="399.57"/><line id="Line_1968-11" class="cls-1" x1="439.26" y1="436.15" y2="436.15"/><line id="Line_1968-12" class="cls-1" x1="439.26" y1="472.73" y2="472.73"/><line id="Line_1968-13" class="cls-1" x1="439.26" y1="509.31" y2="509.31"/><line id="Line_1968-14" class="cls-1" x1="439.26" y1="545.89" y2="545.89"/><line id="Line_1969-2" class="cls-1" x1="439.26" y1="106.93" y2="106.93"/><line id="Line_1970-2" class="cls-1" x1="439.26" y1="143.51" y2="143.51"/><line id="Line_1971-2" class="cls-1" x1="439.26" y1="180.09" y2="180.09"/><line id="Line_1972-2" class="cls-1" x1="439.26" y1="216.67" y2="216.67"/><line id="Line_1973-2" class="cls-1" x1="439.26" y1="253.25" y2="253.25"/><line id="Line_1974-2" class="cls-1" x1="439.26" y1="289.83" y2="289.83"/><line id="Line_1975-2" class="cls-1" x1="439.26" y1="33.76" y2="33.76"/><line id="Line_1976-2" class="cls-1" x1="439.26" y1="70.35" y2="70.35"/></g><g id="TOP_GRID"><line id="Line_1977" class="cls-1" x1="52.3" y1="289.83" x2="52.3"/><line id="Line_1977-2" class="cls-1" x1="108" y1="289.83" x2="108"/><line id="Line_1977-3" class="cls-1" x1="162.87" y1="289.83" x2="162.87"/><line id="Line_1977-4" class="cls-1" x1="217.74" y1="289.83" x2="217.74"/><line id="Line_1977-5" class="cls-1" x1="272.61" y1="289.83" x2="272.61"/><line id="Line_1977-6" class="cls-1" x1="328.32" y1="289.83" x2="328.32"/><line id="Line_1977-7" class="cls-1" x1="383.19" y1="289.83" x2="383.19"/><line id="Line_1977-8" class="cls-1" x1="438.89" y1="289.83" x2="438.89"/><line id="Line_1977-9" class="cls-1" x1="493.76" y1="289.83" x2="493.76"/><line id="Line_1977-10" class="cls-1" x1="549.46" y1="289.83" x2="549.46"/><line id="Line_1977-11" class="cls-1" x1="604.33" y1="289.83" x2="604.33"/><line id="Line_1977-12" class="cls-1" x1="659.2" y1="289.83" x2="659.2"/><line id="Line_1977-13" class="cls-1" x1="714.91" y1="289.83" x2="714.91"/><line id="Line_1977-14" class="cls-1" x1="769.78" y1="289.83" x2="769.78"/><line id="Line_1977-15" class="cls-1" x1="825.48" y1="289.83" x2="825.48"/></g><g id="BOTTOM_GRID"><line id="Line_1977-16" class="cls-1" x1="52.3" y1="289.83" x2="52.3" y2="583.31"/><line id="Line_1977-17" class="cls-1" x1="108" y1="289.83" x2="108" y2="583.31"/><line id="Line_1977-18" class="cls-1" x1="162.87" y1="289.83" x2="162.87" y2="583.31"/><line id="Line_1977-19" class="cls-1" x1="217.74" y1="289.83" x2="217.74" y2="583.31"/><line id="Line_1977-20" class="cls-1" x1="272.61" y1="289.83" x2="272.61" y2="583.31"/><line id="Line_1977-21" class="cls-1" x1="328.32" y1="289.83" x2="328.32" y2="583.31"/><line id="Line_1977-22" class="cls-1" x1="383.19" y1="289.83" x2="383.19" y2="583.31"/><line id="Line_1977-23" class="cls-1" x1="438.89" y1="289.83" x2="438.89" y2="583.31"/><line id="Line_1977-24" class="cls-1" x1="493.76" y1="289.83" x2="493.76" y2="583.31"/><line id="Line_1977-25" class="cls-1" x1="549.46" y1="289.83" x2="549.46" y2="583.31"/><line id="Line_1977-26" class="cls-1" x1="604.33" y1="289.83" x2="604.33" y2="583.31"/><line id="Line_1977-27" class="cls-1" x1="659.2" y1="289.83" x2="659.2" y2="583.31"/><line id="Line_1977-28" class="cls-1" x1="714.91" y1="289.83" x2="714.91" y2="583.31"/><line id="Line_1977-29" class="cls-1" x1="769.78" y1="289.83" x2="769.78" y2="583.31"/><line id="Line_1977-30" class="cls-1" x1="825.48" y1="289.83" x2="825.48" y2="583.31"/></g></g></svg>