<?xml version="1.0" encoding="UTF-8"?><svg id="Layer_1" xmlns="http://www.w3.org/2000/svg" viewBox="0 0 1920.75 1279.67"><defs><style>.cls-1,.cls-2,.cls-3{fill:none;}.cls-2{stroke-linecap:round;stroke-linejoin:round;}.cls-2,.cls-3{stroke:#6abd45;stroke-width:.75px;}</style></defs><g id="Group_176536"><path id="Path_282680" class="cls-2" d="M1920.37.38l-357.17,237.91-163.47,108.89-93.73,62.43-60.77,40.48-42.59,28.37-31.51,20.99-24.26,16.16-19.25,12.82-15.65,10.42-12.97,8.64-10.93,7.28-9.33,6.21-8.06,5.37-7.03,4.68-6.19,4.12-5.49,3.66v99.15l5.49,2.29,6.19,2.58,7.03,2.93,8.06,3.36,9.33,3.88,10.93,4.55,12.97,5.4,15.65,6.51,19.25,8.02,24.26,10.1,31.51,13.12,42.59,17.73,60.77,25.3,93.73,39.02,163.47,68.05,357.17,148.7v239.8"/><path id="Path_282681" class="cls-2" d="M.38.38l357.17,237.91h150.71l122.6,108.89,70.29,62.43,45.58,40.48,31.95,28.37,23.64,20.99,18.19,16.16,14.44,12.82,11.73,10.42,9.73,8.64,8.2,7.28,7,6.21,6.04,5.37,5.27,4.68,4.64,4.12h145.64l4.64-4.12,5.27-4.68,6.05-5.37,7-6.21,8.2-7.28,9.73-8.64,11.74-10.42,14.44-12.82,18.19-16.16,23.64-20.99,31.95-28.37,45.57-40.48,70.29-62.43h54.92l54.92-41.81,88.11-67.08h75.35"/><path id="Path_282682" class="cls-2" d="M120.38.38l312.53,237.91,88.11,67.08,54.92,41.81,38.81,29.54,43.2,32.89,17.57,13.37,35.61,27.11,6.99,5.32,30.29,23.05,1.23.94,26.34,20.06,21.23,16.16,16.84,12.82,13.69,10.42,11.35,8.64,9.56,7.28,8.16,6.21,7.05,5.37,6.15,4.68h180.74l6.15-4.68,7.05-5.37,8.16-6.21,9.56-7.28,11.35-8.64,13.69-10.42,16.84-12.82,21.23-16.16,26.34-20.06,1.23-.94,30.29-23.05,6.99-5.32,35.61-27.11,17.57-13.37,43.2-32.89,38.81-29.54h54.92"/><path id="Path_282683" class="cls-2" d="M.38,80.31l357.17,208.17v50.19l163.47,81.66,93.72,46.82,60.77,30.36,42.59,21.28,31.51,15.74,24.26,12.12,19.25,9.62,15.65,7.82,12.97,6.48,10.93,5.46,9.33,4.66,8.06,4.03,7.03,3.51v111.79l-7.03,4.1-8.06,4.7-9.32,5.43-10.93,6.37-12.97,7.56-15.65,9.12-19.25,11.22-24.26,14.14-30.11,17.55-1.4.82-34.61,20.17-7.98,4.66-40.7,23.72-20.07,11.7-49.38,28.77-44.35,25.85-62.77,36.58-100.7,58.69L.38,1199.35"/><path id="Path_282684" class="cls-2" d="M1680.37,1279.29l-267.88-237.91H508.26l-267.88,237.91"/><path id="Path_282685" class="cls-2" d="M.38,160.24l357.17,178.43v602.31L.38,1119.42"/><path id="Path_282686" class="cls-2" d="M480.38.38l178.59,237.91,81.73,108.89,46.86,62.43,30.39,40.48,21.3,28.37,15.76,20.99,12.13,16.16,9.62,12.82,7.83,10.42,6.48,8.64,5.46,7.28,4.67,6.21,4.03,5.37,3.52,4.68,3.09,4.12,2.75,3.66"/><path id="Path_282687" class="cls-2" d="M.38,320.1l357.17,118.95,163.47,54.44,93.72,31.21,60.77,20.24,42.59,14.19,31.51,10.5,24.26,8.08,19.25,6.41,15.65,5.21,12.97,4.32,10.93,3.64,9.33,3.11,8.06,2.68,7.03,2.34,6.19,2.06,5.49,1.83"/><path id="Path_282688" class="cls-2" d="M1440.37.38l-178.59,237.91-81.73,108.89-46.86,62.43-30.39,40.48-21.3,28.37-15.75,20.99-12.13,16.16-9.62,12.82-7.82,10.42-6.48,8.64-5.46,7.28-4.66,6.21-4.02,5.37-3.51,4.68-3.09,4.12-2.75,3.66"/><path id="Path_282689" class="cls-2" d="M1920.37,400.04l-357.17,89.22-163.47,40.83-93.73,23.41-60.77,15.18-42.59,10.64-31.51,7.87-24.26,6.06-19.25,4.81-15.65,3.91-12.97,3.24-10.93,2.73-9.33,2.33-8.06,2.01-7.03,1.76-6.19,1.55-5.49,1.37"/><path id="Path_282690" class="cls-2" d="M600.38.38l133.94,237.91,61.3,108.89,35.15,62.43,22.79,40.48,15.97,28.37,11.81,20.99,9.1,16.16,7.22,12.82,5.87,10.42,4.86,8.64,4.1,7.28,3.5,6.21,3.02,5.37,2.64,4.68,2.32,4.12,2.06,3.66"/><path id="Path_282691" class="cls-2" d="M1320.37.38l-133.94,237.91-61.3,108.89-35.15,62.43-22.79,40.48-15.98,28.37-11.81,20.99-9.1,16.16-7.22,12.82-5.87,10.42-4.86,8.64-4.1,7.28-3.5,6.21-3.02,5.37-2.64,4.68-2.32,4.12-2.06,3.66"/><path id="Path_282692" class="cls-2" d="M.38,479.97l357.17,59.48,163.47,27.22,93.72,15.61,60.77,10.12,42.59,7.09,31.51,5.25,24.26,4.04,19.25,3.21,15.65,2.61,12.97,2.16,10.93,1.82,9.33,1.55,8.06,1.34,7.03,1.17,6.19,1.03,5.49.91"/><path id="Path_282693" class="cls-2" d="M720.38.38l89.29,237.91,40.87,108.89,23.43,62.43,15.19,40.48,10.65,28.37,7.88,20.99,6.06,16.16,4.81,12.82,3.91,10.42,3.24,8.64,2.73,7.28,2.33,6.21,2.02,5.37,1.76,4.68,1.55,4.12,1.37,3.66"/><path id="Path_282694" class="cls-2" d="M1200.37.38l-89.29,237.91-40.87,108.89-23.43,62.43-15.19,40.48-10.65,28.37-7.88,20.99-6.06,16.16-4.81,12.82-3.91,10.42-3.24,8.64-2.73,7.28-2.33,6.21-2.02,5.37-1.76,4.68-1.55,4.12-1.37,3.66"/><path id="Path_282695" class="cls-2" d="M1920.37,559.9l-357.17,29.74-163.47,13.61-93.73,7.8-60.77,5.06-42.59,3.55-31.51,2.62-24.26,2.02-19.25,1.6-15.65,1.3-12.97,1.08-10.93.91-9.33.78-8.06.67-7.03.59-6.19.52-5.49.46"/><path id="Path_282696" class="cls-2" d="M1920.37,719.76l-357.17-29.74-163.47-13.61-93.73-7.8-60.77-5.06-42.59-3.55-31.51-2.62-24.26-2.02-19.25-1.6-15.65-1.3-12.97-1.08-10.93-.91-9.33-.78-8.06-.67-7.03-.59-6.19-.52-5.49-.46"/><path id="Path_282697" class="cls-2" d="M1080.38.38l-44.65,237.91-20.43,108.89-11.72,62.43-7.6,40.48-5.33,28.37-3.94,20.99-3.03,16.16-2.41,12.82-1.96,10.42-1.62,8.64-1.36,7.28-1.17,6.21-1.01,5.37-.88,4.68-.77,4.12-.69,3.66"/><path id="Path_282698" class="cls-2" d="M.38,559.9l357.17,29.74,163.47,13.61,93.72,7.8,60.77,5.06,42.59,3.55,31.51,2.62,24.26,2.02,19.25,1.6,15.65,1.3,12.97,1.08,10.93.91,9.33.78,8.06.67,7.03.59,6.19.52,5.49.46"/><path id="Path_282699" class="cls-2" d="M840.37.38l44.65,237.91,20.43,108.89,11.72,62.43,7.6,40.48,5.33,28.37,3.94,20.99,3.03,16.16,2.41,12.82,1.96,10.42,1.62,8.64,1.36,7.28,1.17,6.21,1.01,5.37.88,4.68.77,4.12.69,3.66"/><path id="Path_282700" class="cls-2" d="M960.38.38v578.44"/><path id="Path_282701" class="cls-2" d="M.38,639.84h868.4"/><path id="Path_282702" class="cls-2" d="M357.55,238.29l163.47,108.88,93.73,62.43h691.27"/><path id="Path_282703" class="cls-2" d="M.38.38h360l223.23,237.91,102.17,108.89,58.58,62.43,37.98,40.48,26.62,28.37,19.7,20.99,15.16,16.16,12.03,12.82,9.78,10.42,8.11,8.64,6.83,7.28,5.83,6.21,5.04,5.37,4.4,4.68,3.87,4.12,3.43,3.66h114.5l3.43-3.66,3.87-4.12,4.4-4.68,5.04-5.37,5.83-6.21,6.83-7.28,8.11-8.64,9.78-10.42,12.03-12.82,15.16-16.16,19.7-20.99,26.62-28.37,37.98-40.48,58.58-62.43,102.17-108.89h150.71L1800.38.38h120"/><path id="Path_282704" class="cls-2" d="M1920.37.38v79.93l-357.17,208.17-100.7,58.69-62.77,36.58-44.35,25.85-49.38,28.78-20.07,11.7-40.7,23.72-7.98,4.65-34.61,20.17-1.4.82-30.11,17.55-24.26,14.14-19.25,11.22-15.65,9.12-12.97,7.56-10.93,6.37-9.33,5.44-8.06,4.7-7.03,4.1-6.19,3.61-5.49,3.2"/><path id="Path_282705" class="cls-2" d="M1920.37,80.31v79.93l-357.17,178.43-163.47,81.66-93.73,46.82-60.77,30.36-42.59,21.28-31.51,15.74-24.26,12.12-19.25,9.62-15.65,7.82-12.97,6.48-10.93,5.46-9.33,4.66-8.06,4.03-7.03,3.51-6.19,3.09-5.49,2.74"/><path id="Path_282706" class="cls-2" d="M1920.37,160.24v79.93l-357.17,148.7-163.47,68.05-93.73,39.02-60.77,25.3-42.59,17.73-31.51,13.12-24.26,10.1-19.25,8.02-15.65,6.51-12.97,5.4-10.93,4.55-9.33,3.88-8.06,3.36-7.03,2.93-6.19,2.58-5.49,2.29"/><path id="Path_282707" class="cls-2" d="M1920.37,1279.29h-360l-223.23-237.91-102.16-108.89-58.58-62.43-37.98-40.48-26.63-28.37-19.7-20.99-15.16-16.16-12.03-12.82-9.78-10.42-8.11-8.64-6.82-7.27-5.83-6.21-5.04-5.37-4.4-4.68-3.87-4.12h-133.5l-4.64,4.12-5.27,4.68-6.04,5.37-7,6.21-8.2,7.28-9.73,8.64-11.74,10.42-14.44,12.82-18.19,16.16-23.64,20.99-31.95,28.37-45.58,40.48-70.29,62.43-122.6,108.88h-75.35l-312.53,237.91"/><path id="Path_282708" class="cls-2" d="M.38,1279.29v-239.79l357.17-148.7,163.47-68.05,93.72-39.02,60.77-25.3,42.59-17.73,31.52-13.11,24.26-10.1,19.25-8.02,15.65-6.51,12.97-5.4,10.93-4.55,9.33-3.88,8.06-3.36,7.03-2.93,6.19-2.58,5.49-2.29v-99.15l-5.49-3.66"/><path id="Path_282709" class="cls-2" d="M1680.37.38h-120l-223.23,237.91H508.26L240.38.38"/><path id="Path_282710" class="cls-2" d="M360.37.38h1200"/><path id="Path_282711" class="cls-2" d="M1560.37,1279.29H360.37"/><path id="Path_282712" class="cls-2" d="M.38,1039.49V240.17"/><path id="Path_282713" class="cls-2" d="M.38.38v239.8l357.17,148.7,163.47,68.05,93.72,39.02,60.77,25.3,42.6,17.73,31.51,13.12,24.26,10.1,19.25,8.02,15.65,6.51,12.97,5.4,10.93,4.55,9.33,3.88,8.06,3.36,7.03,2.93,6.19,2.58v88.93l-6.19,3.09-7.03,3.51-8.06,4.03-9.33,4.66-10.93,5.46-12.97,6.48-15.65,7.82-19.25,9.62-24.26,12.12-31.51,15.74-42.59,21.28-60.77,30.36-93.72,46.82-163.47,81.66v100.39L.38,1279.29"/><path id="Path_282714" class="cls-2" d="M1920.37,240.17v799.32"/><path id="Path_282715" class="cls-2" d="M614.74,409.6l60.77,40.48h569.73"/><path id="Path_282716" class="cls-2" d="M1563.2,1041.37h-75.35l-88.11-67.08-54.92-41.81-38.81-29.54-43.2-32.89-17.57-13.37-35.61-27.11-6.98-5.32-30.29-23.05-1.23-.93-26.35-20.06-21.23-16.16-16.85-12.82-13.69-10.42-11.35-8.64-9.56-7.28-8.16-6.21-7.05-5.37-6.15-4.68h-12.91l-4.64-4.12h-12.14l-3.43-3.66"/><path id="Path_282717" class="cls-2" d="M1563.2,238.29v702.7l357.17,178.43"/><path id="Path_282718" class="cls-2" d="M357.55,1041.37h75.35l88.11-67.08,54.92-41.81,38.81-29.54,43.2-32.89,17.57-13.37,35.61-27.11,6.99-5.32,30.29-23.05,1.23-.93,26.35-20.06,21.23-16.16,16.85-12.82,13.69-10.42,11.35-8.64,9.56-7.28,8.16-6.21,7.05-5.37,6.15-4.68h167.83l5.27,4.68,6.04,5.37,7,6.21,8.2,7.28,9.73,8.64,11.74,10.42,14.44,12.82,18.19,16.16,23.64,20.99,31.95,28.37,45.58,40.48,70.29,62.43,122.6,108.89h75.35l312.53,237.91"/><path id="Path_282719" class="cls-2" d="M675.51,450.08l42.59,28.37h484.54"/><path id="Path_282720" class="cls-2" d="M521.01,932.49V347.17"/><path id="Path_282721" class="cls-2" d="M1399.73,347.17v585.31"/><path id="Path_282722" class="cls-2" d="M521.01,347.17h768.88l122.6-108.89L1680.37.38h120"/><path id="Path_282723" class="cls-2" d="M1399.73,932.49h-878.72"/><path id="Path_282724" class="cls-2" d="M718.11,478.46l31.51,20.99h421.51"/><path id="Path_282725" class="cls-2" d="M614.74,870.06v-460.45"/><path id="Path_282726" class="cls-2" d="M1306.01,409.6v460.45"/><path id="Path_282727" class="cls-2" d="M1306.01,870.06h-691.27"/><path id="Path_282728" class="cls-2" d="M675.51,829.58v-379.5"/><path id="Path_282729" class="cls-2" d="M1245.24,450.08v379.5"/><path id="Path_282730" class="cls-2" d="M1245.24,829.58h-569.73"/><path id="Path_282731" class="cls-2" d="M749.62,499.45l24.26,16.16h372.99"/><path id="Path_282732" class="cls-2" d="M1202.65,801.21h-484.54"/><path id="Path_282733" class="cls-2" d="M718.11,801.21v-322.75"/><path id="Path_282734" class="cls-2" d="M1202.65,478.46v322.75"/><path id="Path_282735" class="cls-2" d="M773.87,515.6l19.25,12.82h334.5"/><path id="Path_282736" class="cls-2" d="M749.62,780.22v-280.77"/><path id="Path_282737" class="cls-2" d="M1171.13,499.45v280.77"/><path id="Path_282738" class="cls-2" d="M1171.13,780.21h-421.51"/><path id="Path_282739" class="cls-2" d="M1146.87,764.06h-373"/><path id="Path_282740" class="cls-2" d="M773.87,764.06v-248.45"/><path id="Path_282741" class="cls-2" d="M1146.87,515.6v248.45"/><path id="Path_282742" class="cls-2" d="M793.13,528.43l15.65,10.42h303.2"/><path id="Path_282743" class="cls-2" d="M1127.62,751.24h-334.5"/><path id="Path_282744" class="cls-2" d="M793.13,751.23v-222.81"/><path id="Path_282745" class="cls-2" d="M1127.62,528.43v222.81"/><path id="Path_282746" class="cls-2" d="M1111.97,740.81h-303.2"/><path id="Path_282747" class="cls-2" d="M808.77,740.81v-201.96"/><path id="Path_282748" class="cls-2" d="M1111.97,538.85v201.96"/><path id="Path_282749" class="cls-2" d="M808.77,538.85l12.97,8.64h277.25"/><path id="Path_282750" class="cls-2" d="M1099,732.17h-277.25"/><path id="Path_282751" class="cls-2" d="M821.75,732.17v-184.68"/><path id="Path_282752" class="cls-2" d="M1099,547.49v184.68"/><path id="Path_282753" class="cls-2" d="M1088.07,724.89h-255.4"/><path id="Path_282754" class="cls-2" d="M832.67,724.89v-170.12"/><path id="Path_282755" class="cls-2" d="M1088.08,554.77v170.12"/><path id="Path_282756" class="cls-2" d="M821.75,547.49l10.93,7.28h255.4"/><path id="Path_282757" class="cls-2" d="M842,718.68v-157.7"/><path id="Path_282758" class="cls-2" d="M1078.75,560.98v157.7"/><path id="Path_282759" class="cls-2" d="M1078.75,718.68h-236.75"/><path id="Path_282760" class="cls-2" d="M850.06,713.31v-146.96"/><path id="Path_282761" class="cls-2" d="M1070.69,566.35v146.96l8.06,5.37,9.33,6.21,10.93,7.28,12.97,8.64,15.65,10.42,19.25,12.82,24.26,16.16,31.51,20.99,42.59,28.37,60.77,40.48,93.72,62.43,163.46,108.89"/><path id="Path_282762" class="cls-2" d="M1070.69,713.31h-220.63"/><path id="Path_282763" class="cls-2" d="M832.67,554.77l9.33,6.21h236.75"/><path id="Path_282764" class="cls-2" d="M1063.66,708.63h-12.91l-5.41-4.12h-12.14l-4.12-3.66"/><path id="Path_282765" class="cls-2" d="M857.09,708.63v-8.6l6.19-3.61,5.49-3.2v-15.25"/><path id="Path_282766" class="cls-2" d="M857.09,571.04v8.6l6.19,3.61v8.08l5.49,2.74"/><path id="Path_282767" class="cls-2" d="M1063.65,571.04v128.99l7.03,4.1,8.06,4.7,9.33,5.44,10.93,6.37,12.97,7.56,15.65,9.12,19.25,11.22,24.26,14.14,30.11,17.55,1.4.82,34.61,20.17,7.98,4.65,40.7,23.72,20.07,11.7,49.38,28.78,44.35,25.85,62.77,36.58,100.7,58.69,357.17,208.17"/><path id="Path_282768" class="cls-2" d="M1057.47,575.16v113.18l6.19,3.09,7.03,3.51,8.06,4.03,9.33,4.66,10.93,5.46,12.97,6.48,15.65,7.82,19.25,9.62,24.26,12.12,31.51,15.74,42.59,21.28,60.77,30.36,93.72,46.82,163.47,81.66v100.39l357.18,237.91"/><path id="Path_282769" class="cls-2" d="M863.28,704.5h24.27l4.12-3.66"/><line id="Line_1949" class="cls-2" x1="1040.53" y1="578.81" x2="1051.98" y2="578.81"/><path id="Path_282770" class="cls-2" d="M1029.08,578.82h11.45l4.8-3.66h12.14"/><path id="Path_282771" class="cls-2" d="M1017.63,578.81h11.45l4.12-3.66h12.14l5.41-4.12h12.91"/><line id="Line_1950" class="cls-2" x1="868.77" y1="578.81" x2="880.22" y2="578.81"/><line id="Line_1951" class="cls-2" x1="1051.98" y1="693.22" x2="1051.98" y2="700.85"/><path id="Path_282772" class="cls-2" d="M880.22,700.85h-11.45l-5.49,3.66"/><path id="Path_282773" class="cls-2" d="M903.12,700.85h-22.9l-4.8,3.66-5.41,4.12h-12.91l-7.03,4.68-8.06,5.37-9.33,6.21-10.93,7.28-12.97,8.64-15.65,10.42-19.25,12.82-24.27,16.16-31.51,20.99-42.59,28.37-60.77,40.48-93.72,62.43-163.47,108.89"/><line id="Line_1952" class="cls-2" x1="868.77" y1="700.85" x2="868.77" y2="693.22"/><path id="Path_282774" class="cls-2" d="M1051.98,677.97v15.26l5.49,3.2,6.19,3.61v8.6l7.03,4.68"/><path id="Path_282775" class="cls-2" d="M842,560.98l8.06,5.37h220.63"/><path id="Path_282776" class="cls-2" d="M850.06,566.35l7.03,4.68h12.91l5.41,4.12,4.8,3.66h22.9"/><path id="Path_282777" class="cls-2" d="M857.09,571.04l6.19,4.12h24.27l4.12,3.66"/><path id="Path_282778" class="cls-2" d="M1057.47,704.5l-5.49-3.66h-148.85l-3.43,3.66-3.87,4.12-4.4,4.68-5.04,5.37-5.83,6.21-6.83,7.28-8.11,8.64-9.78,10.42-12.03,12.82-15.16,16.16-19.7,20.99-26.62,28.37-37.98,40.48-58.58,62.43-102.16,108.89-223.23,237.91H.38"/><path id="Path_282779" class="cls-2" d="M1040.53,700.85l4.8,3.66h12.14"/><path id="Path_282780" class="cls-2" d="M868.77,586.44l-5.49-3.2v-8.08"/><path id="Path_282781" class="cls-2" d="M868.77,685.59l-5.49,2.74v16.17l-6.19,4.12"/><path id="Path_282782" class="cls-2" d="M1051.98,685.59l5.49,2.74v16.17l6.19,4.12"/><path id="Path_282783" class="cls-2" d="M868.77,601.7l-5.49-2.29v-8.08l-6.19-3.09v-8.6l-7.03-4.1-8.06-4.7-9.33-5.44-10.93-6.37-12.97-7.56-15.65-9.11-19.25-11.22-24.26-14.14-30.11-17.55-1.4-.82-34.61-20.17-7.98-4.65-40.7-23.72-20.07-11.7-49.37-28.78-44.35-25.85-62.77-36.58-100.7-58.69v-50.19"/><path id="Path_282784" class="cls-2" d="M914.57,700.85l-2.75,3.66-3.09,4.12-3.52,4.68-4.03,5.37-4.67,6.21-5.46,7.28-6.48,8.64-7.83,10.42-9.62,12.82-12.13,16.16-15.76,20.99-21.3,28.37-30.39,40.48-46.86,62.43-81.73,108.89-178.59,237.91"/><path id="Path_282785" class="cls-2" d="M1006.18,700.85l2.75,3.66,3.09,4.12,3.52,4.68,4.03,5.37,4.66,6.21,5.46,7.28,6.48,8.64,7.82,10.42,9.62,12.82,12.13,16.16,15.76,20.99,21.3,28.37,30.39,40.48,46.86,62.43,81.73,108.89,178.59,237.91"/><path id="Path_282786" class="cls-2" d="M868.78,670.34l-5.49,1.83-6.19,2.06-7.03,2.34-8.06,2.68-9.33,3.11-10.93,3.64-12.98,4.32-15.65,5.21-19.25,6.41-24.26,8.08-31.51,10.5-42.59,14.19-60.77,20.24-93.73,31.21-163.47,54.44L.38,959.56"/><path id="Path_282787" class="cls-2" d="M1051.98,670.34l5.49,1.83,6.19,2.06,7.03,2.34,8.06,2.68,9.33,3.11,10.93,3.64,12.97,4.32,15.65,5.21,19.25,6.41,24.26,8.08,31.51,10.5,42.59,14.19,60.77,20.24,93.73,31.21,163.47,54.44,357.17,118.96"/><path id="Path_282788" class="cls-2" d="M1051.98,609.32l5.49-1.83,6.19-2.06,7.03-2.34,8.06-2.68,9.33-3.11,10.93-3.64,12.97-4.32,15.65-5.21,19.25-6.41,24.26-8.08,31.51-10.5,42.59-14.18,60.77-20.24,93.73-31.21,163.47-54.45,357.17-118.95"/><path id="Path_282789" class="cls-2" d="M868.78,616.95l-5.49-1.37-6.19-1.55-7.03-1.76-8.06-2.01-9.33-2.33-10.93-2.73-12.97-3.24-15.65-3.91-19.25-4.81-24.26-6.06-31.51-7.87-42.59-10.64-60.77-15.18-93.72-23.41-163.47-40.83L.38,400.04"/><path id="Path_282790" class="cls-2" d="M868.78,662.71l-5.49,1.37-6.19,1.55-7.03,1.76-8.06,2.01-9.33,2.33-10.93,2.73-12.98,3.24-15.65,3.91-19.25,4.81-24.26,6.06-31.51,7.87-42.59,10.64-60.77,15.18-93.73,23.41-163.47,40.83L.38,879.63"/><path id="Path_282791" class="cls-2" d="M926.02,700.85l-2.06,3.66-2.32,4.12-2.64,4.68-3.02,5.37-3.5,6.21-4.1,7.28-4.86,8.64-5.87,10.42-7.21,12.82-9.1,16.16-11.82,20.99-15.97,28.37-22.79,40.48-35.15,62.43-61.3,108.88-133.94,237.91"/><path id="Path_282792" class="cls-2" d="M994.72,700.85l2.06,3.66,2.32,4.12,2.64,4.68,3.02,5.37,3.5,6.21,4.1,7.28,4.86,8.64,5.87,10.42,7.22,12.82,9.1,16.16,11.81,20.99,15.97,28.37,22.79,40.48,35.15,62.43,61.3,108.89,133.94,237.91"/><path id="Path_282793" class="cls-2" d="M1051.98,662.71l5.49,1.37,6.19,1.55,7.03,1.76,8.06,2.01,9.33,2.33,10.93,2.73,12.97,3.24,15.65,3.91,19.25,4.81,24.26,6.06,31.51,7.87,42.59,10.64,60.77,15.18,93.73,23.41,163.47,40.84,357.17,89.22"/><path id="Path_282794" class="cls-2" d="M937.47,700.85l-1.37,3.66-1.55,4.12-1.76,4.68-2.02,5.37-2.33,6.21-2.73,7.28-3.24,8.64-3.91,10.42-4.81,12.82-6.06,16.16-7.88,20.99-10.65,28.37-15.19,40.48-23.43,62.43-40.86,108.89-89.29,237.91"/><path id="Path_282795" class="cls-2" d="M983.28,700.85l1.37,3.66,1.55,4.12,1.76,4.68,2.02,5.37,2.33,6.21,2.73,7.28,3.24,8.64,3.91,10.42,4.81,12.82,6.06,16.16,7.88,20.99,10.65,28.37,15.19,40.48,23.43,62.43,40.87,108.89,89.29,237.91"/><path id="Path_282796" class="cls-2" d="M868.78,655.09l-5.49.91-6.19,1.03-7.03,1.17-8.06,1.34-9.33,1.55-10.93,1.82-12.97,2.16-15.65,2.61-19.25,3.21-24.26,4.04-31.51,5.25-42.59,7.09-60.77,10.12-93.72,15.61-163.47,27.22L.38,799.69"/><path id="Path_282797" class="cls-2" d="M1051.98,624.57l5.49-.91,6.19-1.03,7.03-1.17,8.06-1.34,9.33-1.55,10.93-1.82,12.97-2.16,15.65-2.61,19.25-3.21,24.26-4.04,31.51-5.25,42.59-7.09,60.77-10.12,93.73-15.61,163.47-27.22,357.17-59.48"/><path id="Path_282798" class="cls-2" d="M1051.98,655.09l5.49.91,6.19,1.03,7.03,1.17,8.06,1.34,9.33,1.55,10.93,1.82,12.97,2.16,15.65,2.61,19.25,3.21,24.26,4.04,31.51,5.25,42.59,7.09,60.77,10.12,93.73,15.61,163.47,27.22,357.17,59.48"/><path id="Path_282799" class="cls-2" d="M948.93,700.85l-.69,3.66-.77,4.12-.88,4.68-1.01,5.37-1.17,6.21-1.36,7.28-1.62,8.64-1.96,10.42-2.4,12.82-3.03,16.16-3.94,20.99-5.33,28.37-7.6,40.48-11.72,62.43-20.43,108.89-44.65,237.91"/><path id="Path_282800" class="cls-2" d="M971.82,700.85l.69,3.66.77,4.12.88,4.68,1.01,5.37,1.17,6.21,1.36,7.28,1.62,8.64,1.96,10.42,2.41,12.82,3.03,16.16,3.94,20.99,5.33,28.37,7.6,40.48,11.72,62.43,20.43,108.89,44.65,237.91"/><path id="Path_282801" class="cls-2" d="M868.78,647.46l-5.49.46-6.19.52-7.03.59-8.06.67-9.33.78-10.93.91-12.97,1.08-15.65,1.3-19.25,1.6-24.26,2.02-31.51,2.62-42.59,3.55-60.77,5.06-93.72,7.8-163.47,13.62L.38,719.76"/><path id="Path_282802" class="cls-2" d="M960.38,700.85v578.44"/><path id="Path_282803" class="cls-2" d="M1051.98,639.84h868.4"/><g id="Rectangle_191222"><rect class="cls-1" x="96.38" y="64.52" width="1727.8" height="1150.89"/><rect class="cls-3" x="96.75" y="64.9" width="1727.05" height="1150.14"/></g><g id="Rectangle_191223"><rect class="cls-1" x="248.27" y="165.7" width="1424" height="948.53"/><rect class="cls-3" x="248.65" y="166.08" width="1423.25" height="947.78"/></g><g id="Rectangle_191224"><rect class="cls-1" x="432.38" y="288.33" width="1055.8" height="703.27"/><rect class="cls-3" x="432.75" y="288.71" width="1055.05" height="702.52"/></g></g></svg>