<svg xmlns="http://www.w3.org/2000/svg" width="46" height="46" viewBox="0 0 46 46">
  <g id="Group_175856" data-name="Group 175856" transform="translate(0.001 -0.278)">
    <g id="Ellipse_3018" data-name="Ellipse 3018" transform="translate(-0.001 0.278)" stroke="lime" stroke-width="4">
      <circle cx="23" cy="23" r="23" stroke="none"/>
      <circle cx="23" cy="23" r="21" fill="none"/>
    </g>
    <g id="Group_175848" data-name="Group 175848" transform="translate(12.607 8.371)">
      <g id="noun-buld-6661178" transform="translate(0)">
        <g id="Group_175847" data-name="Group 175847">
          <path id="Path_281769" data-name="Path 281769" d="M40.546,31.887H39.2V30.664H34.45l.016,1.223H33.04V34H31.473V39.33H33.04v1.709h1.441v2.68H39.1v-2.68h1.442V39.33h1.567V34H40.546Z" transform="translate(-26.364 -21.716)" fill="lime"/>
          <path id="Path_281770" data-name="Path 281770" d="M37.379,77.875h7.208v1.646H37.379Z" transform="translate(-30.547 -55.151)" fill="lime"/>
          <path id="Path_281771" data-name="Path 281771" d="M13.965,54.082h3.369v1.9H13.965Z" transform="translate(-13.965 -38.301)" fill="lime"/>
          <path id="Path_281772" data-name="Path 281772" d="M13.965,41.73h3.369v1.9H13.965Z" transform="translate(-13.965 -29.553)" fill="lime"/>
          <path id="Path_281773" data-name="Path 281773" d="M46.562,16.434h1.9v2.884h-1.9Z" transform="translate(-37.05 -11.639)" fill="lime"/>
          <path id="Path_281774" data-name="Path 281774" d="M46.562,0h1.9V2.884h-1.9Z" transform="translate(-37.05)" fill="lime"/>
          <path id="Path_281775" data-name="Path 281775" d="M74.438,54.082h3.369v1.9H74.438Z" transform="translate(-56.792 -38.301)" fill="lime"/>
          <path id="Path_281776" data-name="Path 281776" d="M74.438,41.73h3.369v1.9H74.438Z" transform="translate(-56.792 -29.553)" fill="lime"/>
          <path id="Path_281777" data-name="Path 281777" d="M37.379,88.6H39.2v2.162h3.557V88.6h1.818V86.949H37.379Z" transform="translate(-30.547 -61.578)" fill="lime"/>
          <path id="Path_281778" data-name="Path 281778" d="M13.965,18.637h1.693V20.33H13.965Z" transform="translate(-13.965 -13.199)" fill="lime"/>
          <path id="Path_281779" data-name="Path 281779" d="M19.766,24.438h1.693v1.693H19.766Z" transform="translate(-18.073 -17.307)" fill="lime"/>
          <path id="Path_281780" data-name="Path 281780" d="M25.727,30.234H27.42v1.693H25.727Z" transform="translate(-22.295 -21.412)" fill="lime"/>
          <path id="Path_281781" data-name="Path 281781" d="M79.645,18.637h1.693V20.33H79.645Z" transform="translate(-60.48 -13.199)" fill="lime"/>
          <path id="Path_281782" data-name="Path 281782" d="M73.9,24.438h1.693v1.693H73.9Z" transform="translate(-56.41 -17.307)" fill="lime"/>
          <path id="Path_281783" data-name="Path 281783" d="M67.938,30.234h1.693v1.693H67.938Z" transform="translate(-52.189 -21.412)" fill="lime"/>
        </g>
      </g>
    </g>
  </g>
</svg>
