<svg xmlns="http://www.w3.org/2000/svg" width="46" height="46" viewBox="0 0 46 46">
  <g id="Group_175855" data-name="Group 175855" transform="translate(-0.31 -0.42)">
    <g id="Ellipse_3020" data-name="Ellipse 3020" transform="translate(0.31 0.42)" stroke="lime" stroke-width="4">
      <circle cx="23" cy="23" r="23" stroke="none"/>
      <circle cx="23" cy="23" r="21" fill="none"/>
    </g>
    <g id="Group_175851" data-name="Group 175851" transform="translate(10.369 11.243)">
      <g id="noun-pixel-art-98945" transform="translate(0 0)">
        <rect id="Rectangle_190574" data-name="Rectangle 190574" width="3" height="1" transform="translate(10.941 0.176)" fill="lime"/>
        <rect id="Rectangle_190575" data-name="Rectangle 190575" width="3" height="2" transform="translate(7.941 1.176)" fill="lime"/>
        <rect id="Rectangle_190576" data-name="Rectangle 190576" width="2" height="1" transform="translate(5.941 3.176)" fill="lime"/>
        <rect id="Rectangle_190577" data-name="Rectangle 190577" width="3" height="1" transform="translate(2.941 4.176)" fill="lime"/>
        <rect id="Rectangle_190578" data-name="Rectangle 190578" width="3" height="1" transform="translate(2.941 7.176)" fill="lime"/>
        <rect id="Rectangle_190579" data-name="Rectangle 190579" width="2" height="1" transform="translate(5.941 8.176)" fill="lime"/>
        <rect id="Rectangle_190580" data-name="Rectangle 190580" width="3" height="2" transform="translate(7.941 9.176)" fill="lime"/>
        <rect id="Rectangle_190581" data-name="Rectangle 190581" width="2" height="2" transform="translate(13.941 1.176)" fill="lime"/>
        <rect id="Rectangle_190582" data-name="Rectangle 190582" width="2" height="1" transform="translate(15.941 3.176)" fill="lime"/>
        <rect id="Rectangle_190583" data-name="Rectangle 190583" width="4" height="1" transform="translate(17.941 4.176)" fill="lime"/>
        <path id="Path_281766" data-name="Path 281766" d="M55.787,26.348h-2.7V27.7h-2.7v1.348H47.7v1.348H45v1.348h1.348V42.53H45v1.348h2.7V42.53h2.7V41.181h2.7V39.833h2.7V38.484h2.7V25h-2.7Z" transform="translate(-34.213 -19.511)" fill="lime"/>
        <path id="Path_281767" data-name="Path 281767" d="M6.348,37.136V26.348H7.7V25H5V38.484H7.7V37.136Z" transform="translate(-5 -19.511)" fill="lime"/>
        <rect id="Rectangle_190584" data-name="Rectangle 190584" width="3" height="1" transform="translate(2.941 19.176)" fill="lime"/>
        <rect id="Rectangle_190585" data-name="Rectangle 190585" width="2" height="1" transform="translate(5.941 20.176)" fill="lime"/>
        <rect id="Rectangle_190586" data-name="Rectangle 190586" width="3" height="2" transform="translate(7.941 21.176)" fill="lime"/>
      </g>
      <rect id="Rectangle_190587" data-name="Rectangle 190587" width="1" height="10" transform="translate(10.941 1.176)"/>
    </g>
  </g>
</svg>
