<svg xmlns="http://www.w3.org/2000/svg" width="131.777" height="109.964" viewBox="0 0 131.777 109.964">
  <g id="Group_176509" data-name="Group 176509" transform="translate(-469.785 -9274.465)">
    <rect id="Rectangle_191209" data-name="Rectangle 191209" width="17" height="16" transform="translate(482.549 9317.313)" fill="lime"/>
    <ellipse id="Ellipse_3022" data-name="Ellipse 3022" cx="19.5" cy="20" rx="19.5" ry="20" transform="translate(560.549 9342.313)" fill="lime"/>
    <g id="noun-schedule-7268977" transform="translate(469.785 9274.465)">
      <path id="Path_282452" data-name="Path 282452" d="M31.794,41.711h-10.2a4.927,4.927,0,0,0-4.923,4.923v10.2a4.927,4.927,0,0,0,4.923,4.923h10.2a4.927,4.927,0,0,0,4.923-4.923v-10.2A4.927,4.927,0,0,0,31.794,41.711Zm1.628,15.122a1.642,1.642,0,0,1-1.628,1.628h-10.2a1.642,1.642,0,0,1-1.628-1.628v-10.2a1.642,1.642,0,0,1,1.628-1.628h10.2a1.642,1.642,0,0,1,1.628,1.628Z" transform="translate(-5.687 -0.387)"/>
      <path id="Path_282453" data-name="Path 282453" d="M47.622,41.711h-10.2A4.927,4.927,0,0,0,32.5,46.634v10.2a4.927,4.927,0,0,0,4.923,4.923h10.2a4.927,4.927,0,0,0,4.923-4.923v-10.2A4.927,4.927,0,0,0,47.622,41.711Zm1.634,15.122a1.642,1.642,0,0,1-1.628,1.628h-10.2A1.642,1.642,0,0,1,35.8,56.833v-10.2a1.642,1.642,0,0,1,1.628-1.628h10.2a1.642,1.642,0,0,1,1.628,1.628Z" transform="translate(4.558 -0.387)"/>
      <path id="Path_282454" data-name="Path 282454" d="M63.454,41.711h-10.2a4.927,4.927,0,0,0-4.923,4.923v10.2a4.927,4.927,0,0,0,4.923,4.923h10.2a4.916,4.916,0,0,0,4.91-4.923v-10.2A4.912,4.912,0,0,0,63.454,41.711Zm1.609,15.122a1.631,1.631,0,0,1-1.615,1.628h-10.2a1.642,1.642,0,0,1-1.628-1.628v-10.2a1.642,1.642,0,0,1,1.628-1.628h10.2a1.631,1.631,0,0,1,1.615,1.628Z" transform="translate(14.807 -0.387)"/>
      <path id="Path_282455" data-name="Path 282455" d="M69.082,61.755h10.2a4.916,4.916,0,0,0,4.91-4.923v-10.2a4.912,4.912,0,0,0-4.91-4.923h-10.2a4.927,4.927,0,0,0-4.923,4.923v10.2A4.927,4.927,0,0,0,69.082,61.755ZM67.454,46.634a1.642,1.642,0,0,1,1.628-1.628h10.2A1.631,1.631,0,0,1,80.9,46.634v10.2a1.631,1.631,0,0,1-1.615,1.628h-10.2a1.642,1.642,0,0,1-1.628-1.628Z" transform="translate(25.052 -0.387)"/>
      <path id="Path_282456" data-name="Path 282456" d="M31.794,58.852h-10.2a4.927,4.927,0,0,0-4.923,4.923v10.18a4.927,4.927,0,0,0,4.923,4.923h10.2a4.927,4.927,0,0,0,4.923-4.923V63.775a4.927,4.927,0,0,0-4.923-4.923Zm1.628,15.1a1.63,1.63,0,0,1-1.628,1.628h-10.2a1.634,1.634,0,0,1-1.628-1.628V63.775a1.63,1.63,0,0,1,1.628-1.628h10.2a1.634,1.634,0,0,1,1.628,1.628Z" transform="translate(-5.687 10.708)"/>
      <path id="Path_282457" data-name="Path 282457" d="M47.622,58.852h-10.2A4.927,4.927,0,0,0,32.5,63.775v10.18a4.927,4.927,0,0,0,4.923,4.923h10.2a4.927,4.927,0,0,0,4.923-4.923V63.775a4.927,4.927,0,0,0-4.923-4.923Zm1.634,15.1a1.63,1.63,0,0,1-1.628,1.628h-10.2A1.634,1.634,0,0,1,35.8,73.954V63.775a1.63,1.63,0,0,1,1.628-1.628h10.2a1.634,1.634,0,0,1,1.628,1.628Z" transform="translate(4.558 10.708)"/>
      <path id="Path_282458" data-name="Path 282458" d="M63.454,58.852h-10.2a4.927,4.927,0,0,0-4.923,4.923v10.18a4.927,4.927,0,0,0,4.923,4.923h10.2a4.916,4.916,0,0,0,4.91-4.923V63.775a4.912,4.912,0,0,0-4.91-4.923Zm1.609,15.1a1.619,1.619,0,0,1-1.615,1.628h-10.2a1.634,1.634,0,0,1-1.628-1.628V63.775a1.63,1.63,0,0,1,1.628-1.628h10.2a1.623,1.623,0,0,1,1.615,1.628Z" transform="translate(14.807 10.708)"/>
      <path id="Path_282459" data-name="Path 282459" d="M130.231,85.393V31.116a9.008,9.008,0,0,0-9-9.009h-10.5V18.272a1.647,1.647,0,1,0-3.295,0v3.835H91.256V18.272a1.647,1.647,0,1,0-3.295,0v3.835H71.771V18.272a1.647,1.647,0,1,0-3.295,0v3.835H52.287V18.272a1.647,1.647,0,1,0-3.295,0v3.835H32.783V18.272a1.647,1.647,0,1,0-3.295,0v3.835H19.012A9.019,9.019,0,0,0,10,31.116v77.076a9.023,9.023,0,0,0,9.009,9.009h82.905a21.9,21.9,0,1,0,28.313-31.814ZM13.292,31.116A5.714,5.714,0,0,1,19.006,25.4H29.482v3.314A3.435,3.435,0,0,0,27.6,31.747a3.534,3.534,0,0,0,7.065,0,3.423,3.423,0,0,0-1.892-3.031V25.4H48.986v3.314a3.411,3.411,0,0,0-1.879,3.031,3.527,3.527,0,0,0,7.052,0,3.435,3.435,0,0,0-1.879-3.031V25.4H68.47v3.314a3.411,3.411,0,0,0-1.879,3.031,3.527,3.527,0,0,0,7.052,0,3.435,3.435,0,0,0-1.879-3.031V25.4h16.19v3.314a3.435,3.435,0,0,0-1.879,3.031,3.527,3.527,0,0,0,7.052,0,3.411,3.411,0,0,0-1.879-3.031V25.4h16.19v3.314a3.435,3.435,0,0,0-1.879,3.031,3.527,3.527,0,0,0,7.052,0,3.411,3.411,0,0,0-1.879-3.031V25.4h10.5a5.707,5.707,0,0,1,5.7,5.714V46.965L13.293,46.959V31.11Zm5.714,82.79a5.718,5.718,0,0,1-5.714-5.714V50.253H126.936V83.972a21.4,21.4,0,0,0-7.065-1.2,21.873,21.873,0,0,0-19.852,31.138Zm100.864,9.388a18.616,18.616,0,1,1,18.616-18.616A18.639,18.639,0,0,1,119.871,123.295Z" transform="translate(-10.004 -16.625)"/>
      <path id="Path_282460" data-name="Path 282460" d="M70.4,69.078H68.8a1.647,1.647,0,1,0,0,3.295h1.6a1.647,1.647,0,0,0,0-3.295Z" transform="translate(26.989 17.328)"/>
      <path id="Path_282461" data-name="Path 282461" d="M77.346,76.672A1.65,1.65,0,0,0,75.7,78.319v1.6a1.647,1.647,0,1,0,3.295,0v-1.6A1.65,1.65,0,0,0,77.346,76.672Z" transform="translate(32.521 22.243)"/>
      <path id="Path_282462" data-name="Path 282462" d="M83.289,70.725a1.651,1.651,0,0,0,1.647,1.647h1.583a1.647,1.647,0,0,0,0-3.295H84.936A1.651,1.651,0,0,0,83.289,70.725Z" transform="translate(37.434 17.328)"/>
      <path id="Path_282463" data-name="Path 282463" d="M77.346,65.422a1.65,1.65,0,0,0,1.647-1.647v-1.6a1.647,1.647,0,1,0-3.295,0v1.6A1.65,1.65,0,0,0,77.346,65.422Z" transform="translate(32.521 11.795)"/>
      <path id="Path_282464" data-name="Path 282464" d="M78.994,72.287V67.28a1.647,1.647,0,0,0-3.295,0v5.682a1.712,1.712,0,0,0,.476,1.171l5.618,5.618a1.706,1.706,0,0,0,1.171.476,1.736,1.736,0,0,0,1.171-.476,1.662,1.662,0,0,0,0-2.342Z" transform="translate(32.521 15.098)"/>
    </g>
  </g>
</svg>
