<svg xmlns="http://www.w3.org/2000/svg" width="506.598" height="338.666" viewBox="0 0 506.598 338.666">
  <defs>
    <style>
      .cls-1, .cls-11, .cls-12, .cls-13, .cls-14, .cls-16, .cls-2, .cls-8 {
        fill: none;
      }

      .cls-1, .cls-16, .cls-17, .cls-2 {
        stroke: #7e7e7e;
      }

      .cls-1, .cls-11, .cls-12, .cls-13, .cls-14, .cls-16, .cls-17, .cls-2, .cls-8 {
        stroke-linecap: round;
      }

      .cls-1, .cls-11, .cls-12, .cls-13, .cls-16, .cls-17, .cls-8 {
        stroke-linejoin: round;
      }

      .cls-3 {
        fill: #00e300;
      }

      .cls-17, .cls-4 {
        fill: lime;
      }

      .cls-5 {
        fill: #7fff7f;
      }

      .cls-6 {
        fill: #d0d0d0;
      }

      .cls-7 {
        fill: #383a3a;
      }

      .cls-13, .cls-14, .cls-8 {
        stroke: #000;
      }

      .cls-9 {
        fill: #f3f6f2;
      }

      .cls-10 {
        fill: #7fff80;
      }

      .cls-11 {
        stroke: #fff;
      }

      .cls-12 {
        stroke: #00e300;
      }

      .cls-13, .cls-14 {
        stroke-width: 2px;
      }

      .cls-15 {
        fill: #fff;
      }

      .cls-16 {
        stroke-dasharray: 3 7;
      }
    </style>
  </defs>
  <g id="Group_176556" data-name="Group 176556" transform="translate(-595 -388.849)">
    <g id="Group_176548" data-name="Group 176548" transform="translate(17940 19666.17)">
      <g id="Asset_3" data-name="Asset 3" transform="translate(-17344 -19265.889)">
        <g id="shadow" transform="translate(10.514 87.218)">
          <path id="Path_282882" data-name="Path 282882" d="M16.74,239.091l56.185,15.53,79.932-42.484-67.6-23.746Z" transform="translate(-16.74 -146.673)"/>
          <path id="Path_282886" data-name="Path 282886" d="M433.484,165.927c-2.2-7.955-9.479-12.5-16.316-16.13-16.923-8.989-35.136-15.261-53.219-21.442-4.7-1.607-10.135,1.456-11.9,5.843a10.161,10.161,0,0,0,4.126,12.6q5.309,3.322,10.514,6.8a124.683,124.683,0,0,0-18.613,6.72l-9.734,4.174a9.076,9.076,0,0,0-8.6.193,25.736,25.736,0,0,0-10.252,9.955c-.117.2-.221.407-.317.614-1.435-.607-2.856-1.235-4.27-1.9a29.318,29.318,0,0,0-5.167-5.733,19.966,19.966,0,0,0-14.626-4.588c-.31-.159-.621-.324-.931-.483-3.767-1.918-7.071-.3-8.479,2.463-5.692,1.814-11.852,4.7-15,9.534a11.482,11.482,0,0,0-1.739,7.637c-1.249-.517-2.456-1.083-3.594-1.69-6.05-3.249-11.294,3.091-8.8,8.8,4.843,11.059,20.511,12.984,31.08,13.66,8.92.566,23.457-1.663,29.086-9.866,3.643,1.587,7.285,3.063,10.8,4.5,7.23,2.96,14.6,5.885,22.277,7.465,9.334,1.918,18.413,1.518,27.741-.255,15.233-2.9,32.177-7.168,45.064-16.13,7.444-5.174,13.522-13.143,10.866-22.732Z" transform="translate(-90.915 -127.921)"/>
        </g>
        <g id="lineart" transform="translate(0 0)">
          <path id="Path_282887" data-name="Path 282887" class="cls-1" d="M203.77,187.68l-67.941,39.228a55.287,55.287,0,0,1-55.3,0L45.68,206.783" transform="translate(-15.2 -59.235)"/>
          <path id="Path_282965" data-name="Path 282965" class="cls-2" d="M0,0S81.817,46.1,114.965,64.337s17.627,8.617,17.627,8.617" transform="translate(237.501 107.77)"/>
          <path id="Path_282888" data-name="Path 282888" class="cls-1" d="M335.414,313.068l-37.937-21.9a22.9,22.9,0,0,1,0-39.655l35.606-20.559a22.9,22.9,0,0,0,0-39.655L274.91,157.71" transform="translate(-86.285 -49.941)"/>
          <path id="Path_282889" data-name="Path 282889" class="cls-3" d="M389.434,120.54v24.622c0,8.465-5.588,16.93-16.778,23.388-22.366,12.915-58.641,12.915-81.008,0-11.19-6.457-16.778-14.922-16.778-23.388V120.54c0,8.465,5.588,16.93,16.778,23.388,22.366,12.915,58.641,12.915,81.008,0C383.846,137.47,389.434,129.005,389.434,120.54Z" transform="translate(-86.273 -38.415)"/>
          <path id="Path_282890" data-name="Path 282890" class="cls-4" d="M389.434,84.85v24.622c0,8.465-5.588,16.93-16.778,23.388-22.366,12.915-58.641,12.915-81.008,0-11.19-6.457-16.778-14.922-16.778-23.388V84.85c0,8.465,5.588,16.93,16.778,23.388,22.366,12.915,58.641,12.915,81.008,0,11.19-6.457,16.778-14.922,16.778-23.388Z" transform="translate(-86.273 -27.347)"/>
          <path id="Path_282891" data-name="Path 282891" class="cls-5" d="M389.434,49.44V73.869c0,8.465-5.588,16.93-16.778,23.388-22.366,12.915-58.641,12.915-81.008,0C280.458,90.8,274.87,82.334,274.87,73.869V49.44c0,8.465,5.6,16.923,16.778,23.381,22.366,12.915,58.641,12.915,81.008,0C383.839,66.363,389.434,57.905,389.434,49.44Z" transform="translate(-86.273 -16.366)"/>
          <path id="Path_282892" data-name="Path 282892" class="cls-6" d="M372.656,11.186c11.19,6.457,16.785,14.922,16.778,23.388s-5.6,16.923-16.778,23.381c-22.366,12.915-58.641,12.915-81.008,0C280.465,51.5,274.87,43.039,274.87,34.574s5.588-16.93,16.778-23.388c22.366-12.915,58.641-12.915,81.008,0Zm-4.9,23.388c.007-5.264-3.47-10.521-10.424-14.536-13.908-8.03-36.454-8.03-50.356,0-6.954,4.015-10.431,9.272-10.431,14.536s3.477,10.521,10.431,14.536c13.9,8.023,36.447,8.023,50.356,0,6.947-4.015,10.424-9.272,10.424-14.536Z" transform="translate(-86.273 -1.5)"/>
          <path id="Path_282893" data-name="Path 282893" class="cls-7" d="M367.077,25.663c6.954,4.015,10.431,9.272,10.424,14.536s-3.477,10.521-10.424,14.536c-13.908,8.024-36.454,8.024-50.356,0C309.767,50.72,306.29,45.463,306.29,40.2s3.477-10.521,10.431-14.536c13.9-8.03,36.447-8.03,50.356,0Z" transform="translate(-96.016 -7.125)"/>
          <path id="Path_282894" data-name="Path 282894" class="cls-8" d="M389.434,34.574c0,8.465-5.6,16.923-16.778,23.381-22.366,12.915-58.641,12.915-81.008,0C280.465,51.5,274.87,43.039,274.87,34.574s5.588-16.93,16.778-23.388c22.366-12.915,58.641-12.915,81.008,0,11.19,6.457,16.778,14.922,16.778,23.388Z" transform="translate(-86.273 -1.5)"/>
          <path id="Path_282895" data-name="Path 282895" class="cls-8" d="M377.5,40.2c0,5.264-3.477,10.521-10.424,14.536-13.908,8.024-36.454,8.024-50.356,0C309.767,50.72,306.29,45.463,306.29,40.2s3.477-10.521,10.431-14.536c13.9-8.03,36.447-8.03,50.356,0,6.954,4.015,10.431,9.272,10.424,14.536Z" transform="translate(-96.016 -7.125)"/>
          <path id="Path_282896" data-name="Path 282896" class="cls-8" d="M389.434,49.44v73.674c0,8.465-5.588,16.93-16.778,23.388-22.366,12.915-58.641,12.915-81.008,0-11.19-6.457-16.778-14.922-16.778-23.388V49.44" transform="translate(-86.273 -16.366)"/>
          <path id="Path_282897" data-name="Path 282897" class="cls-8" d="M389.434,120.54c0,8.465-5.588,16.93-16.778,23.388-22.366,12.915-58.641,12.915-81.008,0-11.19-6.457-16.778-14.922-16.778-23.388" transform="translate(-86.273 -38.415)"/>
          <path id="Path_282898" data-name="Path 282898" class="cls-8" d="M389.434,84.85c0,8.465-5.588,16.93-16.778,23.388-22.366,12.915-58.641,12.915-81.008,0-11.19-6.457-16.778-14.922-16.778-23.388" transform="translate(-86.273 -27.347)"/>
          <path id="Path_282899" data-name="Path 282899" class="cls-8" d="M421.235,96.25q-1.563,1.128-3.325,2.194" transform="translate(-130.63 -30.882)"/>
          <path id="Path_282900" data-name="Path 282900" class="cls-8" d="M407.7,103.86q-1.966.9-4.022,1.683" transform="translate(-126.217 -33.242)"/>
          <path id="Path_282901" data-name="Path 282901" class="cls-8" d="M393.154,109.11q-2.349.683-4.774,1.235" transform="translate(-121.473 -34.87)"/>
          <path id="Path_282902" data-name="Path 282902" class="cls-8" d="M421.235,131.56q-1.563,1.128-3.325,2.187" transform="translate(-130.63 -41.832)"/>
          <path id="Path_282903" data-name="Path 282903" class="cls-8" d="M407.7,139.16c-1.311.6-2.649,1.166-4.022,1.683" transform="translate(-126.217 -44.189)"/>
          <path id="Path_282904" data-name="Path 282904" class="cls-8" d="M393.154,144.42c-1.566.455-3.16.862-4.774,1.235" transform="translate(-121.473 -45.82)"/>
          <path id="Path_282905" data-name="Path 282905" class="cls-8" d="M421.235,166.86q-1.563,1.128-3.325,2.194" transform="translate(-130.63 -52.779)"/>
          <path id="Path_282906" data-name="Path 282906" class="cls-8" d="M407.7,174.47q-1.966.9-4.022,1.683" transform="translate(-126.217 -55.138)"/>
          <path id="Path_282907" data-name="Path 282907" class="cls-8" d="M393.154,179.72q-2.349.683-4.774,1.235" transform="translate(-121.473 -56.767)"/>
          <g id="lock" transform="translate(154.178 56.162)">
            <path id="Path_282908" data-name="Path 282908" class="cls-7" d="M239.372,126.571s9.431-5.436,9.541-5.5c3.608-1.863,8.182-1.676,13.2,1.173V134.94l5.443,7.913,4.091-2.359v-9.845c6.927,8.589,11.673,20.856,11.673,31.853,0,8.444-2.808,14.391-7.251,16.958l-12.646,7.306c4.277-2.656,6.954-8.527,6.954-16.792,0-15.461-9.389-33.453-21.021-40.166-5.105-2.946-9.769-3.215-13.412-1.276l3.422-1.973Z" transform="translate(-228.382 -94.365)"/>
            <path id="Path_282909" data-name="Path 282909" class="cls-4" d="M275.476,119.2v9.845l-4.091,2.359V113.885c0-10.369-6.319-22.442-14.095-26.934-3.422-1.973-6.561-2.152-9.01-.855l3.877-2.242c2.477-1.421,5.7-1.3,9.224.738,7.775,4.491,14.095,16.564,14.095,26.934Z" transform="translate(-232.205 -82.907)"/>
            <path id="Path_282910" data-name="Path 282910" class="cls-9" d="M269.1,114.949v17.516l-5.443-7.913V111.81c0-6.368-3.884-13.77-8.658-16.523a7.059,7.059,0,0,0-3.332-1.035c-3.111-.055-5.312,2.78-5.312,7.568v11.218l-5.45,3.146V98.675c0-5.671,1.9-9.672,4.884-11.39l.207-.117c2.442-1.3,5.588-1.118,9.01.855,7.775,4.491,14.095,16.564,14.095,26.934Z" transform="translate(-229.917 -83.971)"/>
            <path id="Path_282911" data-name="Path 282911" class="cls-9" d="M245.98,163.951c2.014,1.159,3.629-.062,3.629-2.739s-1.621-5.768-3.629-6.933-3.615.076-3.615,2.753S243.987,162.792,245.98,163.951Zm-.021-30.79c11.632,6.713,21.021,24.7,21.021,40.166,0,8.265-2.684,14.136-6.954,16.792l-.283.166c-3.684,2.132-8.5,1.925-13.784-1.125-11.6-6.692-20.98-24.622-20.98-40.083,0-8.465,2.815-14.44,7.272-17.013l.3-.172c3.643-1.939,8.306-1.676,13.412,1.276Z" transform="translate(-224.98 -97.712)"/>
            <path id="Path_282912" data-name="Path 282912" class="cls-3" d="M253.8,164.706c2.014,1.166,3.629,4.27,3.629,6.933s-1.621,3.891-3.629,2.739-3.615-4.25-3.615-6.92S251.8,163.554,253.8,164.706Z" transform="translate(-232.795 -108.139)"/>
            <path id="Path_282913" data-name="Path 282913" class="cls-3" d="M248.807,105.368c0-4.788,2.2-7.623,5.312-7.568a10.04,10.04,0,0,0-1.228,5.209v11.218h.007c-.11.062-.221.117-.324.179l-3.774,2.18V105.368Z" transform="translate(-232.367 -87.525)"/>
            <path id="Path_282914" data-name="Path 282914" class="cls-8" d="M257.424,171.639c0-2.663-1.621-5.768-3.629-6.933s-3.615.076-3.615,2.753,1.621,5.761,3.615,6.92C255.81,175.537,257.424,174.316,257.424,171.639Z" transform="translate(-232.795 -108.139)"/>
            <path id="Path_282915" data-name="Path 282915" class="cls-8" d="M232.252,132.7c-4.457,2.573-7.272,8.548-7.272,17.013,0,15.461,9.39,33.4,20.98,40.083,5.285,3.049,10.093,3.256,13.784,1.125" transform="translate(-224.98 -98.348)"/>
            <path id="Path_282916" data-name="Path 282916" class="cls-8" d="M263.429,190.117c4.277-2.656,6.954-8.527,6.954-16.792,0-15.461-9.389-33.453-21.021-40.166-5.105-2.946-9.769-3.215-13.412-1.276" transform="translate(-228.382 -97.71)"/>
            <path id="Path_282917" data-name="Path 282917" class="cls-8" d="M275.37,191.792,288.3,184.32c4.443-2.56,7.251-8.513,7.251-16.958,0-11-4.746-23.263-11.673-31.853" transform="translate(-240.606 -99.219)"/>
            <path id="Path_282918" data-name="Path 282918" class="cls-8" d="M255.958,97.8a10.04,10.04,0,0,0-1.228,5.209v11.218" transform="translate(-234.206 -87.525)"/>
            <line id="Line_1550" data-name="Line 1550" class="cls-8" y2="6.954" transform="translate(21 66.239)"/>
            <path id="Path_282919" data-name="Path 282919" class="cls-8" d="M261.991,122.247c-5.022-2.842-9.6-3.036-13.2-1.173-.11.055-.221.11-.324.172l-12.942,7.472" transform="translate(-228.249 -94.366)"/>
            <path id="Path_282920" data-name="Path 282920" class="cls-8" d="M271.546,136.023,266.1,128.11V115.367c0-6.368-3.884-13.77-8.658-16.523a7.059,7.059,0,0,0-3.332-1.035c-3.111-.062-5.312,2.78-5.312,7.568V116.6" transform="translate(-232.367 -87.528)"/>
            <path id="Path_282921" data-name="Path 282921" class="cls-8" d="M245.794,87.7c-2.987,1.725-4.884,5.726-4.884,11.39v17.517" transform="translate(-229.92 -84.393)"/>
            <path id="Path_282922" data-name="Path 282922" class="cls-8" d="M248.28,86.1l3.877-2.242c2.477-1.421,5.7-1.3,9.224.738,7.775,4.491,14.095,16.564,14.095,26.934v17.516l-4.091,2.359V113.885c0-10.369-6.319-22.442-14.095-26.934C253.868,84.979,250.729,84.8,248.28,86.1Z" transform="translate(-232.205 -82.907)"/>
            <line id="Line_1551" data-name="Line 1551" class="cls-8" x1="0.2" y2="0.117" transform="translate(15.875 3.189)"/>
          </g>
          <g id="dasboard" transform="translate(183.194 207.499)">
            <path id="Path_282933" data-name="Path 282933" d="M299.417,312.762v62.811c0,2.8-1.7,6.04-3.8,7.25l-72.957,42.121a2.44,2.44,0,0,1-2.481.2l-.052-.031a3.421,3.421,0,0,1-1.262-3.04V359.264c0-2.8,1.7-6.04,3.8-7.255l72.957-42.117a2.458,2.458,0,0,1,2.42-.236l.061.035a3.366,3.366,0,0,1,1.315,3.07Zm-13.837,60.876V345.091l-5.874,3.394v28.547l5.874-3.394Zm0-34.386v-9.43l-5.874,3.394v9.425ZM273.832,380.42v-17.65l-5.874,3.4v17.645Zm0-23.961V336.6L267.958,340v19.851ZM262.083,387.2V360.871l-5.879,3.394V390.6Zm0-32.172v-11.64l-5.879,3.389v11.64ZM250.33,393.991V379.656l-5.874,3.394v14.33Zm0-20.174V350.175l-5.874,3.389v23.642Zm-11.749,26.957V369.545l-5.874,3.394v31.228l5.874-3.394Zm0-35.648v-8.163l-5.874,3.389v8.163Z" transform="translate(-213.223 -306.177)"/>
            <path id="Path_282934" data-name="Path 282934" class="cls-10" d="M285.173,302.23l5.586,3.223a2.458,2.458,0,0,0-2.42.236l-72.957,42.117c-2.1,1.214-3.8,4.459-3.8,7.255v62.811a3.421,3.421,0,0,0,1.262,3.04l-5.595-3.228a3.379,3.379,0,0,1-1.315-3.075V351.8c0-2.8,1.7-6.04,3.8-7.25l72.957-42.121A2.428,2.428,0,0,1,285.173,302.23Z" transform="translate(-205.94 -301.974)"/>
            <path id="Path_282935" data-name="Path 282935" class="cls-4" d="M364.034,391.07v28.547l-5.874,3.394V394.464Z" transform="translate(-291.676 -352.156)"/>
            <path id="Path_282936" data-name="Path 282936" class="cls-4" d="M364.034,356.11v9.43l-5.874,3.389V359.5Z" transform="translate(-291.676 -332.465)"/>
            <path id="Path_282937" data-name="Path 282937" class="cls-4" d="M337.134,431.55V449.2l-5.874,3.394V434.948Z" transform="translate(-276.525 -374.956)"/>
            <path id="Path_282938" data-name="Path 282938" class="cls-4" d="M337.134,371.64V391.5l-5.874,3.389V375.034Z" transform="translate(-276.525 -341.213)"/>
            <path id="Path_282939" data-name="Path 282939" class="cls-4" d="M310.229,427.2v26.332l-5.879,3.394V430.594Z" transform="translate(-261.368 -372.506)"/>
            <path id="Path_282940" data-name="Path 282940" class="cls-4" d="M310.229,387.18v11.64l-5.879,3.389v-11.64Z" transform="translate(-261.368 -349.965)"/>
            <path id="Path_282941" data-name="Path 282941" class="cls-4" d="M283.324,470.21v14.334l-5.874,3.389V473.6Z" transform="translate(-246.217 -396.731)"/>
            <path id="Path_282942" data-name="Path 282942" class="cls-4" d="M283.324,402.71v23.642l-5.874,3.389V406.1Z" transform="translate(-246.217 -358.712)"/>
            <path id="Path_282943" data-name="Path 282943" class="cls-4" d="M256.424,447.06v31.228l-5.874,3.394V450.454Z" transform="translate(-231.066 -383.692)"/>
            <path id="Path_282944" data-name="Path 282944" class="cls-4" d="M256.424,418.25v8.163L250.55,429.8v-8.163Z" transform="translate(-231.066 -367.465)"/>
            <path id="Path_282945" data-name="Path 282945" class="cls-11" d="M220.132,425.114a3.421,3.421,0,0,1-1.262-3.04V359.264c0-2.8,1.7-6.04,3.8-7.255l72.956-42.117a2.458,2.458,0,0,1,2.42-.236" transform="translate(-213.223 -306.177)"/>
            <path id="Path_282946" data-name="Path 282946" class="cls-11" d="M299.8,310.02a3.366,3.366,0,0,1,1.315,3.07V375.9c0,2.8-1.7,6.04-3.8,7.25l-72.957,42.121a2.44,2.44,0,0,1-2.481.2" transform="translate(-214.918 -306.506)"/>
            <path id="Path_282947" data-name="Path 282947" class="cls-12" d="M256.424,426.413V418.25l-5.874,3.389V429.8Z" transform="translate(-231.066 -367.465)"/>
            <path id="Path_282948" data-name="Path 282948" class="cls-12" d="M250.55,450.454v31.228l5.874-3.394V447.06Z" transform="translate(-231.066 -383.692)"/>
            <path id="Path_282949" data-name="Path 282949" class="cls-12" d="M277.45,473.6v14.33l5.874-3.389V470.21Z" transform="translate(-246.217 -396.731)"/>
            <path id="Path_282950" data-name="Path 282950" class="cls-12" d="M283.324,426.352V402.71L277.45,406.1v23.642Z" transform="translate(-246.217 -358.712)"/>
            <path id="Path_282951" data-name="Path 282951" class="cls-12" d="M310.229,398.82V387.18l-5.879,3.389v11.64Z" transform="translate(-261.368 -349.965)"/>
            <path id="Path_282952" data-name="Path 282952" class="cls-12" d="M304.35,430.594v26.332l5.879-3.394V427.2Z" transform="translate(-261.368 -372.506)"/>
            <path id="Path_282953" data-name="Path 282953" class="cls-12" d="M337.134,391.5V371.64l-5.874,3.394v19.851Z" transform="translate(-276.525 -341.213)"/>
            <path id="Path_282954" data-name="Path 282954" class="cls-12" d="M331.26,434.948v17.645l5.874-3.394V431.55Z" transform="translate(-276.525 -374.956)"/>
            <path id="Path_282955" data-name="Path 282955" class="cls-12" d="M364.034,365.54v-9.43L358.16,359.5v9.425Z" transform="translate(-291.676 -332.465)"/>
            <path id="Path_282956" data-name="Path 282956" class="cls-12" d="M358.16,394.464V423.01l5.874-3.394V391.07Z" transform="translate(-291.676 -352.156)"/>
            <path id="Path_282957" data-name="Path 282957" class="cls-11" d="M212.9,420.941l-5.647-3.258a3.379,3.379,0,0,1-1.315-3.075V351.8c0-2.8,1.7-6.04,3.8-7.25l72.957-42.121a2.428,2.428,0,0,1,2.481-.2l5.647,3.258" transform="translate(-205.94 -301.974)"/>
          </g>
          <g id="folder" transform="translate(0 65.644)">
            <path id="Path_282958" data-name="Path 282958" class="cls-10" d="M96.986,108.5v56.006c0,2.263-.793,3.857-2.083,4.6L19.09,212.881c1.29-.738,2.077-2.332,2.077-4.595V152.274l75.82-43.767Z" transform="translate(-6.955 -100.325)"/>
            <path id="Path_282959" data-name="Path 282959" class="cls-7" d="M77.185,96.657V113.1l-61.47,35.488v56.013c0,2.263-.793,3.857-2.077,4.595s-3.063.635-5.022-.5A15.7,15.7,0,0,1,1.51,196.4V129.675l16.6-9.583a3.684,3.684,0,0,1,5.526,3.18v4.3L77.192,96.65Z" transform="translate(-1.503 -96.65)"/>
            <line id="Line_1556" data-name="Line 1556" class="cls-13" x1="61.47" y2="35.488" transform="translate(14.212 16.454)"/>
            <path id="Path_282960" data-name="Path 282960" class="cls-13" d="M77.182,113.107V96.66L23.625,127.581v-4.3A3.684,3.684,0,0,0,18.1,120.1L1.5,129.685v66.727a15.685,15.685,0,0,0,7.106,12.3c1.966,1.131,3.739,1.242,5.022.5s2.077-2.332,2.077-4.595V148.6" transform="translate(-1.5 -96.653)"/>
            <path id="Path_282961" data-name="Path 282961" class="cls-13" d="M19.08,212.871,94.893,169.1c1.29-.738,2.083-2.332,2.083-4.6V108.49" transform="translate(-6.952 -100.322)"/>
            <path id="Path_282966" data-name="Path 282966" class="cls-14" d="M75.532,0,0,43.4" transform="translate(14.5 8.174)"/>
          </g>
        </g>
      </g>
      <g id="Asset_9" data-name="Asset 9" transform="translate(-17009.4 -19276.762)">
        <g id="shadow-2" data-name="shadow" transform="translate(6.25 58.266)">
          <path id="Path_282804" data-name="Path 282804" d="M73.913,271.813A20.815,20.815,0,0,0,67.9,265.2c-2.7-1.959-6.2-4.312-9.59-4.5a2.332,2.332,0,0,0-2.228,2.925c1.221,4.988,7.81,6.589,10.424,10.8a14.072,14.072,0,0,1,1.456,3.146c-1.187-1.062-2.359-2.139-3.532-3.229-3.822-3.553-9.383,1.966-5.74,5.74q3.746,3.881,7.892,7.492a3.3,3.3,0,0,0-2.428-.069c-4.429,1.449-8.1,3.753-12.832,4.464a62.583,62.583,0,0,1-14.1.124,64.6,64.6,0,0,1-12.218-1.828c-4.277-1.18-7.341-3.857-11.287-5.574a2.152,2.152,0,0,0-3.111,2.394c1.856,9.686,17.206,11.825,24.947,12.736a67.88,67.88,0,0,0,16.854.11c5.105-.683,11.839-2.18,15.309-6.319a3.878,3.878,0,0,0,.814-1.739,4.921,4.921,0,0,0,4.264.773,138.9,138.9,0,0,0,20.386,13.08,89.491,89.491,0,0,0,9.976,6.368,3.947,3.947,0,0,0,2.553.49,9.028,9.028,0,0,0,.11.918c-4.54-.5-9.01-1.373-13.453.428a7.331,7.331,0,0,0-.524,6.685c4.4,2.146,11.163,1.076,16.068.1a25.529,25.529,0,0,0,4.36.055c1.739-.145,3.8-1.525,3.56-3.56a55.191,55.191,0,0,0-1.483-8.058,3.317,3.317,0,0,0-1.062-1.649,3.484,3.484,0,0,0-1.725-2.152c-4.926-2.208-9.783-4.512-14.515-7.044a112.028,112.028,0,0,1-8.927-7.651c-3.381-3.208-7.3-5.885-11.563-6.43a21.383,21.383,0,0,0-2.622-12.425Z" transform="translate(-10.559 -140.143)"/>
          <path id="Path_282805" data-name="Path 282805" d="M168.269,89.312a4.017,4.017,0,0,0,.49,5.94,9.186,9.186,0,0,1,2.042,2.063,3.81,3.81,0,0,0-1.89,2.98c-.345,3.484-1.056,10.735-1.069,10.873a61.339,61.339,0,0,0-1.414,6.451,51.7,51.7,0,0,1-6.223-.186c-2.463-.228-3.953,2.532-3.449,4.657-.117-.034-.228-.062-.345-.1-1.607-.442-3.243-.821-4.878-1.221-6.2-3.167-11.915-7.547-18.42-9.969-1.145-.428-1.89,1.166-1.138,1.952a75.889,75.889,0,0,0,11.114,9.148,16.657,16.657,0,0,0,4.2,2.932,36.339,36.339,0,0,0,14.736,6,41.14,41.14,0,0,0,7.679.428c.821.124,1.649.241,2.477.338a46.56,46.56,0,0,0,15.571-.69c4.9.835,10.887-1.759,14.709-4.077,5.043-3.07,11.087-8.527,10.342-15.047-.552-4.85-5.271-8-9.741-10.5-3.208-3.9-7.906-5.871-12.466-7.768l-3.56-1.469a52.035,52.035,0,0,0-5.933-2.711,56.584,56.584,0,0,0-8.486-3.215A3.265,3.265,0,0,0,168.269,89.312Z" transform="translate(-48.116 -85.956)"/>
        </g>
        <g id="lineart-2" data-name="lineart" transform="translate(0 0)">
          <path id="Path_282806" data-name="Path 282806" class="cls-3" d="M168.156,73.332c0,8.037-2.442,13.95-6.4,16.923a12.831,12.831,0,0,1-1.152.766l-15.688,9.058h0a10.348,10.348,0,0,0,1.145-.766c3.967-2.973,6.409-8.872,6.409-16.923,0-8.81-2.939-18.42-7.575-26.437l-.3-.5c-3.794-6.409-8.679-11.777-14.012-14.867l-47.458-27.4c-5.292-3.063-10.148-3.36-13.936-1.366L84.506,2.97c3.836-2.215,8.831-2,14.315,1.152l47.451,27.4c5.333,3.084,10.224,8.458,14.019,14.867l.3.5c4.629,8.024,7.561,17.627,7.561,26.437Z" transform="translate(-22.491 -1.5)"/>
          <path id="Path_282807" data-name="Path 282807" class="cls-15" d="M148.9,86.458c0,8.051-2.442,13.95-6.409,16.923a10.22,10.22,0,0,1-1.145.752c-3.87,2.187-8.851,2.021-14.329-1.145L79.56,75.592c-5.478-3.167-10.473-8.727-14.308-15.378l-.3-.531c-4.457-7.9-7.258-17.275-7.258-25.9,0-8.051,2.435-13.943,6.409-16.93a12.833,12.833,0,0,1,1.152-.766l.373-.207c3.788-1.994,8.644-1.7,13.936,1.366l47.458,27.4c5.333,3.091,10.217,8.458,14.012,14.867l.3.5c4.636,8.024,7.575,17.627,7.575,26.437Zm-19.848-.283a12.563,12.563,0,0,0-5.685-9.852c-3.139-1.814-5.678-.345-5.678,3.284a12.519,12.519,0,0,0,5.678,9.831C126.507,91.253,129.053,89.79,129.053,86.175Zm-29.7-38.724a12.566,12.566,0,0,0-5.692-9.845c-3.139-1.814-5.678-.345-5.678,3.284a12.519,12.519,0,0,0,5.678,9.831C96.8,52.522,99.353,51.073,99.353,47.451ZM86.41,61.546A12.566,12.566,0,0,0,80.719,51.7c-3.139-1.814-5.678-.345-5.678,3.284a12.519,12.519,0,0,0,5.678,9.831c3.139,1.814,5.692.352,5.692-3.27Z" transform="translate(-18.925 -5.568)"/>
          <path id="Path_282808" data-name="Path 282808" class="cls-4" d="M150.338,103.712a12.563,12.563,0,0,1,5.685,9.852c0,3.622-2.546,5.071-5.685,3.263A12.54,12.54,0,0,1,144.66,107C144.66,103.374,147.2,101.9,150.338,103.712Z" transform="translate(-45.894 -32.957)"/>
          <path id="Path_282809" data-name="Path 282809" class="cls-15" d="M107.278,47.593a12.537,12.537,0,0,1,5.692,9.845c0,3.629-2.56,5.071-5.692,3.27a12.551,12.551,0,0,1-5.678-9.831c0-3.615,2.539-5.091,5.678-3.284Z" transform="translate(-32.541 -15.554)"/>
          <path id="Path_282810" data-name="Path 282810" class="cls-15" d="M88.518,68.022a12.537,12.537,0,0,1,5.692,9.845c0,3.629-2.56,5.085-5.692,3.27a12.54,12.54,0,0,1-5.678-9.831c0-3.622,2.539-5.091,5.678-3.284Z" transform="translate(-26.724 -21.889)"/>
          <path id="Path_282811" data-name="Path 282811" class="cls-8" d="M69.19,15.891c3.788-1.994,8.644-1.7,13.936,1.366l47.458,27.4c5.333,3.091,10.217,8.458,14.012,14.867" transform="translate(-22.491 -5.571)"/>
          <path id="Path_282812" data-name="Path 282812" class="cls-8" d="M64.948,60.345c-4.457-7.9-7.258-17.275-7.258-25.9,0-8.051,2.435-13.943,6.409-16.93a12.833,12.833,0,0,1,1.152-.766" transform="translate(-18.925 -6.229)"/>
          <path id="Path_282813" data-name="Path 282813" class="cls-8" d="M144.725,80.43c4.636,8.024,7.575,17.627,7.575,26.437,0,8.051-2.442,13.95-6.409,16.923a10.22,10.22,0,0,1-1.145.752c-3.87,2.187-8.851,2.021-14.329-1.145L82.958,96c-5.478-3.167-10.473-8.727-14.308-15.378" transform="translate(-22.323 -25.976)"/>
          <path id="Path_282814" data-name="Path 282814" class="cls-8" d="M85.33,38.79l3.96-1.69V50.222" transform="translate(-27.496 -12.54)"/>
          <path id="Path_282815" data-name="Path 282815" class="cls-8" d="M147.15,74.477l3.96-1.7V85.916" transform="translate(-46.666 -23.604)"/>
          <path id="Path_282816" data-name="Path 282816" class="cls-8" d="M127.31,63.037l3.96-1.7V74.462" transform="translate(-40.514 -20.057)"/>
          <path id="Path_282817" data-name="Path 282817" class="cls-8" d="M112.97,57.435a12.566,12.566,0,0,0-5.692-9.845c-3.139-1.814-5.678-.345-5.678,3.284a12.519,12.519,0,0,0,5.678,9.831C110.417,62.506,112.97,61.057,112.97,57.435Z" transform="translate(-32.541 -15.552)"/>
          <path id="Path_282818" data-name="Path 282818" class="cls-8" d="M108.91,83.677l3.953-1.7V95.1" transform="translate(-34.808 -26.457)"/>
          <path id="Path_282819" data-name="Path 282819" class="cls-8" d="M127.31,94.287l3.96-1.7v13.129" transform="translate(-40.514 -29.747)"/>
          <path id="Path_282820" data-name="Path 282820" class="cls-8" d="M94.21,77.865a12.566,12.566,0,0,0-5.692-9.845c-3.139-1.814-5.678-.345-5.678,3.284a12.519,12.519,0,0,0,5.678,9.831C91.657,82.95,94.21,81.487,94.21,77.865Z" transform="translate(-26.724 -21.887)"/>
          <path id="Path_282821" data-name="Path 282821" class="cls-8" d="M156.023,113.562a12.563,12.563,0,0,0-5.685-9.852c-3.139-1.814-5.678-.345-5.678,3.284a12.519,12.519,0,0,0,5.678,9.831C153.477,118.64,156.023,117.177,156.023,113.562Z" transform="translate(-45.894 -32.955)"/>
          <path id="Path_282822" data-name="Path 282822" class="cls-8" d="M178.95,120.474l15.688-9.058a9.816,9.816,0,0,0,1.152-.766c3.96-2.967,6.4-8.879,6.4-16.923,0-8.81-2.939-18.42-7.561-26.437" transform="translate(-56.528 -21.902)"/>
          <path id="Path_282823" data-name="Path 282823" class="cls-8" d="M68.65,12.028,84.338,2.97c3.836-2.215,8.831-2,14.315,1.152l47.451,27.4c5.333,3.084,10.224,8.458,14.019,14.867" transform="translate(-22.323 -1.5)"/>
          <path id="Path_282824" data-name="Path 282824" class="cls-16" d="M138.7,114.15c-18.04,10.123-2.494,25.91-24.923,38.5l-2.658,1.5a15.324,15.324,0,0,0,0,26.921l19.736,11.071a21.662,21.662,0,0,1,0,38.047l-27.175,15.247" transform="translate(-33.013 -36.908)"/>
          <path id="Path_282825" data-name="Path 282825" class="cls-3" d="M100.231,317.188v6.554L89.917,324,46.785,299.1c-1.042.269-2.1.517-3.18.717-11.135,2.125-23.87.628-32.722-4.484-6.133-3.546-9.321-8.161-9.383-12.8V275.98a11.974,11.974,0,0,0,2.042,6.237,21.207,21.207,0,0,0,7.341,6.561c8.851,5.112,21.587,6.609,32.722,4.484,1.076-.2,2.139-.442,3.18-.717l43.132,24.9,10.314-.255Z" transform="translate(-1.5 -86.617)"/>
          <path id="Path_282826" data-name="Path 282826" class="cls-9" d="M16.871,260.723c-1.283.738-1.283,1.939,0,2.677a5.13,5.13,0,0,0,4.636,0c1.283-.738,1.283-1.939,0-2.677A5.13,5.13,0,0,0,16.871,260.723ZM37.9,273.955c-1.283.738-1.283,1.939,0,2.677a5.144,5.144,0,0,0,4.643,0c1.283-.738,1.283-1.939,0-2.677A5.144,5.144,0,0,0,37.9,273.955Zm.11-13.156c1.283-.738,1.283-1.939,0-2.677a5.144,5.144,0,0,0-4.643,0c-1.283.738-1.283,1.939,0,2.677A5.144,5.144,0,0,0,38.009,260.8Zm26.92,2.76a10.978,10.978,0,0,1,.642,3.677v.359a11.8,11.8,0,0,1-1.614,5.457,14.684,14.684,0,0,1-1.249,1.842l10.148,5.857-3.815,2.2,4.878,2.808,4.477.269-1.111,4.188,9.362.255.607,4.795,5.8.124,1.007,5.361H99.79l.442,7.968-10.314.255-43.132-24.9c-1.042.269-2.1.517-3.18.717-11.135,2.125-23.87.628-32.722-4.484a21.139,21.139,0,0,1-7.341-6.561A11.974,11.974,0,0,1,1.5,267.512v-.276c0-3.995,2.249-7.955,6.664-11.3.069-.048.131-.1.193-.138.786-.559,1.614-1.118,2.518-1.642,5.864-3.381,13.439-5.181,21.111-5.4,8.706-.241,17.551,1.559,24.195,5.4,4.622,2.67,7.541,5.947,8.741,9.389Z" transform="translate(-1.5 -78.169)"/>
          <path id="Path_282827" data-name="Path 282827" class="cls-15" d="M103.222,295.15v4.4L99.4,297.358Z" transform="translate(-31.859 -92.562)"/>
          <path id="Path_282828" data-name="Path 282828" class="cls-15" d="M93.086,276.07v6.2a10.937,10.937,0,0,1-.31,2.573l-2.546-1.47a15.755,15.755,0,0,0,1.249-1.842,11.907,11.907,0,0,0,1.614-5.457Z" transform="translate(-29.015 -86.645)"/>
          <path id="Path_282829" data-name="Path 282829" class="cls-10" d="M58.47,285.041c1.283.738,1.283,1.939,0,2.677a5.144,5.144,0,0,1-4.643,0c-1.283-.738-1.283-1.939,0-2.677A5.144,5.144,0,0,1,58.47,285.041Z" transform="translate(-17.428 -89.255)"/>
          <path id="Path_282830" data-name="Path 282830" class="cls-10" d="M51.9,262.091c1.283.738,1.283,1.939,0,2.677a5.144,5.144,0,0,1-4.643,0c-1.283-.738-1.283-1.939,0-2.677A5.144,5.144,0,0,1,51.9,262.091Z" transform="translate(-15.391 -82.138)"/>
          <path id="Path_282831" data-name="Path 282831" class="cls-10" d="M27.984,265.861c1.283.738,1.283,1.939,0,2.677a5.129,5.129,0,0,1-4.636,0c-1.283-.738-1.283-1.939,0-2.677A5.13,5.13,0,0,1,27.984,265.861Z" transform="translate(-7.976 -83.307)"/>
          <path id="Path_282832" data-name="Path 282832" class="cls-8" d="M4.46,282.254a21.207,21.207,0,0,0,7.341,6.561c8.851,5.112,21.587,6.609,32.722,4.484,1.076-.2,2.139-.442,3.18-.717l43.132,24.9,10.314-.255-.442-7.968H94.975l-1.007-5.36-5.8-.124-.607-4.795-9.362-.255,1.111-4.188-4.477-.269-4.878-2.808,3.815-2.2L63.626,283.4a15.759,15.759,0,0,0,1.249-1.842,11.908,11.908,0,0,0,1.614-5.457" transform="translate(-2.418 -86.654)"/>
          <path id="Path_282833" data-name="Path 282833" class="cls-8" d="M1.5,275.98a11.974,11.974,0,0,0,2.042,6.237" transform="translate(-1.5 -86.617)"/>
          <path id="Path_282834" data-name="Path 282834" class="cls-8" d="M32,248.79c-7.672.214-15.247,2.014-21.111,5.395a29.975,29.975,0,0,0-2.518,1.642c-.062.048-.131.09-.193.138-4.415,3.346-6.664,7.306-6.664,11.3" transform="translate(-1.503 -78.185)"/>
          <path id="Path_282835" data-name="Path 282835" class="cls-8" d="M78.967,276.376a10.893,10.893,0,0,0,.31-2.573v-6.561a10.978,10.978,0,0,0-.642-3.677c-1.214-3.443-4.119-6.72-8.741-9.389-6.644-3.836-15.488-5.636-24.195-5.4" transform="translate(-15.207 -78.176)"/>
          <path id="Path_282836" data-name="Path 282836" class="cls-8" d="M1.5,275.57v6.83c.062,4.643,3.249,9.258,9.383,12.8,8.851,5.105,21.587,6.6,32.722,4.484,1.076-.2,2.139-.442,3.18-.717l43.132,24.9,10.314-.255v-6.554" transform="translate(-1.5 -86.49)"/>
          <line id="Line_1534" data-name="Line 1534" class="cls-8" y2="4.402" transform="translate(71.363 202.588)"/>
          <path id="Path_282837" data-name="Path 282837" class="cls-8" d="M4.46,282.614l24.767-5.354,9.59,5.54" transform="translate(-2.418 -87.014)"/>
          <path id="Path_282838" data-name="Path 282838" class="cls-8" d="M81.34,268.98l-15.6,3.774L54.42,266.22" transform="translate(-17.911 -83.59)"/>
          <line id="Line_1535" data-name="Line 1535" class="cls-8" x2="8.506" y2="4.912" transform="translate(6.864 177.642)"/>
          <path id="Path_282839" data-name="Path 282839" class="cls-8" d="M58.47,285.041a5.144,5.144,0,0,0-4.643,0c-1.283.738-1.283,1.939,0,2.677a5.144,5.144,0,0,0,4.643,0C59.754,286.98,59.754,285.779,58.47,285.041Z" transform="translate(-17.428 -89.255)"/>
          <path id="Path_282840" data-name="Path 282840" class="cls-8" d="M51.9,262.091a5.144,5.144,0,0,0-4.643,0c-1.283.738-1.283,1.939,0,2.677a5.144,5.144,0,0,0,4.643,0C53.184,264.03,53.184,262.829,51.9,262.091Z" transform="translate(-15.391 -82.138)"/>
          <path id="Path_282841" data-name="Path 282841" class="cls-8" d="M27.984,265.861a5.13,5.13,0,0,0-4.636,0c-1.283.738-1.283,1.939,0,2.677a5.129,5.129,0,0,0,4.636,0C29.267,267.8,29.267,266.6,27.984,265.861Z" transform="translate(-7.976 -83.307)"/>
          <circle id="Ellipse_3031" data-name="Ellipse 3031" class="cls-17" cx="6.437" cy="6.437" r="6.437" transform="translate(100.014 160.759)"/>
        </g>
      </g>
    </g>
    <g id="Group_176555" data-name="Group 176555" transform="translate(639.063 515.6)">
      <g id="Group_162579" data-name="Group 162579">
        <g id="Group_162578" data-name="Group 162578">
          <path id="Path_83697" data-name="Path 83697" d="M8.7,6.438A7.006,7.006,0,0,1,8.581,8.9,13.643,13.643,0,0,1,7.8,11.327a20.88,20.88,0,0,1-.995,2.044c-.319.576-.6,1.027-.773,1.292a8.661,8.661,0,0,0-.4-1,8.021,8.021,0,0,0-.854-1.427,5.216,5.216,0,0,0-1.379-1.291,3.794,3.794,0,0,0-1.974-.582H1.319l-.113,0-.113.006-.114.009a8.1,8.1,0,0,1,.294-2.857A15.5,15.5,0,0,1,2.283,4.86,21.247,21.247,0,0,1,3.364,2.89c.3-.484.5-.768.5-.768a5.809,5.809,0,0,1,.621.145,7.85,7.85,0,0,1,1.428.56A5.892,5.892,0,0,1,7.5,3.986,4.444,4.444,0,0,1,8.594,5.927q.017.062.032.124t.029.127q.013.064.025.129T8.7,6.438Z" transform="translate(7.166 0)"/>
          <path id="Path_83698" data-name="Path 83698" d="M12.143,6.649,3.751,11.343A4.259,4.259,0,0,1,2.06,10.337,6.417,6.417,0,0,1,.948,8.91,8.594,8.594,0,0,1,.34,7.632C.212,7.294.155,7.078.155,7.078s.231-.251.631-.633a21.281,21.281,0,0,1,1.64-1.414A14.77,14.77,0,0,1,4.695,3.56a7.06,7.06,0,0,1,2.517-.8l.114-.009.114-.006.113,0h.113A3.784,3.784,0,0,1,9.441,3.2a4.812,4.812,0,0,1,1.307,1.069,7.224,7.224,0,0,1,.885,1.279A9.036,9.036,0,0,1,12.143,6.649Z" transform="translate(0 8.572)"/>
          <path id="Path_83699" data-name="Path 83699" d="M9.874.9s.015.238.007.648a14.745,14.745,0,0,1-.134,1.678,14.626,14.626,0,0,1-.505,2.31A12.132,12.132,0,0,1,8.135,8.089l-7.11,3.976c.24-.415.517-.921.79-1.487a17.8,17.8,0,0,0,.772-1.844,11.552,11.552,0,0,0,.521-2.008,6.555,6.555,0,0,0,.035-1.98q-.01-.067-.022-.132T3.1,4.485q-.013-.064-.028-.127t-.031-.124A10.394,10.394,0,0,1,5.311,2.461,12.351,12.351,0,0,1,7.529,1.455a12.661,12.661,0,0,1,1.679-.449C9.626.926,9.874.9,9.874.9Z" transform="translate(13.671 1.729)"/>
        </g>
      </g>
    </g>
  </g>
</svg>
