<svg xmlns="http://www.w3.org/2000/svg" width="114.754" height="114.755" viewBox="0 0 114.754 114.755">
  <g id="Group_176508" data-name="Group 176508" transform="translate(-922.011 -9266)">
    <rect id="Rectangle_191210" data-name="Rectangle 191210" width="19" height="14" transform="translate(960.638 9290.638)" fill="lime"/>
    <path id="Path_282482" data-name="Path 282482" d="M.551,0H13.375l2.916,18.156H-1.949Z" transform="translate(962.485 9268.565)" fill="lime"/>
    <rect id="Rectangle_191211" data-name="Rectangle 191211" width="43" height="31" rx="3" transform="translate(991.638 9346.638)" fill="lime"/>
    <g id="noun-secure-2737498" transform="translate(922.011 9266)">
      <g id="Group_176506" data-name="Group 176506" transform="translate(0 0)">
        <path id="Path_282465" data-name="Path 282465" d="M76.984,78.885H44.2a8.2,8.2,0,0,1-8.2-8.2V50.2A8.2,8.2,0,0,1,44.2,42H76.984a8.2,8.2,0,0,1,8.2,8.2v4.1a2.049,2.049,0,0,1-4.1,0V50.2a4.1,4.1,0,0,0-4.1-4.1H44.2a4.1,4.1,0,0,0-4.1,4.1V70.689a4.1,4.1,0,0,0,4.1,4.1H76.984a4.1,4.1,0,0,0,4.1-4.1v-8.2a2.049,2.049,0,0,1,4.1,0v8.2A8.2,8.2,0,0,1,76.984,78.885Z" transform="translate(29.574 35.869)"/>
        <path id="Path_282466" data-name="Path 282466" d="M73.836,58.689H59.492a2.049,2.049,0,0,1-2.049-2.049V42.3A6.148,6.148,0,0,0,51.3,48.443v8.2a2.049,2.049,0,0,1-2.049,2.049h-8.2A2.049,2.049,0,0,1,39,56.639v-8.2a18.258,18.258,0,0,1,1.783-7.91A2.049,2.049,0,1,1,44.471,42.3,14.345,14.345,0,0,0,43.1,48.443V54.59h4.1V48.443A10.246,10.246,0,0,1,57.443,38.2a8.976,8.976,0,0,1,2.6.348,2.049,2.049,0,0,1,1.5,2.049v14H71.787V48.443a14.344,14.344,0,0,0-4.1-10.246,14.754,14.754,0,0,0-8.361-4.1,16.678,16.678,0,0,0-1.885,0,13.975,13.975,0,0,0-8.361,2.725,2.053,2.053,0,1,1-2.418-3.32A18.115,18.115,0,0,1,57.443,30a17.048,17.048,0,0,1,2.3.143,18.648,18.648,0,0,1,10.738,5.246,18.32,18.32,0,0,1,5.41,13.053v8.2A2.049,2.049,0,0,1,73.836,58.689Z" transform="translate(32.721 23.279)"/>
        <path id="Path_282467" data-name="Path 282467" d="M56.229,54.358a2.049,2.049,0,0,1-2.049-2.049v-8.2a6.148,6.148,0,0,0-1.8-4.365,6.291,6.291,0,0,0-2.807-1.578,2.046,2.046,0,1,1,.963-3.975A10.41,10.41,0,0,1,55.2,36.858a10.246,10.246,0,0,1,3.074,7.254v8.2A2.049,2.049,0,0,1,56.229,54.358Z" transform="translate(42.132 27.61)"/>
        <path id="Path_282468" data-name="Path 282468" d="M50.1,55.2a4.1,4.1,0,1,1,4.1-4.1A4.1,4.1,0,0,1,50.1,55.2ZM50.1,51.1Z" transform="translate(40.066 41.115)"/>
        <path id="Path_282469" data-name="Path 282469" d="M49.049,60.3A2.049,2.049,0,0,1,47,58.246v-8.2a2.049,2.049,0,1,1,4.1,0v8.2A2.049,2.049,0,0,1,49.049,60.3Z" transform="translate(41.115 42.164)"/>
        <path id="Path_282470" data-name="Path 282470" d="M67.516,21.382H6.041a2.011,2.011,0,0,1-1.68-3.156l4.529-6.475a2.058,2.058,0,1,1,3.3,2.459l-2.049,3.074H67.516a2.049,2.049,0,1,1,0,4.1Z" transform="translate(-3.991 3.208)"/>
        <path id="Path_282471" data-name="Path 282471" d="M91.575,28.59H71.084a2.049,2.049,0,0,1,0-4.1H87.641L76.166,8.1H16.739l-4.529,6.578A2.049,2.049,0,1,1,8.85,12.34l5.225-7.459A2.049,2.049,0,0,1,15.756,4H77.231a2.049,2.049,0,0,1,1.68.881L93.256,25.373a2.068,2.068,0,0,1-1.68,3.217Z" transform="translate(0.638 -4)"/>
        <path id="Path_282472" data-name="Path 282472" d="M43.557,28.59H23.065a2.126,2.126,0,0,1-2.049-2.459l4.1-20.492A2.049,2.049,0,0,1,27.164,4h12.3A2.049,2.049,0,0,1,41.508,5.64l4.1,20.492a2.068,2.068,0,0,1-2.049,2.459Zm-17.992-4.1H41.057L37.778,8.1H28.844Z" transform="translate(13.82 -4)"/>
        <path id="Path_282473" data-name="Path 282473" d="M28.443,53.1H12.049a2.049,2.049,0,0,1,0-4.1H28.443a2.049,2.049,0,0,1,0,4.1Z" transform="translate(2.295 43.214)"/>
        <path id="Path_282474" data-name="Path 282474" d="M28.443,48.1H12.049a2.049,2.049,0,0,1,0-4.1H28.443a2.049,2.049,0,0,1,0,4.1Z" transform="translate(2.295 37.968)"/>
        <path id="Path_282475" data-name="Path 282475" d="M14.246,100.066h-8.2A2.049,2.049,0,0,1,4,98.016V16.049A2.049,2.049,0,0,1,6.049,14H67.525a2.049,2.049,0,1,1,0,4.1H8.1V95.967h6.148a2.049,2.049,0,1,1,0,4.1Z" transform="translate(-4 6.492)"/>
        <path id="Path_282476" data-name="Path 282476" d="M57.984,78.552H19.049a2.049,2.049,0,1,1,0-4.1H55.934V58.06a8.2,8.2,0,0,1,6.148-7.93V43.715a18.258,18.258,0,0,1,1.783-7.91,2.049,2.049,0,1,1,3.689,1.762,14.345,14.345,0,0,0-1.373,6.148v8.2a2.049,2.049,0,0,1-2.049,2.049,4.1,4.1,0,0,0-4.1,4.1V76.5A2.049,2.049,0,0,1,57.984,78.552Z" transform="translate(9.639 28.006)"/>
        <path id="Path_282477" data-name="Path 282477" d="M48.922,54a2.049,2.049,0,0,1-1.209-3.709,18.115,18.115,0,0,1,10.779-3.5V18.1H40.049a2.049,2.049,0,0,1,0-4.1H60.541a2.049,2.049,0,0,1,2.049,2.049v32.91a2.045,2.045,0,0,1-2.3,2.029,14.344,14.344,0,0,0-10.246,2.623A2.049,2.049,0,0,1,48.922,54Z" transform="translate(31.672 6.492)"/>
        <path id="Path_282478" data-name="Path 282478" d="M16.1,58.1H14.049a2.049,2.049,0,1,1,0-4.1H16.1a2.049,2.049,0,1,1,0,4.1Z" transform="translate(4.393 48.459)"/>
        <path id="Path_282479" data-name="Path 282479" d="M43.541,34.492H23.049A2.049,2.049,0,0,1,21,32.443V16.049A2.049,2.049,0,0,1,23.049,14H43.541a2.049,2.049,0,0,1,2.049,2.049V32.443A2.049,2.049,0,0,1,43.541,34.492ZM25.1,30.393H41.492V18.1H25.1Z" transform="translate(13.836 6.492)"/>
        <path id="Path_282480" data-name="Path 282480" d="M55.3,54.492H45.049A2.049,2.049,0,0,1,43,52.443v-8.2A10.246,10.246,0,0,1,53.246,34a8.976,8.976,0,0,1,2.6.348,2.049,2.049,0,0,1,1.5,2.049V52.443A2.049,2.049,0,0,1,55.3,54.492Zm-8.2-4.1h6.148V38.1A6.148,6.148,0,0,0,47.1,44.246Z" transform="translate(36.918 27.475)"/>
      </g>
    </g>
  </g>
</svg>
