<svg xmlns="http://www.w3.org/2000/svg" width="386.372" height="473.916" viewBox="0 0 386.372 473.916">
  <defs>
    <style>
      .cls-1 {
        fill: #7e7e7e;
      }

      .cls-2 {
        fill: #373a3a;
      }

      .cls-3 {
        fill: #5f646b;
      }

      .cls-4 {
        fill: #d0d0d0;
      }

      .cls-5 {
        fill: #5f646c;
      }

      .cls-6 {
        fill: #7fff80;
      }

      .cls-12, .cls-15, .cls-7, .cls-8, .cls-9 {
        fill: none;
        stroke-linecap: round;
      }

      .cls-7, .cls-9 {
        stroke: #f3f6f2;
      }

      .cls-12, .cls-15, .cls-7, .cls-8 {
        stroke-linejoin: round;
      }

      .cls-8 {
        stroke: #000;
      }

      .cls-10 {
        fill: lime;
      }

      .cls-11 {
        fill: #00e300;
      }

      .cls-12 {
        stroke: #373a3a;
      }

      .cls-13 {
        fill: #f2f5f2;
      }

      .cls-14 {
        fill: #f3f6f2;
      }

      .cls-15 {
        stroke: #7e7e7e;
      }

      .cls-16 {
        isolation: isolate;
      }
    </style>
  </defs>
  <g id="Group_176557" data-name="Group 176557" transform="translate(-1317.658 -937.744)">
    <g id="Group_176551" data-name="Group 176551" transform="translate(269 -3611.406)">
      <g id="Group_176547" data-name="Group 176547" transform="translate(19169 22800.996)">
        <g id="Asset_2" data-name="Asset 2" transform="translate(-18027 -18132.115)">
          <g id="shadow" transform="translate(1.241 203.951)">
            <path id="Path_282733" data-name="Path 282733" d="M198.087,472.85c-36.393,26.281-99.968,31.384-138.06,11.341-.141-.07-34.186-16.725-29.968-14.518-34.476-18.079-36.315-50.716-3.138-74.681,36.393-26.281,99.2-29.85,138.06-11.341,13.509,6.433,13.5,6.973,25.225,12.233,38.992,17.484,42.514,51.952,7.873,76.966Z" transform="translate(-3.086 -372.059)"/>
          </g>
          <g id="lineart" transform="translate(0 0)">
            <path id="Path_282734" data-name="Path 282734" class="cls-1" d="M197.666,417.93v16.052c0,14.487-9.572,28.982-28.723,40.041-38.311,22.11-100.414,22.11-138.71,0C11.082,462.964,1.51,448.477,1.51,433.982V417.93c0,14.487,9.572,28.982,28.723,40.041,38.3,22.11,100.4,22.11,138.71,0C188.094,446.912,197.666,432.417,197.666,417.93Z" transform="translate(-1.502 -178.078)"/>
            <path id="Path_282735" data-name="Path 282735" class="cls-2" d="M181.722,394.31v18.009c0,11.231-7.42,22.454-22.266,31.032-29.678,17.14-77.811,17.14-107.5,0C37.12,434.781,29.7,423.55,29.7,412.319V394.31c0,11.239,7.42,22.462,22.259,31.04,29.686,17.14,77.819,17.14,107.5,0C174.3,416.78,181.722,405.549,181.722,394.31Z" transform="translate(-7.629 -172.945)"/>
            <path id="Path_282736" data-name="Path 282736" class="cls-3" d="M168.055,362.22c9.11,7.521,13.657,16.318,13.657,25.115,0,11.239-7.427,22.462-22.266,31.04-29.678,17.14-77.811,17.14-107.5,0-14.839-8.57-22.259-19.8-22.259-31.04,0-8.5,4.258-17,12.757-24.341v23.824c-.008.07,0,.141-.008.219-.07,9.447,6.042,18.925,18.533,26.133,15.9,9.18,38.162,12.452,58.589,9.814,11.317-1.464,22.063-4.727,30.868-9.814,15.1-8.719,20.967-20.732,17.618-32.026V362.228Z" transform="translate(-7.627 -165.97)"/>
            <path id="Path_282737" data-name="Path 282737" class="cls-4" d="M193.015,378.223c3.35,11.294-2.52,23.307-17.618,32.026-8.8,5.087-19.551,8.359-30.868,9.814V348.78c11.317,1.456,22.063,4.727,30.868,9.814,9.619,5.549,15.481,12.444,17.618,19.621Z" transform="translate(-32.587 -163.049)"/>
            <path id="Path_282738" data-name="Path 282738" class="cls-3" d="M193.015,357.215v18.917c-2.137-7.185-8-14.08-17.618-19.621-8.8-5.087-19.551-8.367-30.868-9.814V339.19c14.6,1.55,28.582,5.6,39.884,12.115a62.5,62.5,0,0,1,8.6,5.917Z" transform="translate(-32.587 -160.964)"/>
            <path id="Path_282739" data-name="Path 282739" class="cls-5" d="M123.115,338.985v7.506c-20.427-2.638-42.694.634-58.589,9.814-12.131,6.989-18.3,16.123-18.525,25.3V357.785a61.656,61.656,0,0,1,9.5-6.684C73.894,340.488,99.353,336.442,123.115,338.985Z" transform="translate(-11.172 -160.76)"/>
            <path id="Path_282740" data-name="Path 282740" class="cls-4" d="M46,383.652c.227-9.173,6.394-18.306,18.525-25.3,15.9-9.181,38.162-12.46,58.589-9.814v71.284c-20.427,2.63-42.694-.634-58.589-9.814-12.491-7.208-18.6-16.686-18.533-26.133A2.125,2.125,0,0,1,46,383.652Z" transform="translate(-11.17 -162.803)"/>
            <path id="Path_282741" data-name="Path 282741" class="cls-6" d="M36.33,362.506v.446c-8.5,7.341-12.757,15.841-12.757,24.341V405.3c0,11.231,7.42,22.454,22.259,31.032,29.686,17.14,77.819,17.14,107.5,0,14.847-8.57,22.266-19.8,22.266-31.032V387.293c0-8.8-4.547-17.594-13.657-25.115v-.117q3.616,1.726,7,3.678c19.152,11.051,28.723,25.546,28.723,40.041s-9.572,28.982-28.723,40.04c-38.311,22.11-100.414,22.11-138.71,0C11.082,434.761,1.51,420.266,1.51,405.779s9.572-28.989,28.723-40.041c1.972-1.143,4.007-2.215,6.1-3.232Z" transform="translate(-1.502 -165.935)"/>
            <path id="Path_282742" data-name="Path 282742" class="cls-7" d="M45.99,383.862a2.126,2.126,0,0,1,.008-.219c.227-9.173,6.394-18.306,18.525-25.3,15.9-9.181,38.162-12.444,58.589-9.814,11.317,1.456,22.063,4.727,30.868,9.814,9.619,5.549,15.481,12.444,17.618,19.621" transform="translate(-11.17 -162.802)"/>
            <path id="Path_282743" data-name="Path 282743" class="cls-8" d="M46,357.786a61.658,61.658,0,0,1,9.5-6.684c18.392-10.613,43.844-14.643,67.613-12.115,14.6,1.557,28.582,5.6,39.884,12.115a62.492,62.492,0,0,1,8.6,5.917" transform="translate(-11.172 -160.761)"/>
            <path id="Path_282744" data-name="Path 282744" class="cls-7" d="M171.6,386.4c3.35,11.294-2.52,23.307-17.618,32.026-8.8,5.087-19.551,8.359-30.868,9.814-20.427,2.638-42.694-.634-58.589-9.814-12.491-7.208-18.666-16.686-18.533-26.133" transform="translate(-11.169 -171.225)"/>
            <path id="Path_282745" data-name="Path 282745" class="cls-8" d="M161.928,362.07q3.616,1.726,7,3.678c19.152,11.051,28.723,25.546,28.723,40.041s-9.572,28.982-28.723,40.04c-38.311,22.11-100.414,22.11-138.71,0C11.072,434.771,1.5,420.276,1.5,405.789s9.572-28.989,28.723-40.041c1.972-1.143,4.007-2.215,6.1-3.232" transform="translate(-1.5 -165.937)"/>
            <path id="Path_282746" data-name="Path 282746" class="cls-8" d="M168.055,362.22c9.11,7.521,13.657,16.318,13.657,25.115,0,11.239-7.427,22.462-22.266,31.04-29.678,17.14-77.811,17.14-107.5,0-14.839-8.57-22.259-19.8-22.259-31.04,0-8.5,4.258-17,12.757-24.341" transform="translate(-7.627 -165.97)"/>
            <path id="Path_282747" data-name="Path 282747" class="cls-8" d="M29.7,394.31v18.009c0,11.231,7.42,22.454,22.259,31.032,29.686,17.14,77.819,17.14,107.5,0,14.847-8.57,22.266-19.8,22.266-31.032V394.31" transform="translate(-7.629 -172.945)"/>
            <path id="Path_282748" data-name="Path 282748" class="cls-8" d="M197.666,417.93v16.052c0,14.487-9.572,28.982-28.723,40.041-38.311,22.11-100.414,22.11-138.71,0C11.082,462.964,1.51,448.477,1.51,433.982V417.93" transform="translate(-1.502 -178.078)"/>
            <line id="Line_1521" data-name="Line 1521" class="cls-7" y1="96.031" transform="translate(34.828 125.029)"/>
            <line id="Line_1522" data-name="Line 1522" class="cls-7" y1="23.926" transform="translate(34.828 79.611)"/>
            <line id="Line_1523" data-name="Line 1523" class="cls-7" y1="9.04" transform="translate(34.828 62.057)"/>
            <line id="Line_1524" data-name="Line 1524" class="cls-7" y1="101.479" transform="translate(111.943 155.529)"/>
            <line id="Line_1525" data-name="Line 1525" class="cls-7" y1="15.301" transform="translate(111.943 129.701)"/>
            <line id="Line_1526" data-name="Line 1526" class="cls-7" y1="6.449" transform="translate(111.943 113.14)"/>
            <path id="Path_282803" data-name="Path 282803" class="cls-9" d="M0,103.615V0" transform="translate(160.428 111.559)"/>
            <line id="Line_1528" data-name="Line 1528" class="cls-7" y1="21.085" transform="translate(160.428 72.967)"/>
            <line id="Line_1529" data-name="Line 1529" class="cls-7" y1="5.909" transform="translate(160.428 20.419)"/>
            <line id="Line_1530" data-name="Line 1530" class="cls-7" y1="11.435" transform="translate(160.428)"/>
          </g>
        </g>
        <g id="Group_176546" data-name="Group 176546" transform="translate(-17973.777 -18251.252)">
          <path id="Path_282773" data-name="Path 282773" class="cls-10" d="M16.631,0,26.72,18.713,10.088,20.592,0,1.886Z" transform="translate(34.998 11.688) rotate(82)"/>
          <path id="Path_282774" data-name="Path 282774" class="cls-11" d="M28.7,0,16.631,13.055,0,14.933,12.069,1.878Z" transform="translate(16.192 12.332) rotate(82)"/>
          <path id="Path_282775" data-name="Path 282775" class="cls-6" d="M12.069,0,22.157,18.705,10.088,31.76,0,13.047Z" transform="translate(31.451 0) rotate(82)"/>
          <path id="Path_282776" data-name="Path 282776" class="cls-8" d="M28.7,0,16.631,13.055,0,14.933,12.069,1.878" transform="translate(16.192 12.332) rotate(82)"/>
          <path id="Path_282777" data-name="Path 282777" class="cls-8" d="M10.088,31.76,0,13.047,12.069,0" transform="translate(31.451 0) rotate(82)"/>
          <path id="Path_282778" data-name="Path 282778" class="cls-8" d="M0,1.886,16.631,0,26.72,18.713,10.088,20.592Z" transform="translate(34.998 11.688) rotate(82)"/>
        </g>
        <g id="Group_176545" data-name="Group 176545" transform="translate(-17902.096 -18218.945)">
          <path id="Path_282779" data-name="Path 282779" class="cls-11" d="M11.63,0l6.3,27.111L6.308,45.488,0,18.377Z" transform="translate(49.219 29.898) rotate(82)"/>
          <path id="Path_282780" data-name="Path 282780" class="cls-6" d="M41.621,1.424,29.991,19.8,0,18.377,11.622,0Z" transform="translate(46.455 0) rotate(82)"/>
          <path id="Path_282781" data-name="Path 282781" class="cls-10" d="M29.991,1.424,36.3,28.536,6.308,27.111,0,0Z" transform="translate(28.257 2.558) rotate(82)"/>
          <path id="Path_282782" data-name="Path 282782" class="cls-8" d="M36.3,28.536,6.308,27.111,0,0,29.991,1.424" transform="translate(28.257 2.558) rotate(82)"/>
          <path id="Path_282783" data-name="Path 282783" class="cls-8" d="M0,18.377,11.622,0l30,1.424" transform="translate(46.455 0) rotate(82)"/>
          <path id="Path_282784" data-name="Path 282784" class="cls-8" d="M11.63,0l6.3,27.111L6.308,45.488,0,18.377Z" transform="translate(49.219 29.898) rotate(82)"/>
        </g>
        <g id="Group_176544" data-name="Group 176544" transform="matrix(0.985, -0.174, 0.174, 0.985, -17996.703, -18035.619)">
          <path id="Path_282785" data-name="Path 282785" class="cls-10" d="M10.761,0,21.883,23.268,11.121,40.917,0,17.641Z" transform="translate(46.724 24.677) rotate(82)"/>
          <path id="Path_282786" data-name="Path 282786" class="cls-11" d="M24.92,0,36.041,23.276,11.114,26.039,0,2.763Z" transform="translate(25.786 2.455) rotate(82)"/>
          <path id="Path_282787" data-name="Path 282787" class="cls-6" d="M35.681,0,24.92,17.641,0,20.4,10.761,2.763Z" transform="translate(43.255 0) rotate(82)"/>
          <path id="Path_282788" data-name="Path 282788" class="cls-8" d="M0,17.641,10.761,0,21.883,23.268,11.121,40.917" transform="translate(46.724 24.677) rotate(82)"/>
          <path id="Path_282789" data-name="Path 282789" class="cls-8" d="M0,20.4,10.761,2.763,35.681,0" transform="translate(43.255 0) rotate(82)"/>
          <path id="Path_282790" data-name="Path 282790" class="cls-8" d="M24.92,0,36.041,23.276,11.114,26.039,0,2.763Z" transform="translate(25.786 2.455) rotate(82)"/>
        </g>
        <g id="Group_176543" data-name="Group 176543" transform="translate(-18013.527 -18164.961)">
          <path id="Path_282791" data-name="Path 282791" class="cls-10" d="M19.527.845,30.75,34.679l-19.527-.845L0,0Z" transform="translate(51.151 28.498) rotate(82)"/>
          <path id="Path_282792" data-name="Path 282792" class="cls-11" d="M48.305.845,19.535,14.628,0,13.775,28.778,0Z" transform="translate(15.203 15.823) rotate(82)"/>
          <path id="Path_282793" data-name="Path 282793" class="cls-6" d="M28.778,0,40,33.834,11.223,47.609,0,13.775Z" transform="translate(47.145 0) rotate(82)"/>
          <path id="Path_282794" data-name="Path 282794" class="cls-12" d="M0,0,19.527.845,30.75,34.679" transform="translate(51.151 28.498) rotate(82)"/>
          <path id="Path_282795" data-name="Path 282795" class="cls-12" d="M28.778,0,48.305.845,19.535,14.628,0,13.775" transform="translate(15.203 15.823) rotate(82)"/>
          <path id="Path_282796" data-name="Path 282796" class="cls-12" d="M28.778,0,40,33.834,11.223,47.609,0,13.775Z" transform="translate(47.145 0) rotate(82)"/>
        </g>
        <g id="Group_176542" data-name="Group 176542" transform="matrix(0.966, -0.259, 0.259, 0.966, -17952.098, -18113.623)">
          <path id="Path_282797" data-name="Path 282797" class="cls-6" d="M51.96,0,68.153,36.479,16.2,46.654,0,10.167Z" transform="translate(85.143 0.166) rotate(82)"/>
          <path id="Path_282798" data-name="Path 282798" class="cls-11" d="M53.557,0l-1.6,39.109L0,49.276l1.6-39.1Z" transform="translate(51.05 19.697) rotate(82)"/>
          <path id="Path_282799" data-name="Path 282799" class="cls-10" d="M1.6,0,17.8,36.487l-1.6,39.1L0,39.094Z" transform="translate(74.854 0) rotate(82)"/>
          <path id="Path_282800" data-name="Path 282800" class="cls-8" d="M53.557,0l-1.6,39.109L0,49.276" transform="translate(51.05 19.697) rotate(82)"/>
          <path id="Path_282801" data-name="Path 282801" class="cls-8" d="M17.8,36.487l-1.6,39.1L0,39.094,1.6,0" transform="translate(74.854 0) rotate(82)"/>
          <path id="Path_282802" data-name="Path 282802" class="cls-8" d="M0,10.167,51.96,0,68.153,36.479,16.2,46.654Z" transform="translate(85.143 0.166) rotate(82)"/>
        </g>
      </g>
      <g id="Group_176549" data-name="Group 176549" transform="translate(18813.693 24259.166)">
        <path id="Path_282968" data-name="Path 282968" d="M370.549,207.9c-6.569-3.789-17.215-3.789-23.785,0s-6.569,9.94,0,13.735,17.215,3.789,23.785,0S377.119,211.695,370.549,207.9Z" transform="translate(-18029.771 -19460.576)"/>
        <path id="Path_282969" data-name="Path 282969" d="M296.629,175.48c-6.569-3.789-17.215-3.789-23.785,0s-6.569,9.94,0,13.735,17.215,3.789,23.785,0S303.2,179.275,296.629,175.48Z" transform="translate(-17996.625 -19446.037)"/>
        <path id="Path_282970" data-name="Path 282970" d="M237.769,130.22c-6.569-3.789-17.215-3.789-23.785,0s-6.569,9.94,0,13.735,17.215,3.789,23.785,0S244.339,134.015,237.769,130.22Z" transform="translate(-17970.232 -19425.742)"/>
        <path id="Path_282992" data-name="Path 282992" class="cls-13" d="M366.8,200.449c6.674,3.85,6.674,10.1,0,13.955s-17.5,3.85-24.171,0-6.674-10.105,0-13.955S360.127,196.594,366.8,200.449Zm-8.406,9.1c2.035-1.175,2.035-3.078,0-4.247a8.121,8.121,0,0,0-7.358,0c-2.03,1.169-2.03,3.072,0,4.247A8.121,8.121,0,0,0,358.4,209.55Z" transform="translate(-18027.883 -19457.213)"/>
        <path id="Path_282993" data-name="Path 282993" class="cls-10" d="M368.061,210.874c2.035,1.169,2.035,3.072,0,4.247a8.121,8.121,0,0,1-7.358,0c-2.03-1.175-2.03-3.078,0-4.247A8.121,8.121,0,0,1,368.061,210.874Z" transform="translate(-18037.549 -19462.789)"/>
        <path id="Path_282994" data-name="Path 282994" class="cls-14" d="M292.108,165.819c6.674,3.85,6.674,10.1,0,13.955s-17.5,3.85-24.171,0-6.68-10.105,0-13.955S285.434,161.964,292.108,165.819ZM280.023,176.8l6.934-4-6.934-4-6.939,4Z" transform="translate(-17994.389 -19441.684)"/>
        <path id="Path_282995" data-name="Path 282995" class="cls-10" d="M295.213,177.569l-1.734,1-5.2,3-6.939-4,6.939-4Z" transform="translate(-18002.645 -19446.457)"/>
        <path id="Path_282996" data-name="Path 282996" class="cls-14" d="M232.141,122.7c6.674,3.856,6.674,10.1,0,13.955s-17.5,3.856-24.171,0-6.674-10.1,0-13.955,17.5-3.856,24.171,0Z" transform="translate(-17967.5 -19422.348)"/>
        <path id="Path_282997" data-name="Path 282997" class="cls-15" d="M232.141,136.644c-6.674,3.856-17.5,3.856-24.171,0s-6.674-10.1,0-13.955,17.5-3.856,24.171,0,6.674,10.1,0,13.955Z" transform="translate(-17967.5 -19422.344)"/>
        <path id="Path_282998" data-name="Path 282998" class="cls-15" d="M292.108,179.784c-6.674,3.85-17.5,3.85-24.171,0s-6.68-10.105,0-13.955,17.5-3.856,24.171,0S298.782,175.929,292.108,179.784Z" transform="translate(-17994.389 -19441.688)"/>
        <path id="Path_282999" data-name="Path 282999" class="cls-15" d="M366.8,214.394c-6.674,3.85-17.5,3.85-24.171,0s-6.674-10.105,0-13.955,17.5-3.856,24.171,0S373.476,210.539,366.8,214.394Z" transform="translate(-18027.883 -19457.207)"/>
        <path id="Path_283000" data-name="Path 283000" class="cls-15" d="M255.86,120.845l4.054-1.715c10.833-4.589,25.561-4.611,36.438-.055a47.647,47.647,0,0,0,18.147,3.409c7.959,0,15.869-1.771,21.854-5.224-10.745,6.2-12.08,16-3.15,23.1,3.933,3.128,5.9,6.8,5.9,10.48s-2,7.419-5.99,10.557l-2.973,2.339" transform="translate(-17991.219 -19420.494)"/>
        <line id="Line_1558" data-name="Line 1558" class="cls-15" x1="47.415" y2="27.37" transform="translate(-17702.279 -19303.234)"/>
        <path id="Path_283001" data-name="Path 283001" class="cls-8" d="M295.213,177.569l-6.934-4-6.939,4,6.939,4Z" transform="translate(-18002.645 -19446.457)"/>
        <path id="Path_283002" data-name="Path 283002" class="cls-8" d="M368.061,215.131c2.035-1.175,2.035-3.078,0-4.247a8.121,8.121,0,0,0-7.358,0c-2.03,1.169-2.03,3.072,0,4.247A8.121,8.121,0,0,0,368.061,215.131Z" transform="translate(-18037.549 -19462.793)"/>
        <line id="Line_1559" data-name="Line 1559" class="cls-8" x2="6.84" y2="3.949" transform="translate(-17750.863 -19294.652)"/>
        <line id="Line_1560" data-name="Line 1560" class="cls-8" x2="6.834" y2="3.949" transform="translate(-17747.4 -19296.648)"/>
        <line id="Line_1561" data-name="Line 1561" class="cls-8" x2="6.834" y2="3.944" transform="translate(-17754.322 -19292.65)"/>
      </g>
      <g id="Group_176550" data-name="Group 176550" transform="translate(19247.98 24233.512)">
        <path id="Path_282971" data-name="Path 282971" d="M159.639,113.543a10.679,10.679,0,0,0,9.654,0L191.013,101A3.393,3.393,0,0,0,193,98.281v-.063a3.377,3.377,0,0,0-1.991-2.785l-21.721-12.54a10.679,10.679,0,0,0-9.654,0l-21.721,12.54a2.941,2.941,0,0,0,0,5.57Z" transform="translate(-18005.955 -19450.174)"/>
        <path id="Path_282972" data-name="Path 282972" d="M110.8,50.021v-.063a3.377,3.377,0,0,0-1.991-2.785L87.092,34.633a10.679,10.679,0,0,0-9.654,0L55.718,47.173a3.373,3.373,0,0,0-2,2.785,3.381,3.381,0,0,0,2,2.785l21.721,12.54a10.679,10.679,0,0,0,9.654,0l21.721-12.54a3.393,3.393,0,0,0,1.991-2.722Z" transform="translate(-17975.553 -19432.324)"/>
        <path id="Path_282973" data-name="Path 282973" class="cls-11" d="M128.1,94.422l-3.529-2.035a2.961,2.961,0,0,1-1.752-2.439V73.4a2.961,2.961,0,0,0,1.752,2.439L143.6,86.822a9.344,9.344,0,0,0,8.457,0l19.024-10.983a2.982,2.982,0,0,0,1.745-2.382V89.948a2.966,2.966,0,0,1-1.745,2.439L152.052,103.37a9.344,9.344,0,0,1-8.457,0Z" transform="translate(-18001.111 -19447.09)"/>
        <path id="Path_282974" data-name="Path 282974" class="cls-14" d="M163.177,69.182c2.2,1.273,2.2,3.333,0,4.606a8.81,8.81,0,0,1-7.978,0c-2.206-1.273-2.206-3.333,0-4.606A8.849,8.849,0,0,1,163.177,69.182Z" transform="translate(-18012.475 -19445.178)"/>
        <path id="Path_282975" data-name="Path 282975" class="cls-11" d="M43.237,45.428,39.7,43.386a2.961,2.961,0,0,1-1.752-2.439V24.4A2.961,2.961,0,0,0,39.7,26.839L58.726,37.822a9.344,9.344,0,0,0,8.457,0L86.206,26.839a2.982,2.982,0,0,0,1.745-2.382V40.948a2.966,2.966,0,0,1-1.745,2.439L67.182,54.37a9.344,9.344,0,0,1-8.457,0L43.237,45.428Z" transform="translate(-17969.721 -19428.967)"/>
        <path id="Path_282976" data-name="Path 282976" class="cls-6" d="M87.952,15.928v.057a2.982,2.982,0,0,1-1.745,2.382L67.182,29.35a9.344,9.344,0,0,1-8.457,0L39.7,18.367a2.961,2.961,0,0,1-1.752-2.439A2.953,2.953,0,0,1,39.7,13.49L58.726,2.506a9.344,9.344,0,0,1,8.457,0L86.206,13.49a2.958,2.958,0,0,1,1.745,2.439ZM66.943,18.235c2.2-1.273,2.2-3.333,0-4.606a8.849,8.849,0,0,0-7.978,0c-2.206,1.273-2.206,3.333,0,4.606a8.81,8.81,0,0,0,7.978,0Z" transform="translate(-17969.721 -19420.494)"/>
        <path id="Path_282977" data-name="Path 282977" class="cls-6" d="M173.272,64.728v.057a2.982,2.982,0,0,1-1.745,2.382L152.5,78.15a9.344,9.344,0,0,1-8.457,0L125.022,67.167a2.573,2.573,0,0,1,0-4.877l19.024-10.983a9.344,9.344,0,0,1,8.457,0L171.526,62.29a2.958,2.958,0,0,1,1.745,2.439Zm-21.009,2.3c2.2-1.273,2.2-3.333,0-4.606a8.849,8.849,0,0,0-7.978,0c-2.206,1.273-2.206,3.333,0,4.606A8.81,8.81,0,0,0,152.263,67.028Z" transform="translate(-18001.277 -19438.543)"/>
        <path id="Path_282978" data-name="Path 282978" class="cls-14" d="M78.307,20.182c2.2,1.273,2.2,3.333,0,4.606a8.81,8.81,0,0,1-7.978,0c-2.206-1.273-2.206-3.333,0-4.606A8.849,8.849,0,0,1,78.307,20.182Z" transform="translate(-17981.084 -19427.055)"/>
        <path id="Path_282982" data-name="Path 282982" class="cls-8" d="M87.952,15.985a2.982,2.982,0,0,1-1.745,2.382L67.182,29.35a9.344,9.344,0,0,1-8.457,0L39.7,18.367a2.961,2.961,0,0,1-1.752-2.439A2.953,2.953,0,0,1,39.7,13.49L58.726,2.506a9.344,9.344,0,0,1,8.457,0L86.206,13.49a2.958,2.958,0,0,1,1.745,2.439v.057Z" transform="translate(-17969.721 -19420.494)"/>
        <path id="Path_282983" data-name="Path 282983" class="cls-8" d="M87.952,24.4V40.948a2.966,2.966,0,0,1-1.745,2.439L67.182,54.37a9.344,9.344,0,0,1-8.457,0L39.7,43.386a2.961,2.961,0,0,1-1.752-2.439V24.4" transform="translate(-17969.721 -19428.967)"/>
        <path id="Path_282984" data-name="Path 282984" class="cls-8" d="M78.307,24.8a8.81,8.81,0,0,1-7.978,0c-2.206-1.273-2.206-3.333,0-4.606a8.849,8.849,0,0,1,7.978,0C80.506,21.465,80.506,23.526,78.307,24.8Z" transform="translate(-17981.084 -19427.059)"/>
        <path id="Path_282985" data-name="Path 282985" class="cls-8" d="M172.822,64.985a2.982,2.982,0,0,1-1.745,2.382L152.052,78.35a9.344,9.344,0,0,1-8.457,0L124.572,67.367a2.573,2.573,0,0,1,0-4.877L143.6,51.506a9.344,9.344,0,0,1,8.457,0L171.076,62.49a2.958,2.958,0,0,1,1.745,2.439v.057Z" transform="translate(-18001.111 -19438.617)"/>
        <path id="Path_282986" data-name="Path 282986" class="cls-8" d="M172.822,73.4V89.948a2.966,2.966,0,0,1-1.745,2.439L152.052,103.37a9.344,9.344,0,0,1-8.457,0L124.572,92.386a2.961,2.961,0,0,1-1.752-2.439V73.4" transform="translate(-18001.111 -19447.09)"/>
        <path id="Path_282987" data-name="Path 282987" class="cls-8" d="M163.177,73.8a8.81,8.81,0,0,1-7.978,0c-2.206-1.273-2.206-3.333,0-4.606a8.849,8.849,0,0,1,7.978,0C165.376,70.465,165.376,72.526,163.177,73.8Z" transform="translate(-18012.475 -19445.182)"/>
        <path id="Path_282988" data-name="Path 282988" class="cls-15" d="M57.77,103.521l4.1-2.256a14.558,14.558,0,0,1,12.671,0l12.137,6.692a14.615,14.615,0,0,0,12.678,0l14.9-8.217" transform="translate(-17979.602 -19456.83)"/>
        <path id="Path_282989" data-name="Path 282989" class="cls-15" d="M42.131,81.885l3.913-2.256c3.34-1.928,3.34-5.054,0-6.988L34.45,65.949c-3.34-1.928-3.34-5.054,0-6.982L48.678,50.75" transform="translate(-17967.5 -19438.711)"/>
      </g>
    </g>
    <g id="Group_162580" data-name="Group 162580" class="cls-16" transform="translate(1553.176 1085.924)">
      <g id="Group_162579" data-name="Group 162579">
        <g id="Group_162578" data-name="Group 162578">
          <path id="Path_83697" data-name="Path 83697" d="M9.2,5.15a6.547,6.547,0,0,1,1.014,2.086,10.382,10.382,0,0,1,.381,2.218,14.471,14.471,0,0,1,0,1.944c-.037.557-.1,1-.139,1.262a10.98,10.98,0,0,0-.835-.749A10.868,10.868,0,0,0,8.149,10.9a7.375,7.375,0,0,0-1.9-.774,4.679,4.679,0,0,0-2.129-.044l-.106.025-.105.028-.1.03-.1.033A7.25,7.25,0,0,1,2.682,7.742a11.33,11.33,0,0,1-.261-2.456A14.282,14.282,0,0,1,2.543,3.4c.062-.471.125-.754.125-.754s.246-.024.65-.02a10.1,10.1,0,0,1,1.6.142,8.211,8.211,0,0,1,2.021.607A5.9,5.9,0,0,1,8.859,4.746l.087.1.085.1.083.1Z" transform="translate(1.986 0.51)"/>
          <path id="Path_83698" data-name="Path 83698" d="M11.688,5.353l-5.8,5.831a5.815,5.815,0,0,1-2.056-.474,8.924,8.924,0,0,1-1.7-.956A11.15,11.15,0,0,1,.987,8.813C.714,8.558.562,8.389.562,8.389s.1-.262.306-.672a13.617,13.617,0,0,1,.9-1.553,9.907,9.907,0,0,1,1.468-1.74A5.635,5.635,0,0,1,5.242,3.187l.1-.034.1-.031.105-.028.106-.025A4.587,4.587,0,0,1,7.55,3.06a6.781,6.781,0,0,1,1.725.6,9.982,9.982,0,0,1,1.425.877A11.774,11.774,0,0,1,11.688,5.353Z" transform="translate(0 8.525)"/>
          <path id="Path_83699" data-name="Path 83699" d="M7.285.725s.124.2.305.54A13.423,13.423,0,0,1,8.239,2.7a11.93,11.93,0,0,1,.589,2.052,8.616,8.616,0,0,1,.129,2.395L4.031,12.1c.037-.4.066-.892.065-1.43a12.768,12.768,0,0,0-.117-1.725,9.164,9.164,0,0,0-.43-1.8,6.281,6.281,0,0,0-.877-1.667L2.591,5.37l-.083-.1-.085-.1-.087-.1a6.771,6.771,0,0,1,1.339-2,9.123,9.123,0,0,1,1.64-1.347A10.631,10.631,0,0,1,6.7.963C7.06.8,7.285.725,7.285.725Z" transform="translate(9.422)"/>
        </g>
      </g>
    </g>
  </g>
</svg>
