<svg xmlns="http://www.w3.org/2000/svg" width="531.366" height="313.56" viewBox="0 0 531.366 313.56">
  <defs>
    <style>
      .cls-1, .cls-9 {
        fill: none;
      }

      .cls-1, .cls-2 {
        stroke: #7e7e7e;
      }

      .cls-1, .cls-2, .cls-9 {
        stroke-linecap: round;
        stroke-linejoin: round;
      }

      .cls-2, .cls-6 {
        fill: lime;
      }

      .cls-3 {
        fill: #00e300;
      }

      .cls-4 {
        fill: #373a3a;
      }

      .cls-5 {
        fill: #fff;
      }

      .cls-7 {
        fill: #d0d0d0;
      }

      .cls-8 {
        fill: #7fff80;
      }

      .cls-9 {
        stroke: #000;
      }

      .cls-10 {
        fill: #383a3a;
      }
    </style>
  </defs>
  <g id="Asset_8" data-name="Asset 8" transform="translate(-1 -0.993)">
    <g id="shadow" transform="translate(17.986 32.873)">
      <path id="Path_282638" data-name="Path 282638" d="M253.383,200.42c35.29,19.622,95.81,5.98,95.81-22.912,0-7.053-3.963-14.078-11.879-19.931l.3-.155c-11.969-6.944-6.162-3.135-17.668-9.57-41.143-22.985-109.125-.173-93.72,31.646v.036c2.118,4.372,5.907,8.552,11.27,12.206l-.136.073c7.253,4.235,4.726,2.327,16.032,8.607Z" transform="translate(-38.268 -45.362)"/>
      <path id="Path_282639" data-name="Path 282639" d="M81.423,219.073l32.9,9.016c7.453,4.308,20.485,3.772,29.092-1.209l48.714-28.12c4.726-2.727,7.134-6.2,7.134-9.516,0-2.727-1.663-5.344-5.044-7.289l-39.271-24.884c-6.089-3.5-15.887-3.79-23.957-1.082l-26.411-15.25c-7.453-4.3-20.485-3.754-29.092,1.209L26.756,170.086c-4.708,2.708-7.116,6.2-7.116,9.5,0,2.745,1.663,5.362,5.044,7.307l52.9,30.537a18.756,18.756,0,0,0,3.835,1.645Z" transform="translate(-19.64 -45.301)"/>
      <path id="Path_282640" data-name="Path 282640" d="M330.726,332.49l48.714-28.12c4.726-2.727,7.134-6.2,7.134-9.516,0-2.727-1.663-5.344-5.044-7.289l-39.271-24.884c-6.089-3.5-15.887-3.79-23.957-1.082l-26.411-15.25c-7.453-4.3-20.485-3.754-29.092,1.209L214.066,275.7c-4.708,2.708-7.116,6.2-7.116,9.5,0,2.745,1.663,5.362,5.044,7.307l52.9,30.537a18.757,18.757,0,0,0,3.835,1.645l32.9,9.016c7.453,4.308,20.485,3.772,29.092-1.209Z" transform="translate(-36.714 -54.928)"/>
      <path id="Path_282641" data-name="Path 282641" d="M499.322,162.91l-26.411-15.25c-7.453-4.3-20.485-3.754-29.092,1.209l-48.732,28.138c-4.708,2.708-7.116,6.2-7.116,9.5,0,2.745,1.663,5.362,5.044,7.307l52.9,30.537a18.757,18.757,0,0,0,3.835,1.645l32.9,9.016c7.453,4.308,20.485,3.772,29.092-1.209l48.714-28.12c4.726-2.727,7.134-6.2,7.134-9.516,0-2.727-1.663-5.344-5.044-7.289l-39.271-24.884c-6.089-3.5-15.887-3.79-23.957-1.082Z" transform="translate(-53.215 -45.932)"/>
      <path id="Path_282642" data-name="Path 282642" d="M201.934,85.07l52.9,30.537a18.756,18.756,0,0,0,3.835,1.645l32.9,9.016c7.453,4.308,20.485,3.772,29.092-1.209L369.38,96.94c4.726-2.727,7.134-6.2,7.134-9.516,0-2.727-1.663-5.344-5.044-7.289L332.2,55.251c-6.089-3.5-15.887-3.79-23.957-1.082l-26.411-15.25c-7.453-4.3-20.485-3.754-29.092,1.209L204.006,68.266c-4.708,2.708-7.116,6.2-7.116,9.5,0,2.745,1.663,5.362,5.044,7.307Z" transform="translate(-35.797 -36.02)"/>
    </g>
    <g id="lineart" transform="translate(1.5 1.496)">
      <path id="Path_282643" data-name="Path 282643" class="cls-1" d="M419.246,161.071,253.363,256.846,93.47,164.534,259.362,68.76Z" transform="translate(-9.884 -7.627)"/>
      <circle id="Ellipse_3027" data-name="Ellipse 3027" class="cls-2" cx="8.48" cy="8.48" r="8.48" transform="translate(152.722 101.313)"/>
      <circle id="Ellipse_3028" data-name="Ellipse 3028" class="cls-2" cx="8.48" cy="8.48" r="8.48" transform="translate(319.277 98.323)"/>
      <circle id="Ellipse_3029" data-name="Ellipse 3029" class="cls-2" cx="8.48" cy="8.48" r="8.48" transform="translate(319.277 193.07)"/>
      <circle id="Ellipse_3030" data-name="Ellipse 3030" class="cls-2" cx="8.48" cy="8.48" r="8.48" transform="translate(152.722 193.206)"/>
      <g id="hard_drive" transform="translate(161.202)">
        <path id="Path_282644" data-name="Path 282644" class="cls-3" d="M100.837,220.4c-5.971,3.454-16.414,3.017-23.312-.972L7.208,178.834c-3.772-2.181-5.708-4.971-5.708-7.607V149.56c0,2.645,1.936,5.426,5.708,7.607l70.317,40.589c6.9,3.981,17.341,4.417,23.312.963l59.648-34.436c2.708-1.563,4.026-3.654,4.026-5.835h.009v21.667c0,2.181-1.327,4.281-4.035,5.835L100.837,220.4Z" transform="translate(-1.5 -106.923)"/>
        <path id="Path_282645" data-name="Path 282645" class="cls-4" d="M164.388,156.381c1.345.782,1.345,2.036,0,2.817a5.391,5.391,0,0,1-4.89,0c-1.345-.782-1.345-2.036,0-2.817A5.391,5.391,0,0,1,164.388,156.381Z" transform="translate(-15.81 -107.491)"/>
        <path id="Path_282646" data-name="Path 282646" class="cls-4" d="M106.2,181.79l12.951,4.326a20.855,20.855,0,0,1-4.317,3.245c-10.606,6.126-27.856,6.126-38.453,0l10.588-6.107c4.753,2.745,12.515,2.754,17.277,0a9.223,9.223,0,0,0,1.945-1.463Z" transform="translate(-8.326 -109.861)"/>
        <path id="Path_282647" data-name="Path 282647" class="cls-5" d="M97.481,179.147c-4.208.573-8.47-.927-9.452-3.363a2.955,2.955,0,0,1-.209-1.136l.645-20.3c.027-1.091,1.6-1.954,3.481-1.945,1.6.018,2.917.673,3.263,1.527l8.107,19.767c1,2.445-1.618,4.88-5.835,5.453Z" transform="translate(-9.368 -107.182)"/>
        <path id="Path_282648" data-name="Path 282648" class="cls-4" d="M84.6,113.139a5.391,5.391,0,0,1-4.89,0c-1.345-.773-1.345-2.036,0-2.817a5.448,5.448,0,0,1,4.89,0C85.944,111.1,85.944,112.367,84.6,113.139Z" transform="translate(-8.537 -103.293)"/>
        <path id="Path_282649" data-name="Path 282649" class="cls-5" d="M84.6,150.635a8.163,8.163,0,0,1-7.371,0c-2.027-1.172-2.027-3.081,0-4.253a8.163,8.163,0,0,1,7.371,0C86.625,147.554,86.625,149.463,84.6,150.635Z" transform="translate(-8.264 -106.553)"/>
        <path id="Path_282650" data-name="Path 282650" class="cls-6" d="M83.518,145.76a8.163,8.163,0,0,0-7.371,0c-2.027,1.172-2.027,3.081,0,4.253a8.163,8.163,0,0,0,7.371,0C85.545,148.841,85.545,146.932,83.518,145.76Zm2.663,10.588c-5.835,1.463-12.869.809-17.641-1.945-6.244-3.59-6.244-9.434,0-13.033,6.226-3.59,16.341-3.59,22.567,0,5.471,3.163,6.144,8.025,2.036,11.606l-.127-.3c-.354-.854-1.672-1.5-3.263-1.527-1.881-.009-3.454.854-3.481,1.945l-.1,3.254Z" transform="translate(-7.184 -105.931)"/>
        <path id="Path_282651" data-name="Path 282651" class="cls-7" d="M65.957,139.878c-6.244,3.608-6.244,9.443,0,13.033,4.771,2.763,11.8,3.408,17.641,1.945l-.491,15.4c-12.542,1.018-25.729-1.254-35.372-6.825-16.3-9.416-16.3-24.675,0-34.082s42.725-9.4,59.02,0c16.3,9.416,16.3,24.675,0,34.082a47.061,47.061,0,0,1-9.588,4.153l-6.6-16.1c4.108-3.581,3.426-8.443-2.036-11.606-6.226-3.59-16.341-3.59-22.567,0Z" transform="translate(-4.6 -104.438)"/>
        <path id="Path_282652" data-name="Path 282652" class="cls-4" d="M18.268,148.621c1.345.782,1.345,2.036,0,2.817a5.391,5.391,0,0,1-4.89,0c-1.345-.782-1.345-2.036,0-2.817A5.391,5.391,0,0,1,18.268,148.621Z" transform="translate(-2.491 -106.784)"/>
        <path id="Path_282653" data-name="Path 282653" class="cls-8" d="M150.078,154.364c1.345-.782,1.345-2.036,0-2.817a5.391,5.391,0,0,0-4.89,0c-1.345.782-1.345,2.036,0,2.817A5.391,5.391,0,0,0,150.078,154.364Zm-49.241,40.08c-5.971,3.454-16.414,3.017-23.312-.963L7.208,152.892C3.436,150.71,1.5,147.929,1.5,145.285h0c0-2.2,1.327-4.29,4.035-5.862l59.638-34.436c5.971-3.454,16.414-3.017,23.312.972l70.317,40.6c3.781,2.181,5.708,4.971,5.708,7.616,0,2.181-1.318,4.272-4.026,5.835l-59.648,34.436ZM77.561,109.676a5.448,5.448,0,0,0-4.89,0c-1.345.782-1.345,2.045,0,2.817a5.391,5.391,0,0,0,4.89,0C78.906,111.721,78.906,110.458,77.561,109.676Zm26.093,17.886c-16.3-9.4-42.725-9.4-59.02,0-16.3,9.416-16.3,24.675,0,34.082,9.634,5.571,22.83,7.843,35.372,6.825l-.055,1.645a2.793,2.793,0,0,0,.209,1.136c.982,2.445,5.244,3.944,9.452,3.363,4.226-.573,6.835-3.017,5.835-5.453L94.066,165.8a47.5,47.5,0,0,0,9.588-4.153c16.3-9.416,16.3-24.675,0-34.082Zm8.67,51.341-12.951-4.326a9.222,9.222,0,0,1-1.945,1.463c-4.762,2.754-12.524,2.745-17.277,0l-10.588,6.107c10.6,6.126,27.847,6.126,38.453,0a21.1,21.1,0,0,0,4.317-3.245ZM17.278,147.311c1.345-.782,1.345-2.036,0-2.817a5.391,5.391,0,0,0-4.89,0c-1.345.782-1.345,2.036,0,2.817A5.391,5.391,0,0,0,17.278,147.311Z" transform="translate(-1.5 -102.647)"/>
        <path id="Path_282654" data-name="Path 282654" class="cls-9" d="M1.5,145.265c0-2.19,1.327-4.281,4.035-5.853l59.638-34.436c5.971-3.454,16.414-3.017,23.312.972l70.317,40.6c3.781,2.181,5.708,4.971,5.708,7.616,0,2.181-1.318,4.272-4.026,5.835l-59.648,34.436c-5.971,3.454-16.414,3.017-23.312-.963L7.208,152.891c-3.772-2.181-5.708-4.962-5.708-7.607h0Z" transform="translate(-1.5 -102.646)"/>
        <path id="Path_282655" data-name="Path 282655" class="cls-9" d="M97.166,167.578a47.5,47.5,0,0,0,9.588-4.153c16.3-9.416,16.3-24.675,0-34.082s-42.725-9.4-59.02,0c-16.3,9.416-16.3,24.675,0,34.082,9.634,5.571,22.83,7.843,35.372,6.825" transform="translate(-4.6 -104.437)"/>
        <path id="Path_282656" data-name="Path 282656" class="cls-9" d="M84.6,146.382a8.163,8.163,0,0,0-7.371,0c-2.027,1.172-2.027,3.081,0,4.253a8.163,8.163,0,0,0,7.371,0C86.625,149.463,86.625,147.554,84.6,146.382Z" transform="translate(-8.264 -106.553)"/>
        <path id="Path_282657" data-name="Path 282657" class="cls-9" d="M93.153,152.966c4.108-3.581,3.426-8.443-2.036-11.606-6.226-3.59-16.341-3.59-22.567,0-6.244,3.608-6.244,9.443,0,13.033,4.771,2.763,11.8,3.408,17.641,1.945" transform="translate(-7.185 -105.93)"/>
        <path id="Path_282658" data-name="Path 282658" class="cls-9" d="M114.833,189.361c-10.606,6.126-27.856,6.126-38.453,0l10.588-6.107c4.753,2.745,12.515,2.754,17.277,0a9.223,9.223,0,0,0,1.945-1.463l12.951,4.326a20.855,20.855,0,0,1-4.317,3.245Z" transform="translate(-8.326 -109.861)"/>
        <path id="Path_282659" data-name="Path 282659" class="cls-9" d="M101.934,170.322l1.381,3.363c1,2.445-1.618,4.88-5.835,5.453s-8.47-.927-9.452-3.363a2.955,2.955,0,0,1-.209-1.136l.645-20.3c.027-1.091,1.6-1.954,3.481-1.945,1.6.018,2.917.673,3.263,1.527l6.725,16.4Z" transform="translate(-9.368 -107.181)"/>
        <path id="Path_282660" data-name="Path 282660" class="cls-9" d="M18.268,148.621a5.391,5.391,0,0,0-4.89,0c-1.345.782-1.345,2.036,0,2.817a5.391,5.391,0,0,0,4.89,0C19.613,150.657,19.613,149.4,18.268,148.621Z" transform="translate(-2.491 -106.784)"/>
        <path id="Path_282661" data-name="Path 282661" class="cls-9" d="M84.6,110.322a5.448,5.448,0,0,0-4.89,0c-1.345.782-1.345,2.045,0,2.817a5.391,5.391,0,0,0,4.89,0C85.944,112.367,85.944,111.1,84.6,110.322Z" transform="translate(-8.537 -103.293)"/>
        <path id="Path_282662" data-name="Path 282662" class="cls-9" d="M164.388,156.381a5.391,5.391,0,0,0-4.89,0c-1.345.782-1.345,2.036,0,2.817a5.391,5.391,0,0,0,4.89,0C165.733,158.417,165.733,157.163,164.388,156.381Z" transform="translate(-15.81 -107.491)"/>
        <path id="Path_282663" data-name="Path 282663" class="cls-9" d="M164.52,158.439v21.676c0,2.181-1.327,4.281-4.035,5.835l-59.648,34.445c-5.971,3.454-16.414,3.017-23.312-.972L7.208,178.833c-3.772-2.181-5.708-4.971-5.708-7.607V149.55" transform="translate(-1.5 -106.922)"/>
      </g>
      <path id="Path_282724" data-name="Path 282724" class="cls-3" d="M318.825,143.95v21.83c0,7.5-4.962,15-14.869,20.722-19.831,11.442-51.977,11.442-71.808,0-9.916-5.726-14.869-13.224-14.869-20.722V143.95c0,7.5,4.953,15.005,14.869,20.731,19.831,11.442,51.977,11.442,71.808,0C313.863,158.955,318.825,151.448,318.825,143.95Z" transform="translate(-21.169 -14.481)"/>
      <path id="Path_282725" data-name="Path 282725" class="cls-8" d="M318.825,120.11v21.667c0,7.5-4.962,15.005-14.869,20.731-19.831,11.442-51.977,11.442-71.808,0-9.916-5.726-14.869-13.233-14.869-20.731V120.119c0,7.507,4.962,15.005,14.869,20.731,19.831,11.442,51.977,11.442,71.808,0C313.863,135.124,318.825,127.617,318.825,120.11Z" transform="translate(-21.169 -12.308)"/>
      <path id="Path_282726" data-name="Path 282726" class="cls-7" d="M318.825,117.17c0,7.507-4.962,15.014-14.869,20.74-19.831,11.442-51.977,11.442-71.808,0-9.906-5.726-14.869-13.224-14.869-20.731s4.962-15.005,14.869-20.731C251.98,85,284.126,85,303.957,96.449,313.863,102.174,318.825,109.672,318.825,117.17Zm-36.145,7.453c8.08-4.662,8.08-12.224,0-16.886s-21.167-4.662-29.247,0-8.08,12.224,0,16.886S274.61,129.285,282.681,124.623Z" transform="translate(-21.169 -9.368)"/>
      <path id="Path_282727" data-name="Path 282727" class="cls-10" d="M285.7,109.379c8.08,4.662,8.08,12.224,0,16.886s-21.167,4.662-29.247,0-8.08-12.224,0-16.886,21.176-4.662,29.247,0Z" transform="translate(-24.188 -11.011)"/>
      <path id="Path_282728" data-name="Path 282728" class="cls-9" d="M318.825,117.17c0-7.5-4.962-15-14.869-20.722C284.126,85,251.98,85,232.149,96.449c-9.906,5.726-14.869,13.233-14.869,20.731" transform="translate(-21.169 -9.368)"/>
      <path id="Path_282729" data-name="Path 282729" class="cls-9" d="M217.28,120.109V163.6c0,7.5,4.953,15,14.869,20.722,19.831,11.442,51.977,11.442,71.808,0,9.906-5.726,14.869-13.224,14.869-20.722V120.1" transform="translate(-21.169 -12.307)"/>
      <path id="Path_282730" data-name="Path 282730" class="cls-9" d="M318.825,120.11c0,7.507-4.962,15.014-14.869,20.74-19.831,11.442-51.977,11.442-71.808,0-9.906-5.726-14.869-13.224-14.869-20.731" transform="translate(-21.169 -12.308)"/>
      <path id="Path_282731" data-name="Path 282731" class="cls-9" d="M217.28,143.95c0,7.5,4.953,15.005,14.869,20.731,19.831,11.442,51.977,11.442,71.808,0,9.906-5.726,14.869-13.233,14.869-20.731" transform="translate(-21.169 -14.481)"/>
      <path id="Path_282732" data-name="Path 282732" class="cls-9" d="M285.7,126.266c-8.071,4.662-21.167,4.662-29.247,0s-8.08-12.224,0-16.886,21.176-4.662,29.247,0S293.779,121.6,285.7,126.266Z" transform="translate(-24.188 -11.011)"/>
      <g id="hard_drive-2" data-name="hard_drive" transform="translate(166.919 186.631)">
        <path id="Path_282644-2" data-name="Path 282644" class="cls-3" d="M100.837,220.4c-5.971,3.454-16.414,3.017-23.312-.972L7.208,178.834c-3.772-2.181-5.708-4.971-5.708-7.607V149.56c0,2.645,1.936,5.426,5.708,7.607l70.317,40.589c6.9,3.981,17.341,4.417,23.312.963l59.648-34.436c2.708-1.563,4.026-3.654,4.026-5.835h.009v21.667c0,2.181-1.327,4.281-4.035,5.835L100.837,220.4Z" transform="translate(-1.5 -106.923)"/>
        <path id="Path_282645-2" data-name="Path 282645" class="cls-4" d="M164.388,156.381c1.345.782,1.345,2.036,0,2.817a5.391,5.391,0,0,1-4.89,0c-1.345-.782-1.345-2.036,0-2.817A5.391,5.391,0,0,1,164.388,156.381Z" transform="translate(-15.81 -107.491)"/>
        <path id="Path_282646-2" data-name="Path 282646" class="cls-4" d="M106.2,181.79l12.951,4.326a20.855,20.855,0,0,1-4.317,3.245c-10.606,6.126-27.856,6.126-38.453,0l10.588-6.107c4.753,2.745,12.515,2.754,17.277,0a9.223,9.223,0,0,0,1.945-1.463Z" transform="translate(-8.326 -109.861)"/>
        <path id="Path_282647-2" data-name="Path 282647" class="cls-5" d="M97.481,179.147c-4.208.573-8.47-.927-9.452-3.363a2.955,2.955,0,0,1-.209-1.136l.645-20.3c.027-1.091,1.6-1.954,3.481-1.945,1.6.018,2.917.673,3.263,1.527l8.107,19.767c1,2.445-1.618,4.88-5.835,5.453Z" transform="translate(-9.368 -107.182)"/>
        <path id="Path_282648-2" data-name="Path 282648" class="cls-4" d="M84.6,113.139a5.391,5.391,0,0,1-4.89,0c-1.345-.773-1.345-2.036,0-2.817a5.448,5.448,0,0,1,4.89,0C85.944,111.1,85.944,112.367,84.6,113.139Z" transform="translate(-8.537 -103.293)"/>
        <path id="Path_282649-2" data-name="Path 282649" class="cls-5" d="M84.6,150.635a8.163,8.163,0,0,1-7.371,0c-2.027-1.172-2.027-3.081,0-4.253a8.163,8.163,0,0,1,7.371,0C86.625,147.554,86.625,149.463,84.6,150.635Z" transform="translate(-8.264 -106.553)"/>
        <path id="Path_282650-2" data-name="Path 282650" class="cls-6" d="M83.518,145.76a8.163,8.163,0,0,0-7.371,0c-2.027,1.172-2.027,3.081,0,4.253a8.163,8.163,0,0,0,7.371,0C85.545,148.841,85.545,146.932,83.518,145.76Zm2.663,10.588c-5.835,1.463-12.869.809-17.641-1.945-6.244-3.59-6.244-9.434,0-13.033,6.226-3.59,16.341-3.59,22.567,0,5.471,3.163,6.144,8.025,2.036,11.606l-.127-.3c-.354-.854-1.672-1.5-3.263-1.527-1.881-.009-3.454.854-3.481,1.945l-.1,3.254Z" transform="translate(-7.184 -105.931)"/>
        <path id="Path_282651-2" data-name="Path 282651" class="cls-7" d="M65.957,139.878c-6.244,3.608-6.244,9.443,0,13.033,4.771,2.763,11.8,3.408,17.641,1.945l-.491,15.4c-12.542,1.018-25.729-1.254-35.372-6.825-16.3-9.416-16.3-24.675,0-34.082s42.725-9.4,59.02,0c16.3,9.416,16.3,24.675,0,34.082a47.061,47.061,0,0,1-9.588,4.153l-6.6-16.1c4.108-3.581,3.426-8.443-2.036-11.606-6.226-3.59-16.341-3.59-22.567,0Z" transform="translate(-4.6 -104.438)"/>
        <path id="Path_282652-2" data-name="Path 282652" class="cls-4" d="M18.268,148.621c1.345.782,1.345,2.036,0,2.817a5.391,5.391,0,0,1-4.89,0c-1.345-.782-1.345-2.036,0-2.817A5.391,5.391,0,0,1,18.268,148.621Z" transform="translate(-2.491 -106.784)"/>
        <path id="Path_282653-2" data-name="Path 282653" class="cls-8" d="M150.078,154.364c1.345-.782,1.345-2.036,0-2.817a5.391,5.391,0,0,0-4.89,0c-1.345.782-1.345,2.036,0,2.817A5.391,5.391,0,0,0,150.078,154.364Zm-49.241,40.08c-5.971,3.454-16.414,3.017-23.312-.963L7.208,152.892C3.436,150.71,1.5,147.929,1.5,145.285h0c0-2.2,1.327-4.29,4.035-5.862l59.638-34.436c5.971-3.454,16.414-3.017,23.312.972l70.317,40.6c3.781,2.181,5.708,4.971,5.708,7.616,0,2.181-1.318,4.272-4.026,5.835l-59.648,34.436ZM77.561,109.676a5.448,5.448,0,0,0-4.89,0c-1.345.782-1.345,2.045,0,2.817a5.391,5.391,0,0,0,4.89,0C78.906,111.721,78.906,110.458,77.561,109.676Zm26.093,17.886c-16.3-9.4-42.725-9.4-59.02,0-16.3,9.416-16.3,24.675,0,34.082,9.634,5.571,22.83,7.843,35.372,6.825l-.055,1.645a2.793,2.793,0,0,0,.209,1.136c.982,2.445,5.244,3.944,9.452,3.363,4.226-.573,6.835-3.017,5.835-5.453L94.066,165.8a47.5,47.5,0,0,0,9.588-4.153c16.3-9.416,16.3-24.675,0-34.082Zm8.67,51.341-12.951-4.326a9.222,9.222,0,0,1-1.945,1.463c-4.762,2.754-12.524,2.745-17.277,0l-10.588,6.107c10.6,6.126,27.847,6.126,38.453,0a21.1,21.1,0,0,0,4.317-3.245ZM17.278,147.311c1.345-.782,1.345-2.036,0-2.817a5.391,5.391,0,0,0-4.89,0c-1.345.782-1.345,2.036,0,2.817A5.391,5.391,0,0,0,17.278,147.311Z" transform="translate(-1.5 -102.647)"/>
        <path id="Path_282654-2" data-name="Path 282654" class="cls-9" d="M1.5,145.265c0-2.19,1.327-4.281,4.035-5.853l59.638-34.436c5.971-3.454,16.414-3.017,23.312.972l70.317,40.6c3.781,2.181,5.708,4.971,5.708,7.616,0,2.181-1.318,4.272-4.026,5.835l-59.648,34.436c-5.971,3.454-16.414,3.017-23.312-.963L7.208,152.891c-3.772-2.181-5.708-4.962-5.708-7.607h0Z" transform="translate(-1.5 -102.646)"/>
        <path id="Path_282655-2" data-name="Path 282655" class="cls-9" d="M97.166,167.578a47.5,47.5,0,0,0,9.588-4.153c16.3-9.416,16.3-24.675,0-34.082s-42.725-9.4-59.02,0c-16.3,9.416-16.3,24.675,0,34.082,9.634,5.571,22.83,7.843,35.372,6.825" transform="translate(-4.6 -104.437)"/>
        <path id="Path_282656-2" data-name="Path 282656" class="cls-9" d="M84.6,146.382a8.163,8.163,0,0,0-7.371,0c-2.027,1.172-2.027,3.081,0,4.253a8.163,8.163,0,0,0,7.371,0C86.625,149.463,86.625,147.554,84.6,146.382Z" transform="translate(-8.264 -106.553)"/>
        <path id="Path_282657-2" data-name="Path 282657" class="cls-9" d="M93.153,152.966c4.108-3.581,3.426-8.443-2.036-11.606-6.226-3.59-16.341-3.59-22.567,0-6.244,3.608-6.244,9.443,0,13.033,4.771,2.763,11.8,3.408,17.641,1.945" transform="translate(-7.185 -105.93)"/>
        <path id="Path_282658-2" data-name="Path 282658" class="cls-9" d="M114.833,189.361c-10.606,6.126-27.856,6.126-38.453,0l10.588-6.107c4.753,2.745,12.515,2.754,17.277,0a9.223,9.223,0,0,0,1.945-1.463l12.951,4.326a20.855,20.855,0,0,1-4.317,3.245Z" transform="translate(-8.326 -109.861)"/>
        <path id="Path_282659-2" data-name="Path 282659" class="cls-9" d="M101.934,170.322l1.381,3.363c1,2.445-1.618,4.88-5.835,5.453s-8.47-.927-9.452-3.363a2.955,2.955,0,0,1-.209-1.136l.645-20.3c.027-1.091,1.6-1.954,3.481-1.945,1.6.018,2.917.673,3.263,1.527l6.725,16.4Z" transform="translate(-9.368 -107.181)"/>
        <path id="Path_282660-2" data-name="Path 282660" class="cls-9" d="M18.268,148.621a5.391,5.391,0,0,0-4.89,0c-1.345.782-1.345,2.036,0,2.817a5.391,5.391,0,0,0,4.89,0C19.613,150.657,19.613,149.4,18.268,148.621Z" transform="translate(-2.491 -106.784)"/>
        <path id="Path_282661-2" data-name="Path 282661" class="cls-9" d="M84.6,110.322a5.448,5.448,0,0,0-4.89,0c-1.345.782-1.345,2.045,0,2.817a5.391,5.391,0,0,0,4.89,0C85.944,112.367,85.944,111.1,84.6,110.322Z" transform="translate(-8.537 -103.293)"/>
        <path id="Path_282662-2" data-name="Path 282662" class="cls-9" d="M164.388,156.381a5.391,5.391,0,0,0-4.89,0c-1.345.782-1.345,2.036,0,2.817a5.391,5.391,0,0,0,4.89,0C165.733,158.417,165.733,157.163,164.388,156.381Z" transform="translate(-15.81 -107.491)"/>
        <path id="Path_282663-2" data-name="Path 282663" class="cls-9" d="M164.52,158.439v21.676c0,2.181-1.327,4.281-4.035,5.835l-59.648,34.445c-5.971,3.454-16.414,3.017-23.312-.972L7.208,178.833c-3.772-2.181-5.708-4.971-5.708-7.607V149.55" transform="translate(-1.5 -106.922)"/>
      </g>
      <g id="hard_drive-3" data-name="hard_drive" transform="translate(327.854 94.873)">
        <path id="Path_282644-3" data-name="Path 282644" class="cls-3" d="M100.837,220.4c-5.971,3.454-16.414,3.017-23.312-.972L7.208,178.834c-3.772-2.181-5.708-4.971-5.708-7.607V149.56c0,2.645,1.936,5.426,5.708,7.607l70.317,40.589c6.9,3.981,17.341,4.417,23.312.963l59.648-34.436c2.708-1.563,4.026-3.654,4.026-5.835h.009v21.667c0,2.181-1.327,4.281-4.035,5.835L100.837,220.4Z" transform="translate(-1.5 -106.923)"/>
        <path id="Path_282645-3" data-name="Path 282645" class="cls-4" d="M164.388,156.381c1.345.782,1.345,2.036,0,2.817a5.391,5.391,0,0,1-4.89,0c-1.345-.782-1.345-2.036,0-2.817A5.391,5.391,0,0,1,164.388,156.381Z" transform="translate(-15.81 -107.491)"/>
        <path id="Path_282646-3" data-name="Path 282646" class="cls-4" d="M106.2,181.79l12.951,4.326a20.855,20.855,0,0,1-4.317,3.245c-10.606,6.126-27.856,6.126-38.453,0l10.588-6.107c4.753,2.745,12.515,2.754,17.277,0a9.223,9.223,0,0,0,1.945-1.463Z" transform="translate(-8.326 -109.861)"/>
        <path id="Path_282647-3" data-name="Path 282647" class="cls-5" d="M97.481,179.147c-4.208.573-8.47-.927-9.452-3.363a2.955,2.955,0,0,1-.209-1.136l.645-20.3c.027-1.091,1.6-1.954,3.481-1.945,1.6.018,2.917.673,3.263,1.527l8.107,19.767c1,2.445-1.618,4.88-5.835,5.453Z" transform="translate(-9.368 -107.182)"/>
        <path id="Path_282648-3" data-name="Path 282648" class="cls-4" d="M84.6,113.139a5.391,5.391,0,0,1-4.89,0c-1.345-.773-1.345-2.036,0-2.817a5.448,5.448,0,0,1,4.89,0C85.944,111.1,85.944,112.367,84.6,113.139Z" transform="translate(-8.537 -103.293)"/>
        <path id="Path_282649-3" data-name="Path 282649" class="cls-5" d="M84.6,150.635a8.163,8.163,0,0,1-7.371,0c-2.027-1.172-2.027-3.081,0-4.253a8.163,8.163,0,0,1,7.371,0C86.625,147.554,86.625,149.463,84.6,150.635Z" transform="translate(-8.264 -106.553)"/>
        <path id="Path_282650-3" data-name="Path 282650" class="cls-6" d="M83.518,145.76a8.163,8.163,0,0,0-7.371,0c-2.027,1.172-2.027,3.081,0,4.253a8.163,8.163,0,0,0,7.371,0C85.545,148.841,85.545,146.932,83.518,145.76Zm2.663,10.588c-5.835,1.463-12.869.809-17.641-1.945-6.244-3.59-6.244-9.434,0-13.033,6.226-3.59,16.341-3.59,22.567,0,5.471,3.163,6.144,8.025,2.036,11.606l-.127-.3c-.354-.854-1.672-1.5-3.263-1.527-1.881-.009-3.454.854-3.481,1.945l-.1,3.254Z" transform="translate(-7.184 -105.931)"/>
        <path id="Path_282651-3" data-name="Path 282651" class="cls-7" d="M65.957,139.878c-6.244,3.608-6.244,9.443,0,13.033,4.771,2.763,11.8,3.408,17.641,1.945l-.491,15.4c-12.542,1.018-25.729-1.254-35.372-6.825-16.3-9.416-16.3-24.675,0-34.082s42.725-9.4,59.02,0c16.3,9.416,16.3,24.675,0,34.082a47.061,47.061,0,0,1-9.588,4.153l-6.6-16.1c4.108-3.581,3.426-8.443-2.036-11.606-6.226-3.59-16.341-3.59-22.567,0Z" transform="translate(-4.6 -104.438)"/>
        <path id="Path_282652-3" data-name="Path 282652" class="cls-4" d="M18.268,148.621c1.345.782,1.345,2.036,0,2.817a5.391,5.391,0,0,1-4.89,0c-1.345-.782-1.345-2.036,0-2.817A5.391,5.391,0,0,1,18.268,148.621Z" transform="translate(-2.491 -106.784)"/>
        <path id="Path_282653-3" data-name="Path 282653" class="cls-8" d="M150.078,154.364c1.345-.782,1.345-2.036,0-2.817a5.391,5.391,0,0,0-4.89,0c-1.345.782-1.345,2.036,0,2.817A5.391,5.391,0,0,0,150.078,154.364Zm-49.241,40.08c-5.971,3.454-16.414,3.017-23.312-.963L7.208,152.892C3.436,150.71,1.5,147.929,1.5,145.285h0c0-2.2,1.327-4.29,4.035-5.862l59.638-34.436c5.971-3.454,16.414-3.017,23.312.972l70.317,40.6c3.781,2.181,5.708,4.971,5.708,7.616,0,2.181-1.318,4.272-4.026,5.835l-59.648,34.436ZM77.561,109.676a5.448,5.448,0,0,0-4.89,0c-1.345.782-1.345,2.045,0,2.817a5.391,5.391,0,0,0,4.89,0C78.906,111.721,78.906,110.458,77.561,109.676Zm26.093,17.886c-16.3-9.4-42.725-9.4-59.02,0-16.3,9.416-16.3,24.675,0,34.082,9.634,5.571,22.83,7.843,35.372,6.825l-.055,1.645a2.793,2.793,0,0,0,.209,1.136c.982,2.445,5.244,3.944,9.452,3.363,4.226-.573,6.835-3.017,5.835-5.453L94.066,165.8a47.5,47.5,0,0,0,9.588-4.153c16.3-9.416,16.3-24.675,0-34.082Zm8.67,51.341-12.951-4.326a9.222,9.222,0,0,1-1.945,1.463c-4.762,2.754-12.524,2.745-17.277,0l-10.588,6.107c10.6,6.126,27.847,6.126,38.453,0a21.1,21.1,0,0,0,4.317-3.245ZM17.278,147.311c1.345-.782,1.345-2.036,0-2.817a5.391,5.391,0,0,0-4.89,0c-1.345.782-1.345,2.036,0,2.817A5.391,5.391,0,0,0,17.278,147.311Z" transform="translate(-1.5 -102.647)"/>
        <path id="Path_282654-3" data-name="Path 282654" class="cls-9" d="M1.5,145.265c0-2.19,1.327-4.281,4.035-5.853l59.638-34.436c5.971-3.454,16.414-3.017,23.312.972l70.317,40.6c3.781,2.181,5.708,4.971,5.708,7.616,0,2.181-1.318,4.272-4.026,5.835l-59.648,34.436c-5.971,3.454-16.414,3.017-23.312-.963L7.208,152.891c-3.772-2.181-5.708-4.962-5.708-7.607h0Z" transform="translate(-1.5 -102.646)"/>
        <path id="Path_282655-3" data-name="Path 282655" class="cls-9" d="M97.166,167.578a47.5,47.5,0,0,0,9.588-4.153c16.3-9.416,16.3-24.675,0-34.082s-42.725-9.4-59.02,0c-16.3,9.416-16.3,24.675,0,34.082,9.634,5.571,22.83,7.843,35.372,6.825" transform="translate(-4.6 -104.437)"/>
        <path id="Path_282656-3" data-name="Path 282656" class="cls-9" d="M84.6,146.382a8.163,8.163,0,0,0-7.371,0c-2.027,1.172-2.027,3.081,0,4.253a8.163,8.163,0,0,0,7.371,0C86.625,149.463,86.625,147.554,84.6,146.382Z" transform="translate(-8.264 -106.553)"/>
        <path id="Path_282657-3" data-name="Path 282657" class="cls-9" d="M93.153,152.966c4.108-3.581,3.426-8.443-2.036-11.606-6.226-3.59-16.341-3.59-22.567,0-6.244,3.608-6.244,9.443,0,13.033,4.771,2.763,11.8,3.408,17.641,1.945" transform="translate(-7.185 -105.93)"/>
        <path id="Path_282658-3" data-name="Path 282658" class="cls-9" d="M114.833,189.361c-10.606,6.126-27.856,6.126-38.453,0l10.588-6.107c4.753,2.745,12.515,2.754,17.277,0a9.223,9.223,0,0,0,1.945-1.463l12.951,4.326a20.855,20.855,0,0,1-4.317,3.245Z" transform="translate(-8.326 -109.861)"/>
        <path id="Path_282659-3" data-name="Path 282659" class="cls-9" d="M101.934,170.322l1.381,3.363c1,2.445-1.618,4.88-5.835,5.453s-8.47-.927-9.452-3.363a2.955,2.955,0,0,1-.209-1.136l.645-20.3c.027-1.091,1.6-1.954,3.481-1.945,1.6.018,2.917.673,3.263,1.527l6.725,16.4Z" transform="translate(-9.368 -107.181)"/>
        <path id="Path_282660-3" data-name="Path 282660" class="cls-9" d="M18.268,148.621a5.391,5.391,0,0,0-4.89,0c-1.345.782-1.345,2.036,0,2.817a5.391,5.391,0,0,0,4.89,0C19.613,150.657,19.613,149.4,18.268,148.621Z" transform="translate(-2.491 -106.784)"/>
        <path id="Path_282661-3" data-name="Path 282661" class="cls-9" d="M84.6,110.322a5.448,5.448,0,0,0-4.89,0c-1.345.782-1.345,2.045,0,2.817a5.391,5.391,0,0,0,4.89,0C85.944,112.367,85.944,111.1,84.6,110.322Z" transform="translate(-8.537 -103.293)"/>
        <path id="Path_282662-3" data-name="Path 282662" class="cls-9" d="M164.388,156.381a5.391,5.391,0,0,0-4.89,0c-1.345.782-1.345,2.036,0,2.817a5.391,5.391,0,0,0,4.89,0C165.733,158.417,165.733,157.163,164.388,156.381Z" transform="translate(-15.81 -107.491)"/>
        <path id="Path_282663-3" data-name="Path 282663" class="cls-9" d="M164.52,158.439v21.676c0,2.181-1.327,4.281-4.035,5.835l-59.648,34.445c-5.971,3.454-16.414,3.017-23.312-.972L7.208,178.833c-3.772-2.181-5.708-4.971-5.708-7.607V149.55" transform="translate(-1.5 -106.922)"/>
      </g>
      <g id="hard_drive-4" data-name="hard_drive" transform="translate(0 91.93)">
        <path id="Path_282644-4" data-name="Path 282644" class="cls-3" d="M100.837,220.4c-5.971,3.454-16.414,3.017-23.312-.972L7.208,178.834c-3.772-2.181-5.708-4.971-5.708-7.607V149.56c0,2.645,1.936,5.426,5.708,7.607l70.317,40.589c6.9,3.981,17.341,4.417,23.312.963l59.648-34.436c2.708-1.563,4.026-3.654,4.026-5.835h.009v21.667c0,2.181-1.327,4.281-4.035,5.835L100.837,220.4Z" transform="translate(-1.5 -106.923)"/>
        <path id="Path_282645-4" data-name="Path 282645" class="cls-4" d="M164.388,156.381c1.345.782,1.345,2.036,0,2.817a5.391,5.391,0,0,1-4.89,0c-1.345-.782-1.345-2.036,0-2.817A5.391,5.391,0,0,1,164.388,156.381Z" transform="translate(-15.81 -107.491)"/>
        <path id="Path_282646-4" data-name="Path 282646" class="cls-4" d="M106.2,181.79l12.951,4.326a20.855,20.855,0,0,1-4.317,3.245c-10.606,6.126-27.856,6.126-38.453,0l10.588-6.107c4.753,2.745,12.515,2.754,17.277,0a9.223,9.223,0,0,0,1.945-1.463Z" transform="translate(-8.326 -109.861)"/>
        <path id="Path_282647-4" data-name="Path 282647" class="cls-5" d="M97.481,179.147c-4.208.573-8.47-.927-9.452-3.363a2.955,2.955,0,0,1-.209-1.136l.645-20.3c.027-1.091,1.6-1.954,3.481-1.945,1.6.018,2.917.673,3.263,1.527l8.107,19.767c1,2.445-1.618,4.88-5.835,5.453Z" transform="translate(-9.368 -107.182)"/>
        <path id="Path_282648-4" data-name="Path 282648" class="cls-4" d="M84.6,113.139a5.391,5.391,0,0,1-4.89,0c-1.345-.773-1.345-2.036,0-2.817a5.448,5.448,0,0,1,4.89,0C85.944,111.1,85.944,112.367,84.6,113.139Z" transform="translate(-8.537 -103.293)"/>
        <path id="Path_282649-4" data-name="Path 282649" class="cls-5" d="M84.6,150.635a8.163,8.163,0,0,1-7.371,0c-2.027-1.172-2.027-3.081,0-4.253a8.163,8.163,0,0,1,7.371,0C86.625,147.554,86.625,149.463,84.6,150.635Z" transform="translate(-8.264 -106.553)"/>
        <path id="Path_282650-4" data-name="Path 282650" class="cls-6" d="M83.518,145.76a8.163,8.163,0,0,0-7.371,0c-2.027,1.172-2.027,3.081,0,4.253a8.163,8.163,0,0,0,7.371,0C85.545,148.841,85.545,146.932,83.518,145.76Zm2.663,10.588c-5.835,1.463-12.869.809-17.641-1.945-6.244-3.59-6.244-9.434,0-13.033,6.226-3.59,16.341-3.59,22.567,0,5.471,3.163,6.144,8.025,2.036,11.606l-.127-.3c-.354-.854-1.672-1.5-3.263-1.527-1.881-.009-3.454.854-3.481,1.945l-.1,3.254Z" transform="translate(-7.184 -105.931)"/>
        <path id="Path_282651-4" data-name="Path 282651" class="cls-7" d="M65.957,139.878c-6.244,3.608-6.244,9.443,0,13.033,4.771,2.763,11.8,3.408,17.641,1.945l-.491,15.4c-12.542,1.018-25.729-1.254-35.372-6.825-16.3-9.416-16.3-24.675,0-34.082s42.725-9.4,59.02,0c16.3,9.416,16.3,24.675,0,34.082a47.061,47.061,0,0,1-9.588,4.153l-6.6-16.1c4.108-3.581,3.426-8.443-2.036-11.606-6.226-3.59-16.341-3.59-22.567,0Z" transform="translate(-4.6 -104.438)"/>
        <path id="Path_282652-4" data-name="Path 282652" class="cls-4" d="M18.268,148.621c1.345.782,1.345,2.036,0,2.817a5.391,5.391,0,0,1-4.89,0c-1.345-.782-1.345-2.036,0-2.817A5.391,5.391,0,0,1,18.268,148.621Z" transform="translate(-2.491 -106.784)"/>
        <path id="Path_282653-4" data-name="Path 282653" class="cls-8" d="M150.078,154.364c1.345-.782,1.345-2.036,0-2.817a5.391,5.391,0,0,0-4.89,0c-1.345.782-1.345,2.036,0,2.817A5.391,5.391,0,0,0,150.078,154.364Zm-49.241,40.08c-5.971,3.454-16.414,3.017-23.312-.963L7.208,152.892C3.436,150.71,1.5,147.929,1.5,145.285h0c0-2.2,1.327-4.29,4.035-5.862l59.638-34.436c5.971-3.454,16.414-3.017,23.312.972l70.317,40.6c3.781,2.181,5.708,4.971,5.708,7.616,0,2.181-1.318,4.272-4.026,5.835l-59.648,34.436ZM77.561,109.676a5.448,5.448,0,0,0-4.89,0c-1.345.782-1.345,2.045,0,2.817a5.391,5.391,0,0,0,4.89,0C78.906,111.721,78.906,110.458,77.561,109.676Zm26.093,17.886c-16.3-9.4-42.725-9.4-59.02,0-16.3,9.416-16.3,24.675,0,34.082,9.634,5.571,22.83,7.843,35.372,6.825l-.055,1.645a2.793,2.793,0,0,0,.209,1.136c.982,2.445,5.244,3.944,9.452,3.363,4.226-.573,6.835-3.017,5.835-5.453L94.066,165.8a47.5,47.5,0,0,0,9.588-4.153c16.3-9.416,16.3-24.675,0-34.082Zm8.67,51.341-12.951-4.326a9.222,9.222,0,0,1-1.945,1.463c-4.762,2.754-12.524,2.745-17.277,0l-10.588,6.107c10.6,6.126,27.847,6.126,38.453,0a21.1,21.1,0,0,0,4.317-3.245ZM17.278,147.311c1.345-.782,1.345-2.036,0-2.817a5.391,5.391,0,0,0-4.89,0c-1.345.782-1.345,2.036,0,2.817A5.391,5.391,0,0,0,17.278,147.311Z" transform="translate(-1.5 -102.647)"/>
        <path id="Path_282654-4" data-name="Path 282654" class="cls-9" d="M1.5,145.265c0-2.19,1.327-4.281,4.035-5.853l59.638-34.436c5.971-3.454,16.414-3.017,23.312.972l70.317,40.6c3.781,2.181,5.708,4.971,5.708,7.616,0,2.181-1.318,4.272-4.026,5.835l-59.648,34.436c-5.971,3.454-16.414,3.017-23.312-.963L7.208,152.891c-3.772-2.181-5.708-4.962-5.708-7.607h0Z" transform="translate(-1.5 -102.646)"/>
        <path id="Path_282655-4" data-name="Path 282655" class="cls-9" d="M97.166,167.578a47.5,47.5,0,0,0,9.588-4.153c16.3-9.416,16.3-24.675,0-34.082s-42.725-9.4-59.02,0c-16.3,9.416-16.3,24.675,0,34.082,9.634,5.571,22.83,7.843,35.372,6.825" transform="translate(-4.6 -104.437)"/>
        <path id="Path_282656-4" data-name="Path 282656" class="cls-9" d="M84.6,146.382a8.163,8.163,0,0,0-7.371,0c-2.027,1.172-2.027,3.081,0,4.253a8.163,8.163,0,0,0,7.371,0C86.625,149.463,86.625,147.554,84.6,146.382Z" transform="translate(-8.264 -106.553)"/>
        <path id="Path_282657-4" data-name="Path 282657" class="cls-9" d="M93.153,152.966c4.108-3.581,3.426-8.443-2.036-11.606-6.226-3.59-16.341-3.59-22.567,0-6.244,3.608-6.244,9.443,0,13.033,4.771,2.763,11.8,3.408,17.641,1.945" transform="translate(-7.185 -105.93)"/>
        <path id="Path_282658-4" data-name="Path 282658" class="cls-9" d="M114.833,189.361c-10.606,6.126-27.856,6.126-38.453,0l10.588-6.107c4.753,2.745,12.515,2.754,17.277,0a9.223,9.223,0,0,0,1.945-1.463l12.951,4.326a20.855,20.855,0,0,1-4.317,3.245Z" transform="translate(-8.326 -109.861)"/>
        <path id="Path_282659-4" data-name="Path 282659" class="cls-9" d="M101.934,170.322l1.381,3.363c1,2.445-1.618,4.88-5.835,5.453s-8.47-.927-9.452-3.363a2.955,2.955,0,0,1-.209-1.136l.645-20.3c.027-1.091,1.6-1.954,3.481-1.945,1.6.018,2.917.673,3.263,1.527l6.725,16.4Z" transform="translate(-9.368 -107.181)"/>
        <path id="Path_282660-4" data-name="Path 282660" class="cls-9" d="M18.268,148.621a5.391,5.391,0,0,0-4.89,0c-1.345.782-1.345,2.036,0,2.817a5.391,5.391,0,0,0,4.89,0C19.613,150.657,19.613,149.4,18.268,148.621Z" transform="translate(-2.491 -106.784)"/>
        <path id="Path_282661-4" data-name="Path 282661" class="cls-9" d="M84.6,110.322a5.448,5.448,0,0,0-4.89,0c-1.345.782-1.345,2.045,0,2.817a5.391,5.391,0,0,0,4.89,0C85.944,112.367,85.944,111.1,84.6,110.322Z" transform="translate(-8.537 -103.293)"/>
        <path id="Path_282662-4" data-name="Path 282662" class="cls-9" d="M164.388,156.381a5.391,5.391,0,0,0-4.89,0c-1.345.782-1.345,2.036,0,2.817a5.391,5.391,0,0,0,4.89,0C165.733,158.417,165.733,157.163,164.388,156.381Z" transform="translate(-15.81 -107.491)"/>
        <path id="Path_282663-4" data-name="Path 282663" class="cls-9" d="M164.52,158.439v21.676c0,2.181-1.327,4.281-4.035,5.835l-59.648,34.445c-5.971,3.454-16.414,3.017-23.312-.972L7.208,178.833c-3.772-2.181-5.708-4.971-5.708-7.607V149.55" transform="translate(-1.5 -106.922)"/>
      </g>
    </g>
  </g>
</svg>
