<svg xmlns="http://www.w3.org/2000/svg" width="121.614" height="112.695" viewBox="0 0 121.614 112.695">
  <g id="Group_176507" data-name="Group 176507" transform="translate(-1373.68 -9264.912)">
    <path id="Path_282483" data-name="Path 282483" d="M0,1.021,10.206-2.695,22-3.439,33.7-2.695l11.7,3.716V31.289L33.7,35.507,17.39,36.583,0,32.149Z" transform="translate(1394.847 9339.229)" fill="lime"/>
    <path id="Path_282484" data-name="Path 282484" d="M14.034.126V16.289L-1.58,15.743Z" transform="translate(1380.111 9268.954)" fill="lime"/>
    <g id="noun-asset-6158982" transform="translate(1373.68 9264.912)">
      <path id="Path_282481" data-name="Path 282481" d="M108.787,101.471a5.259,5.259,0,0,1-3.559,4.97v.981a1.689,1.689,0,0,1-3.378,0v-.981a5.256,5.256,0,0,1-2.239-1.486,1.689,1.689,0,0,1,2.527-2.243,1.872,1.872,0,1,0,1.4-3.108,5.25,5.25,0,0,1-1.689-10.22V88.4a1.689,1.689,0,0,1,3.378,0v.981a5.251,5.251,0,0,1,2.238,1.486,1.689,1.689,0,1,1-2.527,2.242,1.872,1.872,0,1,0-1.4,3.108A5.254,5.254,0,0,1,108.787,101.471Zm17.827-3.559a23.076,23.076,0,0,1-30.7,21.778,61.738,61.738,0,0,1-12.955,1.3,54.9,54.9,0,0,1-17.026-2.415,55.837,55.837,0,0,1-17.1,2.421c-12.461,0-25.076-3.327-25.209-9.686H6.689A1.689,1.689,0,0,1,5,109.612V29.648a1.689,1.689,0,0,1,.495-1.195L25.147,8.8a1.692,1.692,0,0,1,1.195-.495H83.267a1.689,1.689,0,0,1,1.689,1.689V51.867c11.843.338,23.212,3.674,23.212,9.758V75.3a23.115,23.115,0,0,1,18.446,22.609ZM104.79,74.87V66.777c-4.6,3.058-13.253,4.635-21.834,4.635s-17.233-1.577-21.834-4.635v7.241c0,2.613,8.5,6.409,21.834,6.409,1.984,0,3.947-.091,5.847-.262a22.972,22.972,0,0,1,14.736-5.331Q104.167,74.835,104.79,74.87ZM48.828,80C35.5,80,26.995,83.8,26.995,86.414s8.506,6.409,21.834,6.409,21.834-3.8,21.834-6.409S62.159,80,48.828,80ZM26.995,98.874V98.9c.082,1,1.693,2.676,5.959,4.105a51.9,51.9,0,0,0,15.871,2.208,51.817,51.817,0,0,0,15.918-2.223c4.262-1.438,5.85-3.108,5.913-4.112V91.563C66.054,94.621,57.4,96.2,48.822,96.2S31.59,94.621,26.988,91.563ZM74.04,104.6a60.982,60.982,0,0,0,7.6.607,22.971,22.971,0,0,1-1.182-7.3q0-.888.066-1.757a63.75,63.75,0,0,1-6.486-.541ZM85.322,83.761c-.785.027-1.574.045-2.366.045A65.9,65.9,0,0,1,72.7,83.023a5.165,5.165,0,0,1,1.336,3.386V92.2a60.527,60.527,0,0,0,6.994.593,22.988,22.988,0,0,1,4.293-9.031ZM82.956,55.216c-13.329,0-21.834,3.8-21.834,6.409s8.5,6.409,21.834,6.409,21.834-3.793,21.834-6.409S96.285,55.216,82.956,55.216ZM10.767,27.958H24.653V14.072ZM8.378,107.923H23.616V86.412c0-6.425,12.683-9.787,25.212-9.787a67.225,67.225,0,0,1,8.918.584V61.625c0-6.189,11.77-9.536,23.834-9.772V11.683H28.031V29.648a1.689,1.689,0,0,1-1.689,1.689H8.378Zm40.45,9.693c13.329,0,21.834-3.8,21.834-6.409v-7.271c-4.62,3.073-13.314,4.658-21.834,4.658s-17.208-1.588-21.834-4.663v7.27C26.995,113.813,35.5,117.616,48.828,117.616Zm41.961-.473a23.242,23.242,0,0,1-7.7-8.544h-.135a65.881,65.881,0,0,1-8.918-.588v3.194c0,2.027-1.27,3.758-3.4,5.167a58.61,58.61,0,0,0,12.317,1.242,63.57,63.57,0,0,0,7.84-.478Zm32.447-19.231a19.7,19.7,0,1,0-19.7,19.7,19.7,19.7,0,0,0,19.7-19.7Zm-2.332,0a17.367,17.367,0,1,1-17.366-17.367A17.367,17.367,0,0,1,120.9,97.912Zm-3.378,0A13.988,13.988,0,1,0,103.538,111.9,13.989,13.989,0,0,0,117.526,97.912ZM58.19,22.992H72.082a1.689,1.689,0,1,0,0-3.378H58.19a1.689,1.689,0,1,0,0,3.378ZM41.248,31.844H72.082a1.689,1.689,0,1,0,0-3.378H41.248a1.689,1.689,0,1,0,0,3.378Zm0,22.659H55.14a1.689,1.689,0,0,0,0-3.378H41.248a1.689,1.689,0,0,0,0,3.378Zm0-8.852H72.082a1.689,1.689,0,1,0,0-3.378H41.248a1.689,1.689,0,1,0,0,3.378Zm0,22.745h9.028a1.689,1.689,0,0,0,0-3.378H41.248a1.689,1.689,0,1,0,0,3.378Zm-21.789-12.5a1.686,1.686,0,0,0,1.243.83,1.725,1.725,0,0,0,.22.015,1.69,1.69,0,0,0,1.194-.494l13.32-13.32a1.689,1.689,0,1,0-2.389-2.389L21.284,52.29l-3.671-6.359a1.69,1.69,0,1,0-2.927,1.689Zm15.977,9.775a1.689,1.689,0,1,0-2.389-2.389L21.284,75.043l-3.671-6.36a1.69,1.69,0,1,0-2.927,1.689l4.773,8.266a1.69,1.69,0,0,0,1.243.831,1.72,1.72,0,0,0,.22.014,1.69,1.69,0,0,0,1.194-.494Z" transform="translate(-5 -8.305)"/>
    </g>
  </g>
</svg>
