<svg xmlns="http://www.w3.org/2000/svg" width="249.313" height="288.302" viewBox="0 0 249.313 288.302">
  <g id="Group_176534" data-name="Group 176534" transform="translate(18755.393 9733.243)">
    <g id="Cube" transform="translate(-18672.955 -9637.845)">
      <path id="Path_282486" data-name="Path 282486" d="M-2.266-40.254l40.7-23.8L79.084-40.7,38.431-16.978Z" transform="translate(4.038 65.272)" fill="#fff"/>
      <path id="Path_282487" data-name="Path 282487" d="M-2.266-40.577,39.027-64.567v47.592L-2.266,6.464Z" transform="translate(44.713 89.589)" fill="#d0d0d0"/>
      <path id="Path_282488" data-name="Path 282488" d="M-.455-126.686l40.61,23.423v47.592L-.455-79.211Z" transform="translate(1.73 152.015)" fill="#f3f6f2"/>
      <g id="noun-cube-5064508" transform="translate(0)">
        <path id="Path_282485" data-name="Path 282485" d="M99.8,83.128V34.376L57.579,10,15.36,34.376V83.128L57.579,107.5Zm-1.658-.951L58.408,105.115V59.227L98.141,36.289ZM57.579,11.914,97.312,34.851,57.579,57.8,17.846,34.851Zm-.829,93.2L17.018,82.177V36.289L56.75,59.227Z" transform="translate(-15.36 -10)"/>
      </g>
    </g>
    <g id="Cube-2" data-name="Cube" transform="translate(-18631.736 -9613.995)">
      <path id="Path_282486-2" data-name="Path 282486" d="M-2.266-40.254l40.7-23.8L79.084-40.7,38.431-16.978Z" transform="translate(4.038 65.272)" fill="#fff"/>
      <path id="Path_282487-2" data-name="Path 282487" d="M-2.266-40.577,39.027-64.567v47.592L-2.266,6.464Z" transform="translate(44.713 89.589)" fill="#d0d0d0"/>
      <path id="Path_282488-2" data-name="Path 282488" d="M-.455-126.686l40.61,23.423v47.592L-.455-79.211Z" transform="translate(1.73 152.015)" fill="#f3f6f2"/>
      <g id="noun-cube-5064508-2" data-name="noun-cube-5064508" transform="translate(0)">
        <path id="Path_282485-2" data-name="Path 282485" d="M99.8,83.128V34.376L57.579,10,15.36,34.376V83.128L57.579,107.5Zm-1.658-.951L58.408,105.115V59.227L98.141,36.289ZM57.579,11.914,97.312,34.851,57.579,57.8,17.846,34.851Zm-.829,93.2L17.018,82.177V36.289L56.75,59.227Z" transform="translate(-15.36 -10)"/>
      </g>
    </g>
    <g id="Cube-3" data-name="Cube" transform="translate(-18590.518 -9590.145)">
      <path id="Path_282486-3" data-name="Path 282486" d="M-2.266-40.254l40.7-23.8L79.084-40.7,38.431-16.978Z" transform="translate(4.038 65.272)" fill="#fff"/>
      <path id="Path_282487-3" data-name="Path 282487" d="M-2.266-40.577,39.027-64.567v47.592L-2.266,6.464Z" transform="translate(44.713 89.589)" fill="#d0d0d0"/>
      <path id="Path_282488-3" data-name="Path 282488" d="M-.455-126.686l40.61,23.423v47.592L-.455-79.211Z" transform="translate(1.73 152.015)" fill="#f3f6f2"/>
      <g id="noun-cube-5064508-3" data-name="noun-cube-5064508" transform="translate(0)">
        <path id="Path_282485-3" data-name="Path 282485" d="M99.8,83.128V34.376L57.579,10,15.36,34.376V83.128L57.579,107.5Zm-1.658-.951L58.408,105.115V59.227L98.141,36.289ZM57.579,11.914,97.312,34.851,57.579,57.8,17.846,34.851Zm-.829,93.2L17.018,82.177V36.289L56.75,59.227Z" transform="translate(-15.36 -10)"/>
      </g>
    </g>
    <g id="Cube-4" data-name="Cube" transform="translate(-18714.174 -9613.995)">
      <path id="Path_282486-4" data-name="Path 282486" d="M-2.266-40.254l40.7-23.8L79.084-40.7,38.431-16.978Z" transform="translate(4.038 65.272)" fill="#fff"/>
      <path id="Path_282487-4" data-name="Path 282487" d="M-2.266-40.577,39.027-64.567v47.592L-2.266,6.464Z" transform="translate(44.713 89.589)" fill="#d0d0d0"/>
      <path id="Path_282488-4" data-name="Path 282488" d="M-.455-126.686l40.61,23.423v47.592L-.455-79.211Z" transform="translate(1.73 152.015)" fill="#f3f6f2"/>
      <g id="noun-cube-5064508-4" data-name="noun-cube-5064508" transform="translate(0)">
        <path id="Path_282485-4" data-name="Path 282485" d="M99.8,83.128V34.376L57.579,10,15.36,34.376V83.128L57.579,107.5Zm-1.658-.951L58.408,105.115V59.227L98.141,36.289ZM57.579,11.914,97.312,34.851,57.579,57.8,17.846,34.851Zm-.829,93.2L17.018,82.177V36.289L56.75,59.227Z" transform="translate(-15.36 -10)"/>
      </g>
    </g>
    <g id="Cube-5" data-name="Cube" transform="translate(-18672.955 -9590.146)">
      <path id="Path_282486-5" data-name="Path 282486" d="M-2.266-40.254l40.7-23.8L79.084-40.7,38.431-16.978Z" transform="translate(4.038 65.272)" fill="#fff"/>
      <path id="Path_282487-5" data-name="Path 282487" d="M-2.266-40.577,39.027-64.567v47.592L-2.266,6.464Z" transform="translate(44.713 89.589)" fill="#d0d0d0"/>
      <path id="Path_282488-5" data-name="Path 282488" d="M-.455-126.686l40.61,23.423v47.592L-.455-79.211Z" transform="translate(1.73 152.015)" fill="#f3f6f2"/>
      <g id="noun-cube-5064508-5" data-name="noun-cube-5064508" transform="translate(0)">
        <path id="Path_282485-5" data-name="Path 282485" d="M99.8,83.128V34.376L57.579,10,15.36,34.376V83.128L57.579,107.5Zm-1.658-.951L58.408,105.115V59.227L98.141,36.289ZM57.579,11.914,97.312,34.851,57.579,57.8,17.846,34.851Zm-.829,93.2L17.018,82.177V36.289L56.75,59.227Z" transform="translate(-15.36 -10)"/>
      </g>
    </g>
    <g id="Cube-6" data-name="Cube" transform="translate(-18631.736 -9566.295)">
      <path id="Path_282486-6" data-name="Path 282486" d="M-2.266-40.254l40.7-23.8L79.084-40.7,38.431-16.978Z" transform="translate(4.038 65.272)" fill="#fff"/>
      <path id="Path_282487-6" data-name="Path 282487" d="M-2.266-40.577,39.027-64.567v47.592L-2.266,6.464Z" transform="translate(44.713 89.589)" fill="#d0d0d0"/>
      <path id="Path_282488-6" data-name="Path 282488" d="M-.455-126.686l40.61,23.423v47.592L-.455-79.211Z" transform="translate(1.73 152.015)" fill="#f3f6f2"/>
      <g id="noun-cube-5064508-6" data-name="noun-cube-5064508" transform="translate(0)">
        <path id="Path_282485-6" data-name="Path 282485" d="M99.8,83.128V34.376L57.579,10,15.36,34.376V83.128L57.579,107.5Zm-1.658-.951L58.408,105.115V59.227L98.141,36.289ZM57.579,11.914,97.312,34.851,57.579,57.8,17.846,34.851Zm-.829,93.2L17.018,82.177V36.289L56.75,59.227Z" transform="translate(-15.36 -10)"/>
      </g>
    </g>
    <g id="Cube-7" data-name="Cube" transform="translate(-18755.393 -9590.146)">
      <path id="Path_282486-7" data-name="Path 282486" d="M-2.266-40.254l40.7-23.8L79.084-40.7,38.431-16.978Z" transform="translate(4.038 65.272)" fill="#fff"/>
      <path id="Path_282487-7" data-name="Path 282487" d="M-2.266-40.577,39.027-64.567v47.592L-2.266,6.464Z" transform="translate(44.713 89.589)" fill="#d0d0d0"/>
      <path id="Path_282488-7" data-name="Path 282488" d="M-.455-126.686l40.61,23.423v47.592L-.455-79.211Z" transform="translate(1.73 152.015)" fill="#f3f6f2"/>
      <g id="noun-cube-5064508-7" data-name="noun-cube-5064508" transform="translate(0)">
        <path id="Path_282485-7" data-name="Path 282485" d="M99.8,83.128V34.376L57.579,10,15.36,34.376V83.128L57.579,107.5Zm-1.658-.951L58.408,105.115V59.227L98.141,36.289ZM57.579,11.914,97.312,34.851,57.579,57.8,17.846,34.851Zm-.829,93.2L17.018,82.177V36.289L56.75,59.227Z" transform="translate(-15.36 -10)"/>
      </g>
    </g>
    <g id="Cube-8" data-name="Cube" transform="translate(-18714.174 -9566.296)">
      <path id="Path_282486-8" data-name="Path 282486" d="M-2.266-40.254l40.7-23.8L79.084-40.7,38.431-16.978Z" transform="translate(4.038 65.272)" fill="#fff"/>
      <path id="Path_282487-8" data-name="Path 282487" d="M-2.266-40.577,39.027-64.567v47.592L-2.266,6.464Z" transform="translate(44.713 89.589)" fill="#d0d0d0"/>
      <path id="Path_282488-8" data-name="Path 282488" d="M-.455-126.686l40.61,23.423v47.592L-.455-79.211Z" transform="translate(1.73 152.015)" fill="#f3f6f2"/>
      <g id="noun-cube-5064508-8" data-name="noun-cube-5064508" transform="translate(0)">
        <path id="Path_282485-8" data-name="Path 282485" d="M99.8,83.128V34.376L57.579,10,15.36,34.376V83.128L57.579,107.5Zm-1.658-.951L58.408,105.115V59.227L98.141,36.289ZM57.579,11.914,97.312,34.851,57.579,57.8,17.846,34.851Zm-.829,93.2L17.018,82.177V36.289L56.75,59.227Z" transform="translate(-15.36 -10)"/>
      </g>
    </g>
    <g id="Cube-9" data-name="Cube" transform="translate(-18672.955 -9542.445)">
      <path id="Path_282486-9" data-name="Path 282486" d="M-2.266-40.254l40.7-23.8L79.084-40.7,38.431-16.978Z" transform="translate(4.038 65.272)" fill="#fff"/>
      <path id="Path_282487-9" data-name="Path 282487" d="M-2.266-40.577,39.027-64.567v47.592L-2.266,6.464Z" transform="translate(44.713 89.589)" fill="#d0d0d0"/>
      <path id="Path_282488-9" data-name="Path 282488" d="M-.455-126.686l40.61,23.423v47.592L-.455-79.211Z" transform="translate(1.73 152.015)" fill="#f3f6f2"/>
      <g id="noun-cube-5064508-9" data-name="noun-cube-5064508" transform="translate(0)">
        <path id="Path_282485-9" data-name="Path 282485" d="M99.8,83.128V34.376L57.579,10,15.36,34.376V83.128L57.579,107.5Zm-1.658-.951L58.408,105.115V59.227L98.141,36.289ZM57.579,11.914,97.312,34.851,57.579,57.8,17.846,34.851Zm-.829,93.2L17.018,82.177V36.289L56.75,59.227Z" transform="translate(-15.36 -10)"/>
      </g>
    </g>
    <g id="Cube-10" data-name="Cube" transform="translate(-18672.955 -9685.544)">
      <path id="Path_282486-10" data-name="Path 282486" d="M-2.266-40.254l40.7-23.8L79.084-40.7,38.431-16.978Z" transform="translate(4.038 65.272)" fill="#fff"/>
      <path id="Path_282487-10" data-name="Path 282487" d="M-2.266-40.577,39.027-64.567v47.592L-2.266,6.464Z" transform="translate(44.713 89.589)" fill="#d0d0d0"/>
      <path id="Path_282488-10" data-name="Path 282488" d="M-.455-126.686l40.61,23.423v47.592L-.455-79.211Z" transform="translate(1.73 152.015)" fill="#f3f6f2"/>
      <g id="noun-cube-5064508-10" data-name="noun-cube-5064508" transform="translate(0)">
        <path id="Path_282485-10" data-name="Path 282485" d="M99.8,83.128V34.376L57.579,10,15.36,34.376V83.128L57.579,107.5Zm-1.658-.951L58.408,105.115V59.227L98.141,36.289ZM57.579,11.914,97.312,34.851,57.579,57.8,17.846,34.851Zm-.829,93.2L17.018,82.177V36.289L56.75,59.227Z" transform="translate(-15.36 -10)"/>
      </g>
    </g>
    <g id="Cube-11" data-name="Cube" transform="translate(-18631.736 -9661.694)">
      <path id="Path_282486-11" data-name="Path 282486" d="M-2.266-40.254l40.7-23.8L79.084-40.7,38.431-16.978Z" transform="translate(4.038 65.272)" fill="#fff"/>
      <path id="Path_282487-11" data-name="Path 282487" d="M-2.266-40.577,39.027-64.567v47.592L-2.266,6.464Z" transform="translate(44.713 89.589)" fill="#d0d0d0"/>
      <path id="Path_282488-11" data-name="Path 282488" d="M-.455-126.686l40.61,23.423v47.592L-.455-79.211Z" transform="translate(1.73 152.015)" fill="#f3f6f2"/>
      <g id="noun-cube-5064508-11" data-name="noun-cube-5064508" transform="translate(0)">
        <path id="Path_282485-11" data-name="Path 282485" d="M99.8,83.128V34.376L57.579,10,15.36,34.376V83.128L57.579,107.5Zm-1.658-.951L58.408,105.115V59.227L98.141,36.289ZM57.579,11.914,97.312,34.851,57.579,57.8,17.846,34.851Zm-.829,93.2L17.018,82.177V36.289L56.75,59.227Z" transform="translate(-15.36 -10)"/>
      </g>
    </g>
    <g id="Cube-12" data-name="Cube" transform="translate(-18590.518 -9637.844)">
      <path id="Path_282486-12" data-name="Path 282486" d="M-2.266-40.254l40.7-23.8L79.084-40.7,38.431-16.978Z" transform="translate(4.038 65.272)" fill="#fff"/>
      <path id="Path_282487-12" data-name="Path 282487" d="M-2.266-40.577,39.027-64.567v47.592L-2.266,6.464Z" transform="translate(44.713 89.589)" fill="#d0d0d0"/>
      <path id="Path_282488-12" data-name="Path 282488" d="M-.455-126.686l40.61,23.423v47.592L-.455-79.211Z" transform="translate(1.73 152.015)" fill="#f3f6f2"/>
      <g id="noun-cube-5064508-12" data-name="noun-cube-5064508" transform="translate(0)">
        <path id="Path_282485-12" data-name="Path 282485" d="M99.8,83.128V34.376L57.579,10,15.36,34.376V83.128L57.579,107.5Zm-1.658-.951L58.408,105.115V59.227L98.141,36.289ZM57.579,11.914,97.312,34.851,57.579,57.8,17.846,34.851Zm-.829,93.2L17.018,82.177V36.289L56.75,59.227Z" transform="translate(-15.36 -10)"/>
      </g>
    </g>
    <g id="Cube-13" data-name="Cube" transform="translate(-18714.174 -9661.694)">
      <path id="Path_282486-13" data-name="Path 282486" d="M-2.266-40.254l40.7-23.8L79.084-40.7,38.431-16.978Z" transform="translate(4.038 65.272)" fill="#fff"/>
      <path id="Path_282487-13" data-name="Path 282487" d="M-2.266-40.577,39.027-64.567v47.592L-2.266,6.464Z" transform="translate(44.713 89.589)" fill="#d0d0d0"/>
      <path id="Path_282488-13" data-name="Path 282488" d="M-.455-126.686l40.61,23.423v47.592L-.455-79.211Z" transform="translate(1.73 152.015)" fill="#f3f6f2"/>
      <g id="noun-cube-5064508-13" data-name="noun-cube-5064508" transform="translate(0)">
        <path id="Path_282485-13" data-name="Path 282485" d="M99.8,83.128V34.376L57.579,10,15.36,34.376V83.128L57.579,107.5Zm-1.658-.951L58.408,105.115V59.227L98.141,36.289ZM57.579,11.914,97.312,34.851,57.579,57.8,17.846,34.851Zm-.829,93.2L17.018,82.177V36.289L56.75,59.227Z" transform="translate(-15.36 -10)"/>
      </g>
    </g>
    <g id="Cube-14" data-name="Cube" transform="translate(-18672.955 -9637.845)">
      <path id="Path_282486-14" data-name="Path 282486" d="M-2.266-40.254l40.7-23.8L79.084-40.7,38.431-16.978Z" transform="translate(4.038 65.272)" fill="#7fff80"/>
      <path id="Path_282487-14" data-name="Path 282487" d="M-2.266-40.577,39.027-64.567v47.592L-2.266,6.464Z" transform="translate(44.713 89.589)" fill="#00e300"/>
      <path id="Path_282488-14" data-name="Path 282488" d="M-.455-126.686l40.61,23.423v47.592L-.455-79.211Z" transform="translate(1.73 152.015)" fill="lime"/>
      <g id="noun-cube-5064508-14" data-name="noun-cube-5064508" transform="translate(0)">
        <path id="Path_282485-14" data-name="Path 282485" d="M99.8,83.128V34.376L57.579,10,15.36,34.376V83.128L57.579,107.5Zm-1.658-.951L58.408,105.115V59.227L98.141,36.289ZM57.579,11.914,97.312,34.851,57.579,57.8,17.846,34.851Zm-.829,93.2L17.018,82.177V36.289L56.75,59.227Z" transform="translate(-15.36 -10)"/>
      </g>
    </g>
    <g id="Cube-15" data-name="Cube" transform="translate(-18755.393 -9637.845)">
      <path id="Path_282486-15" data-name="Path 282486" d="M-2.266-40.254l40.7-23.8L79.084-40.7,38.431-16.978Z" transform="translate(4.038 65.272)" fill="#fff"/>
      <path id="Path_282487-15" data-name="Path 282487" d="M-2.266-40.577,39.027-64.567v47.592L-2.266,6.464Z" transform="translate(44.713 89.589)" fill="#d0d0d0"/>
      <path id="Path_282488-15" data-name="Path 282488" d="M-.455-126.686l40.61,23.423v47.592L-.455-79.211Z" transform="translate(1.73 152.015)" fill="#f3f6f2"/>
      <g id="noun-cube-5064508-15" data-name="noun-cube-5064508" transform="translate(0)">
        <path id="Path_282485-15" data-name="Path 282485" d="M99.8,83.128V34.376L57.579,10,15.36,34.376V83.128L57.579,107.5Zm-1.658-.951L58.408,105.115V59.227L98.141,36.289ZM57.579,11.914,97.312,34.851,57.579,57.8,17.846,34.851Zm-.829,93.2L17.018,82.177V36.289L56.75,59.227Z" transform="translate(-15.36 -10)"/>
      </g>
    </g>
    <g id="Cube-16" data-name="Cube" transform="translate(-18672.955 -9733.243)">
      <path id="Path_282486-16" data-name="Path 282486" d="M-2.266-40.254l40.7-23.8L79.084-40.7,38.431-16.978Z" transform="translate(4.038 65.272)" fill="#fff"/>
      <path id="Path_282487-16" data-name="Path 282487" d="M-2.266-40.577,39.027-64.567v47.592L-2.266,6.464Z" transform="translate(44.713 89.589)" fill="#d0d0d0"/>
      <path id="Path_282488-16" data-name="Path 282488" d="M-.455-126.686l40.61,23.423v47.592L-.455-79.211Z" transform="translate(1.73 152.015)" fill="#f3f6f2"/>
      <g id="noun-cube-5064508-16" data-name="noun-cube-5064508" transform="translate(0)">
        <path id="Path_282485-16" data-name="Path 282485" d="M99.8,83.128V34.376L57.579,10,15.36,34.376V83.128L57.579,107.5Zm-1.658-.951L58.408,105.115V59.227L98.141,36.289ZM57.579,11.914,97.312,34.851,57.579,57.8,17.846,34.851Zm-.829,93.2L17.018,82.177V36.289L56.75,59.227Z" transform="translate(-15.36 -10)"/>
      </g>
    </g>
    <g id="Cube-17" data-name="Cube" transform="translate(-18631.736 -9709.394)">
      <path id="Path_282486-17" data-name="Path 282486" d="M-2.266-40.254l40.7-23.8L79.084-40.7,38.431-16.978Z" transform="translate(4.038 65.272)" fill="#fff"/>
      <path id="Path_282487-17" data-name="Path 282487" d="M-2.266-40.577,39.027-64.567v47.592L-2.266,6.464Z" transform="translate(44.713 89.589)" fill="#d0d0d0"/>
      <path id="Path_282488-17" data-name="Path 282488" d="M-.455-126.686l40.61,23.423v47.592L-.455-79.211Z" transform="translate(1.73 152.015)" fill="#f3f6f2"/>
      <g id="noun-cube-5064508-17" data-name="noun-cube-5064508" transform="translate(0)">
        <path id="Path_282485-17" data-name="Path 282485" d="M99.8,83.128V34.376L57.579,10,15.36,34.376V83.128L57.579,107.5Zm-1.658-.951L58.408,105.115V59.227L98.141,36.289ZM57.579,11.914,97.312,34.851,57.579,57.8,17.846,34.851Zm-.829,93.2L17.018,82.177V36.289L56.75,59.227Z" transform="translate(-15.36 -10)"/>
      </g>
    </g>
    <g id="Cube-18" data-name="Cube" transform="translate(-18590.518 -9685.543)">
      <path id="Path_282486-18" data-name="Path 282486" d="M-2.266-40.254l40.7-23.8L79.084-40.7,38.431-16.978Z" transform="translate(4.038 65.272)" fill="#fff"/>
      <path id="Path_282487-18" data-name="Path 282487" d="M-2.266-40.577,39.027-64.567v47.592L-2.266,6.464Z" transform="translate(44.713 89.589)" fill="#d0d0d0"/>
      <path id="Path_282488-18" data-name="Path 282488" d="M-.455-126.686l40.61,23.423v47.592L-.455-79.211Z" transform="translate(1.73 152.015)" fill="#f3f6f2"/>
      <g id="noun-cube-5064508-18" data-name="noun-cube-5064508" transform="translate(0)">
        <path id="Path_282485-18" data-name="Path 282485" d="M99.8,83.128V34.376L57.579,10,15.36,34.376V83.128L57.579,107.5Zm-1.658-.951L58.408,105.115V59.227L98.141,36.289ZM57.579,11.914,97.312,34.851,57.579,57.8,17.846,34.851Zm-.829,93.2L17.018,82.177V36.289L56.75,59.227Z" transform="translate(-15.36 -10)"/>
      </g>
    </g>
    <g id="Cube-19" data-name="Cube" transform="translate(-18714.174 -9709.394)">
      <path id="Path_282486-19" data-name="Path 282486" d="M-2.266-40.254l40.7-23.8L79.084-40.7,38.431-16.978Z" transform="translate(4.038 65.272)" fill="#fff"/>
      <path id="Path_282487-19" data-name="Path 282487" d="M-2.266-40.577,39.027-64.567v47.592L-2.266,6.464Z" transform="translate(44.713 89.589)" fill="#d0d0d0"/>
      <path id="Path_282488-19" data-name="Path 282488" d="M-.455-126.686l40.61,23.423v47.592L-.455-79.211Z" transform="translate(1.73 152.015)" fill="#f3f6f2"/>
      <g id="noun-cube-5064508-19" data-name="noun-cube-5064508" transform="translate(0)">
        <path id="Path_282485-19" data-name="Path 282485" d="M99.8,83.128V34.376L57.579,10,15.36,34.376V83.128L57.579,107.5Zm-1.658-.951L58.408,105.115V59.227L98.141,36.289ZM57.579,11.914,97.312,34.851,57.579,57.8,17.846,34.851Zm-.829,93.2L17.018,82.177V36.289L56.75,59.227Z" transform="translate(-15.36 -10)"/>
      </g>
    </g>
    <g id="Cube-20" data-name="Cube" transform="translate(-18755.393 -9685.544)">
      <path id="Path_282486-20" data-name="Path 282486" d="M-2.266-40.254l40.7-23.8L79.084-40.7,38.431-16.978Z" transform="translate(4.038 65.272)" fill="#fff"/>
      <path id="Path_282487-20" data-name="Path 282487" d="M-2.266-40.577,39.027-64.567v47.592L-2.266,6.464Z" transform="translate(44.713 89.589)" fill="#d0d0d0"/>
      <path id="Path_282488-20" data-name="Path 282488" d="M-.455-126.686l40.61,23.423v47.592L-.455-79.211Z" transform="translate(1.73 152.015)" fill="#f3f6f2"/>
      <g id="noun-cube-5064508-20" data-name="noun-cube-5064508" transform="translate(0)">
        <path id="Path_282485-20" data-name="Path 282485" d="M99.8,83.128V34.376L57.579,10,15.36,34.376V83.128L57.579,107.5Zm-1.658-.951L58.408,105.115V59.227L98.141,36.289ZM57.579,11.914,97.312,34.851,57.579,57.8,17.846,34.851Zm-.829,93.2L17.018,82.177V36.289L56.75,59.227Z" transform="translate(-15.36 -10)"/>
      </g>
    </g>
  </g>
</svg>
