<svg xmlns="http://www.w3.org/2000/svg" width="427" height="427" viewBox="0 0 427 427">
  <g id="Data_Box" data-name="Data Box" transform="translate(-1174.996 -2254.996)">
    <g id="Line_01" data-name="Line 01" transform="translate(1175 2255)">
      <g id="Rectangle_191528" data-name="Rectangle 191528" transform="translate(-0.004 -0.004)" fill="none" stroke="lime" stroke-width="1">
        <rect width="32" height="32" stroke="none"/>
        <rect x="0.5" y="0.5" width="31" height="31" fill="none"/>
      </g>
      <g id="Rectangle_191528-2" data-name="Rectangle 191528" transform="translate(43.996 -0.004)" fill="none" stroke="lime" stroke-width="1">
        <rect width="32" height="31" stroke="none"/>
        <rect x="0.5" y="0.5" width="31" height="30" fill="none"/>
      </g>
      <g id="Rectangle_191528-3" data-name="Rectangle 191528" transform="translate(86.996 -0.004)" fill="none" stroke="lime" stroke-width="1">
        <rect width="33" height="32" stroke="none"/>
        <rect x="0.5" y="0.5" width="32" height="31" fill="none"/>
      </g>
      <g id="Rectangle_191528-4" data-name="Rectangle 191528" transform="translate(131.996 -0.004)" fill="none" stroke="lime" stroke-width="1">
        <rect width="32" height="32" stroke="none"/>
        <rect x="0.5" y="0.5" width="31" height="31" fill="none"/>
      </g>
      <g id="Rectangle_191528-5" data-name="Rectangle 191528" transform="translate(175.996 -0.004)" fill="none" stroke="lime" stroke-width="1">
        <rect width="31" height="31" stroke="none"/>
        <rect x="0.5" y="0.5" width="30" height="30" fill="none"/>
      </g>
      <g id="Rectangle_191528-6" data-name="Rectangle 191528" transform="translate(219.996 -0.004)" fill="none" stroke="lime" stroke-width="1">
        <rect width="31" height="31" stroke="none"/>
        <rect x="0.5" y="0.5" width="30" height="30" fill="none"/>
      </g>
      <g id="Rectangle_191528-7" data-name="Rectangle 191528" transform="translate(262.996 -0.004)" fill="none" stroke="lime" stroke-width="1">
        <rect width="32" height="32" stroke="none"/>
        <rect x="0.5" y="0.5" width="31" height="31" fill="none"/>
      </g>
      <g id="Rectangle_191528-8" data-name="Rectangle 191528" transform="translate(306.996 -0.004)" fill="none" stroke="lime" stroke-width="1">
        <rect width="33" height="32" stroke="none"/>
        <rect x="0.5" y="0.5" width="32" height="31" fill="none"/>
      </g>
      <g id="Rectangle_191528-9" data-name="Rectangle 191528" transform="translate(350.996 -0.004)" fill="none" stroke="lime" stroke-width="1">
        <rect width="32" height="31" stroke="none"/>
        <rect x="0.5" y="0.5" width="31" height="30" fill="none"/>
      </g>
      <g id="Rectangle_191528-10" data-name="Rectangle 191528" transform="translate(394.996 -0.004)" fill="none" stroke="lime" stroke-width="1">
        <rect width="32" height="32" stroke="none"/>
        <rect x="0.5" y="0.5" width="31" height="31" fill="none"/>
      </g>
    </g>
    <g id="Line_02" data-name="Line 02" transform="translate(1175 2299.142)">
      <g id="Rectangle_191528-11" data-name="Rectangle 191528" transform="translate(-0.004 -0.146)" fill="none" stroke="lime" stroke-width="1">
        <rect width="32" height="32" stroke="none"/>
        <rect x="0.5" y="0.5" width="31" height="31" fill="none"/>
      </g>
      <g id="Rectangle_191528-12" data-name="Rectangle 191528" transform="translate(43.996 -0.146)" fill="none" stroke="lime" stroke-width="1">
        <rect width="32" height="32" stroke="none"/>
        <rect x="0.5" y="0.5" width="31" height="31" fill="none"/>
      </g>
      <g id="Rectangle_191528-13" data-name="Rectangle 191528" transform="translate(86.996 -0.146)" fill="none" stroke="lime" stroke-width="1">
        <rect width="33" height="32" stroke="none"/>
        <rect x="0.5" y="0.5" width="32" height="31" fill="none"/>
      </g>
      <g id="Rectangle_191528-14" data-name="Rectangle 191528" transform="translate(131.996 -0.146)" fill="none" stroke="lime" stroke-width="1">
        <rect width="32" height="32" stroke="none"/>
        <rect x="0.5" y="0.5" width="31" height="31" fill="none"/>
      </g>
      <g id="Rectangle_191528-15" data-name="Rectangle 191528" transform="translate(175.996 -0.146)" fill="none" stroke="lime" stroke-width="1">
        <rect width="31" height="32" stroke="none"/>
        <rect x="0.5" y="0.5" width="30" height="31" fill="none"/>
      </g>
      <g id="Rectangle_191528-16" data-name="Rectangle 191528" transform="translate(219.996 -0.146)" fill="none" stroke="lime" stroke-width="1">
        <rect width="31" height="32" stroke="none"/>
        <rect x="0.5" y="0.5" width="30" height="31" fill="none"/>
      </g>
      <g id="Rectangle_191528-17" data-name="Rectangle 191528" transform="translate(262.996 -0.146)" fill="none" stroke="lime" stroke-width="1">
        <rect width="32" height="32" stroke="none"/>
        <rect x="0.5" y="0.5" width="31" height="31" fill="none"/>
      </g>
      <g id="Rectangle_191528-18" data-name="Rectangle 191528" transform="translate(306.996 -0.146)" fill="none" stroke="lime" stroke-width="1">
        <rect width="33" height="32" stroke="none"/>
        <rect x="0.5" y="0.5" width="32" height="31" fill="none"/>
      </g>
      <g id="Rectangle_191528-19" data-name="Rectangle 191528" transform="translate(350.996 -0.146)" fill="none" stroke="lime" stroke-width="1">
        <rect width="32" height="32" stroke="none"/>
        <rect x="0.5" y="0.5" width="31" height="31" fill="none"/>
      </g>
      <g id="Rectangle_191528-20" data-name="Rectangle 191528" transform="translate(394.996 -0.146)" fill="none" stroke="lime" stroke-width="1">
        <rect width="32" height="32" stroke="none"/>
        <rect x="0.5" y="0.5" width="31" height="31" fill="none"/>
      </g>
    </g>
    <g id="Line_03" data-name="Line 03" transform="translate(1175 2342.436)">
      <g id="Rectangle_191528-21" data-name="Rectangle 191528" transform="translate(-0.004 -0.44)" fill="none" stroke="lime" stroke-width="1">
        <rect width="32" height="33" stroke="none"/>
        <rect x="0.5" y="0.5" width="31" height="32" fill="none"/>
      </g>
      <g id="Rectangle_191528-22" data-name="Rectangle 191528" transform="translate(43.996 -0.44)" fill="none" stroke="lime" stroke-width="1">
        <rect width="32" height="32" stroke="none"/>
        <rect x="0.5" y="0.5" width="31" height="31" fill="none"/>
      </g>
      <g id="Rectangle_191528-23" data-name="Rectangle 191528" transform="translate(86.996 -0.44)" fill="none" stroke="lime" stroke-width="1">
        <rect width="33" height="33" stroke="none"/>
        <rect x="0.5" y="0.5" width="32" height="32" fill="none"/>
      </g>
      <g id="Rectangle_191528-24" data-name="Rectangle 191528" transform="translate(131.996 -0.44)" fill="none" stroke="lime" stroke-width="1">
        <rect width="32" height="33" stroke="none"/>
        <rect x="0.5" y="0.5" width="31" height="32" fill="none"/>
      </g>
      <g id="Rectangle_191528-25" data-name="Rectangle 191528" transform="translate(175.996 -0.44)" fill="none" stroke="lime" stroke-width="1">
        <rect width="31" height="32" stroke="none"/>
        <rect x="0.5" y="0.5" width="30" height="31" fill="none"/>
      </g>
      <g id="Rectangle_191528-26" data-name="Rectangle 191528" transform="translate(219.996 -0.44)" fill="none" stroke="lime" stroke-width="1">
        <rect width="31" height="32" stroke="none"/>
        <rect x="0.5" y="0.5" width="30" height="31" fill="none"/>
      </g>
      <g id="Rectangle_191528-27" data-name="Rectangle 191528" transform="translate(262.996 -0.44)" fill="none" stroke="lime" stroke-width="1">
        <rect width="32" height="33" stroke="none"/>
        <rect x="0.5" y="0.5" width="31" height="32" fill="none"/>
      </g>
      <g id="Rectangle_191528-28" data-name="Rectangle 191528" transform="translate(306.996 -0.44)" fill="none" stroke="lime" stroke-width="1">
        <rect width="33" height="33" stroke="none"/>
        <rect x="0.5" y="0.5" width="32" height="32" fill="none"/>
      </g>
      <g id="Rectangle_191528-29" data-name="Rectangle 191528" transform="translate(350.996 -0.44)" fill="none" stroke="lime" stroke-width="1">
        <rect width="32" height="32" stroke="none"/>
        <rect x="0.5" y="0.5" width="31" height="31" fill="none"/>
      </g>
      <g id="Rectangle_191528-30" data-name="Rectangle 191528" transform="translate(394.996 -0.44)" fill="none" stroke="lime" stroke-width="1">
        <rect width="32" height="33" stroke="none"/>
        <rect x="0.5" y="0.5" width="31" height="32" fill="none"/>
      </g>
    </g>
    <g id="Line_04" data-name="Line 04" transform="translate(1175 2386.578)">
      <g id="Rectangle_191528-31" data-name="Rectangle 191528" transform="translate(-0.004 0.418)" fill="none" stroke="lime" stroke-width="1">
        <rect width="32" height="32" stroke="none"/>
        <rect x="0.5" y="0.5" width="31" height="31" fill="none"/>
      </g>
      <g id="Rectangle_191528-32" data-name="Rectangle 191528" transform="translate(43.996 0.418)" fill="none" stroke="lime" stroke-width="1">
        <rect width="32" height="31" stroke="none"/>
        <rect x="0.5" y="0.5" width="31" height="30" fill="none"/>
      </g>
      <g id="Rectangle_191528-33" data-name="Rectangle 191528" transform="translate(86.996 0.418)" fill="none" stroke="lime" stroke-width="1">
        <rect width="33" height="32" stroke="none"/>
        <rect x="0.5" y="0.5" width="32" height="31" fill="none"/>
      </g>
      <g id="Rectangle_191528-34" data-name="Rectangle 191528" transform="translate(131.996 0.418)" fill="none" stroke="lime" stroke-width="1">
        <rect width="32" height="32" stroke="none"/>
        <rect x="0.5" y="0.5" width="31" height="31" fill="none"/>
      </g>
      <g id="Rectangle_191528-35" data-name="Rectangle 191528" transform="translate(175.996 0.418)" fill="none" stroke="lime" stroke-width="1">
        <rect width="31" height="31" stroke="none"/>
        <rect x="0.5" y="0.5" width="30" height="30" fill="none"/>
      </g>
      <g id="Rectangle_191528-36" data-name="Rectangle 191528" transform="translate(219.996 0.418)" fill="none" stroke="lime" stroke-width="1">
        <rect width="31" height="31" stroke="none"/>
        <rect x="0.5" y="0.5" width="30" height="30" fill="none"/>
      </g>
      <g id="Rectangle_191528-37" data-name="Rectangle 191528" transform="translate(262.996 0.418)" fill="none" stroke="lime" stroke-width="1">
        <rect width="32" height="32" stroke="none"/>
        <rect x="0.5" y="0.5" width="31" height="31" fill="none"/>
      </g>
      <g id="Rectangle_191528-38" data-name="Rectangle 191528" transform="translate(306.996 0.418)" fill="none" stroke="lime" stroke-width="1">
        <rect width="33" height="32" stroke="none"/>
        <rect x="0.5" y="0.5" width="32" height="31" fill="none"/>
      </g>
      <g id="Rectangle_191528-39" data-name="Rectangle 191528" transform="translate(350.996 0.418)" fill="none" stroke="lime" stroke-width="1">
        <rect width="32" height="31" stroke="none"/>
        <rect x="0.5" y="0.5" width="31" height="30" fill="none"/>
      </g>
      <g id="Rectangle_191528-40" data-name="Rectangle 191528" transform="translate(394.996 0.418)" fill="none" stroke="lime" stroke-width="1">
        <rect width="32" height="32" stroke="none"/>
        <rect x="0.5" y="0.5" width="31" height="31" fill="none"/>
      </g>
    </g>
    <g id="Line_05" data-name="Line 05" transform="translate(1175 2430.72)">
      <g id="Rectangle_191528-41" data-name="Rectangle 191528" transform="translate(-0.004 0.276)" fill="none" stroke="lime" stroke-width="1">
        <rect width="32" height="32" stroke="none"/>
        <rect x="0.5" y="0.5" width="31" height="31" fill="none"/>
      </g>
      <g id="Rectangle_191528-42" data-name="Rectangle 191528" transform="translate(43.996 0.276)" fill="none" stroke="lime" stroke-width="1">
        <rect width="32" height="31" stroke="none"/>
        <rect x="0.5" y="0.5" width="31" height="30" fill="none"/>
      </g>
      <g id="Rectangle_191528-43" data-name="Rectangle 191528" transform="translate(86.996 0.276)" fill="none" stroke="lime" stroke-width="1">
        <rect width="33" height="32" stroke="none"/>
        <rect x="0.5" y="0.5" width="32" height="31" fill="none"/>
      </g>
      <g id="Rectangle_191528-44" data-name="Rectangle 191528" transform="translate(131.996 0.276)" fill="none" stroke="lime" stroke-width="1">
        <rect width="32" height="32" stroke="none"/>
        <rect x="0.5" y="0.5" width="31" height="31" fill="none"/>
      </g>
      <g id="Rectangle_191528-45" data-name="Rectangle 191528" transform="translate(175.996 0.276)" fill="none" stroke="lime" stroke-width="1">
        <rect width="31" height="31" stroke="none"/>
        <rect x="0.5" y="0.5" width="30" height="30" fill="none"/>
      </g>
      <g id="Rectangle_191528-46" data-name="Rectangle 191528" transform="translate(219.996 0.276)" fill="none" stroke="lime" stroke-width="1">
        <rect width="31" height="31" stroke="none"/>
        <rect x="0.5" y="0.5" width="30" height="30" fill="none"/>
      </g>
      <g id="Rectangle_191528-47" data-name="Rectangle 191528" transform="translate(262.996 0.276)" fill="none" stroke="lime" stroke-width="1">
        <rect width="32" height="32" stroke="none"/>
        <rect x="0.5" y="0.5" width="31" height="31" fill="none"/>
      </g>
      <g id="Rectangle_191528-48" data-name="Rectangle 191528" transform="translate(306.996 0.276)" fill="none" stroke="lime" stroke-width="1">
        <rect width="33" height="32" stroke="none"/>
        <rect x="0.5" y="0.5" width="32" height="31" fill="none"/>
      </g>
      <g id="Rectangle_191528-49" data-name="Rectangle 191528" transform="translate(350.996 0.276)" fill="none" stroke="lime" stroke-width="1">
        <rect width="32" height="31" stroke="none"/>
        <rect x="0.5" y="0.5" width="31" height="30" fill="none"/>
      </g>
      <g id="Rectangle_191528-50" data-name="Rectangle 191528" transform="translate(394.996 0.276)" fill="none" stroke="lime" stroke-width="1">
        <rect width="32" height="32" stroke="none"/>
        <rect x="0.5" y="0.5" width="31" height="31" fill="none"/>
      </g>
    </g>
    <g id="Line_06" data-name="Line 06" transform="translate(1175 2474.863)">
      <g id="Rectangle_191528-51" data-name="Rectangle 191528" transform="translate(-0.004 0.133)" fill="none" stroke="lime" stroke-width="1">
        <rect width="32" height="32" stroke="none"/>
        <rect x="0.5" y="0.5" width="31" height="31" fill="none"/>
      </g>
      <g id="Rectangle_191528-52" data-name="Rectangle 191528" transform="translate(43.996 0.133)" fill="none" stroke="lime" stroke-width="1">
        <rect width="32" height="31" stroke="none"/>
        <rect x="0.5" y="0.5" width="31" height="30" fill="none"/>
      </g>
      <g id="Rectangle_191528-53" data-name="Rectangle 191528" transform="translate(86.996 0.133)" fill="none" stroke="lime" stroke-width="1">
        <rect width="33" height="32" stroke="none"/>
        <rect x="0.5" y="0.5" width="32" height="31" fill="none"/>
      </g>
      <g id="Rectangle_191528-54" data-name="Rectangle 191528" transform="translate(131.996 0.133)" fill="none" stroke="lime" stroke-width="1">
        <rect width="32" height="32" stroke="none"/>
        <rect x="0.5" y="0.5" width="31" height="31" fill="none"/>
      </g>
      <g id="Rectangle_191528-55" data-name="Rectangle 191528" transform="translate(175.996 0.133)" fill="none" stroke="lime" stroke-width="1">
        <rect width="31" height="31" stroke="none"/>
        <rect x="0.5" y="0.5" width="30" height="30" fill="none"/>
      </g>
      <g id="Rectangle_191528-56" data-name="Rectangle 191528" transform="translate(219.996 0.133)" fill="none" stroke="lime" stroke-width="1">
        <rect width="31" height="31" stroke="none"/>
        <rect x="0.5" y="0.5" width="30" height="30" fill="none"/>
      </g>
      <g id="Rectangle_191528-57" data-name="Rectangle 191528" transform="translate(262.996 0.133)" fill="none" stroke="lime" stroke-width="1">
        <rect width="32" height="32" stroke="none"/>
        <rect x="0.5" y="0.5" width="31" height="31" fill="none"/>
      </g>
      <g id="Rectangle_191528-58" data-name="Rectangle 191528" transform="translate(306.996 0.133)" fill="none" stroke="lime" stroke-width="1">
        <rect width="33" height="32" stroke="none"/>
        <rect x="0.5" y="0.5" width="32" height="31" fill="none"/>
      </g>
      <g id="Rectangle_191528-59" data-name="Rectangle 191528" transform="translate(350.996 0.133)" fill="none" stroke="lime" stroke-width="1">
        <rect width="32" height="31" stroke="none"/>
        <rect x="0.5" y="0.5" width="31" height="30" fill="none"/>
      </g>
      <g id="Rectangle_191528-60" data-name="Rectangle 191528" transform="translate(394.996 0.133)" fill="none" stroke="lime" stroke-width="1">
        <rect width="32" height="32" stroke="none"/>
        <rect x="0.5" y="0.5" width="31" height="31" fill="none"/>
      </g>
    </g>
    <g id="Line_07" data-name="Line 07" transform="translate(1175 2518.156)">
      <g id="Rectangle_191528-61" data-name="Rectangle 191528" transform="translate(-0.004 -0.16)" fill="none" stroke="lime" stroke-width="1">
        <rect width="32" height="32" stroke="none"/>
        <rect x="0.5" y="0.5" width="31" height="31" fill="none"/>
      </g>
      <g id="Rectangle_191528-62" data-name="Rectangle 191528" transform="translate(43.996 -0.16)" fill="none" stroke="lime" stroke-width="1">
        <rect width="32" height="32" stroke="none"/>
        <rect x="0.5" y="0.5" width="31" height="31" fill="none"/>
      </g>
      <g id="Rectangle_191528-63" data-name="Rectangle 191528" transform="translate(86.996 -0.16)" fill="none" stroke="lime" stroke-width="1">
        <rect width="33" height="32" stroke="none"/>
        <rect x="0.5" y="0.5" width="32" height="31" fill="none"/>
      </g>
      <g id="Rectangle_191528-64" data-name="Rectangle 191528" transform="translate(131.996 -0.16)" fill="none" stroke="lime" stroke-width="1">
        <rect width="32" height="32" stroke="none"/>
        <rect x="0.5" y="0.5" width="31" height="31" fill="none"/>
      </g>
      <g id="Rectangle_191528-65" data-name="Rectangle 191528" transform="translate(175.996 -0.16)" fill="none" stroke="lime" stroke-width="1">
        <rect width="31" height="32" stroke="none"/>
        <rect x="0.5" y="0.5" width="30" height="31" fill="none"/>
      </g>
      <g id="Rectangle_191528-66" data-name="Rectangle 191528" transform="translate(219.996 -0.16)" fill="none" stroke="lime" stroke-width="1">
        <rect width="31" height="32" stroke="none"/>
        <rect x="0.5" y="0.5" width="30" height="31" fill="none"/>
      </g>
      <g id="Rectangle_191528-67" data-name="Rectangle 191528" transform="translate(262.996 -0.16)" fill="none" stroke="lime" stroke-width="1">
        <rect width="32" height="32" stroke="none"/>
        <rect x="0.5" y="0.5" width="31" height="31" fill="none"/>
      </g>
      <g id="Rectangle_191528-68" data-name="Rectangle 191528" transform="translate(306.996 -0.16)" fill="none" stroke="lime" stroke-width="1">
        <rect width="33" height="32" stroke="none"/>
        <rect x="0.5" y="0.5" width="32" height="31" fill="none"/>
      </g>
      <g id="Rectangle_191528-69" data-name="Rectangle 191528" transform="translate(350.996 -0.16)" fill="none" stroke="lime" stroke-width="1">
        <rect width="32" height="32" stroke="none"/>
        <rect x="0.5" y="0.5" width="31" height="31" fill="none"/>
      </g>
      <g id="Rectangle_191528-70" data-name="Rectangle 191528" transform="translate(394.996 -0.16)" fill="none" stroke="lime" stroke-width="1">
        <rect width="32" height="32" stroke="none"/>
        <rect x="0.5" y="0.5" width="31" height="31" fill="none"/>
      </g>
    </g>
    <g id="Line_08" data-name="Line 08" transform="translate(1175 2562.298)">
      <g id="Rectangle_191528-71" data-name="Rectangle 191528" transform="translate(-0.004 -0.302)" fill="none" stroke="lime" stroke-width="1">
        <rect width="32" height="33" stroke="none"/>
        <rect x="0.5" y="0.5" width="31" height="32" fill="none"/>
      </g>
      <g id="Rectangle_191528-72" data-name="Rectangle 191528" transform="translate(43.996 -0.302)" fill="none" stroke="lime" stroke-width="1">
        <rect width="32" height="32" stroke="none"/>
        <rect x="0.5" y="0.5" width="31" height="31" fill="none"/>
      </g>
      <g id="Rectangle_191528-73" data-name="Rectangle 191528" transform="translate(86.996 -0.302)" fill="none" stroke="lime" stroke-width="1">
        <rect width="33" height="33" stroke="none"/>
        <rect x="0.5" y="0.5" width="32" height="32" fill="none"/>
      </g>
      <g id="Rectangle_191528-74" data-name="Rectangle 191528" transform="translate(131.996 -0.302)" fill="none" stroke="lime" stroke-width="1">
        <rect width="32" height="33" stroke="none"/>
        <rect x="0.5" y="0.5" width="31" height="32" fill="none"/>
      </g>
      <g id="Rectangle_191528-75" data-name="Rectangle 191528" transform="translate(175.996 -0.302)" fill="none" stroke="lime" stroke-width="1">
        <rect width="31" height="32" stroke="none"/>
        <rect x="0.5" y="0.5" width="30" height="31" fill="none"/>
      </g>
      <g id="Rectangle_191528-76" data-name="Rectangle 191528" transform="translate(219.996 -0.302)" fill="none" stroke="lime" stroke-width="1">
        <rect width="31" height="32" stroke="none"/>
        <rect x="0.5" y="0.5" width="30" height="31" fill="none"/>
      </g>
      <g id="Rectangle_191528-77" data-name="Rectangle 191528" transform="translate(262.996 -0.302)" fill="none" stroke="lime" stroke-width="1">
        <rect width="32" height="33" stroke="none"/>
        <rect x="0.5" y="0.5" width="31" height="32" fill="none"/>
      </g>
      <g id="Rectangle_191528-78" data-name="Rectangle 191528" transform="translate(306.996 -0.302)" fill="none" stroke="lime" stroke-width="1">
        <rect width="33" height="33" stroke="none"/>
        <rect x="0.5" y="0.5" width="32" height="32" fill="none"/>
      </g>
      <g id="Rectangle_191528-79" data-name="Rectangle 191528" transform="translate(350.996 -0.302)" fill="none" stroke="lime" stroke-width="1">
        <rect width="32" height="32" stroke="none"/>
        <rect x="0.5" y="0.5" width="31" height="31" fill="none"/>
      </g>
      <g id="Rectangle_191528-80" data-name="Rectangle 191528" transform="translate(394.996 -0.302)" fill="none" stroke="lime" stroke-width="1">
        <rect width="32" height="33" stroke="none"/>
        <rect x="0.5" y="0.5" width="31" height="32" fill="none"/>
      </g>
    </g>
    <g id="Line_09" data-name="Line 09" transform="translate(1175 2606.441)">
      <g id="Rectangle_191528-81" data-name="Rectangle 191528" transform="translate(-0.004 -0.445)" fill="none" stroke="lime" stroke-width="1">
        <rect width="32" height="33" stroke="none"/>
        <rect x="0.5" y="0.5" width="31" height="32" fill="none"/>
      </g>
      <g id="Rectangle_191528-82" data-name="Rectangle 191528" transform="translate(43.996 -0.445)" fill="none" stroke="lime" stroke-width="1">
        <rect width="32" height="32" stroke="none"/>
        <rect x="0.5" y="0.5" width="31" height="31" fill="none"/>
      </g>
      <g id="Rectangle_191528-83" data-name="Rectangle 191528" transform="translate(86.996 -0.445)" fill="none" stroke="lime" stroke-width="1">
        <rect width="33" height="33" stroke="none"/>
        <rect x="0.5" y="0.5" width="32" height="32" fill="none"/>
      </g>
      <g id="Rectangle_191528-84" data-name="Rectangle 191528" transform="translate(131.996 -0.445)" fill="none" stroke="lime" stroke-width="1">
        <rect width="32" height="33" stroke="none"/>
        <rect x="0.5" y="0.5" width="31" height="32" fill="none"/>
      </g>
      <g id="Rectangle_191528-85" data-name="Rectangle 191528" transform="translate(175.996 -0.445)" fill="none" stroke="lime" stroke-width="1">
        <rect width="31" height="32" stroke="none"/>
        <rect x="0.5" y="0.5" width="30" height="31" fill="none"/>
      </g>
      <g id="Rectangle_191528-86" data-name="Rectangle 191528" transform="translate(219.996 -0.445)" fill="none" stroke="lime" stroke-width="1">
        <rect width="31" height="32" stroke="none"/>
        <rect x="0.5" y="0.5" width="30" height="31" fill="none"/>
      </g>
      <g id="Rectangle_191528-87" data-name="Rectangle 191528" transform="translate(262.996 -0.445)" fill="none" stroke="lime" stroke-width="1">
        <rect width="32" height="33" stroke="none"/>
        <rect x="0.5" y="0.5" width="31" height="32" fill="none"/>
      </g>
      <g id="Rectangle_191528-88" data-name="Rectangle 191528" transform="translate(306.996 -0.445)" fill="none" stroke="lime" stroke-width="1">
        <rect width="33" height="33" stroke="none"/>
        <rect x="0.5" y="0.5" width="32" height="32" fill="none"/>
      </g>
      <g id="Rectangle_191528-89" data-name="Rectangle 191528" transform="translate(350.996 -0.445)" fill="none" stroke="lime" stroke-width="1">
        <rect width="32" height="32" stroke="none"/>
        <rect x="0.5" y="0.5" width="31" height="31" fill="none"/>
      </g>
      <g id="Rectangle_191528-90" data-name="Rectangle 191528" transform="translate(394.996 -0.445)" fill="none" stroke="lime" stroke-width="1">
        <rect width="32" height="33" stroke="none"/>
        <rect x="0.5" y="0.5" width="31" height="32" fill="none"/>
      </g>
    </g>
    <g id="Line_10" data-name="Line 10" transform="translate(1175 2649.734)">
      <g id="Rectangle_191528-91" data-name="Rectangle 191528" transform="translate(-0.004 0.262)" fill="none" stroke="lime" stroke-width="1">
        <rect width="32" height="32" stroke="none"/>
        <rect x="0.5" y="0.5" width="31" height="31" fill="none"/>
      </g>
      <g id="Rectangle_191528-92" data-name="Rectangle 191528" transform="translate(43.996 0.262)" fill="none" stroke="lime" stroke-width="1">
        <rect width="32" height="31" stroke="none"/>
        <rect x="0.5" y="0.5" width="31" height="30" fill="none"/>
      </g>
      <g id="Rectangle_191528-93" data-name="Rectangle 191528" transform="translate(86.996 0.262)" fill="none" stroke="lime" stroke-width="1">
        <rect width="33" height="32" stroke="none"/>
        <rect x="0.5" y="0.5" width="32" height="31" fill="none"/>
      </g>
      <g id="Rectangle_191528-94" data-name="Rectangle 191528" transform="translate(131.996 0.262)" fill="none" stroke="lime" stroke-width="1">
        <rect width="32" height="32" stroke="none"/>
        <rect x="0.5" y="0.5" width="31" height="31" fill="none"/>
      </g>
      <g id="Rectangle_191528-95" data-name="Rectangle 191528" transform="translate(175.996 0.262)" fill="none" stroke="lime" stroke-width="1">
        <rect width="31" height="31" stroke="none"/>
        <rect x="0.5" y="0.5" width="30" height="30" fill="none"/>
      </g>
      <g id="Rectangle_191528-96" data-name="Rectangle 191528" transform="translate(219.996 0.262)" fill="none" stroke="lime" stroke-width="1">
        <rect width="31" height="31" stroke="none"/>
        <rect x="0.5" y="0.5" width="30" height="30" fill="none"/>
      </g>
      <g id="Rectangle_191528-97" data-name="Rectangle 191528" transform="translate(262.996 0.262)" fill="none" stroke="lime" stroke-width="1">
        <rect width="32" height="32" stroke="none"/>
        <rect x="0.5" y="0.5" width="31" height="31" fill="none"/>
      </g>
      <g id="Rectangle_191528-98" data-name="Rectangle 191528" transform="translate(306.996 0.262)" fill="none" stroke="lime" stroke-width="1">
        <rect width="33" height="32" stroke="none"/>
        <rect x="0.5" y="0.5" width="32" height="31" fill="none"/>
      </g>
      <g id="Rectangle_191528-99" data-name="Rectangle 191528" transform="translate(350.996 0.262)" fill="none" stroke="lime" stroke-width="1">
        <rect width="32" height="31" stroke="none"/>
        <rect x="0.5" y="0.5" width="31" height="30" fill="none"/>
      </g>
      <g id="Rectangle_191528-100" data-name="Rectangle 191528" transform="translate(394.996 0.262)" fill="none" stroke="lime" stroke-width="1">
        <rect width="32" height="32" stroke="none"/>
        <rect x="0.5" y="0.5" width="31" height="31" fill="none"/>
      </g>
    </g>
  </g>
</svg>
