<svg xmlns="http://www.w3.org/2000/svg" width="38.335" height="38.329" viewBox="0 0 38.335 38.329">
  <g id="Frame_1" data-name="Frame 1" opacity="0.5" style="mix-blend-mode: luminosity;isolation: isolate">
    <rect id="Frame_1-2" data-name="Frame 1" width="38.335" height="38.329" fill="none"/>
    <path id="Union" d="M18.719,20.762H3.747a3.694,3.694,0,0,1-3.24-5.54L5.79,6.187a2.56,2.56,0,0,1,4.4,0,2.56,2.56,0,0,0,4.4,0l2.538-4.34a3.766,3.766,0,0,1,6.48,0l7.821,13.374a3.694,3.694,0,0,1-3.24,5.54Z" transform="translate(3.195 12.776)" fill="#d0d0d0"/>
    <path id="Union-2" data-name="Union" d="M45.648,50.63Z" transform="translate(-23.735 -17.092)" fill="#d0d0d0"/>
    <ellipse id="Ellipse_2" data-name="Ellipse 2" cx="4.792" cy="4.791" rx="4.792" ry="4.791" transform="translate(7.987 4.791)" fill="#d0d0d0"/>
  </g>
</svg>
